<?xml version="1.0" encoding="UTF-8" standalone="no"?>
<svg
   xmlns:dc="http://purl.org/dc/elements/1.1/"
   xmlns:cc="http://creativecommons.org/ns#"
   xmlns:rdf="http://www.w3.org/1999/02/22-rdf-syntax-ns#"
   xmlns:svg="http://www.w3.org/2000/svg"
   xmlns="http://www.w3.org/2000/svg"
   viewBox="0 0 410.72083 241.18184"
   height="241.18184"
   width="410.72083"
   xml:space="preserve"
   id="svg2"
   version="1.1"><metadata
     id="metadata8"><rdf:RDF><cc:Work
         rdf:about=""><dc:format>image/svg+xml</dc:format><dc:type
           rdf:resource="http://purl.org/dc/dcmitype/StillImage" /></cc:Work></rdf:RDF></metadata><defs
     id="defs6" /><g
     transform="matrix(1.3333333,0,0,-1.3333333,0,241.18184)"
     id="g10"><g
       id="g12"><g
         transform="matrix(1,0,0,-1,0,180.88638)"
         id="g14"><path
           id="path16"
           style="fill:#ff00ff;fill-opacity:1;fill-rule:nonzero;stroke:#800080;stroke-width:2.4000001;stroke-linecap:square;stroke-linejoin:miter;stroke-miterlimit:4;stroke-dasharray:none;stroke-opacity:1"
           d="m 136.039,2.52 c -1.957,0.128 -3.414,2.156 -3.258,4.531 0.157,2.379 1.867,4.199 3.824,4.07 l 19.957,-1.312 c 1.954,-0.129 3.415,-2.161 3.258,-4.536 -0.156,-2.375 -1.867,-4.195 -3.824,-4.066 z" /></g><g
         transform="matrix(1,0,0,-1,0,180.88638)"
         id="g18"><path
           id="path20"
           style="fill:#ff00ff;fill-opacity:1;fill-rule:nonzero;stroke:#800080;stroke-width:2.4000001;stroke-linecap:square;stroke-linejoin:miter;stroke-miterlimit:4;stroke-dasharray:none;stroke-opacity:1"
           d="m 89.738,50.211 c 0.664,-1.844 -0.613,-3.992 -2.855,-4.797 -2.238,-0.805 -4.594,0.035 -5.254,1.883 l -6.77,18.82 c -0.664,1.844 0.618,3.992 2.856,4.797 2.242,0.805 4.594,-0.039 5.258,-1.883 z" /></g><g
         transform="matrix(1,0,0,-1,0,180.88638)"
         id="g22"><path
           id="path24"
           style="fill:#ff00ff;fill-opacity:1;fill-rule:nonzero;stroke:#800080;stroke-width:2.4000001;stroke-linecap:square;stroke-linejoin:miter;stroke-miterlimit:4;stroke-dasharray:none;stroke-opacity:1"
           d="m 217.82,35.285 c -0.855,-1.765 -3.285,-2.355 -5.425,-1.316 -2.145,1.039 -3.188,3.308 -2.333,5.074 l 8.719,18 c 0.852,1.762 3.281,2.352 5.426,1.316 2.141,-1.039 3.184,-3.308 2.332,-5.074 z" /></g><g
         transform="matrix(1,0,0,-1,0,180.88638)"
         id="g26"><path
           id="path28"
           style="fill:#ff00ff;fill-opacity:1;fill-rule:nonzero;stroke:#800080;stroke-width:2.4000001;stroke-linecap:square;stroke-linejoin:miter;stroke-miterlimit:4;stroke-dasharray:none;stroke-opacity:1"
           d="m 37.82,103.285 c -0.855,-1.765 -3.285,-2.355 -5.425,-1.316 -2.145,1.039 -3.188,3.308 -2.333,5.074 l 8.719,18 c 0.852,1.762 3.281,2.352 5.426,1.316 2.141,-1.039 3.184,-3.308 2.332,-5.074 z" /></g><g
         transform="matrix(1,0,0,-1,0,180.88638)"
         id="g30"><path
           id="path32"
           style="fill:#ff00ff;fill-opacity:1;fill-rule:nonzero;stroke:#800080;stroke-width:2.4000001;stroke-linecap:square;stroke-linejoin:miter;stroke-miterlimit:4;stroke-dasharray:none;stroke-opacity:1"
           d="m 121.332,105.852 c 0.57,-1.875 -0.812,-3.957 -3.09,-4.653 -2.277,-0.691 -4.586,0.266 -5.156,2.145 l -5.82,19.133 c -0.571,1.875 0.812,3.957 3.089,4.648 2.278,0.695 4.586,-0.266 5.157,-2.141 z" /></g><g
         transform="matrix(1,0,0,-1,0,180.88638)"
         id="g34"><path
           id="path36"
           style="fill:#ff00ff;fill-opacity:1;fill-rule:nonzero;stroke:#800080;stroke-width:2.4000001;stroke-linecap:square;stroke-linejoin:miter;stroke-miterlimit:4;stroke-dasharray:none;stroke-opacity:1"
           d="m 195.371,99.328 c -0.598,-1.867 -2.918,-2.797 -5.187,-2.074 -2.266,0.723 -3.622,2.824 -3.028,4.691 L 193.23,121 c 0.594,1.867 2.915,2.797 5.184,2.074 2.27,-0.722 3.625,-2.824 3.027,-4.691 z" /></g><g
         transform="matrix(1,0,0,-1,0,180.88638)"
         id="g38"><path
           id="path40"
           style="fill:#ff00ff;fill-opacity:1;fill-rule:nonzero;stroke:#800080;stroke-width:2.4000001;stroke-linecap:square;stroke-linejoin:miter;stroke-miterlimit:4;stroke-dasharray:none;stroke-opacity:1"
           d="m 261.82,91.285 c -0.855,-1.765 -3.285,-2.355 -5.425,-1.316 -2.145,1.039 -3.188,3.308 -2.333,5.074 l 8.719,18 c 0.852,1.762 3.281,2.352 5.426,1.316 2.141,-1.039 3.184,-3.308 2.332,-5.074 z" /></g><g
         transform="matrix(1,0,0,-1,0,180.88638)"
         id="g42"><path
           id="path44"
           style="fill:#ff00ff;fill-opacity:1;fill-rule:nonzero;stroke:#800080;stroke-width:2.4000001;stroke-linecap:square;stroke-linejoin:miter;stroke-miterlimit:4;stroke-dasharray:none;stroke-opacity:1"
           d="m 68.004,161.227 c 1.254,-1.508 0.785,-3.965 -1.047,-5.485 -1.832,-1.523 -4.332,-1.531 -5.582,-0.023 l -12.781,15.383 c -1.25,1.507 -0.782,3.964 1.047,5.484 1.832,1.519 4.332,1.531 5.586,0.023 z" /></g><g
         transform="matrix(1,0,0,-1,0,180.88638)"
         id="g46"><path
           id="path48"
           style="fill:#ff00ff;fill-opacity:1;fill-rule:nonzero;stroke:#800080;stroke-width:2.4000001;stroke-linecap:square;stroke-linejoin:miter;stroke-miterlimit:4;stroke-dasharray:none;stroke-opacity:1"
           d="m 146.082,158.547 c 0.742,-1.817 -0.441,-4.016 -2.641,-4.918 -2.203,-0.906 -4.593,-0.168 -5.336,1.648 l -7.585,18.504 c -0.747,1.813 0.437,4.016 2.64,4.918 2.203,0.903 4.59,0.164 5.332,-1.648 z" /></g><g
         transform="matrix(1,0,0,-1,0,180.88638)"
         id="g50"><path
           id="path52"
           style="fill:#ff00ff;fill-opacity:1;fill-rule:nonzero;stroke:#800080;stroke-width:2.4000001;stroke-linecap:square;stroke-linejoin:miter;stroke-miterlimit:4;stroke-dasharray:none;stroke-opacity:1"
           d="m 215.859,147.281 c -0.707,-1.828 -3.082,-2.609 -5.3,-1.746 -2.219,0.863 -3.442,3.043 -2.731,4.871 l 7.246,18.641 c 0.711,1.824 3.086,2.609 5.305,1.746 2.219,-0.863 3.441,-3.043 2.73,-4.871 z" /></g><g
         transform="matrix(1,0,0,-1,0,180.88638)"
         id="g54"><path
           id="path56"
           style="fill:#ff00ff;fill-opacity:1;fill-rule:nonzero;stroke:#800080;stroke-width:2.4000001;stroke-linecap:square;stroke-linejoin:miter;stroke-miterlimit:4;stroke-dasharray:none;stroke-opacity:1"
           d="m 297.82,147.285 c -0.855,-1.765 -3.285,-2.355 -5.425,-1.316 -2.145,1.039 -3.188,3.308 -2.333,5.074 l 8.719,18 c 0.852,1.762 3.281,2.352 5.426,1.316 2.141,-1.039 3.184,-3.308 2.332,-5.074 z" /></g><g
         transform="matrix(1,0,0,-1,0,180.88638)"
         id="g58"><path
           id="path60"
           style="fill:#ff00ff;fill-opacity:1;fill-rule:nonzero;stroke:#800080;stroke-width:2.4000001;stroke-linecap:square;stroke-linejoin:miter;stroke-miterlimit:4;stroke-dasharray:none;stroke-opacity:1"
           d="m 9.801,155.852 c -0.153,-1.954 -2.203,-3.383 -4.578,-3.196 -2.371,0.192 -4.168,1.926 -4.012,3.879 l 1.586,19.938 c 0.156,1.957 2.203,3.386 4.578,3.199 2.371,-0.192 4.168,-1.93 4.016,-3.883 z" /></g><g
         transform="matrix(1,0,0,-1,0,180.88638)"
         id="g62"><path
           id="path64"
           style="fill:#ff00ff;fill-opacity:1;fill-rule:nonzero;stroke:#800080;stroke-width:2.4000001;stroke-linecap:square;stroke-linejoin:miter;stroke-miterlimit:4;stroke-dasharray:none;stroke-opacity:1"
           d="m 100.543,155.508 c -0.387,-1.922 -2.594,-3.098 -4.926,-2.625 -2.336,0.472 -3.91,2.41 -3.523,4.332 l 3.961,19.605 c 0.39,1.922 2.593,3.094 4.929,2.625 2.332,-0.472 3.911,-2.41 3.52,-4.332 z" /></g><g
         transform="matrix(1,0,0,-1,0,180.88638)"
         id="g66"><path
           id="path68"
           style="fill:#ff00ff;fill-opacity:1;fill-rule:nonzero;stroke:#800080;stroke-width:2.4000001;stroke-linecap:square;stroke-linejoin:miter;stroke-miterlimit:4;stroke-dasharray:none;stroke-opacity:1"
           d="m 184.645,153.312 c 0.417,-1.914 -1.129,-3.878 -3.454,-4.386 -2.324,-0.508 -4.55,0.633 -4.968,2.547 l -4.27,19.539 c -0.418,1.918 1.129,3.883 3.453,4.39 2.328,0.508 4.551,-0.632 4.969,-2.55 z" /></g><g
         transform="matrix(1,0,0,-1,0,180.88638)"
         id="g70"><path
           id="path72"
           style="fill:#ff00ff;fill-opacity:1;fill-rule:nonzero;stroke:#800080;stroke-width:2.4000001;stroke-linecap:square;stroke-linejoin:miter;stroke-miterlimit:4;stroke-dasharray:none;stroke-opacity:1"
           d="m 260.367,153.121 c 0.36,-1.926 -1.25,-3.844 -3.59,-4.277 -2.339,-0.438 -4.527,0.773 -4.886,2.699 l -3.657,19.664 c -0.359,1.926 1.246,3.84 3.586,4.277 2.34,0.434 4.528,-0.773 4.887,-2.699 z" /></g><g
         transform="matrix(1,0,0,-1,0,180.88638)"
         id="g74"><path
           id="path76"
           style="fill:none;stroke:#000000;stroke-width:1.60000002;stroke-linecap:butt;stroke-linejoin:miter;stroke-miterlimit:4;stroke-dasharray:none;stroke-opacity:1"
           d="M 126.637,11.305 93.906,39.992" /></g><g
         transform="matrix(1,0.876543,0.876543,-1,0,180.88638)"
         id="g78"><path
           id="path80"
           style="fill:#000000;fill-opacity:1;fill-rule:evenodd;stroke:#000000;stroke-width:0.45120099;stroke-linecap:butt;stroke-linejoin:round;stroke-miterlimit:4;stroke-dasharray:none;stroke-opacity:1"
           d="m 39.576,72.077 -7.889,-2.9 7.888,-2.902 c -1.259,1.713 -1.253,4.058 10e-4,5.802 z" /></g><g
         transform="matrix(1,0,0,-1,0,180.88638)"
         id="g82"><path
           id="path84"
           style="fill:none;stroke:#000000;stroke-width:1.60000002;stroke-linecap:butt;stroke-linejoin:miter;stroke-miterlimit:4;stroke-dasharray:none;stroke-opacity:1"
           d="M 72.562,70.352 39.836,99.039" /></g><g
         transform="matrix(1,0.876543,0.876543,-1,0,180.88638)"
         id="g86"><path
           id="path88"
           style="fill:#000000;fill-opacity:1;fill-rule:evenodd;stroke:#000000;stroke-width:0.45120099;stroke-linecap:butt;stroke-linejoin:round;stroke-miterlimit:4;stroke-dasharray:none;stroke-opacity:1"
           d="m -20.27,78.666 -7.887,-2.901 7.886,-2.901 c -1.259,1.713 -1.253,4.054 0.001,5.802 z" /></g><g
         transform="matrix(1,0,0,-1,0,180.88638)"
         id="g90"><path
           id="path92"
           style="fill:none;stroke:#000000;stroke-width:1.60000002;stroke-linecap:butt;stroke-linejoin:miter;stroke-miterlimit:4;stroke-dasharray:none;stroke-opacity:1"
           d="m 86.707,70.754 23.84,27.074" /></g><g
         transform="matrix(-0.880597,1,1,0.880597,0,180.88638)"
         id="g94"><path
           id="path96"
           style="fill:#000000;fill-opacity:1;fill-rule:evenodd;stroke:#000000;stroke-width:0.450295;stroke-linecap:butt;stroke-linejoin:round;stroke-miterlimit:4;stroke-dasharray:none;stroke-opacity:1"
           d="m -103.647,16.651 -7.871,-2.897 7.871,-2.892 c -1.258,1.708 -1.251,4.046 0,5.789 z" /></g><g
         transform="matrix(1,0,0,-1,0,180.88638)"
         id="g98"><path
           id="path100"
           style="fill:none;stroke:#000000;stroke-width:1.60000002;stroke-linecap:butt;stroke-linejoin:miter;stroke-miterlimit:4;stroke-dasharray:none;stroke-opacity:1"
           d="M 29.152,125.316 9.359,146.785" /></g><g
         transform="matrix(0.922115,1,1,-0.922115,0,180.88638)"
         id="g102"><path
           id="path104"
           style="fill:#000000;fill-opacity:1;fill-rule:evenodd;stroke:#000000;stroke-width:0.44109401;stroke-linecap:butt;stroke-linejoin:round;stroke-miterlimit:4;stroke-dasharray:none;stroke-opacity:1"
           d="m -68.51,81.057 -7.713,-2.837 7.711,-2.833 c -1.23,1.673 -1.224,3.964 0.002,5.67 z" /></g><g
         transform="matrix(1,0,0,-1,0,180.88638)"
         id="g106"><path
           id="path108"
           style="fill:none;stroke:#000000;stroke-width:1.60000002;stroke-linecap:butt;stroke-linejoin:miter;stroke-miterlimit:4;stroke-dasharray:none;stroke-opacity:1"
           d="m 48.895,127.324 12.046,21.77" /></g><g
         transform="matrix(-0.553266,1,1,0.553266,0,180.88638)"
         id="g110"><path
           id="path112"
           style="fill:#000000;fill-opacity:1;fill-rule:evenodd;stroke:#000000;stroke-width:0.52500403;stroke-linecap:butt;stroke-linejoin:round;stroke-miterlimit:4;stroke-dasharray:none;stroke-opacity:1"
           d="m -132.645,-13.11 -9.176,-3.374 9.176,-3.376 c -1.466,1.993 -1.457,4.717 0,6.75 z" /></g><g
         transform="matrix(1,0,0,-1,0,180.88638)"
         id="g114"><path
           id="path116"
           style="fill:none;stroke:#000000;stroke-width:1.60000002;stroke-linecap:butt;stroke-linejoin:miter;stroke-miterlimit:4;stroke-dasharray:none;stroke-opacity:1"
           d="m 165.5,8.527 40.406,22.629" /></g><g
         transform="matrix(-1,0.56,0.56,1,0,180.88638)"
         id="g118"><path
           id="path120"
           style="fill:#000000;fill-opacity:1;fill-rule:evenodd;stroke:#000000;stroke-width:0.52350402;stroke-linecap:butt;stroke-linejoin:round;stroke-miterlimit:4;stroke-dasharray:none;stroke-opacity:1"
           d="m -162.726,67.439 -9.155,-3.366 9.152,-3.363 c -1.462,1.987 -1.452,4.704 0.003,6.729 z" /></g><g
         transform="matrix(1,0,0,-1,0,180.88638)"
         id="g122"><path
           id="path124"
           style="fill:none;stroke:#000000;stroke-width:1.60000002;stroke-linecap:butt;stroke-linejoin:miter;stroke-miterlimit:4;stroke-dasharray:none;stroke-opacity:1"
           d="m 212.371,59.035 -18.992,31.52" /></g><g
         transform="matrix(0.602564,1,1,-0.602564,0,180.88638)"
         id="g126"><path
           id="path128"
           style="fill:#000000;fill-opacity:1;fill-rule:evenodd;stroke:#000000;stroke-width:0.51391298;stroke-linecap:butt;stroke-linejoin:round;stroke-miterlimit:4;stroke-dasharray:none;stroke-opacity:1"
           d="m 26.221,185.216 -8.983,-3.306 8.982,-3.303 c -1.434,1.95 -1.426,4.621 0.001,6.609 z" /></g><g
         transform="matrix(1,0,0,-1,0,180.88638)"
         id="g130"><path
           id="path132"
           style="fill:none;stroke:#000000;stroke-width:1.60000002;stroke-linecap:butt;stroke-linejoin:miter;stroke-miterlimit:4;stroke-dasharray:none;stroke-opacity:1"
           d="m 230.957,58.227 22.625,25.457" /></g><g
         transform="matrix(-0.888889,1,1,0.888889,0,180.88638)"
         id="g134"><path
           id="path136"
           style="fill:#000000;fill-opacity:1;fill-rule:evenodd;stroke:#000000;stroke-width:0.44844601;stroke-linecap:butt;stroke-linejoin:round;stroke-miterlimit:4;stroke-dasharray:none;stroke-opacity:1"
           d="m -166.41,102.998 -7.839,-2.882 7.839,-2.883 c -1.252,1.703 -1.245,4.029 0,5.765 z" /></g><g
         transform="matrix(1,0,0,-1,0,180.88638)"
         id="g138"><path
           id="path140"
           style="fill:none;stroke:#000000;stroke-width:1.60000002;stroke-linecap:butt;stroke-linejoin:miter;stroke-miterlimit:4;stroke-dasharray:none;stroke-opacity:1"
           d="m 263.281,118.434 -4.445,24.648" /></g><g
         transform="matrix(0.180328,1,1,-0.180328,0,180.88638)"
         id="g142"><path
           id="path144"
           style="fill:#000000;fill-opacity:1;fill-rule:evenodd;stroke:#000000;stroke-width:0.59047598;stroke-linecap:butt;stroke-linejoin:round;stroke-miterlimit:4;stroke-dasharray:none;stroke-opacity:1"
           d="m -85.132,279.485 -10.321,-3.796 10.319,-3.794 c -1.647,2.238 -1.637,5.307 0.002,7.59 z" /></g><g
         transform="matrix(1,0,0,-1,0,180.88638)"
         id="g146"><path
           id="path148"
           style="fill:none;stroke:#000000;stroke-width:1.60000002;stroke-linecap:butt;stroke-linejoin:miter;stroke-miterlimit:4;stroke-dasharray:none;stroke-opacity:1"
           d="m 275,115.605 14.949,25.457" /></g><g
         transform="matrix(-0.587302,1,1,0.587302,0,180.88638)"
         id="g150"><path
           id="path152"
           style="fill:#000000;fill-opacity:1;fill-rule:evenodd;stroke:#000000;stroke-width:0.517371;stroke-linecap:butt;stroke-linejoin:round;stroke-miterlimit:4;stroke-dasharray:none;stroke-opacity:1"
           d="m -224.283,157.329 -9.042,-3.326 9.043,-3.326 c -1.446,1.963 -1.437,4.648 -10e-4,6.652 z" /></g><g
         transform="matrix(1,0,0,-1,0,180.88638)"
         id="g154"><path
           id="path156"
           style="fill:none;stroke:#000000;stroke-width:1.60000002;stroke-linecap:butt;stroke-linejoin:miter;stroke-miterlimit:4;stroke-dasharray:none;stroke-opacity:1"
           d="m 203.074,125.707 5.66,15.758" /></g><g
         transform="matrix(-0.358974,1,1,0.358974,0,180.88638)"
         id="g158"><path
           id="path160"
           style="fill:#000000;fill-opacity:1;fill-rule:evenodd;stroke:#000000;stroke-width:0.56471699;stroke-linecap:butt;stroke-linejoin:round;stroke-miterlimit:4;stroke-dasharray:none;stroke-opacity:1"
           d="m -183.814,143.566 -9.873,-3.63 9.871,-3.632 c -1.575,2.145 -1.569,5.077 0.002,7.262 z" /></g><g
         transform="matrix(1,0,0,-1,0,180.88638)"
         id="g162"><path
           id="path164"
           style="fill:none;stroke:#000000;stroke-width:1.60000002;stroke-linecap:butt;stroke-linejoin:miter;stroke-miterlimit:4;stroke-dasharray:none;stroke-opacity:1"
           d="m 194.996,126.516 -7.68,19.796" /></g><g
         transform="matrix(0.387756,1,1,-0.387756,0,180.88638)"
         id="g166"><path
           id="path168"
           style="fill:#000000;fill-opacity:1;fill-rule:evenodd;stroke:#000000;stroke-width:0.55941701;stroke-linecap:butt;stroke-linejoin:round;stroke-miterlimit:4;stroke-dasharray:none;stroke-opacity:1"
           d="m -56.247,215.763 -9.777,-3.595 9.778,-3.596 c -1.564,2.122 -1.554,5.028 -10e-4,7.191 z" /></g><g
         transform="matrix(1,0,0,-1,0,180.88638)"
         id="g170"><path
           id="path172"
           style="fill:none;stroke:#000000;stroke-width:1.60000002;stroke-linecap:butt;stroke-linejoin:miter;stroke-miterlimit:4;stroke-dasharray:none;stroke-opacity:1"
           d="m 106.102,129.746 -6.868,17.781" /></g><g
         transform="matrix(0.386363,1,1,-0.386363,0,180.88638)"
         id="g174"><path
           id="path176"
           style="fill:#000000;fill-opacity:1;fill-rule:evenodd;stroke:#000000;stroke-width:0.55967897;stroke-linecap:butt;stroke-linejoin:round;stroke-miterlimit:4;stroke-dasharray:none;stroke-opacity:1"
           d="m -87.197,139.549 -9.783,-3.595 9.784,-3.601 c -1.564,2.128 -1.556,5.031 -0.001,7.196 z" /></g><g
         transform="matrix(1,0,0,-1,0,180.88638)"
         id="g178"><path
           id="path180"
           style="fill:none;stroke:#000000;stroke-width:1.60000002;stroke-linecap:butt;stroke-linejoin:miter;stroke-miterlimit:4;stroke-dasharray:none;stroke-opacity:1"
           d="m 119.031,127.324 12.93,25.051" /></g><g
         transform="matrix(-0.516129,1,1,0.516129,0,180.88638)"
         id="g182"><path
           id="path184"
           style="fill:#000000;fill-opacity:1;fill-rule:evenodd;stroke:#000000;stroke-width:0.53317201;stroke-linecap:butt;stroke-linejoin:round;stroke-miterlimit:4;stroke-dasharray:none;stroke-opacity:1"
           d="m -166.665,45.542 -9.321,-3.428 9.32,-3.428 c -1.49,2.024 -1.482,4.793 0.001,6.856 z" /></g><g
         transform="matrix(1,0,0,-1,0,180.88638)"
         id="g186"><path
           id="path188"
           style="fill:none;stroke:#000bff;stroke-width:1.03999996;stroke-linecap:butt;stroke-linejoin:miter;stroke-miterlimit:4;stroke-dasharray:8.32, 1.04;stroke-dashoffset:0;stroke-opacity:1"
           d="m 125.426,100.199 c 12.121,-21.418 43.636,-23.031 57.375,-3.234" /></g><g
         transform="matrix(0.566038,1,1,-0.566038,0,180.88638)"
         id="g190"><path
           id="path192"
           style="fill:#000bff;fill-opacity:1;fill-rule:evenodd;stroke:#000bff;stroke-width:0.33939999;stroke-linecap:butt;stroke-linejoin:round;stroke-miterlimit:4;stroke-dasharray:none;stroke-opacity:1"
           d="m -17.381,140.135 -5.935,-2.183 5.932,-2.182 c -0.946,1.289 -0.94,3.051 0.003,4.365 z" /></g><g
         transform="matrix(-0.693877,1,1,0.693877,0,180.88638)"
         id="g194"><path
           id="path196"
           style="fill:#000bff;fill-opacity:1;fill-rule:evenodd;stroke:#000bff;stroke-width:0.32041901;stroke-linecap:butt;stroke-linejoin:round;stroke-miterlimit:4;stroke-dasharray:none;stroke-opacity:1"
           d="m -146.604,80.045 -5.598,-2.06 5.601,-2.06 c -0.894,1.216 -0.891,2.878 -0.003,4.12 z" /></g><path
         id="path198"
         style="fill:#000000;fill-opacity:1;fill-rule:nonzero;stroke:none"
         d="m 130.125,106.113 v -1.25 h 1.484 V 104.3 h -1.484 v -2.375 c 0,-0.355 0.047,-0.585 0.141,-0.687 0.101,-0.094 0.3,-0.141 0.593,-0.141 h 0.75 v -0.609 h -0.75 c -0.554,0 -0.933,0.102 -1.14,0.312 -0.211,0.207 -0.313,0.582 -0.313,1.125 v 2.375 h -0.531 v 0.563 h 0.531 v 1.25 z" /><path
         id="path200"
         style="fill:#000000;fill-opacity:1;fill-rule:nonzero;stroke:none"
         d="m 135.094,104.191 c -0.086,0.051 -0.172,0.086 -0.266,0.109 -0.094,0.02 -0.199,0.032 -0.312,0.032 -0.407,0 -0.719,-0.137 -0.938,-0.407 -0.219,-0.261 -0.328,-0.636 -0.328,-1.125 v -2.312 h -0.719 v 4.375 h 0.719 v -0.672 c 0.145,0.258 0.336,0.453 0.578,0.578 0.25,0.133 0.547,0.203 0.891,0.203 0.051,0 0.101,-0.007 0.156,-0.015 0.063,0 0.129,-0.012 0.203,-0.032 z" /><path
         id="path202"
         style="fill:#000000;fill-opacity:1;fill-rule:nonzero;stroke:none"
         d="m 137.844,102.691 c -0.586,0 -0.992,-0.07 -1.219,-0.203 -0.219,-0.137 -0.328,-0.359 -0.328,-0.672 0,-0.262 0.082,-0.469 0.25,-0.625 0.164,-0.148 0.394,-0.219 0.687,-0.219 0.395,0 0.711,0.141 0.954,0.422 0.238,0.289 0.359,0.672 0.359,1.141 v 0.156 z m 1.422,0.297 v -2.5 h -0.719 v 0.672 c -0.156,-0.274 -0.359,-0.469 -0.609,-0.594 -0.243,-0.125 -0.54,-0.187 -0.891,-0.187 -0.449,0 -0.809,0.125 -1.078,0.375 -0.262,0.25 -0.391,0.586 -0.391,1.015 0,0.488 0.16,0.86 0.484,1.11 0.333,0.25 0.829,0.375 1.485,0.375 h 1 v 0.062 c 0,0.332 -0.109,0.586 -0.328,0.766 -0.211,0.187 -0.512,0.281 -0.907,0.281 -0.25,0 -0.496,-0.031 -0.734,-0.094 -0.242,-0.062 -0.469,-0.152 -0.687,-0.265 v 0.656 c 0.269,0.101 0.523,0.18 0.765,0.234 0.25,0.051 0.492,0.078 0.735,0.078 0.625,0 1.093,-0.168 1.406,-0.5 0.312,-0.324 0.469,-0.82 0.469,-1.484 z" /><path
         id="path204"
         style="fill:#000000;fill-opacity:1;fill-rule:nonzero;stroke:none"
         d="m 144.391,103.129 v -2.641 h -0.719 v 2.625 c 0,0.406 -0.086,0.711 -0.25,0.922 -0.156,0.207 -0.399,0.312 -0.719,0.312 -0.387,0 -0.695,-0.125 -0.922,-0.375 -0.219,-0.25 -0.328,-0.59 -0.328,-1.015 v -2.469 h -0.719 v 4.375 h 0.719 v -0.672 c 0.164,0.258 0.363,0.453 0.594,0.578 0.238,0.133 0.508,0.203 0.812,0.203 0.508,0 0.891,-0.156 1.141,-0.468 0.258,-0.313 0.391,-0.774 0.391,-1.375 z" /><path
         id="path206"
         style="fill:#000000;fill-opacity:1;fill-rule:nonzero;stroke:none"
         d="m 148.625,104.738 v -0.688 c -0.211,0.102 -0.422,0.18 -0.641,0.235 -0.218,0.051 -0.445,0.078 -0.672,0.078 -0.355,0 -0.624,-0.059 -0.812,-0.172 -0.18,-0.105 -0.266,-0.266 -0.266,-0.484 0,-0.168 0.063,-0.297 0.188,-0.391 0.133,-0.094 0.394,-0.184 0.781,-0.266 l 0.25,-0.062 c 0.508,-0.106 0.867,-0.258 1.078,-0.453 0.219,-0.199 0.328,-0.481 0.328,-0.844 0,-0.406 -0.164,-0.73 -0.484,-0.969 -0.324,-0.23 -0.766,-0.343 -1.328,-0.343 -0.231,0 -0.477,0.027 -0.735,0.078 -0.25,0.039 -0.515,0.101 -0.796,0.187 v 0.75 c 0.257,-0.137 0.519,-0.242 0.781,-0.312 0.258,-0.075 0.515,-0.11 0.765,-0.11 0.344,0 0.602,0.055 0.782,0.172 0.187,0.125 0.281,0.289 0.281,0.5 0,0.196 -0.07,0.348 -0.203,0.453 -0.137,0.102 -0.422,0.203 -0.86,0.297 l -0.25,0.063 c -0.449,0.093 -0.773,0.234 -0.968,0.422 -0.199,0.195 -0.297,0.461 -0.297,0.796 0,0.415 0.144,0.735 0.437,0.954 0.289,0.226 0.704,0.343 1.235,0.343 0.269,0 0.519,-0.023 0.75,-0.062 0.238,-0.043 0.457,-0.102 0.656,-0.172 z" /><path
         id="path208"
         style="fill:#000000;fill-opacity:1;fill-rule:nonzero;stroke:none"
         d="m 152.891,104.207 v 2.359 h 0.718 v -6.078 h -0.718 v 0.656 c -0.157,-0.262 -0.352,-0.453 -0.579,-0.578 -0.23,-0.125 -0.507,-0.187 -0.828,-0.187 -0.531,0 -0.964,0.207 -1.296,0.625 -0.336,0.425 -0.5,0.984 -0.5,1.671 0,0.688 0.164,1.239 0.5,1.657 0.332,0.425 0.765,0.64 1.296,0.64 0.321,0 0.598,-0.062 0.828,-0.187 0.227,-0.125 0.422,-0.32 0.579,-0.578 z m -2.453,-1.532 c 0,-0.531 0.109,-0.949 0.328,-1.25 0.218,-0.304 0.515,-0.453 0.89,-0.453 0.383,0 0.688,0.149 0.906,0.453 0.219,0.301 0.329,0.719 0.329,1.25 0,0.532 -0.11,0.942 -0.329,1.235 -0.218,0.301 -0.523,0.453 -0.906,0.453 -0.375,0 -0.672,-0.152 -0.89,-0.453 -0.219,-0.293 -0.328,-0.703 -0.328,-1.235 z" /><path
         id="path210"
         style="fill:#000000;fill-opacity:1;fill-rule:nonzero;stroke:none"
         d="m 155.016,102.222 v 2.641 h 0.718 v -2.625 c 0,-0.406 0.078,-0.715 0.235,-0.922 0.164,-0.211 0.41,-0.312 0.734,-0.312 0.383,0 0.688,0.117 0.906,0.359 0.227,0.25 0.344,0.586 0.344,1.016 v 2.484 h 0.719 v -4.375 h -0.719 v 0.672 c -0.18,-0.262 -0.383,-0.461 -0.609,-0.594 -0.231,-0.125 -0.496,-0.187 -0.797,-0.187 -0.5,0 -0.883,0.156 -1.141,0.468 -0.261,0.313 -0.39,0.77 -0.39,1.375 z m 1.796,2.75 z" /><path
         id="path212"
         style="fill:#000000;fill-opacity:1;fill-rule:nonzero;stroke:none"
         d="m 163.312,104.691 v -0.672 c -0.21,0.113 -0.417,0.196 -0.624,0.25 -0.2,0.063 -0.403,0.094 -0.61,0.094 -0.469,0 -0.836,-0.152 -1.094,-0.453 -0.25,-0.293 -0.375,-0.703 -0.375,-1.235 0,-0.531 0.125,-0.949 0.375,-1.25 0.258,-0.293 0.625,-0.437 1.094,-0.437 0.207,0 0.41,0.023 0.61,0.078 0.207,0.063 0.414,0.145 0.624,0.25 v -0.656 c -0.199,-0.094 -0.406,-0.164 -0.624,-0.203 -0.219,-0.051 -0.45,-0.078 -0.688,-0.078 -0.656,0 -1.184,0.203 -1.578,0.609 -0.387,0.414 -0.578,0.977 -0.578,1.687 0,0.707 0.195,1.266 0.594,1.672 0.394,0.414 0.929,0.625 1.609,0.625 0.219,0 0.43,-0.027 0.641,-0.078 0.218,-0.043 0.425,-0.109 0.624,-0.203 z" /><path
         id="path214"
         style="fill:#000000;fill-opacity:1;fill-rule:nonzero;stroke:none"
         d="m 165.281,106.113 v -1.25 h 1.485 V 104.3 h -1.485 v -2.375 c 0,-0.355 0.047,-0.585 0.141,-0.687 0.101,-0.094 0.301,-0.141 0.594,-0.141 h 0.75 v -0.609 h -0.75 c -0.555,0 -0.934,0.102 -1.141,0.312 -0.211,0.207 -0.313,0.582 -0.313,1.125 v 2.375 h -0.531 v 0.563 h 0.531 v 1.25 z" /><path
         id="path216"
         style="fill:#000000;fill-opacity:1;fill-rule:nonzero;stroke:none"
         d="m 167.703,104.863 h 0.719 v -4.375 h -0.719 z m 0,1.703 h 0.719 v -0.906 h -0.719 z" /><path
         id="path218"
         style="fill:#000000;fill-opacity:1;fill-rule:nonzero;stroke:none"
         d="m 171.625,104.363 c -0.387,0 -0.695,-0.152 -0.922,-0.453 -0.219,-0.305 -0.328,-0.715 -0.328,-1.235 0,-0.523 0.109,-0.933 0.328,-1.234 0.227,-0.305 0.535,-0.453 0.922,-0.453 0.383,0 0.687,0.148 0.906,0.453 0.227,0.301 0.344,0.711 0.344,1.234 0,0.52 -0.117,0.93 -0.344,1.235 -0.219,0.301 -0.523,0.453 -0.906,0.453 z m 0,0.609 c 0.625,0 1.113,-0.203 1.469,-0.609 0.351,-0.406 0.531,-0.969 0.531,-1.688 0,-0.718 -0.18,-1.281 -0.531,-1.687 -0.356,-0.406 -0.844,-0.609 -1.469,-0.609 -0.625,0 -1.121,0.203 -1.484,0.609 -0.356,0.406 -0.532,0.969 -0.532,1.687 0,0.719 0.176,1.282 0.532,1.688 0.363,0.406 0.859,0.609 1.484,0.609 z" /><path
         id="path220"
         style="fill:#000000;fill-opacity:1;fill-rule:nonzero;stroke:none"
         d="m 178.453,103.129 v -2.641 h -0.719 v 2.625 c 0,0.406 -0.086,0.711 -0.25,0.922 -0.156,0.207 -0.398,0.312 -0.718,0.312 -0.387,0 -0.696,-0.125 -0.922,-0.375 -0.219,-0.25 -0.328,-0.59 -0.328,-1.015 v -2.469 h -0.719 v 4.375 h 0.719 v -0.672 c 0.164,0.258 0.363,0.453 0.593,0.578 0.239,0.133 0.508,0.203 0.813,0.203 0.508,0 0.89,-0.156 1.14,-0.468 0.258,-0.313 0.391,-0.774 0.391,-1.375 z" /><g
         transform="matrix(1,0,0,-1,0,180.88638)"
         id="g222"><path
           id="path224"
           style="fill:none;stroke:#000bff;stroke-width:1.03999996;stroke-linecap:butt;stroke-linejoin:miter;stroke-miterlimit:4;stroke-dasharray:8.32, 1.04;stroke-dashoffset:0;stroke-opacity:1"
           d="m 126.242,105.227 c 17.778,-2.426 29.094,-3.235 57.375,-3.235" /></g><g
         transform="matrix(1,0.136364,0.136364,-1,0,180.88638)"
         id="g226"><path
           id="path228"
           style="fill:#000bff;fill-opacity:1;fill-rule:evenodd;stroke:#000bff;stroke-width:0.38642401;stroke-linecap:butt;stroke-linejoin:round;stroke-miterlimit:4;stroke-dasharray:none;stroke-opacity:1"
           d="m 115.241,122.699 -6.755,-2.484 6.757,-2.484 c -1.079,1.466 -1.076,3.474 -0.002,4.968 z" /></g><g
         transform="matrix(-1,0,0,1,0,180.88638)"
         id="g230"><path
           id="path232"
           style="fill:#000bff;fill-opacity:1;fill-rule:evenodd;stroke:#000bff;stroke-width:0.38999999;stroke-linecap:butt;stroke-linejoin:round;stroke-miterlimit:4;stroke-dasharray:none;stroke-opacity:1"
           d="m -178.18,-99.477 -6.816,-2.503 6.816,-2.508 c -1.09,1.48 -1.082,3.504 0,5.011 z" /></g><path
         id="path234"
         style="fill:#000000;fill-opacity:1;fill-rule:nonzero;stroke:none"
         d="m 127.746,73.23 v -1.25 h 1.484 v -0.562 h -1.484 v -2.375 c 0,-0.356 0.047,-0.586 0.141,-0.688 0.101,-0.094 0.301,-0.14 0.593,-0.14 h 0.75 v -0.61 h -0.75 c -0.554,0 -0.933,0.102 -1.14,0.313 -0.211,0.207 -0.313,0.582 -0.313,1.125 v 2.375 h -0.531 v 0.562 h 0.531 v 1.25 z" /><path
         id="path236"
         style="fill:#000000;fill-opacity:1;fill-rule:nonzero;stroke:none"
         d="m 132.715,71.308 c -0.086,0.051 -0.172,0.086 -0.266,0.11 -0.094,0.019 -0.199,0.031 -0.312,0.031 -0.407,0 -0.719,-0.137 -0.938,-0.406 -0.219,-0.262 -0.328,-0.637 -0.328,-1.125 v -2.313 h -0.719 v 4.375 h 0.719 v -0.672 c 0.145,0.258 0.336,0.453 0.578,0.578 0.25,0.133 0.547,0.204 0.891,0.204 0.051,0 0.101,-0.008 0.156,-0.016 0.063,0 0.129,-0.012 0.203,-0.031 z" /><path
         id="path238"
         style="fill:#000000;fill-opacity:1;fill-rule:nonzero;stroke:none"
         d="m 135.465,69.808 c -0.586,0 -0.992,-0.07 -1.219,-0.203 -0.219,-0.137 -0.328,-0.359 -0.328,-0.672 0,-0.261 0.082,-0.468 0.25,-0.625 0.164,-0.148 0.394,-0.218 0.687,-0.218 0.395,0 0.711,0.14 0.954,0.421 0.238,0.289 0.359,0.672 0.359,1.141 v 0.156 z m 1.422,0.297 v -2.5 h -0.719 v 0.672 c -0.156,-0.273 -0.359,-0.469 -0.609,-0.594 -0.243,-0.125 -0.539,-0.187 -0.891,-0.187 -0.449,0 -0.809,0.125 -1.078,0.375 -0.262,0.25 -0.391,0.586 -0.391,1.015 0,0.489 0.16,0.86 0.485,1.11 0.332,0.25 0.828,0.375 1.484,0.375 h 1 v 0.062 c 0,0.332 -0.109,0.586 -0.328,0.766 -0.211,0.187 -0.512,0.281 -0.906,0.281 -0.25,0 -0.496,-0.031 -0.735,-0.094 -0.242,-0.062 -0.469,-0.152 -0.687,-0.265 v 0.656 c 0.269,0.102 0.523,0.18 0.765,0.234 0.25,0.051 0.493,0.079 0.735,0.079 0.625,0 1.093,-0.168 1.406,-0.5 0.312,-0.325 0.469,-0.821 0.469,-1.485 z" /><path
         id="path240"
         style="fill:#000000;fill-opacity:1;fill-rule:nonzero;stroke:none"
         d="m 142.012,70.246 v -2.641 h -0.719 v 2.625 c 0,0.406 -0.086,0.711 -0.25,0.922 -0.156,0.207 -0.398,0.313 -0.719,0.313 -0.386,0 -0.695,-0.125 -0.922,-0.375 -0.218,-0.25 -0.328,-0.59 -0.328,-1.016 v -2.469 h -0.719 v 4.375 h 0.719 v -0.672 c 0.164,0.258 0.364,0.453 0.594,0.578 0.238,0.133 0.508,0.204 0.812,0.204 0.508,0 0.891,-0.157 1.141,-0.469 0.258,-0.313 0.391,-0.774 0.391,-1.375 z" /><path
         id="path242"
         style="fill:#000000;fill-opacity:1;fill-rule:nonzero;stroke:none"
         d="m 146.246,71.855 v -0.687 c -0.211,0.101 -0.422,0.179 -0.641,0.234 -0.218,0.051 -0.445,0.078 -0.671,0.078 -0.356,0 -0.625,-0.058 -0.813,-0.172 -0.18,-0.105 -0.266,-0.265 -0.266,-0.484 0,-0.168 0.063,-0.297 0.188,-0.391 0.133,-0.093 0.395,-0.183 0.781,-0.265 l 0.25,-0.063 c 0.508,-0.105 0.867,-0.258 1.078,-0.453 0.219,-0.199 0.328,-0.48 0.328,-0.844 0,-0.406 -0.164,-0.73 -0.484,-0.968 -0.324,-0.231 -0.766,-0.344 -1.328,-0.344 -0.23,0 -0.477,0.027 -0.734,0.078 -0.25,0.039 -0.516,0.101 -0.797,0.187 v 0.75 c 0.258,-0.136 0.519,-0.242 0.781,-0.312 0.258,-0.074 0.516,-0.109 0.766,-0.109 0.343,0 0.601,0.054 0.781,0.171 0.187,0.125 0.281,0.289 0.281,0.5 0,0.196 -0.07,0.348 -0.203,0.454 -0.137,0.101 -0.422,0.203 -0.859,0.296 l -0.25,0.063 c -0.45,0.094 -0.774,0.234 -0.969,0.422 -0.199,0.195 -0.297,0.461 -0.297,0.797 0,0.414 0.144,0.734 0.437,0.953 0.29,0.226 0.704,0.344 1.235,0.344 0.269,0 0.519,-0.024 0.75,-0.063 0.238,-0.043 0.457,-0.102 0.656,-0.172 z" /><path
         id="path244"
         style="fill:#000000;fill-opacity:1;fill-rule:nonzero;stroke:none"
         d="M 149.84,73.683 V 73.09 h -0.688 c -0.261,0 -0.445,-0.055 -0.547,-0.157 -0.093,-0.105 -0.14,-0.293 -0.14,-0.562 V 71.98 h 1.187 v -0.562 h -1.187 v -3.813 h -0.719 v 3.813 h -0.687 v 0.562 h 0.687 v 0.313 c 0,0.476 0.109,0.828 0.328,1.047 0.227,0.226 0.594,0.343 1.094,0.343 z" /><path
         id="path246"
         style="fill:#000000;fill-opacity:1;fill-rule:nonzero;stroke:none"
         d="m 152.137,71.48 c -0.387,0 -0.696,-0.152 -0.922,-0.453 -0.219,-0.305 -0.328,-0.715 -0.328,-1.234 0,-0.524 0.109,-0.934 0.328,-1.235 0.226,-0.304 0.535,-0.453 0.922,-0.453 0.383,0 0.687,0.149 0.906,0.453 0.227,0.301 0.344,0.711 0.344,1.235 0,0.519 -0.117,0.929 -0.344,1.234 -0.219,0.301 -0.523,0.453 -0.906,0.453 z m 0,0.61 c 0.625,0 1.113,-0.204 1.468,-0.61 0.352,-0.406 0.532,-0.969 0.532,-1.687 0,-0.719 -0.18,-1.282 -0.532,-1.688 -0.355,-0.406 -0.843,-0.609 -1.468,-0.609 -0.625,0 -1.121,0.203 -1.485,0.609 -0.355,0.406 -0.531,0.969 -0.531,1.688 0,0.718 0.176,1.281 0.531,1.687 0.364,0.406 0.86,0.61 1.485,0.61 z" /><path
         id="path248"
         style="fill:#000000;fill-opacity:1;fill-rule:nonzero;stroke:none"
         d="m 157.871,71.308 c -0.086,0.051 -0.172,0.086 -0.266,0.11 -0.093,0.019 -0.199,0.031 -0.312,0.031 -0.406,0 -0.719,-0.137 -0.938,-0.406 -0.218,-0.262 -0.328,-0.637 -0.328,-1.125 v -2.313 h -0.718 v 4.375 h 0.718 v -0.672 c 0.145,0.258 0.336,0.453 0.578,0.578 0.25,0.133 0.547,0.204 0.891,0.204 0.051,0 0.102,-0.008 0.156,-0.016 0.063,0 0.129,-0.012 0.203,-0.031 z" /><path
         id="path250"
         style="fill:#000000;fill-opacity:1;fill-rule:nonzero;stroke:none"
         d="m 161.887,71.136 c 0.187,0.321 0.406,0.563 0.656,0.719 0.25,0.156 0.539,0.235 0.875,0.235 0.457,0 0.805,-0.165 1.047,-0.485 0.25,-0.312 0.375,-0.765 0.375,-1.359 v -2.641 h -0.719 v 2.625 c 0,0.414 -0.074,0.723 -0.219,0.922 -0.148,0.207 -0.375,0.313 -0.687,0.313 -0.367,0 -0.656,-0.125 -0.875,-0.375 -0.219,-0.25 -0.328,-0.59 -0.328,-1.016 v -2.469 h -0.719 v 2.625 c 0,0.414 -0.078,0.723 -0.234,0.922 -0.149,0.207 -0.371,0.313 -0.672,0.313 -0.375,0 -0.672,-0.125 -0.891,-0.375 -0.211,-0.25 -0.312,-0.59 -0.312,-1.016 v -2.469 h -0.719 v 4.375 h 0.719 v -0.672 c 0.164,0.258 0.363,0.453 0.593,0.578 0.227,0.133 0.5,0.204 0.813,0.204 0.312,0 0.578,-0.086 0.797,-0.25 0.226,-0.157 0.394,-0.391 0.5,-0.704 z" /><path
         id="path252"
         style="fill:#000000;fill-opacity:1;fill-rule:nonzero;stroke:none"
         d="m 168.277,69.808 c -0.586,0 -0.992,-0.07 -1.218,-0.203 -0.219,-0.137 -0.329,-0.359 -0.329,-0.672 0,-0.261 0.082,-0.468 0.25,-0.625 0.165,-0.148 0.395,-0.218 0.688,-0.218 0.394,0 0.711,0.14 0.953,0.421 0.238,0.289 0.359,0.672 0.359,1.141 v 0.156 z m 1.422,0.297 v -2.5 h -0.719 v 0.672 c -0.156,-0.273 -0.359,-0.469 -0.609,-0.594 -0.242,-0.125 -0.539,-0.187 -0.891,-0.187 -0.449,0 -0.808,0.125 -1.078,0.375 -0.261,0.25 -0.39,0.586 -0.39,1.015 0,0.489 0.16,0.86 0.484,1.11 0.332,0.25 0.828,0.375 1.484,0.375 h 1 v 0.062 c 0,0.332 -0.109,0.586 -0.328,0.766 -0.211,0.187 -0.511,0.281 -0.906,0.281 -0.25,0 -0.496,-0.031 -0.734,-0.094 -0.242,-0.062 -0.469,-0.152 -0.688,-0.265 v 0.656 c 0.27,0.102 0.524,0.18 0.766,0.234 0.25,0.051 0.492,0.079 0.734,0.079 0.625,0 1.094,-0.168 1.406,-0.5 0.313,-0.325 0.469,-0.821 0.469,-1.485 z" /><path
         id="path254"
         style="fill:#000000;fill-opacity:1;fill-rule:nonzero;stroke:none"
         d="m 171.902,73.23 v -1.25 h 1.485 v -0.562 h -1.485 v -2.375 c 0,-0.356 0.047,-0.586 0.141,-0.688 0.102,-0.094 0.301,-0.14 0.594,-0.14 h 0.75 v -0.61 h -0.75 c -0.555,0 -0.934,0.102 -1.141,0.313 -0.211,0.207 -0.312,0.582 -0.312,1.125 v 2.375 h -0.532 v 0.562 h 0.532 v 1.25 z" /><path
         id="path256"
         style="fill:#000000;fill-opacity:1;fill-rule:nonzero;stroke:none"
         d="m 174.324,71.98 h 0.719 v -4.375 h -0.719 z m 0,1.703 h 0.719 v -0.906 h -0.719 z" /><path
         id="path258"
         style="fill:#000000;fill-opacity:1;fill-rule:nonzero;stroke:none"
         d="m 178.246,71.48 c -0.387,0 -0.695,-0.152 -0.922,-0.453 -0.219,-0.305 -0.328,-0.715 -0.328,-1.234 0,-0.524 0.109,-0.934 0.328,-1.235 0.227,-0.304 0.535,-0.453 0.922,-0.453 0.383,0 0.688,0.149 0.906,0.453 0.227,0.301 0.344,0.711 0.344,1.235 0,0.519 -0.117,0.929 -0.344,1.234 -0.218,0.301 -0.523,0.453 -0.906,0.453 z m 0,0.61 c 0.625,0 1.113,-0.204 1.469,-0.61 0.351,-0.406 0.531,-0.969 0.531,-1.687 0,-0.719 -0.18,-1.282 -0.531,-1.688 -0.356,-0.406 -0.844,-0.609 -1.469,-0.609 -0.625,0 -1.121,0.203 -1.484,0.609 -0.356,0.406 -0.532,0.969 -0.532,1.688 0,0.718 0.176,1.281 0.532,1.687 0.363,0.406 0.859,0.61 1.484,0.61 z" /><path
         id="path260"
         style="fill:#000000;fill-opacity:1;fill-rule:nonzero;stroke:none"
         d="m 185.074,70.246 v -2.641 h -0.719 v 2.625 c 0,0.406 -0.085,0.711 -0.25,0.922 -0.156,0.207 -0.398,0.313 -0.718,0.313 -0.387,0 -0.696,-0.125 -0.922,-0.375 -0.219,-0.25 -0.328,-0.59 -0.328,-1.016 v -2.469 h -0.719 v 4.375 h 0.719 v -0.672 c 0.164,0.258 0.363,0.453 0.593,0.578 0.239,0.133 0.508,0.204 0.813,0.204 0.508,0 0.891,-0.157 1.141,-0.469 0.257,-0.313 0.39,-0.774 0.39,-1.375 z" /></g></g></svg>