<?xml version="1.0" encoding="UTF-8" standalone="no"?>
<svg
   xmlns:dc="http://purl.org/dc/elements/1.1/"
   xmlns:cc="http://creativecommons.org/ns#"
   xmlns:rdf="http://www.w3.org/1999/02/22-rdf-syntax-ns#"
   xmlns:svg="http://www.w3.org/2000/svg"
   xmlns="http://www.w3.org/2000/svg"
   viewBox="0 0 410.72083 241.18184"
   height="241.18184"
   width="410.72083"
   xml:space="preserve"
   id="svg2"
   version="1.1"><metadata
     id="metadata8"><rdf:RDF><cc:Work
         rdf:about=""><dc:format>image/svg+xml</dc:format><dc:type
           rdf:resource="http://purl.org/dc/dcmitype/StillImage" /></cc:Work></rdf:RDF></metadata><defs
     id="defs6" /><g
     transform="matrix(1.3333333,0,0,-1.3333333,0,241.18184)"
     id="g10"><g
       id="g12"><g
         transform="matrix(1,0,0,-1,0,180.88638)"
         id="g14"><path
           id="path16"
           style="fill:#ff00ff;fill-opacity:1;fill-rule:nonzero;stroke:#800080;stroke-width:2.4000001;stroke-linecap:square;stroke-linejoin:miter;stroke-miterlimit:4;stroke-dasharray:none;stroke-opacity:1"
           d="m 136.039,2.52 c -1.957,0.128 -3.414,2.156 -3.258,4.531 0.157,2.379 1.867,4.199 3.824,4.07 l 19.957,-1.312 c 1.954,-0.129 3.415,-2.161 3.258,-4.536 -0.156,-2.375 -1.867,-4.195 -3.824,-4.066 z" /></g><g
         transform="matrix(1,0,0,-1,0,180.88638)"
         id="g18"><path
           id="path20"
           style="fill:#ff00ff;fill-opacity:1;fill-rule:nonzero;stroke:#800080;stroke-width:2.4000001;stroke-linecap:square;stroke-linejoin:miter;stroke-miterlimit:4;stroke-dasharray:none;stroke-opacity:1"
           d="m 89.738,50.211 c 0.664,-1.844 -0.613,-3.992 -2.855,-4.797 -2.238,-0.805 -4.594,0.035 -5.254,1.883 l -6.77,18.82 c -0.664,1.844 0.618,3.992 2.856,4.797 2.242,0.805 4.594,-0.039 5.258,-1.883 z" /></g><g
         transform="matrix(1,0,0,-1,0,180.88638)"
         id="g22"><path
           id="path24"
           style="fill:#ff00ff;fill-opacity:1;fill-rule:nonzero;stroke:#800080;stroke-width:2.4000001;stroke-linecap:square;stroke-linejoin:miter;stroke-miterlimit:4;stroke-dasharray:none;stroke-opacity:1"
           d="m 217.82,35.285 c -0.855,-1.765 -3.285,-2.355 -5.425,-1.316 -2.145,1.039 -3.188,3.308 -2.333,5.074 l 8.719,18 c 0.852,1.762 3.281,2.352 5.426,1.316 2.141,-1.039 3.184,-3.308 2.332,-5.074 z" /></g><g
         transform="matrix(1,0,0,-1,0,180.88638)"
         id="g26"><path
           id="path28"
           style="fill:#ff00ff;fill-opacity:1;fill-rule:nonzero;stroke:#800080;stroke-width:2.4000001;stroke-linecap:square;stroke-linejoin:miter;stroke-miterlimit:4;stroke-dasharray:none;stroke-opacity:1"
           d="m 37.82,103.285 c -0.855,-1.765 -3.285,-2.355 -5.425,-1.316 -2.145,1.039 -3.188,3.308 -2.333,5.074 l 8.719,18 c 0.852,1.762 3.281,2.352 5.426,1.316 2.141,-1.039 3.184,-3.308 2.332,-5.074 z" /></g><g
         transform="matrix(1,0,0,-1,0,180.88638)"
         id="g30"><path
           id="path32"
           style="fill:#ff00ff;fill-opacity:1;fill-rule:nonzero;stroke:#800080;stroke-width:2.4000001;stroke-linecap:square;stroke-linejoin:miter;stroke-miterlimit:4;stroke-dasharray:none;stroke-opacity:1"
           d="m 121.332,105.852 c 0.57,-1.875 -0.812,-3.957 -3.09,-4.653 -2.277,-0.691 -4.586,0.266 -5.156,2.145 l -5.82,19.133 c -0.571,1.875 0.812,3.957 3.089,4.648 2.278,0.695 4.586,-0.266 5.157,-2.141 z" /></g><g
         transform="matrix(1,0,0,-1,0,180.88638)"
         id="g34"><path
           id="path36"
           style="fill:#ff00ff;fill-opacity:1;fill-rule:nonzero;stroke:#800080;stroke-width:2.4000001;stroke-linecap:square;stroke-linejoin:miter;stroke-miterlimit:4;stroke-dasharray:none;stroke-opacity:1"
           d="m 195.371,99.328 c -0.598,-1.867 -2.918,-2.797 -5.187,-2.074 -2.266,0.723 -3.622,2.824 -3.028,4.691 L 193.23,121 c 0.594,1.867 2.915,2.797 5.184,2.074 2.27,-0.722 3.625,-2.824 3.027,-4.691 z" /></g><g
         transform="matrix(1,0,0,-1,0,180.88638)"
         id="g38"><path
           id="path40"
           style="fill:#ff00ff;fill-opacity:1;fill-rule:nonzero;stroke:#800080;stroke-width:2.4000001;stroke-linecap:square;stroke-linejoin:miter;stroke-miterlimit:4;stroke-dasharray:none;stroke-opacity:1"
           d="m 261.82,91.285 c -0.855,-1.765 -3.285,-2.355 -5.425,-1.316 -2.145,1.039 -3.188,3.308 -2.333,5.074 l 8.719,18 c 0.852,1.762 3.281,2.352 5.426,1.316 2.141,-1.039 3.184,-3.308 2.332,-5.074 z" /></g><g
         transform="matrix(1,0,0,-1,0,180.88638)"
         id="g42"><path
           id="path44"
           style="fill:#ff00ff;fill-opacity:1;fill-rule:nonzero;stroke:#800080;stroke-width:2.4000001;stroke-linecap:square;stroke-linejoin:miter;stroke-miterlimit:4;stroke-dasharray:none;stroke-opacity:1"
           d="m 68.004,161.227 c 1.254,-1.508 0.785,-3.965 -1.047,-5.485 -1.832,-1.523 -4.332,-1.531 -5.582,-0.023 l -12.781,15.383 c -1.25,1.507 -0.782,3.964 1.047,5.484 1.832,1.519 4.332,1.531 5.586,0.023 z" /></g><g
         transform="matrix(1,0,0,-1,0,180.88638)"
         id="g46"><path
           id="path48"
           style="fill:#ff00ff;fill-opacity:1;fill-rule:nonzero;stroke:#800080;stroke-width:2.4000001;stroke-linecap:square;stroke-linejoin:miter;stroke-miterlimit:4;stroke-dasharray:none;stroke-opacity:1"
           d="m 146.082,158.547 c 0.742,-1.817 -0.441,-4.016 -2.641,-4.918 -2.203,-0.906 -4.593,-0.168 -5.336,1.648 l -7.585,18.504 c -0.747,1.813 0.437,4.016 2.64,4.918 2.203,0.903 4.59,0.164 5.332,-1.648 z" /></g><g
         transform="matrix(1,0,0,-1,0,180.88638)"
         id="g50"><path
           id="path52"
           style="fill:#ff00ff;fill-opacity:1;fill-rule:nonzero;stroke:#800080;stroke-width:2.4000001;stroke-linecap:square;stroke-linejoin:miter;stroke-miterlimit:4;stroke-dasharray:none;stroke-opacity:1"
           d="m 215.859,147.281 c -0.707,-1.828 -3.082,-2.609 -5.3,-1.746 -2.219,0.863 -3.442,3.043 -2.731,4.871 l 7.246,18.641 c 0.711,1.824 3.086,2.609 5.305,1.746 2.219,-0.863 3.441,-3.043 2.73,-4.871 z" /></g><g
         transform="matrix(1,0,0,-1,0,180.88638)"
         id="g54"><path
           id="path56"
           style="fill:#ff00ff;fill-opacity:1;fill-rule:nonzero;stroke:#800080;stroke-width:2.4000001;stroke-linecap:square;stroke-linejoin:miter;stroke-miterlimit:4;stroke-dasharray:none;stroke-opacity:1"
           d="m 297.82,147.285 c -0.855,-1.765 -3.285,-2.355 -5.425,-1.316 -2.145,1.039 -3.188,3.308 -2.333,5.074 l 8.719,18 c 0.852,1.762 3.281,2.352 5.426,1.316 2.141,-1.039 3.184,-3.308 2.332,-5.074 z" /></g><g
         transform="matrix(1,0,0,-1,0,180.88638)"
         id="g58"><path
           id="path60"
           style="fill:#ff00ff;fill-opacity:1;fill-rule:nonzero;stroke:#800080;stroke-width:2.4000001;stroke-linecap:square;stroke-linejoin:miter;stroke-miterlimit:4;stroke-dasharray:none;stroke-opacity:1"
           d="m 9.801,155.852 c -0.153,-1.954 -2.203,-3.383 -4.578,-3.196 -2.371,0.192 -4.168,1.926 -4.012,3.879 l 1.586,19.938 c 0.156,1.957 2.203,3.386 4.578,3.199 2.371,-0.192 4.168,-1.93 4.016,-3.883 z" /></g><g
         transform="matrix(1,0,0,-1,0,180.88638)"
         id="g62"><path
           id="path64"
           style="fill:#ff00ff;fill-opacity:1;fill-rule:nonzero;stroke:#800080;stroke-width:2.4000001;stroke-linecap:square;stroke-linejoin:miter;stroke-miterlimit:4;stroke-dasharray:none;stroke-opacity:1"
           d="m 100.543,155.508 c -0.387,-1.922 -2.594,-3.098 -4.926,-2.625 -2.336,0.472 -3.91,2.41 -3.523,4.332 l 3.961,19.605 c 0.39,1.922 2.593,3.094 4.929,2.625 2.332,-0.472 3.911,-2.41 3.52,-4.332 z" /></g><g
         transform="matrix(1,0,0,-1,0,180.88638)"
         id="g66"><path
           id="path68"
           style="fill:#ff00ff;fill-opacity:1;fill-rule:nonzero;stroke:#800080;stroke-width:2.4000001;stroke-linecap:square;stroke-linejoin:miter;stroke-miterlimit:4;stroke-dasharray:none;stroke-opacity:1"
           d="m 184.645,153.312 c 0.417,-1.914 -1.129,-3.878 -3.454,-4.386 -2.324,-0.508 -4.55,0.633 -4.968,2.547 l -4.27,19.539 c -0.418,1.918 1.129,3.883 3.453,4.39 2.328,0.508 4.551,-0.632 4.969,-2.55 z" /></g><g
         transform="matrix(1,0,0,-1,0,180.88638)"
         id="g70"><path
           id="path72"
           style="fill:#ff00ff;fill-opacity:1;fill-rule:nonzero;stroke:#800080;stroke-width:2.4000001;stroke-linecap:square;stroke-linejoin:miter;stroke-miterlimit:4;stroke-dasharray:none;stroke-opacity:1"
           d="m 260.367,153.121 c 0.36,-1.926 -1.25,-3.844 -3.59,-4.277 -2.339,-0.438 -4.527,0.773 -4.886,2.699 l -3.657,19.664 c -0.359,1.926 1.246,3.84 3.586,4.277 2.34,0.434 4.528,-0.773 4.887,-2.699 z" /></g><g
         transform="matrix(1,0,0,-1,0,180.88638)"
         id="g74"><path
           id="path76"
           style="fill:none;stroke:#000000;stroke-width:1.60000002;stroke-linecap:butt;stroke-linejoin:miter;stroke-miterlimit:4;stroke-dasharray:none;stroke-opacity:1"
           d="M 126.637,11.305 93.906,39.992" /></g><g
         transform="matrix(1,0.876543,0.876543,-1,0,180.88638)"
         id="g78"><path
           id="path80"
           style="fill:#000000;fill-opacity:1;fill-rule:evenodd;stroke:#000000;stroke-width:0.45120099;stroke-linecap:butt;stroke-linejoin:round;stroke-miterlimit:4;stroke-dasharray:none;stroke-opacity:1"
           d="m 39.576,72.077 -7.889,-2.9 7.888,-2.902 c -1.259,1.713 -1.253,4.058 10e-4,5.802 z" /></g><g
         transform="matrix(1,0,0,-1,0,180.88638)"
         id="g82"><path
           id="path84"
           style="fill:none;stroke:#000000;stroke-width:1.60000002;stroke-linecap:butt;stroke-linejoin:miter;stroke-miterlimit:4;stroke-dasharray:none;stroke-opacity:1"
           d="M 72.562,70.352 39.836,99.039" /></g><g
         transform="matrix(1,0.876543,0.876543,-1,0,180.88638)"
         id="g86"><path
           id="path88"
           style="fill:#000000;fill-opacity:1;fill-rule:evenodd;stroke:#000000;stroke-width:0.45120099;stroke-linecap:butt;stroke-linejoin:round;stroke-miterlimit:4;stroke-dasharray:none;stroke-opacity:1"
           d="m -20.27,78.666 -7.887,-2.901 7.886,-2.901 c -1.259,1.713 -1.253,4.054 0.001,5.802 z" /></g><g
         transform="matrix(1,0,0,-1,0,180.88638)"
         id="g90"><path
           id="path92"
           style="fill:none;stroke:#000000;stroke-width:1.60000002;stroke-linecap:butt;stroke-linejoin:miter;stroke-miterlimit:4;stroke-dasharray:none;stroke-opacity:1"
           d="m 86.707,70.754 23.84,27.074" /></g><g
         transform="matrix(-0.880597,1,1,0.880597,0,180.88638)"
         id="g94"><path
           id="path96"
           style="fill:#000000;fill-opacity:1;fill-rule:evenodd;stroke:#000000;stroke-width:0.450295;stroke-linecap:butt;stroke-linejoin:round;stroke-miterlimit:4;stroke-dasharray:none;stroke-opacity:1"
           d="m -103.647,16.651 -7.871,-2.897 7.871,-2.892 c -1.258,1.708 -1.251,4.046 0,5.789 z" /></g><g
         transform="matrix(1,0,0,-1,0,180.88638)"
         id="g98"><path
           id="path100"
           style="fill:none;stroke:#000000;stroke-width:1.60000002;stroke-linecap:butt;stroke-linejoin:miter;stroke-miterlimit:4;stroke-dasharray:none;stroke-opacity:1"
           d="M 29.152,125.316 9.359,146.785" /></g><g
         transform="matrix(0.922115,1,1,-0.922115,0,180.88638)"
         id="g102"><path
           id="path104"
           style="fill:#000000;fill-opacity:1;fill-rule:evenodd;stroke:#000000;stroke-width:0.44109401;stroke-linecap:butt;stroke-linejoin:round;stroke-miterlimit:4;stroke-dasharray:none;stroke-opacity:1"
           d="m -68.51,81.057 -7.713,-2.837 7.711,-2.833 c -1.23,1.673 -1.224,3.964 0.002,5.67 z" /></g><g
         transform="matrix(1,0,0,-1,0,180.88638)"
         id="g106"><path
           id="path108"
           style="fill:none;stroke:#000000;stroke-width:1.60000002;stroke-linecap:butt;stroke-linejoin:miter;stroke-miterlimit:4;stroke-dasharray:none;stroke-opacity:1"
           d="m 48.895,127.324 12.046,21.77" /></g><g
         transform="matrix(-0.553266,1,1,0.553266,0,180.88638)"
         id="g110"><path
           id="path112"
           style="fill:#000000;fill-opacity:1;fill-rule:evenodd;stroke:#000000;stroke-width:0.52500403;stroke-linecap:butt;stroke-linejoin:round;stroke-miterlimit:4;stroke-dasharray:none;stroke-opacity:1"
           d="m -132.645,-13.11 -9.176,-3.374 9.176,-3.376 c -1.466,1.993 -1.457,4.717 0,6.75 z" /></g><g
         transform="matrix(1,0,0,-1,0,180.88638)"
         id="g114"><path
           id="path116"
           style="fill:none;stroke:#000000;stroke-width:1.60000002;stroke-linecap:butt;stroke-linejoin:miter;stroke-miterlimit:4;stroke-dasharray:none;stroke-opacity:1"
           d="m 165.5,8.527 40.406,22.629" /></g><g
         transform="matrix(-1,0.56,0.56,1,0,180.88638)"
         id="g118"><path
           id="path120"
           style="fill:#000000;fill-opacity:1;fill-rule:evenodd;stroke:#000000;stroke-width:0.52350402;stroke-linecap:butt;stroke-linejoin:round;stroke-miterlimit:4;stroke-dasharray:none;stroke-opacity:1"
           d="m -162.726,67.439 -9.155,-3.366 9.152,-3.363 c -1.462,1.987 -1.452,4.704 0.003,6.729 z" /></g><g
         transform="matrix(1,0,0,-1,0,180.88638)"
         id="g122"><path
           id="path124"
           style="fill:none;stroke:#000000;stroke-width:1.60000002;stroke-linecap:butt;stroke-linejoin:miter;stroke-miterlimit:4;stroke-dasharray:none;stroke-opacity:1"
           d="m 212.371,59.035 -18.992,31.52" /></g><g
         transform="matrix(0.602564,1,1,-0.602564,0,180.88638)"
         id="g126"><path
           id="path128"
           style="fill:#000000;fill-opacity:1;fill-rule:evenodd;stroke:#000000;stroke-width:0.51391298;stroke-linecap:butt;stroke-linejoin:round;stroke-miterlimit:4;stroke-dasharray:none;stroke-opacity:1"
           d="m 26.221,185.216 -8.983,-3.306 8.982,-3.303 c -1.434,1.95 -1.426,4.621 0.001,6.609 z" /></g><g
         transform="matrix(1,0,0,-1,0,180.88638)"
         id="g130"><path
           id="path132"
           style="fill:none;stroke:#000000;stroke-width:1.60000002;stroke-linecap:butt;stroke-linejoin:miter;stroke-miterlimit:4;stroke-dasharray:none;stroke-opacity:1"
           d="m 230.957,58.227 22.625,25.457" /></g><g
         transform="matrix(-0.888889,1,1,0.888889,0,180.88638)"
         id="g134"><path
           id="path136"
           style="fill:#000000;fill-opacity:1;fill-rule:evenodd;stroke:#000000;stroke-width:0.44844601;stroke-linecap:butt;stroke-linejoin:round;stroke-miterlimit:4;stroke-dasharray:none;stroke-opacity:1"
           d="m -166.41,102.998 -7.839,-2.882 7.839,-2.883 c -1.252,1.703 -1.245,4.029 0,5.765 z" /></g><g
         transform="matrix(1,0,0,-1,0,180.88638)"
         id="g138"><path
           id="path140"
           style="fill:none;stroke:#000000;stroke-width:1.60000002;stroke-linecap:butt;stroke-linejoin:miter;stroke-miterlimit:4;stroke-dasharray:none;stroke-opacity:1"
           d="m 263.281,118.434 -4.445,24.648" /></g><g
         transform="matrix(0.180328,1,1,-0.180328,0,180.88638)"
         id="g142"><path
           id="path144"
           style="fill:#000000;fill-opacity:1;fill-rule:evenodd;stroke:#000000;stroke-width:0.59047598;stroke-linecap:butt;stroke-linejoin:round;stroke-miterlimit:4;stroke-dasharray:none;stroke-opacity:1"
           d="m -85.132,279.485 -10.321,-3.796 10.319,-3.794 c -1.647,2.238 -1.637,5.307 0.002,7.59 z" /></g><g
         transform="matrix(1,0,0,-1,0,180.88638)"
         id="g146"><path
           id="path148"
           style="fill:none;stroke:#000000;stroke-width:1.60000002;stroke-linecap:butt;stroke-linejoin:miter;stroke-miterlimit:4;stroke-dasharray:none;stroke-opacity:1"
           d="m 275,115.605 14.949,25.457" /></g><g
         transform="matrix(-0.587302,1,1,0.587302,0,180.88638)"
         id="g150"><path
           id="path152"
           style="fill:#000000;fill-opacity:1;fill-rule:evenodd;stroke:#000000;stroke-width:0.517371;stroke-linecap:butt;stroke-linejoin:round;stroke-miterlimit:4;stroke-dasharray:none;stroke-opacity:1"
           d="m -224.283,157.329 -9.042,-3.326 9.043,-3.326 c -1.446,1.963 -1.437,4.648 -10e-4,6.652 z" /></g><g
         transform="matrix(1,0,0,-1,0,180.88638)"
         id="g154"><path
           id="path156"
           style="fill:none;stroke:#000000;stroke-width:1.60000002;stroke-linecap:butt;stroke-linejoin:miter;stroke-miterlimit:4;stroke-dasharray:none;stroke-opacity:1"
           d="m 203.074,125.707 5.66,15.758" /></g><g
         transform="matrix(-0.358974,1,1,0.358974,0,180.88638)"
         id="g158"><path
           id="path160"
           style="fill:#000000;fill-opacity:1;fill-rule:evenodd;stroke:#000000;stroke-width:0.56471699;stroke-linecap:butt;stroke-linejoin:round;stroke-miterlimit:4;stroke-dasharray:none;stroke-opacity:1"
           d="m -183.814,143.566 -9.873,-3.63 9.871,-3.632 c -1.575,2.145 -1.569,5.077 0.002,7.262 z" /></g><g
         transform="matrix(1,0,0,-1,0,180.88638)"
         id="g162"><path
           id="path164"
           style="fill:none;stroke:#000000;stroke-width:1.60000002;stroke-linecap:butt;stroke-linejoin:miter;stroke-miterlimit:4;stroke-dasharray:none;stroke-opacity:1"
           d="m 194.996,126.516 -7.68,19.796" /></g><g
         transform="matrix(0.387756,1,1,-0.387756,0,180.88638)"
         id="g166"><path
           id="path168"
           style="fill:#000000;fill-opacity:1;fill-rule:evenodd;stroke:#000000;stroke-width:0.55941701;stroke-linecap:butt;stroke-linejoin:round;stroke-miterlimit:4;stroke-dasharray:none;stroke-opacity:1"
           d="m -56.247,215.763 -9.777,-3.595 9.778,-3.596 c -1.564,2.122 -1.554,5.028 -10e-4,7.191 z" /></g><g
         transform="matrix(1,0,0,-1,0,180.88638)"
         id="g170"><path
           id="path172"
           style="fill:none;stroke:#000000;stroke-width:1.60000002;stroke-linecap:butt;stroke-linejoin:miter;stroke-miterlimit:4;stroke-dasharray:none;stroke-opacity:1"
           d="m 106.102,129.746 -6.868,17.781" /></g><g
         transform="matrix(0.386363,1,1,-0.386363,0,180.88638)"
         id="g174"><path
           id="path176"
           style="fill:#000000;fill-opacity:1;fill-rule:evenodd;stroke:#000000;stroke-width:0.55967897;stroke-linecap:butt;stroke-linejoin:round;stroke-miterlimit:4;stroke-dasharray:none;stroke-opacity:1"
           d="m -87.197,139.549 -9.783,-3.595 9.784,-3.601 c -1.564,2.128 -1.556,5.031 -0.001,7.196 z" /></g><g
         transform="matrix(1,0,0,-1,0,180.88638)"
         id="g178"><path
           id="path180"
           style="fill:none;stroke:#000000;stroke-width:1.60000002;stroke-linecap:butt;stroke-linejoin:miter;stroke-miterlimit:4;stroke-dasharray:none;stroke-opacity:1"
           d="m 119.031,127.324 12.93,25.051" /></g><g
         transform="matrix(-0.516129,1,1,0.516129,0,180.88638)"
         id="g182"><path
           id="path184"
           style="fill:#000000;fill-opacity:1;fill-rule:evenodd;stroke:#000000;stroke-width:0.53317201;stroke-linecap:butt;stroke-linejoin:round;stroke-miterlimit:4;stroke-dasharray:none;stroke-opacity:1"
           d="m -166.665,45.542 -9.321,-3.428 9.32,-3.428 c -1.49,2.024 -1.482,4.793 0.001,6.856 z" /></g></g></g></svg>