<?xml version="1.0" encoding="UTF-8" standalone="no"?>
<svg
   xmlns:dc="http://purl.org/dc/elements/1.1/"
   xmlns:cc="http://creativecommons.org/ns#"
   xmlns:rdf="http://www.w3.org/1999/02/22-rdf-syntax-ns#"
   xmlns:svg="http://www.w3.org/2000/svg"
   xmlns="http://www.w3.org/2000/svg"
   viewBox="0 0 410.72083 241.18184"
   height="241.18184"
   width="410.72083"
   xml:space="preserve"
   id="svg2"
   version="1.1"><metadata
     id="metadata8"><rdf:RDF><cc:Work
         rdf:about=""><dc:format>image/svg+xml</dc:format><dc:type
           rdf:resource="http://purl.org/dc/dcmitype/StillImage" /></cc:Work></rdf:RDF></metadata><defs
     id="defs6" /><g
     transform="matrix(1.3333333,0,0,-1.3333333,0,241.18184)"
     id="g10"><g
       id="g12"><g
         transform="matrix(1,0,0,-1,0,180.88638)"
         id="g14"><path
           id="path16"
           style="fill:#ff00ff;fill-opacity:1;fill-rule:nonzero;stroke:#800080;stroke-width:2.4000001;stroke-linecap:square;stroke-linejoin:miter;stroke-miterlimit:4;stroke-dasharray:none;stroke-opacity:1"
           d="m 136.039,2.52 c -1.957,0.128 -3.414,2.156 -3.258,4.531 0.157,2.379 1.867,4.199 3.824,4.07 l 19.957,-1.312 c 1.954,-0.129 3.415,-2.161 3.258,-4.536 -0.156,-2.375 -1.867,-4.195 -3.824,-4.066 z" /></g><g
         transform="matrix(1,0,0,-1,0,180.88638)"
         id="g18"><path
           id="path20"
           style="fill:#ff00ff;fill-opacity:1;fill-rule:nonzero;stroke:#800080;stroke-width:2.4000001;stroke-linecap:square;stroke-linejoin:miter;stroke-miterlimit:4;stroke-dasharray:none;stroke-opacity:1"
           d="m 89.738,50.211 c 0.664,-1.844 -0.613,-3.992 -2.855,-4.797 -2.238,-0.805 -4.594,0.035 -5.254,1.883 l -6.77,18.82 c -0.664,1.844 0.618,3.992 2.856,4.797 2.242,0.805 4.594,-0.039 5.258,-1.883 z" /></g><g
         transform="matrix(1,0,0,-1,0,180.88638)"
         id="g22"><path
           id="path24"
           style="fill:#ff00ff;fill-opacity:1;fill-rule:nonzero;stroke:#800080;stroke-width:2.4000001;stroke-linecap:square;stroke-linejoin:miter;stroke-miterlimit:4;stroke-dasharray:none;stroke-opacity:1"
           d="m 217.82,35.285 c -0.855,-1.765 -3.285,-2.355 -5.425,-1.316 -2.145,1.039 -3.188,3.308 -2.333,5.074 l 8.719,18 c 0.852,1.762 3.281,2.352 5.426,1.316 2.141,-1.039 3.184,-3.308 2.332,-5.074 z" /></g><g
         transform="matrix(1,0,0,-1,0,180.88638)"
         id="g26"><path
           id="path28"
           style="fill:none;stroke:#000000;stroke-width:1.60000002;stroke-linecap:butt;stroke-linejoin:miter;stroke-miterlimit:4;stroke-dasharray:none;stroke-opacity:1"
           d="M 126.637,11.305 93.906,39.992" /></g><g
         transform="matrix(1,0.876543,0.876543,-1,0,180.88638)"
         id="g30"><path
           id="path32"
           style="fill:#000000;fill-opacity:1;fill-rule:evenodd;stroke:#000000;stroke-width:0.45120099;stroke-linecap:butt;stroke-linejoin:round;stroke-miterlimit:4;stroke-dasharray:none;stroke-opacity:1"
           d="m 39.576,72.077 -7.889,-2.9 7.888,-2.902 c -1.259,1.713 -1.253,4.058 10e-4,5.802 z" /></g><g
         transform="matrix(1,0,0,-1,0,180.88638)"
         id="g34"><path
           id="path36"
           style="fill:none;stroke:#000000;stroke-width:1.60000002;stroke-linecap:butt;stroke-linejoin:miter;stroke-miterlimit:4;stroke-dasharray:none;stroke-opacity:1"
           d="m 165.5,8.527 40.406,22.629" /></g><g
         transform="matrix(-1,0.56,0.56,1,0,180.88638)"
         id="g38"><path
           id="path40"
           style="fill:#000000;fill-opacity:1;fill-rule:evenodd;stroke:#000000;stroke-width:0.52350402;stroke-linecap:butt;stroke-linejoin:round;stroke-miterlimit:4;stroke-dasharray:none;stroke-opacity:1"
           d="m -162.726,67.439 -9.155,-3.366 9.152,-3.363 c -1.462,1.987 -1.452,4.704 0.003,6.729 z" /></g></g></g></svg>