<?xml version="1.0" encoding="UTF-8" standalone="no"?>
<svg
   xmlns:dc="http://purl.org/dc/elements/1.1/"
   xmlns:cc="http://creativecommons.org/ns#"
   xmlns:rdf="http://www.w3.org/1999/02/22-rdf-syntax-ns#"
   xmlns:svg="http://www.w3.org/2000/svg"
   xmlns="http://www.w3.org/2000/svg"
   viewBox="0 0 406.88977 400"
   height="400"
   width="406.88977"
   xml:space="preserve"
   id="svg2"
   version="1.1"><metadata
     id="metadata8"><rdf:RDF><cc:Work
         rdf:about=""><dc:format>image/svg+xml</dc:format><dc:type
           rdf:resource="http://purl.org/dc/dcmitype/StillImage" /></cc:Work></rdf:RDF></metadata><defs
     id="defs6" /><g
     transform="matrix(1.3333333,0,0,-1.3333333,0,400)"
     id="g10"><g
       id="g12"><g
         transform="matrix(1,0,0,-1,0,300)"
         id="g14"><path
           id="path16"
           style="fill:none;stroke:#000000;stroke-width:2.83464599;stroke-linecap:butt;stroke-linejoin:miter;stroke-miterlimit:4;stroke-dasharray:none;stroke-opacity:1"
           d="M 48.75,300 V 180 h 90 v 105" /></g><g
         transform="matrix(1,0,0,-1,0,300)"
         id="g18"><path
           id="path20"
           style="fill:none;stroke:#000000;stroke-width:2.83464599;stroke-linecap:butt;stroke-linejoin:miter;stroke-miterlimit:4;stroke-dasharray:none;stroke-opacity:1"
           d="m 213.75,255 v -90 h 90 v 90" /></g><g
         transform="matrix(1,0,0,-1,0,300)"
         id="g22"><path
           id="path24"
           style="fill:none;stroke:#000000;stroke-width:2.83464599;stroke-linecap:butt;stroke-linejoin:miter;stroke-miterlimit:4;stroke-dasharray:none;stroke-opacity:1"
           d="M 93.75,180 V 45 h 165 v 120" /></g><g
         transform="matrix(1,0,0,-1,0,300)"
         id="g26"><path
           id="path28"
           style="fill:none;stroke:#0000ff;stroke-width:2.83464599;stroke-linecap:butt;stroke-linejoin:miter;stroke-miterlimit:4;stroke-dasharray:17.007874, 5.669291;stroke-dashoffset:0;stroke-opacity:1"
           d="m 48.75,232.5 h -45 v -34.285" /></g><g
         transform="matrix(1,0,0,-1,0,300)"
         id="g30"><path
           id="path32"
           style="fill:none;stroke:#0000ff;stroke-width:2.83464599;stroke-linecap:butt;stroke-linejoin:miter;stroke-miterlimit:4;stroke-dasharray:17.007874, 5.669291;stroke-dashoffset:0;stroke-opacity:1"
           d="M 93.75,120 H 56.25 V 82.5" /></g><g
         transform="matrix(1,0,0,-1,0,300)"
         id="g34"><path
           id="path36"
           style="fill:none;stroke:#0000ff;stroke-width:2.83464599;stroke-linecap:butt;stroke-linejoin:miter;stroke-miterlimit:4;stroke-dasharray:17.007874, 5.669291;stroke-dashoffset:0;stroke-opacity:1"
           d="m 213.75,210 h -37.5 v -60" /></g><g
         transform="matrix(1,0,0,-1,0,300)"
         id="g38"><path
           id="path40"
           style="fill:none;stroke:#000000;stroke-width:2.83464599;stroke-linecap:butt;stroke-linejoin:miter;stroke-miterlimit:4;stroke-dasharray:none;stroke-opacity:1"
           d="M 176.25,45 V 0" /></g><path
         id="path42"
         style="fill:#000000;fill-opacity:1;fill-rule:nonzero;stroke:none"
         d="m 52.5,67.5 c 0,-2.07 -1.68,-3.75 -3.75,-3.75 -2.07,0 -3.75,1.68 -3.75,3.75 0,2.07 1.68,3.75 3.75,3.75 2.07,0 3.75,-1.68 3.75,-3.75 z" /><path
         id="path44"
         style="fill:#000000;fill-opacity:1;fill-rule:nonzero;stroke:none"
         d="m 97.5,180 c 0,-2.07 -1.68,-3.75 -3.75,-3.75 -2.07,0 -3.75,1.68 -3.75,3.75 0,2.07 1.68,3.75 3.75,3.75 2.07,0 3.75,-1.68 3.75,-3.75 z" /><path
         id="path46"
         style="fill:#000000;fill-opacity:1;fill-rule:nonzero;stroke:none"
         d="m 217.5,90 c 0,-2.07 -1.68,-3.75 -3.75,-3.75 -2.07,0 -3.75,1.68 -3.75,3.75 0,2.07 1.68,3.75 3.75,3.75 2.07,0 3.75,-1.68 3.75,-3.75 z" /><text
         id="text50"
         style="font-variant:normal;font-weight:normal;font-size:21.74999809px;font-family:FreeSans;-inkscape-font-specification:FreeSans;writing-mode:lr-tb;fill:#000000;fill-opacity:1;fill-rule:nonzero;stroke:none"
         transform="matrix(1,0,0,-1,-0.160607,106.07146)"><tspan
           id="tspan48"
           y="0"
           x="0">?</tspan></text>
<text
         id="text56"
         style="font-variant:normal;font-weight:normal;font-size:21.75000191px;font-family:FreeSans;-inkscape-font-specification:FreeSans;writing-mode:lr-tb;fill:#000000;fill-opacity:1;fill-rule:nonzero;stroke:none"
         transform="matrix(1,0,0,-1,48.805825,222.29878)"><tspan
           id="tspan52"
           y="0"
           x="0">?</tspan><tspan
           id="tspan54"
           y="68.035721"
           x="120">?</tspan></text>
</g></g></svg>