<?xml version="1.0" encoding="UTF-8" standalone="no"?>
<svg
   xmlns:dc="http://purl.org/dc/elements/1.1/"
   xmlns:cc="http://creativecommons.org/ns#"
   xmlns:rdf="http://www.w3.org/1999/02/22-rdf-syntax-ns#"
   xmlns:svg="http://www.w3.org/2000/svg"
   xmlns="http://www.w3.org/2000/svg"
   viewBox="0 0 635.41144 287.41797"
   height="287.41797"
   width="635.41144"
   xml:space="preserve"
   id="svg2"
   version="1.1"><metadata
     id="metadata8"><rdf:RDF><cc:Work
         rdf:about=""><dc:format>image/svg+xml</dc:format><dc:type
           rdf:resource="http://purl.org/dc/dcmitype/StillImage" /></cc:Work></rdf:RDF></metadata><defs
     id="defs6" /><g
     transform="matrix(1.3333333,0,0,-1.3333333,0,287.41797)"
     id="g10"><g
       id="g12"><g
         transform="matrix(1,0,0,-1,0,215.56348)"
         id="g14"><path
           id="path16"
           style="fill:none;stroke:#000000;stroke-width:1.60000002;stroke-linecap:butt;stroke-linejoin:miter;stroke-miterlimit:4;stroke-dasharray:none;stroke-opacity:1"
           d="m 6.68,192 v -88 h 80 v 88" /></g><g
         transform="matrix(1,0,0,-1,0,215.56348)"
         id="g18"><path
           id="path20"
           style="fill:none;stroke:#808080;stroke-width:1.60000002;stroke-linecap:butt;stroke-linejoin:miter;stroke-miterlimit:4;stroke-dasharray:none;stroke-opacity:1"
           d="m 102.68,24 h 64 v 168" /></g><path
         id="path22"
         style="fill:#000000;fill-opacity:1;fill-rule:nonzero;stroke:none"
         d="M 6.688,12.915 4,5.649 H 9.359 Z M 5.562,14.853 H 7.797 L 13.359,0.274 H 11.312 L 9.984,4.009 H 3.406 L 2.078,0.274 H 0 Z" /><path
         id="path24"
         style="fill:#000000;fill-opacity:1;fill-rule:nonzero;stroke:none"
         d="M 83.484,7.243 V 1.899 h 3.157 c 1.062,0 1.847,0.219 2.359,0.657 0.508,0.437 0.766,1.109 0.766,2.015 0,0.914 -0.258,1.586 -0.766,2.016 -0.512,0.437 -1.297,0.656 -2.359,0.656 z m 0,5.985 V 8.837 h 2.922 c 0.957,0 1.672,0.18 2.141,0.547 0.476,0.363 0.719,0.914 0.719,1.656 0,0.727 -0.243,1.273 -0.719,1.641 -0.469,0.363 -1.184,0.547 -2.141,0.547 z m -1.968,1.625 h 5.031 c 1.508,0 2.672,-0.313 3.484,-0.938 0.813,-0.625 1.219,-1.512 1.219,-2.656 0,-0.899 -0.211,-1.61 -0.625,-2.141 C 90.207,8.595 89.594,8.267 88.781,8.134 89.75,7.923 90.504,7.485 91.047,6.821 91.586,6.165 91.859,5.341 91.859,4.353 91.859,3.048 91.414,2.044 90.531,1.337 89.645,0.626 88.383,0.274 86.75,0.274 h -5.234 z" /><path
         id="path26"
         style="fill:#000000;fill-opacity:1;fill-rule:nonzero;stroke:none"
         d="m 172.551,13.735 v -2.078 c -0.656,0.625 -1.367,1.086 -2.125,1.391 -0.75,0.301 -1.547,0.453 -2.391,0.453 -1.668,0 -2.945,-0.512 -3.828,-1.531 -0.887,-1.012 -1.328,-2.481 -1.328,-4.407 0,-1.929 0.441,-3.402 1.328,-4.421 0.883,-1.012 2.16,-1.516 3.828,-1.516 0.844,0 1.641,0.148 2.391,0.453 0.758,0.301 1.469,0.766 2.125,1.391 V 1.407 c -0.688,-0.469 -1.418,-0.824 -2.188,-1.062 -0.773,-0.227 -1.586,-0.344 -2.437,-0.344 -2.211,0 -3.949,0.672 -5.219,2.016 -1.273,1.351 -1.906,3.203 -1.906,5.546 0,2.344 0.633,4.188 1.906,5.532 1.27,1.351 3.008,2.031 5.219,2.031 0.863,0 1.679,-0.117 2.453,-0.344 0.769,-0.23 1.492,-0.578 2.172,-1.047 z" /><g
         transform="matrix(1,0,0,-1,0,215.56348)"
         id="g28"><path
           id="path30"
           style="fill:none;stroke:#0000ff;stroke-width:1.60000002;stroke-linecap:butt;stroke-linejoin:miter;stroke-miterlimit:4;stroke-dasharray:6.4, 1.6;stroke-dashoffset:0;stroke-opacity:1"
           d="m 6.68,160 h 40 v -40 h 120" /></g><g
         transform="matrix(1,0,0,-1,0,215.56348)"
         id="g32"><path
           id="path34"
           style="fill:none;stroke:#0000ff;stroke-width:1.60000002;stroke-linecap:butt;stroke-linejoin:miter;stroke-miterlimit:4;stroke-dasharray:6.4, 1.6;stroke-dashoffset:0;stroke-opacity:1"
           d="m 86.68,112 h 40 V 64 h 40" /></g><g
         transform="matrix(1,0,0,-1,0,215.56348)"
         id="g36"><path
           id="path38"
           style="fill:none;stroke:#800080;stroke-width:1.60000002;stroke-linecap:butt;stroke-linejoin:miter;stroke-miterlimit:4;stroke-dasharray:6.4, 1.6;stroke-dashoffset:0;stroke-opacity:1"
           d="m 166.68,48 h 16 V 16 h -80" /></g><g
         transform="matrix(1,0,0,-1,0,215.56348)"
         id="g40"><path
           id="path42"
           style="fill:none;stroke:#000000;stroke-width:1.60000002;stroke-linecap:butt;stroke-linejoin:miter;stroke-miterlimit:4;stroke-dasharray:none;stroke-opacity:1"
           d="M 102.68,24 V 0" /></g><path
         id="path44"
         style="fill:#008000;fill-opacity:1;fill-rule:nonzero;stroke:none"
         d="m 169.078,95.563 c 0,-1.324 -1.074,-2.398 -2.398,-2.398 -1.325,0 -2.399,1.074 -2.399,2.398 0,1.325 1.074,2.399 2.399,2.399 1.324,0 2.398,-1.074 2.398,-2.399 z" /><path
         id="path46"
         style="fill:#ff0000;fill-opacity:1;fill-rule:nonzero;stroke:none"
         d="m 9.078,55.563 c 0,-1.324 -1.074,-2.398 -2.398,-2.398 -1.325,0 -2.399,1.074 -2.399,2.398 0,1.325 1.074,2.399 2.399,2.399 1.324,0 2.398,-1.074 2.398,-2.399 z" /><path
         id="path48"
         style="fill:#ff0000;fill-opacity:1;fill-rule:nonzero;stroke:none"
         d="m 89.078,103.563 c 0,-1.324 -1.074,-2.398 -2.398,-2.398 -1.325,0 -2.399,1.074 -2.399,2.398 0,1.325 1.074,2.399 2.399,2.399 1.324,0 2.398,-1.074 2.398,-2.399 z" /><path
         id="path50"
         style="fill:#008000;fill-opacity:1;fill-rule:nonzero;stroke:none"
         d="m 169.078,151.563 c 0,-1.324 -1.074,-2.398 -2.398,-2.398 -1.325,0 -2.399,1.074 -2.399,2.398 0,1.325 1.074,2.399 2.399,2.399 1.324,0 2.398,-1.074 2.398,-2.399 z" /><path
         id="path52"
         style="fill:#ff0000;fill-opacity:1;fill-rule:nonzero;stroke:none"
         d="m 169.078,167.563 c 0,-1.324 -1.074,-2.398 -2.398,-2.398 -1.325,0 -2.399,1.074 -2.399,2.398 0,1.325 1.074,2.399 2.399,2.399 1.324,0 2.398,-1.074 2.398,-2.399 z" /><path
         id="path54"
         style="fill:#008000;fill-opacity:1;fill-rule:nonzero;stroke:none"
         d="m 105.078,199.563 c 0,-1.324 -1.074,-2.398 -2.398,-2.398 -1.325,0 -2.399,1.074 -2.399,2.398 0,1.325 1.074,2.399 2.399,2.399 1.324,0 2.398,-1.074 2.398,-2.399 z" /><g
         transform="matrix(1,0,0,-1,0,215.56348)"
         id="g56"><path
           id="path58"
           style="fill:none;stroke:#808000;stroke-width:1.60000002;stroke-linecap:butt;stroke-linejoin:miter;stroke-miterlimit:4;stroke-dasharray:6.4, 1.6;stroke-dashoffset:0;stroke-opacity:1"
           d="m 86.68,184 h 40 v -8 h 40" /></g><path
         id="path60"
         style="fill:#ff0000;fill-opacity:1;fill-rule:nonzero;stroke:none"
         d="m 89.078,31.563 c 0,-1.324 -1.074,-2.398 -2.398,-2.398 -1.325,0 -2.399,1.074 -2.399,2.398 0,1.325 1.074,2.399 2.399,2.399 1.324,0 2.398,-1.074 2.398,-2.399 z" /><path
         id="path62"
         style="fill:#008000;fill-opacity:1;fill-rule:nonzero;stroke:none"
         d="m 169.078,39.563 c 0,-1.324 -1.074,-2.398 -2.398,-2.398 -1.325,0 -2.399,1.074 -2.399,2.398 0,1.325 1.074,2.399 2.399,2.399 1.324,0 2.398,-1.074 2.398,-2.399 z" /><g
         transform="matrix(1,0,0,-1,0,215.56348)"
         id="g64"><path
           id="path66"
           style="fill:none;stroke:#000000;stroke-width:1.60000002;stroke-linecap:butt;stroke-linejoin:miter;stroke-miterlimit:4;stroke-dasharray:none;stroke-opacity:1"
           d="m 310.68,192 v -88 h 120 v 48" /></g><g
         transform="matrix(1,0,0,-1,0,215.56348)"
         id="g68"><path
           id="path70"
           style="fill:none;stroke:#000000;stroke-width:1.60000002;stroke-linecap:butt;stroke-linejoin:miter;stroke-miterlimit:4;stroke-dasharray:none;stroke-opacity:1"
           d="M 374.68,104 V 0 m 16,192 v -40 h 80 v 40" /></g><path
         id="path72"
         style="fill:#000000;fill-opacity:1;fill-rule:nonzero;stroke:none"
         d="M 310.688,12.915 308,5.649 h 5.359 z m -1.126,1.938 h 2.235 l 5.562,-14.579 h -2.047 l -1.328,3.735 h -6.578 L 306.078,0.274 H 304 Z" /><path
         id="path74"
         style="fill:#000000;fill-opacity:1;fill-rule:nonzero;stroke:none"
         d="M 387.484,7.243 V 1.899 h 3.157 c 1.062,0 1.847,0.219 2.359,0.657 0.508,0.437 0.766,1.109 0.766,2.015 0,0.914 -0.258,1.586 -0.766,2.016 -0.512,0.437 -1.297,0.656 -2.359,0.656 z m 0,5.985 V 8.837 h 2.922 c 0.957,0 1.672,0.18 2.141,0.547 0.476,0.363 0.719,0.914 0.719,1.656 0,0.727 -0.243,1.273 -0.719,1.641 -0.469,0.363 -1.184,0.547 -2.141,0.547 z m -1.968,1.625 h 5.031 c 1.508,0 2.672,-0.313 3.484,-0.938 0.813,-0.625 1.219,-1.512 1.219,-2.656 0,-0.899 -0.211,-1.61 -0.625,-2.141 -0.418,-0.523 -1.031,-0.851 -1.844,-0.984 0.969,-0.211 1.723,-0.649 2.266,-1.313 0.539,-0.656 0.812,-1.48 0.812,-2.468 0,-1.305 -0.445,-2.309 -1.328,-3.016 -0.886,-0.711 -2.148,-1.063 -3.781,-1.063 h -5.234 z" /><path
         id="path76"
         style="fill:#000000;fill-opacity:1;fill-rule:nonzero;stroke:none"
         d="m 476.551,13.735 v -2.078 c -0.656,0.625 -1.367,1.086 -2.125,1.391 -0.75,0.301 -1.547,0.453 -2.391,0.453 -1.668,0 -2.945,-0.512 -3.828,-1.531 -0.887,-1.012 -1.328,-2.481 -1.328,-4.407 0,-1.929 0.441,-3.402 1.328,-4.421 0.883,-1.012 2.16,-1.516 3.828,-1.516 0.844,0 1.641,0.148 2.391,0.453 0.758,0.301 1.469,0.766 2.125,1.391 V 1.407 c -0.688,-0.469 -1.418,-0.824 -2.188,-1.062 -0.773,-0.227 -1.586,-0.344 -2.437,-0.344 -2.211,0 -3.949,0.672 -5.219,2.016 -1.273,1.351 -1.906,3.203 -1.906,5.546 0,2.344 0.633,4.188 1.906,5.532 1.27,1.351 3.008,2.031 5.219,2.031 0.863,0 1.679,-0.117 2.453,-0.344 0.769,-0.23 1.492,-0.578 2.172,-1.047 z" /><g
         transform="matrix(1,0,0,-1,0,215.56348)"
         id="g78"><path
           id="path80"
           style="fill:none;stroke:#0000ff;stroke-width:1.60000002;stroke-linecap:butt;stroke-linejoin:miter;stroke-miterlimit:4;stroke-dasharray:6.4, 1.6;stroke-dashoffset:0;stroke-opacity:1"
           d="m 310.68,160 h 40 v -40 h 80" /></g><g
         transform="matrix(1,0,0,-1,0,215.56348)"
         id="g82"><path
           id="path84"
           style="fill:none;stroke:#0000ff;stroke-width:1.60000002;stroke-linecap:butt;stroke-linejoin:miter;stroke-miterlimit:4;stroke-dasharray:6.4, 1.6;stroke-dashoffset:0;stroke-opacity:1"
           d="m 430.68,112 h 24 V 64 h -80" /></g><path
         id="path86"
         style="fill:#008000;fill-opacity:1;fill-rule:nonzero;stroke:none"
         d="m 433.078,95.563 c 0,-1.324 -1.074,-2.398 -2.398,-2.398 -1.325,0 -2.399,1.074 -2.399,2.398 0,1.325 1.074,2.399 2.399,2.399 1.324,0 2.398,-1.074 2.398,-2.399 z" /><path
         id="path88"
         style="fill:#ff0000;fill-opacity:1;fill-rule:nonzero;stroke:none"
         d="m 313.078,55.563 c 0,-1.324 -1.074,-2.398 -2.398,-2.398 -1.325,0 -2.399,1.074 -2.399,2.398 0,1.325 1.074,2.399 2.399,2.399 1.324,0 2.398,-1.074 2.398,-2.399 z" /><path
         id="path90"
         style="fill:#ff0000;fill-opacity:1;fill-rule:nonzero;stroke:none"
         d="m 433.078,103.563 c 0,-1.324 -1.074,-2.398 -2.398,-2.398 -1.325,0 -2.399,1.074 -2.399,2.398 0,1.325 1.074,2.399 2.399,2.399 1.324,0 2.398,-1.074 2.398,-2.399 z" /><path
         id="path92"
         style="fill:#008000;fill-opacity:1;fill-rule:nonzero;stroke:none"
         d="m 377.078,151.563 c 0,-1.324 -1.074,-2.398 -2.398,-2.398 -1.325,0 -2.399,1.074 -2.399,2.398 0,1.325 1.074,2.399 2.399,2.399 1.324,0 2.398,-1.074 2.398,-2.399 z" /><g
         transform="matrix(1,0,0,-1,0,215.56348)"
         id="g94"><path
           id="path96"
           style="fill:none;stroke:#808000;stroke-width:1.60000002;stroke-linecap:butt;stroke-linejoin:miter;stroke-miterlimit:4;stroke-dasharray:6.4, 1.6;stroke-dashoffset:0;stroke-opacity:1"
           d="m 390.68,184 h 40 v -8 h 40" /></g><path
         id="path98"
         style="fill:#ff0000;fill-opacity:1;fill-rule:nonzero;stroke:none"
         d="m 393.078,31.563 c 0,-1.324 -1.074,-2.398 -2.398,-2.398 -1.325,0 -2.399,1.074 -2.399,2.398 0,1.325 1.074,2.399 2.399,2.399 1.324,0 2.398,-1.074 2.398,-2.399 z" /><path
         id="path100"
         style="fill:#008000;fill-opacity:1;fill-rule:nonzero;stroke:none"
         d="m 473.078,39.563 c 0,-1.324 -1.074,-2.398 -2.398,-2.398 -1.325,0 -2.399,1.074 -2.399,2.398 0,1.325 1.074,2.399 2.399,2.399 1.324,0 2.398,-1.074 2.398,-2.399 z" /><g
         transform="matrix(1,0,0,-1,0,215.56348)"
         id="g102"><path
           id="path104"
           style="fill:none;stroke:#666666;stroke-width:3.20000005;stroke-linecap:butt;stroke-linejoin:miter;stroke-miterlimit:4;stroke-dasharray:none;stroke-opacity:1"
           d="m 204.262,95.969 h 80" /></g><g
         transform="matrix(-1,0,0,1,0,215.56348)"
         id="g106"><path
           id="path108"
           style="fill:#666666;fill-opacity:1;fill-rule:evenodd;stroke:#666666;stroke-width:1.20000005;stroke-linecap:butt;stroke-linejoin:round;stroke-miterlimit:4;stroke-dasharray:none;stroke-opacity:1"
           d="m -267.52,-88.223 -20.98,-7.715 20.98,-7.714 c -3.351,4.554 -3.332,10.785 0,15.429 z" /></g><path
         id="path110"
         style="fill:#000000;fill-opacity:1;fill-rule:nonzero;stroke:none"
         d="m 215.492,137.485 v -1.359 c -0.437,0.406 -0.902,0.707 -1.39,0.906 -0.481,0.196 -0.997,0.297 -1.547,0.297 -1.086,0 -1.918,-0.336 -2.5,-1 -0.575,-0.656 -0.86,-1.609 -0.86,-2.859 0,-1.25 0.285,-2.211 0.86,-2.875 0.582,-0.657 1.414,-0.985 2.5,-0.985 0.55,0 1.066,0.098 1.547,0.297 0.488,0.196 0.953,0.492 1.39,0.891 v -1.328 c -0.449,-0.313 -0.922,-0.547 -1.422,-0.703 -0.5,-0.145 -1.031,-0.219 -1.593,-0.219 -1.438,0 -2.571,0.437 -3.391,1.312 -0.824,0.883 -1.234,2.086 -1.234,3.61 0,1.519 0.41,2.718 1.234,3.593 0.82,0.883 1.953,1.329 3.391,1.329 0.562,0 1.093,-0.079 1.593,-0.235 0.508,-0.148 0.985,-0.371 1.422,-0.672 z" /><path
         id="path112"
         style="fill:#000000;fill-opacity:1;fill-rule:nonzero;stroke:none"
         d="m 220.191,135.032 c -0.625,0 -1.121,-0.246 -1.484,-0.734 -0.367,-0.492 -0.547,-1.164 -0.547,-2.016 0,-0.855 0.176,-1.527 0.531,-2.015 0.364,-0.481 0.864,-0.719 1.5,-0.719 0.614,0 1.102,0.242 1.469,0.734 0.363,0.489 0.547,1.156 0.547,2 0,0.844 -0.184,1.508 -0.547,2 -0.367,0.5 -0.855,0.75 -1.469,0.75 z m 0,0.985 c 1.008,0 1.805,-0.336 2.391,-1 0.582,-0.657 0.875,-1.571 0.875,-2.735 0,-1.168 -0.293,-2.086 -0.875,-2.75 -0.586,-0.656 -1.383,-0.984 -2.391,-0.984 -1.023,0 -1.824,0.328 -2.406,0.984 -0.574,0.664 -0.859,1.582 -0.859,2.75 0,1.164 0.285,2.078 0.859,2.735 0.582,0.664 1.383,1 2.406,1 z" /><path
         id="path114"
         style="fill:#000000;fill-opacity:1;fill-rule:nonzero;stroke:none"
         d="m 225.375,138.61 h 1.172 v -9.875 h -1.172 z" /><path
         id="path116"
         style="fill:#000000;fill-opacity:1;fill-rule:nonzero;stroke:none"
         d="m 228.98,138.61 h 1.172 v -9.875 h -1.172 z" /><path
         id="path118"
         style="fill:#000000;fill-opacity:1;fill-rule:nonzero;stroke:none"
         d="m 235.82,132.313 c -0.937,0 -1.59,-0.109 -1.953,-0.328 -0.367,-0.218 -0.547,-0.589 -0.547,-1.109 0,-0.406 0.133,-0.734 0.407,-0.984 0.269,-0.243 0.64,-0.36 1.109,-0.36 0.644,0 1.164,0.227 1.562,0.688 0.395,0.457 0.594,1.066 0.594,1.828 v 0.265 z m 2.328,0.485 v -4.063 h -1.156 v 1.078 c -0.273,-0.429 -0.605,-0.746 -1,-0.953 -0.398,-0.207 -0.887,-0.312 -1.469,-0.312 -0.73,0 -1.308,0.203 -1.734,0.609 -0.43,0.414 -0.641,0.961 -0.641,1.641 0,0.801 0.266,1.406 0.797,1.812 0.539,0.407 1.344,0.61 2.407,0.61 h 1.64 v 0.125 c 0,0.531 -0.18,0.941 -0.531,1.234 -0.356,0.301 -0.856,0.453 -1.5,0.453 -0.406,0 -0.805,-0.054 -1.188,-0.156 -0.386,-0.094 -0.757,-0.242 -1.109,-0.438 v 1.079 c 0.426,0.164 0.844,0.289 1.25,0.375 0.406,0.082 0.797,0.125 1.172,0.125 1.031,0 1.797,-0.266 2.297,-0.797 0.508,-0.532 0.765,-1.34 0.765,-2.422 z" /><path
         id="path120"
         style="fill:#000000;fill-opacity:1;fill-rule:nonzero;stroke:none"
         d="m 241.699,129.798 v -3.766 h -1.172 v 9.813 h 1.172 v -1.078 c 0.239,0.425 0.547,0.738 0.922,0.937 0.375,0.207 0.82,0.313 1.344,0.313 0.863,0 1.566,-0.344 2.109,-1.032 0.539,-0.687 0.813,-1.589 0.813,-2.703 0,-1.117 -0.274,-2.015 -0.813,-2.703 -0.543,-0.687 -1.246,-1.031 -2.109,-1.031 -0.524,0 -0.969,0.105 -1.344,0.312 -0.375,0.207 -0.683,0.52 -0.922,0.938 z m 3.969,2.484 c 0,0.864 -0.18,1.535 -0.531,2.016 -0.356,0.488 -0.84,0.734 -1.453,0.734 -0.618,0 -1.102,-0.246 -1.454,-0.734 -0.355,-0.481 -0.531,-1.152 -0.531,-2.016 0,-0.855 0.176,-1.527 0.531,-2.015 0.352,-0.493 0.836,-0.735 1.454,-0.735 0.613,0 1.097,0.242 1.453,0.735 0.351,0.488 0.531,1.16 0.531,2.015 z" /><path
         id="path122"
         style="fill:#000000;fill-opacity:1;fill-rule:nonzero;stroke:none"
         d="m 253.34,135.642 v -1.11 c -0.324,0.164 -0.664,0.289 -1.016,0.375 -0.355,0.082 -0.726,0.125 -1.109,0.125 -0.586,0 -1.024,-0.09 -1.313,-0.265 -0.281,-0.18 -0.422,-0.446 -0.422,-0.797 0,-0.274 0.098,-0.485 0.297,-0.641 0.207,-0.148 0.629,-0.293 1.266,-0.437 l 0.391,-0.094 c 0.832,-0.18 1.421,-0.43 1.765,-0.75 0.352,-0.324 0.531,-0.774 0.531,-1.344 0,-0.668 -0.261,-1.195 -0.781,-1.578 -0.523,-0.387 -1.242,-0.578 -2.156,-0.578 -0.387,0 -0.789,0.039 -1.203,0.109 -0.406,0.074 -0.84,0.188 -1.297,0.344 v 1.203 c 0.437,-0.23 0.863,-0.402 1.281,-0.516 0.414,-0.105 0.828,-0.156 1.235,-0.156 0.55,0 0.972,0.094 1.265,0.281 0.301,0.188 0.453,0.454 0.453,0.797 0,0.313 -0.109,0.551 -0.328,0.719 -0.211,0.176 -0.672,0.344 -1.39,0.5 l -0.407,0.094 c -0.73,0.156 -1.257,0.39 -1.578,0.703 -0.324,0.312 -0.484,0.742 -0.484,1.297 0,0.664 0.234,1.18 0.703,1.547 0.477,0.363 1.156,0.547 2.031,0.547 0.426,0 0.832,-0.032 1.219,-0.094 0.383,-0.063 0.734,-0.156 1.047,-0.281 z" /><path
         id="path124"
         style="fill:#000000;fill-opacity:1;fill-rule:nonzero;stroke:none"
         d="m 261.684,132.579 v -0.562 h -5.375 c 0.05,-0.813 0.289,-1.43 0.718,-1.844 0.438,-0.418 1.039,-0.625 1.813,-0.625 0.445,0 0.879,0.051 1.297,0.156 0.425,0.113 0.847,0.281 1.265,0.5 v -1.109 c -0.418,-0.18 -0.851,-0.313 -1.297,-0.407 -0.437,-0.093 -0.882,-0.14 -1.328,-0.14 -1.136,0 -2.039,0.328 -2.703,0.984 -0.656,0.664 -0.984,1.563 -0.984,2.688 0,1.164 0.312,2.086 0.937,2.765 0.633,0.688 1.485,1.032 2.547,1.032 0.957,0 1.711,-0.309 2.266,-0.922 0.562,-0.617 0.844,-1.453 0.844,-2.516 z m -1.172,0.344 c -0.012,0.633 -0.196,1.144 -0.547,1.531 -0.344,0.383 -0.805,0.578 -1.375,0.578 -0.656,0 -1.184,-0.187 -1.578,-0.562 -0.387,-0.367 -0.61,-0.883 -0.672,-1.547 z" /><g
         transform="matrix(1,0,0,-1,0,215.56348)"
         id="g126"><path
           id="path128"
           style="fill:none;stroke:#000000;stroke-width:1.60000002;stroke-linecap:butt;stroke-linejoin:miter;stroke-miterlimit:4;stroke-dasharray:none;stroke-opacity:1"
           d="M 46.68,104 V 24 h 56" /></g><g
         transform="matrix(1,0,0,-1,0,215.56348)"
         id="g130"><path
           id="path132"
           style="fill:none;stroke:#808080;stroke-width:1.60000002;stroke-linecap:butt;stroke-linejoin:miter;stroke-miterlimit:4;stroke-dasharray:0.4, 0.4;stroke-dashoffset:0;stroke-opacity:1"
           d="m 86.68,152 h 80" /></g></g></g></svg>