<?xml version="1.0" encoding="UTF-8" standalone="no"?>
<svg
   xmlns:dc="http://purl.org/dc/elements/1.1/"
   xmlns:cc="http://creativecommons.org/ns#"
   xmlns:rdf="http://www.w3.org/1999/02/22-rdf-syntax-ns#"
   xmlns:svg="http://www.w3.org/2000/svg"
   xmlns="http://www.w3.org/2000/svg"
   viewBox="0 0 635.41144 287.41797"
   height="287.41797"
   width="635.41144"
   xml:space="preserve"
   id="svg2"
   version="1.1"><metadata
     id="metadata8"><rdf:RDF><cc:Work
         rdf:about=""><dc:format>image/svg+xml</dc:format><dc:type
           rdf:resource="http://purl.org/dc/dcmitype/StillImage" /></cc:Work></rdf:RDF></metadata><defs
     id="defs6" /><g
     transform="matrix(1.3333333,0,0,-1.3333333,0,287.41797)"
     id="g10"><g
       id="g12"><g
         transform="matrix(1,0,0,-1,0,215.56348)"
         id="g14"><path
           id="path16"
           style="fill:none;stroke:#000000;stroke-width:1.60000002;stroke-linecap:butt;stroke-linejoin:miter;stroke-miterlimit:4;stroke-dasharray:none;stroke-opacity:1"
           d="m 6.68,192 v -88 h 80 v 88" /></g><g
         transform="matrix(1,0,0,-1,0,215.56348)"
         id="g18"><path
           id="path20"
           style="fill:none;stroke:#000000;stroke-width:1.60000002;stroke-linecap:butt;stroke-linejoin:miter;stroke-miterlimit:4;stroke-dasharray:none;stroke-opacity:1"
           d="m 102.68,24 h 64 v 168" /></g><path
         id="path22"
         style="fill:#000000;fill-opacity:1;fill-rule:nonzero;stroke:none"
         d="M 6.688,12.915 4,5.649 H 9.359 Z M 5.562,14.853 H 7.797 L 13.359,0.274 H 11.312 L 9.984,4.009 H 3.406 L 2.078,0.274 H 0 Z" /><path
         id="path24"
         style="fill:#000000;fill-opacity:1;fill-rule:nonzero;stroke:none"
         d="M 83.484,7.243 V 1.899 h 3.157 c 1.062,0 1.847,0.219 2.359,0.657 0.508,0.437 0.766,1.109 0.766,2.015 0,0.914 -0.258,1.586 -0.766,2.016 -0.512,0.437 -1.297,0.656 -2.359,0.656 z m 0,5.985 V 8.837 h 2.922 c 0.957,0 1.672,0.18 2.141,0.547 0.476,0.363 0.719,0.914 0.719,1.656 0,0.727 -0.243,1.273 -0.719,1.641 -0.469,0.363 -1.184,0.547 -2.141,0.547 z m -1.968,1.625 h 5.031 c 1.508,0 2.672,-0.313 3.484,-0.938 0.813,-0.625 1.219,-1.512 1.219,-2.656 0,-0.899 -0.211,-1.61 -0.625,-2.141 C 90.207,8.595 89.594,8.267 88.781,8.134 89.75,7.923 90.504,7.485 91.047,6.821 91.586,6.165 91.859,5.341 91.859,4.353 91.859,3.048 91.414,2.044 90.531,1.337 89.645,0.626 88.383,0.274 86.75,0.274 h -5.234 z" /><path
         id="path26"
         style="fill:#000000;fill-opacity:1;fill-rule:nonzero;stroke:none"
         d="m 172.551,13.735 v -2.078 c -0.656,0.625 -1.367,1.086 -2.125,1.391 -0.75,0.301 -1.547,0.453 -2.391,0.453 -1.668,0 -2.945,-0.512 -3.828,-1.531 -0.887,-1.012 -1.328,-2.481 -1.328,-4.407 0,-1.929 0.441,-3.402 1.328,-4.421 0.883,-1.012 2.16,-1.516 3.828,-1.516 0.844,0 1.641,0.148 2.391,0.453 0.758,0.301 1.469,0.766 2.125,1.391 V 1.407 c -0.688,-0.469 -1.418,-0.824 -2.188,-1.062 -0.773,-0.227 -1.586,-0.344 -2.437,-0.344 -2.211,0 -3.949,0.672 -5.219,2.016 -1.273,1.351 -1.906,3.203 -1.906,5.546 0,2.344 0.633,4.188 1.906,5.532 1.27,1.351 3.008,2.031 5.219,2.031 0.863,0 1.679,-0.117 2.453,-0.344 0.769,-0.23 1.492,-0.578 2.172,-1.047 z" /><g
         transform="matrix(1,0,0,-1,0,215.56348)"
         id="g28"><path
           id="path30"
           style="fill:none;stroke:#0000ff;stroke-width:1.60000002;stroke-linecap:butt;stroke-linejoin:miter;stroke-miterlimit:4;stroke-dasharray:6.4, 1.6;stroke-dashoffset:0;stroke-opacity:1"
           d="m 6.68,160 h 40 v -40 h 120" /></g><g
         transform="matrix(1,0,0,-1,0,215.56348)"
         id="g32"><path
           id="path34"
           style="fill:none;stroke:#0000ff;stroke-width:1.60000002;stroke-linecap:butt;stroke-linejoin:miter;stroke-miterlimit:4;stroke-dasharray:6.4, 1.6;stroke-dashoffset:0;stroke-opacity:1"
           d="m 86.68,112 h 40 V 64 h 40" /></g><g
         transform="matrix(1,0,0,-1,0,215.56348)"
         id="g36"><path
           id="path38"
           style="fill:none;stroke:#800080;stroke-width:1.60000002;stroke-linecap:butt;stroke-linejoin:miter;stroke-miterlimit:4;stroke-dasharray:6.4, 1.6;stroke-dashoffset:0;stroke-opacity:1"
           d="m 166.68,48 h 16 V 16 h -80" /></g><g
         transform="matrix(1,0,0,-1,0,215.56348)"
         id="g40"><path
           id="path42"
           style="fill:none;stroke:#000000;stroke-width:1.60000002;stroke-linecap:butt;stroke-linejoin:miter;stroke-miterlimit:4;stroke-dasharray:none;stroke-opacity:1"
           d="M 102.68,24 V 0" /></g><path
         id="path44"
         style="fill:#008000;fill-opacity:1;fill-rule:nonzero;stroke:none"
         d="m 169.078,95.563 c 0,-1.324 -1.074,-2.398 -2.398,-2.398 -1.325,0 -2.399,1.074 -2.399,2.398 0,1.325 1.074,2.399 2.399,2.399 1.324,0 2.398,-1.074 2.398,-2.399 z" /><path
         id="path46"
         style="fill:#ff0000;fill-opacity:1;fill-rule:nonzero;stroke:none"
         d="m 9.078,55.563 c 0,-1.324 -1.074,-2.398 -2.398,-2.398 -1.325,0 -2.399,1.074 -2.399,2.398 0,1.325 1.074,2.399 2.399,2.399 1.324,0 2.398,-1.074 2.398,-2.399 z" /><path
         id="path48"
         style="fill:#ff0000;fill-opacity:1;fill-rule:nonzero;stroke:none"
         d="m 89.078,103.563 c 0,-1.324 -1.074,-2.398 -2.398,-2.398 -1.325,0 -2.399,1.074 -2.399,2.398 0,1.325 1.074,2.399 2.399,2.399 1.324,0 2.398,-1.074 2.398,-2.399 z" /><path
         id="path50"
         style="fill:#008000;fill-opacity:1;fill-rule:nonzero;stroke:none"
         d="m 169.078,151.563 c 0,-1.324 -1.074,-2.398 -2.398,-2.398 -1.325,0 -2.399,1.074 -2.399,2.398 0,1.325 1.074,2.399 2.399,2.399 1.324,0 2.398,-1.074 2.398,-2.399 z" /><path
         id="path52"
         style="fill:#ff0000;fill-opacity:1;fill-rule:nonzero;stroke:none"
         d="m 169.078,167.563 c 0,-1.324 -1.074,-2.398 -2.398,-2.398 -1.325,0 -2.399,1.074 -2.399,2.398 0,1.325 1.074,2.399 2.399,2.399 1.324,0 2.398,-1.074 2.398,-2.399 z" /><path
         id="path54"
         style="fill:#008000;fill-opacity:1;fill-rule:nonzero;stroke:none"
         d="m 105.078,199.563 c 0,-1.324 -1.074,-2.398 -2.398,-2.398 -1.325,0 -2.399,1.074 -2.399,2.398 0,1.325 1.074,2.399 2.399,2.399 1.324,0 2.398,-1.074 2.398,-2.399 z" /><g
         transform="matrix(1,0,0,-1,0,215.56348)"
         id="g56"><path
           id="path58"
           style="fill:none;stroke:#808000;stroke-width:1.60000002;stroke-linecap:butt;stroke-linejoin:miter;stroke-miterlimit:4;stroke-dasharray:6.4, 1.6;stroke-dashoffset:0;stroke-opacity:1"
           d="m 86.68,184 h 40 v -8 h 40" /></g><path
         id="path60"
         style="fill:#ff0000;fill-opacity:1;fill-rule:nonzero;stroke:none"
         d="m 89.078,31.563 c 0,-1.324 -1.074,-2.398 -2.398,-2.398 -1.325,0 -2.399,1.074 -2.399,2.398 0,1.325 1.074,2.399 2.399,2.399 1.324,0 2.398,-1.074 2.398,-2.399 z" /><path
         id="path62"
         style="fill:#008000;fill-opacity:1;fill-rule:nonzero;stroke:none"
         d="m 169.078,39.563 c 0,-1.324 -1.074,-2.398 -2.398,-2.398 -1.325,0 -2.399,1.074 -2.399,2.398 0,1.325 1.074,2.399 2.399,2.399 1.324,0 2.398,-1.074 2.398,-2.399 z" /><g
         transform="matrix(1,0,0,-1,0,215.56348)"
         id="g64"><path
           id="path66"
           style="fill:none;stroke:#000000;stroke-width:1.60000002;stroke-linecap:butt;stroke-linejoin:miter;stroke-miterlimit:4;stroke-dasharray:none;stroke-opacity:1"
           d="M 46.68,104 V 24 h 56" /></g></g></g></svg>