<?xml version="1.0" encoding="UTF-8" standalone="no"?>
<svg
   xmlns:dc="http://purl.org/dc/elements/1.1/"
   xmlns:cc="http://creativecommons.org/ns#"
   xmlns:rdf="http://www.w3.org/1999/02/22-rdf-syntax-ns#"
   xmlns:svg="http://www.w3.org/2000/svg"
   xmlns="http://www.w3.org/2000/svg"
   xmlns:sodipodi="http://sodipodi.sourceforge.net/DTD/sodipodi-0.dtd"
   xmlns:inkscape="http://www.inkscape.org/namespaces/inkscape"
   viewBox="0 0 278.73334 227.3"
   height="227.3"
   width="278.73334"
   xml:space="preserve"
   id="svg2"
   version="1.1"
   sodipodi:docname="gene_flow.svg"
   inkscape:version="0.92.0 r15299"><sodipodi:namedview
     pagecolor="#ffffff"
     bordercolor="#666666"
     borderopacity="1"
     objecttolerance="10"
     gridtolerance="10"
     guidetolerance="10"
     inkscape:pageopacity="0"
     inkscape:pageshadow="2"
     inkscape:window-width="1920"
     inkscape:window-height="1080"
     id="namedview59"
     showgrid="false"
     fit-margin-top="0"
     fit-margin-left="0"
     fit-margin-right="0"
     fit-margin-bottom="0"
     inkscape:zoom="2.3177389"
     inkscape:cx="229.24626"
     inkscape:cy="101.96936"
     inkscape:window-x="1920"
     inkscape:window-y="120"
     inkscape:window-maximized="0"
     inkscape:current-layer="svg2" /><metadata
     id="metadata8"><rdf:RDF><cc:Work
         rdf:about=""><dc:format>image/svg+xml</dc:format><dc:type
           rdf:resource="http://purl.org/dc/dcmitype/StillImage" /><dc:title></dc:title></cc:Work></rdf:RDF></metadata><defs
     id="defs6"><clipPath
       id="clipPath20"
       clipPathUnits="userSpaceOnUse"><path
         id="path18"
         d="M 43.2,43.2 H 201.6 V 172.8 H 43.2 Z"
         inkscape:connector-curvature="0" /></clipPath><clipPath
       id="clipPath100"
       clipPathUnits="userSpaceOnUse"><path
         id="path98"
         d="M 43.2,43.2 H 201.6 V 172.8 H 43.2 Z"
         inkscape:connector-curvature="0" /></clipPath></defs><g
     id="g12"
     transform="matrix(1.3333333,0,0,-1.3333333,-3.6959997,230.89999)" /><g
     id="g14"
     transform="matrix(1.3333333,0,0,-1.3333333,-3.6959997,230.89999)"><g
       id="g16"
       clip-path="url(#clipPath20)"><path
         inkscape:connector-curvature="0"
         d="m 34.47,48.1 1.6,0.16 1.59,0.35 1.59,0.72 1.59,1.31 1.59,2.19 1.59,3.36 1.59,4.75 1.59,6.23 1.59,7.63 1.59,8.86 1.59,9.79 1.59,10.43 1.59,10.72 1.59,10.66 1.59,10.15 1.59,9.17 1.59,7.83 1.59,6.24 1.59,4.56 1.59,2.95 1.59,1.52 1.59,0.32 1.6,-0.65 1.59,-1.42 1.59,-2.05 1.59,-2.58 1.59,-3.02 1.59,-3.44 1.59,-3.81 1.59,-4.13 1.59,-4.36 1.59,-4.46 1.59,-4.41 1.59,-4.26 1.59,-4.09 1.59,-3.97 1.59,-3.92 1.59,-3.87 1.59,-3.77 1.59,-3.59 1.59,-3.31 1.59,-2.98 1.59,-2.65 1.59,-2.34 1.6,-2.1 1.59,-1.97 1.59,-1.94 1.59,-2.01 1.59,-2.15 1.59,-2.3 1.59,-2.43 1.59,-2.49 1.59,-2.46 1.59,-2.33 1.59,-2.11 1.59,-1.83 1.59,-1.53 1.59,-1.27 1.59,-1.07 1.59,-0.91 1.59,-0.79 1.59,-0.7 1.59,-0.67 1.59,-0.72 1.59,-0.86 1.59,-1.05 1.6,-1.2 1.59,-1.24 1.59,-1.14 1.59,-0.92 1.59,-0.65 1.59,-0.42 1.59,-0.24 1.59,-0.15 1.59,-0.11 1.59,-0.08 1.59,-0.06 1.59,-0.07 1.59,-0.08 1.59,-0.13 1.59,-0.16 1.59,-0.16 1.59,-0.13 1.59,-0.09 1.59,-0.07 1.59,-0.09 1.59,-0.12 1.59,-0.16 1.59,-0.19 1.6,-0.18 1.59,-0.15 1.59,-0.13 1.59,-0.11 1.59,-0.11 1.59,-0.14 1.59,-0.16 1.59,-0.19 1.59,-0.18 1.59,-0.16 1.59,-0.1 1.59,-0.05 1.59,-0.01 1.59,-0.02 1.59,-0.08 1.59,-0.15 1.59,-0.23 1.59,-0.24 1.59,-0.21 1.59,-0.13 1.59,-0.04 1.59,0.03 1.6,0.08 1.59,0.09 1.59,0.07 0.21,0.01"
         style="fill:none;stroke:#000000;stroke-width:1.5;stroke-linecap:round;stroke-linejoin:round;stroke-miterlimit:10;stroke-dasharray:4.5, 7.5;stroke-dashoffset:0;stroke-opacity:1"
         id="path22" /></g></g><g
     id="g24"
     transform="matrix(1.3333333,0,0,-1.3333333,-3.6959997,230.89999)"><path
       inkscape:connector-curvature="0"
       d="M 49.07,43.2 H 195.73"
       style="fill:none;stroke:#000000;stroke-width:0.75;stroke-linecap:round;stroke-linejoin:round;stroke-miterlimit:10;stroke-dasharray:none;stroke-opacity:1"
       id="path26" /><path
       inkscape:connector-curvature="0"
       d="M 49.07,43.2 V 36"
       style="fill:none;stroke:#000000;stroke-width:0.75;stroke-linecap:round;stroke-linejoin:round;stroke-miterlimit:10;stroke-dasharray:none;stroke-opacity:1"
       id="path28" /><path
       inkscape:connector-curvature="0"
       d="M 78.4,43.2 V 36"
       style="fill:none;stroke:#000000;stroke-width:0.75;stroke-linecap:round;stroke-linejoin:round;stroke-miterlimit:10;stroke-dasharray:none;stroke-opacity:1"
       id="path30" /><path
       inkscape:connector-curvature="0"
       d="M 107.73,43.2 V 36"
       style="fill:none;stroke:#000000;stroke-width:0.75;stroke-linecap:round;stroke-linejoin:round;stroke-miterlimit:10;stroke-dasharray:none;stroke-opacity:1"
       id="path32" /><path
       inkscape:connector-curvature="0"
       d="M 137.07,43.2 V 36"
       style="fill:none;stroke:#000000;stroke-width:0.75;stroke-linecap:round;stroke-linejoin:round;stroke-miterlimit:10;stroke-dasharray:none;stroke-opacity:1"
       id="path34" /><path
       inkscape:connector-curvature="0"
       d="M 166.4,43.2 V 36"
       style="fill:none;stroke:#000000;stroke-width:0.75;stroke-linecap:round;stroke-linejoin:round;stroke-miterlimit:10;stroke-dasharray:none;stroke-opacity:1"
       id="path36" /><path
       inkscape:connector-curvature="0"
       d="M 195.73,43.2 V 36"
       style="fill:none;stroke:#000000;stroke-width:0.75;stroke-linecap:round;stroke-linejoin:round;stroke-miterlimit:10;stroke-dasharray:none;stroke-opacity:1"
       id="path38" /><text
       transform="matrix(1,0,0,-1,45.73,24.48)"
       style="font-variant:normal;font-weight:normal;font-size:12px;font-family:Helvetica;-inkscape-font-specification:Helvetica;writing-mode:lr-tb;fill:#000000;fill-opacity:1;fill-rule:nonzero;stroke:none"
       id="text42"><tspan
         x="0"
         y="0"
         id="tspan40">0</tspan></text>
<text
       transform="matrix(1,0,0,-1,65.06,24.48)"
       style="font-variant:normal;font-weight:normal;font-size:12px;font-family:Helvetica;-inkscape-font-specification:Helvetica;writing-mode:lr-tb;fill:#000000;fill-opacity:1;fill-rule:nonzero;stroke:none"
       id="text46"><tspan
         x="0 6.6719999 13.344 20.016001"
         y="0"
         id="tspan44">2000</tspan></text>
<text
       transform="matrix(1,0,0,-1,123.72,24.48)"
       style="font-variant:normal;font-weight:normal;font-size:12px;font-family:Helvetica;-inkscape-font-specification:Helvetica;writing-mode:lr-tb;fill:#000000;fill-opacity:1;fill-rule:nonzero;stroke:none"
       id="text50"><tspan
         x="0 6.6719999 13.344 20.016001"
         y="0"
         id="tspan48">6000</tspan></text>
<text
       transform="matrix(1,0,0,-1,179.05,24.48)"
       style="font-variant:normal;font-weight:normal;font-size:12px;font-family:Helvetica;-inkscape-font-specification:Helvetica;writing-mode:lr-tb;fill:#000000;fill-opacity:1;fill-rule:nonzero;stroke:none"
       id="text54"><tspan
         x="0 6.6719999 13.344 20.016001 26.688"
         y="0"
         id="tspan52">10000</tspan></text>
<path
       inkscape:connector-curvature="0"
       d="M 43.2,48 V 152.12"
       style="fill:none;stroke:#000000;stroke-width:0.75;stroke-linecap:round;stroke-linejoin:round;stroke-miterlimit:10;stroke-dasharray:none;stroke-opacity:1"
       id="path56" /><path
       inkscape:connector-curvature="0"
       d="M 43.2,48 H 36"
       style="fill:none;stroke:#000000;stroke-width:0.75;stroke-linecap:round;stroke-linejoin:round;stroke-miterlimit:10;stroke-dasharray:none;stroke-opacity:1"
       id="path58" /><path
       inkscape:connector-curvature="0"
       d="M 43.2,68.82 H 36"
       style="fill:none;stroke:#000000;stroke-width:0.75;stroke-linecap:round;stroke-linejoin:round;stroke-miterlimit:10;stroke-dasharray:none;stroke-opacity:1"
       id="path60" /><path
       inkscape:connector-curvature="0"
       d="M 43.2,89.65 H 36"
       style="fill:none;stroke:#000000;stroke-width:0.75;stroke-linecap:round;stroke-linejoin:round;stroke-miterlimit:10;stroke-dasharray:none;stroke-opacity:1"
       id="path62" /><path
       inkscape:connector-curvature="0"
       d="M 43.2,110.47 H 36"
       style="fill:none;stroke:#000000;stroke-width:0.75;stroke-linecap:round;stroke-linejoin:round;stroke-miterlimit:10;stroke-dasharray:none;stroke-opacity:1"
       id="path64" /><path
       inkscape:connector-curvature="0"
       d="M 43.2,131.29 H 36"
       style="fill:none;stroke:#000000;stroke-width:0.75;stroke-linecap:round;stroke-linejoin:round;stroke-miterlimit:10;stroke-dasharray:none;stroke-opacity:1"
       id="path66" /><path
       inkscape:connector-curvature="0"
       d="M 43.2,152.12 H 36"
       style="fill:none;stroke:#000000;stroke-width:0.75;stroke-linecap:round;stroke-linejoin:round;stroke-miterlimit:10;stroke-dasharray:none;stroke-opacity:1"
       id="path68" /><text
       transform="matrix(0,1,1,0,33.12,26.32)"
       style="font-variant:normal;font-weight:normal;font-size:12px;font-family:Helvetica;-inkscape-font-specification:Helvetica;writing-mode:lr-tb;fill:#000000;fill-opacity:1;fill-rule:nonzero;stroke:none"
       id="text72"><tspan
         x="0 6.6719999 10.008 16.68 23.351999 30.024 36.695999"
         y="0"
         id="tspan70">0.00000</tspan></text>
<text
       transform="matrix(0,1,1,0,33.12,88.79)"
       style="font-variant:normal;font-weight:normal;font-size:12px;font-family:Helvetica;-inkscape-font-specification:Helvetica;writing-mode:lr-tb;fill:#000000;fill-opacity:1;fill-rule:nonzero;stroke:none"
       id="text76"><tspan
         x="0 6.6719999 10.008 16.68 23.351999 30.024 36.695999"
         y="0"
         id="tspan74">0.00015</tspan></text>
<path
       inkscape:connector-curvature="0"
       d="M 43.2,43.2 H 201.6 V 172.8 H 43.2 V 43.2"
       style="fill:none;stroke:#000000;stroke-width:0.75;stroke-linecap:round;stroke-linejoin:round;stroke-miterlimit:10;stroke-dasharray:none;stroke-opacity:1"
       id="path78" /></g><text
     id="text88"
     style="font-variant:normal;font-weight:normal;font-size:16px;font-family:Helvetica;-inkscape-font-specification:Helvetica;writing-mode:lr-tb;fill:#000000;fill-opacity:1;fill-rule:nonzero;stroke:none;stroke-width:1.33333325"
     x="77.130669"
     y="227.06"><tspan
       id="tspan86"
       y="227.06"
       x="77.130669 88.682663 97.578674 105.57867 109.13067 118.02666 126.92267 131.37067 134.92267 143.81866 152.71466 160.71466 165.16267 169.61066 174.77866 183.67465 192.57066 200.57066 204.53867 213.43466 218.76266 224.09067 232.98666"
       style="stroke-width:1.33333325">Nucleotides transferred</tspan></text>
<text
     id="text92"
     style="font-variant:normal;font-weight:normal;font-size:16px;font-family:Helvetica;-inkscape-font-specification:Helvetica;writing-mode:lr-tb;fill:#000000;fill-opacity:1;fill-rule:nonzero;stroke:none;stroke-width:1.33333325"
     transform="rotate(-90)"
     x="-113.56667"
     y="11.664"><tspan
       id="tspan90"
       y="11.664"
       x="-113.56667 -102.01466 -93.118668 -84.222672 -76.222672 -72.67067 -68.222664"
       style="stroke-width:1.33333325">Density</tspan></text>
<g
     id="g94"
     transform="matrix(1.3333333,0,0,-1.3333333,-3.6959997,230.89999)"><g
       id="g96"
       clip-path="url(#clipPath100)"><path
         inkscape:connector-curvature="0"
         d="m 33.37,48.01 1.62,0.02 1.62,0.05 1.62,0.11 1.62,0.22 1.62,0.41 1.62,0.72 1.62,1.18 1.62,1.8 1.62,2.55 1.62,3.38 1.62,4.21 1.62,4.99 1.62,5.6 1.62,6.06 1.62,6.36 1.62,6.57 1.62,6.76 1.62,6.99 1.62,7.22 1.62,7.39 1.62,7.42 1.62,7.21 1.62,6.72 1.62,5.92 1.62,4.86 1.62,3.57 1.62,2.12 1.62,0.57 1.62,-0.81 1.62,-1.93 1.62,-2.69 1.62,-3.08 1.62,-3.18 1.62,-3.11 1.62,-3.04 1.62,-3.01 1.62,-3.06 1.62,-3.11 1.62,-3.14 1.62,-3.15 1.62,-3.18 1.62,-3.28 1.62,-3.46 1.62,-3.65 1.62,-3.72 1.62,-3.6 1.62,-3.26 1.62,-2.76 1.62,-2.23 1.62,-1.85 1.62,-1.68 1.62,-1.72 1.62,-1.91 1.62,-2.15 1.62,-2.34 1.62,-2.43 1.62,-2.4 1.62,-2.25 1.62,-2.04 1.62,-1.78 1.62,-1.51 1.62,-1.26 1.62,-1.08 1.62,-1.01 1.62,-1.05 1.62,-1.19 1.62,-1.35 1.62,-1.46 1.62,-1.45 1.62,-1.32 1.62,-1.1 1.62,-0.89 1.62,-0.7 1.62,-0.58 1.62,-0.51 1.62,-0.51 1.62,-0.51 1.62,-0.56 1.62,-0.61 1.62,-0.66 1.62,-0.72 1.62,-0.77 1.62,-0.77 1.62,-0.75 1.62,-0.68 1.62,-0.56 1.62,-0.4 1.62,-0.22 1.62,-0.04 1.62,0.13 1.62,0.25 1.62,0.31 1.62,0.31 1.62,0.24 1.62,0.14 1.62,0.02 1.62,-0.07 1.62,-0.12 1.62,-0.12 1.62,-0.09 1.62,-0.06 1.62,-0.03 1.62,-0.05 1.62,-0.06 1.62,-0.11 1.62,-0.12 1.62,-0.12 1.62,-0.09 1.62,-0.06 1.62,-0.04 1.62,-0.03 1.62,-0.04 1.19,-0.05"
         style="fill:none;stroke:#000000;stroke-width:1.5;stroke-linecap:round;stroke-linejoin:round;stroke-miterlimit:10;stroke-dasharray:none;stroke-opacity:1"
         id="path102" /><path
         inkscape:connector-curvature="0"
         d="m 102.55,166.32 h 91.13 v -34.56 h -91.13 z"
         style="fill:none;stroke:#000000;stroke-width:0.75;stroke-linecap:round;stroke-linejoin:round;stroke-miterlimit:10;stroke-dasharray:none;stroke-opacity:1"
         id="path104" /><path
         inkscape:connector-curvature="0"
         d="m 111.19,154.8 h 17.28"
         style="fill:none;stroke:#000000;stroke-width:1.5;stroke-linecap:round;stroke-linejoin:round;stroke-miterlimit:10;stroke-dasharray:none;stroke-opacity:1"
         id="path106" /><path
         inkscape:connector-curvature="0"
         d="m 111.19,143.28 h 17.28"
         style="fill:none;stroke:#000000;stroke-width:1.5;stroke-linecap:round;stroke-linejoin:round;stroke-miterlimit:10;stroke-dasharray:4.5, 7.5;stroke-dashoffset:0;stroke-opacity:1"
         id="path108" /><text
         transform="matrix(1,0,0,-1,137.11,151.21)"
         style="font-variant:normal;font-weight:normal;font-size:10px;font-family:Helvetica;-inkscape-font-specification:Helvetica;writing-mode:lr-tb;fill:#000000;fill-opacity:1;fill-rule:nonzero;stroke:none"
         id="text112"><tspan
           x="0 5.8400002 8.6199999 11.4 16.959999 19.74 25.58 32.25 38.360001 45.029999"
           y="0"
           id="tspan110">+ to −STEC</tspan></text>
<text
         transform="matrix(1,0,0,-1,137.11,139.69)"
         style="font-variant:normal;font-weight:normal;font-size:10px;font-family:Helvetica;-inkscape-font-specification:Helvetica;writing-mode:lr-tb;fill:#000000;fill-opacity:1;fill-rule:nonzero;stroke:none"
         id="text116"><tspan
           x="0 5.8400002 8.6199999 11.4 16.959999 19.74 25.58 32.25 38.360001 45.029999"
           y="0"
           id="tspan114">− to +STEC</tspan></text>
</g></g></svg>