<?xml version="1.0" encoding="UTF-8" standalone="no"?>
<svg
   xmlns:dc="http://purl.org/dc/elements/1.1/"
   xmlns:cc="http://creativecommons.org/ns#"
   xmlns:rdf="http://www.w3.org/1999/02/22-rdf-syntax-ns#"
   xmlns:svg="http://www.w3.org/2000/svg"
   xmlns="http://www.w3.org/2000/svg"
   viewBox="0 0 629.55078 235.88835"
   height="235.88835"
   width="629.55078"
   xml:space="preserve"
   id="svg2"
   version="1.1"><metadata
     id="metadata8"><rdf:RDF><cc:Work
         rdf:about=""><dc:format>image/svg+xml</dc:format><dc:type
           rdf:resource="http://purl.org/dc/dcmitype/StillImage" /></cc:Work></rdf:RDF></metadata><defs
     id="defs6" /><g
     transform="matrix(1.3333333,0,0,-1.3333333,0,235.88835)"
     id="g10"><g
       id="g12"><g
         transform="matrix(1,0,0,-1,0,176.91626)"
         id="g14"><path
           id="path16"
           style="fill:none;stroke:#000000;stroke-width:1.60000002;stroke-linecap:butt;stroke-linejoin:miter;stroke-miterlimit:4;stroke-dasharray:none;stroke-opacity:1"
           d="M 4.34,164 V 68 h 64 v 96" /></g><g
         transform="matrix(1,0,0,-1,0,176.91626)"
         id="g18"><path
           id="path20"
           style="fill:none;stroke:#000000;stroke-width:1.60000002;stroke-linecap:butt;stroke-linejoin:miter;stroke-miterlimit:4;stroke-dasharray:none;stroke-opacity:1"
           d="M 36.34,68 V 12 h 96 v 152" /></g><g
         transform="matrix(1,0,0,-1,0,176.91626)"
         id="g22"><path
           id="path24"
           style="fill:none;stroke:#ff0000;stroke-width:1.60000002;stroke-linecap:butt;stroke-linejoin:miter;stroke-miterlimit:4;stroke-dasharray:9.6, 1.6;stroke-dashoffset:0;stroke-opacity:1"
           d="m 132.34,132 h -32 V 92 h -32" /></g><g
         transform="matrix(1,0,0,-1,0,176.91626)"
         id="g26"><path
           id="path28"
           style="fill:#ffffff;fill-opacity:1;fill-rule:nonzero;stroke:#000000;stroke-width:1.16923106;stroke-linecap:butt;stroke-linejoin:miter;stroke-miterlimit:4;stroke-dasharray:none;stroke-opacity:1"
           d="m 84.648,109.66 h 30.402 v 4.68 H 84.648 Z" /></g><g
         transform="matrix(1,0,0,-1,0,176.91626)"
         id="g30"><path
           id="path32"
           style="fill:#ff0000;fill-opacity:1;fill-rule:nonzero;stroke:#000000;stroke-width:1.16923106;stroke-linecap:butt;stroke-linejoin:miter;stroke-miterlimit:4;stroke-dasharray:none;stroke-opacity:1"
           d="m 96.344,109.66 h 7.012 v 4.68 h -7.012 z" /></g><path
         id="path34"
         style="fill:#000000;fill-opacity:1;fill-rule:nonzero;stroke:none"
         d="M 4.336,8.397 2.602,3.678 H 6.086 Z M 3.617,9.662 H 5.07 L 8.68,0.178 H 7.352 L 6.492,2.615 H 2.211 L 1.352,0.178 H 0.008 Z" /><path
         id="path36"
         style="fill:#000000;fill-opacity:1;fill-rule:nonzero;stroke:none"
         d="M 66.105,4.709 V 1.225 h 2.047 c 0.696,0 1.207,0.14 1.532,0.422 0.332,0.289 0.5,0.734 0.5,1.328 0,0.594 -0.168,1.031 -0.5,1.312 -0.325,0.282 -0.836,0.422 -1.532,0.422 z m 0,3.891 V 5.74 h 1.891 c 0.625,0 1.086,0.114 1.391,0.344 0.312,0.239 0.468,0.602 0.468,1.094 0,0.477 -0.156,0.832 -0.468,1.062 -0.305,0.239 -0.766,0.36 -1.391,0.36 z m -1.281,1.062 h 3.266 c 0.976,0 1.734,-0.203 2.265,-0.609 0.532,-0.406 0.797,-0.984 0.797,-1.734 0,-0.586 -0.136,-1.047 -0.406,-1.391 -0.273,-0.344 -0.672,-0.559 -1.203,-0.641 0.633,-0.136 1.125,-0.418 1.469,-0.843 0.351,-0.43 0.531,-0.965 0.531,-1.61 0,-0.844 -0.293,-1.5 -0.875,-1.969 -0.574,-0.46 -1.391,-0.687 -2.453,-0.687 h -3.391 z" /><path
         id="path38"
         style="fill:#000000;fill-opacity:1;fill-rule:nonzero;stroke:none"
         d="m 136.164,8.936 v -1.36 c -0.437,0.407 -0.902,0.707 -1.391,0.907 -0.48,0.195 -0.996,0.297 -1.546,0.297 -1.086,0 -1.918,-0.336 -2.5,-1 -0.575,-0.657 -0.86,-1.61 -0.86,-2.86 0,-1.25 0.285,-2.211 0.86,-2.875 0.582,-0.656 1.414,-0.984 2.5,-0.984 0.55,0 1.066,0.097 1.546,0.297 0.489,0.195 0.954,0.492 1.391,0.89 V 0.92 c -0.449,-0.312 -0.922,-0.547 -1.422,-0.703 -0.5,-0.144 -1.031,-0.219 -1.594,-0.219 -1.437,0 -2.57,0.438 -3.39,1.313 -0.824,0.883 -1.235,2.086 -1.235,3.609 0,1.52 0.411,2.719 1.235,3.594 0.82,0.883 1.953,1.328 3.39,1.328 0.563,0 1.094,-0.078 1.594,-0.234 0.508,-0.149 0.985,-0.371 1.422,-0.672 z" /><g
         transform="matrix(1,0,0,-1,0,176.91626)"
         id="g40"><path
           id="path42"
           style="fill:none;stroke:#000000;stroke-width:1.60000002;stroke-linecap:butt;stroke-linejoin:miter;stroke-miterlimit:4;stroke-dasharray:none;stroke-opacity:1"
           d="M 172.34,164 V 68 h 64 v 96" /></g><g
         transform="matrix(1,0,0,-1,0,176.91626)"
         id="g44"><path
           id="path46"
           style="fill:none;stroke:#000000;stroke-width:1.60000002;stroke-linecap:butt;stroke-linejoin:miter;stroke-miterlimit:4;stroke-dasharray:none;stroke-opacity:1"
           d="m 236.34,92 h 64 v 72" /></g><g
         transform="matrix(1,0,0,-1,0,176.91626)"
         id="g48"><path
           id="path50"
           style="fill:none;stroke:#0007ff;stroke-width:1.60000002;stroke-linecap:butt;stroke-linejoin:miter;stroke-miterlimit:4;stroke-dasharray:9.6, 1.6;stroke-dashoffset:0;stroke-opacity:1"
           d="m 300.34,120 h -32 V 12 h -64" /></g><path
         id="path52"
         style="fill:#000000;fill-opacity:1;fill-rule:nonzero;stroke:none"
         d="m 172.336,8.397 -1.734,-4.719 h 3.484 z m -0.719,1.265 h 1.453 l 3.61,-9.484 h -1.328 l -0.86,2.437 h -4.281 l -0.859,-2.437 h -1.344 z" /><path
         id="path54"
         style="fill:#000000;fill-opacity:1;fill-rule:nonzero;stroke:none"
         d="M 234.266,4.709 V 1.225 h 2.046 c 0.696,0 1.208,0.14 1.532,0.422 0.332,0.289 0.5,0.734 0.5,1.328 0,0.594 -0.168,1.031 -0.5,1.312 -0.324,0.282 -0.836,0.422 -1.532,0.422 z m 0,3.891 V 5.74 h 1.89 c 0.625,0 1.086,0.114 1.391,0.344 0.312,0.239 0.469,0.602 0.469,1.094 0,0.477 -0.157,0.832 -0.469,1.062 -0.305,0.239 -0.766,0.36 -1.391,0.36 z m -1.282,1.062 h 3.266 c 0.977,0 1.734,-0.203 2.266,-0.609 0.531,-0.406 0.796,-0.984 0.796,-1.734 0,-0.586 -0.136,-1.047 -0.406,-1.391 -0.273,-0.344 -0.672,-0.559 -1.203,-0.641 0.633,-0.136 1.125,-0.418 1.469,-0.843 0.351,-0.43 0.531,-0.965 0.531,-1.61 0,-0.844 -0.293,-1.5 -0.875,-1.969 -0.574,-0.46 -1.39,-0.687 -2.453,-0.687 h -3.391 z" /><path
         id="path56"
         style="fill:#000000;fill-opacity:1;fill-rule:nonzero;stroke:none"
         d="m 304.164,8.936 v -1.36 c -0.437,0.407 -0.902,0.707 -1.391,0.907 -0.48,0.195 -0.996,0.297 -1.546,0.297 -1.086,0 -1.918,-0.336 -2.5,-1 -0.575,-0.657 -0.86,-1.61 -0.86,-2.86 0,-1.25 0.285,-2.211 0.86,-2.875 0.582,-0.656 1.414,-0.984 2.5,-0.984 0.55,0 1.066,0.097 1.546,0.297 0.489,0.195 0.954,0.492 1.391,0.89 V 0.92 c -0.449,-0.312 -0.922,-0.547 -1.422,-0.703 -0.5,-0.144 -1.031,-0.219 -1.594,-0.219 -1.437,0 -2.57,0.438 -3.39,1.313 -0.824,0.883 -1.235,2.086 -1.235,3.609 0,1.52 0.411,2.719 1.235,3.594 0.82,0.883 1.953,1.328 3.39,1.328 0.563,0 1.094,-0.078 1.594,-0.234 0.508,-0.149 0.985,-0.371 1.422,-0.672 z" /><g
         transform="matrix(1,0,0,-1,0,176.91626)"
         id="g58"><path
           id="path60"
           style="fill:none;stroke:#000000;stroke-width:1.60000002;stroke-linecap:butt;stroke-linejoin:miter;stroke-miterlimit:4;stroke-dasharray:none;stroke-opacity:1"
           d="M 204.34,68 V 0" /></g><g
         transform="matrix(1,0,0,-1,0,176.91626)"
         id="g62"><path
           id="path64"
           style="fill:none;stroke:#ff00cd;stroke-width:1.60000002;stroke-linecap:butt;stroke-linejoin:miter;stroke-miterlimit:4;stroke-dasharray:9.6, 1.6;stroke-dashoffset:0;stroke-opacity:1"
           d="m 300.34,148 h -28 V 16 h -68" /></g><g
         transform="matrix(1,0,0,-1,0,176.91626)"
         id="g66"><path
           id="path68"
           style="fill:#ffffff;fill-opacity:1;fill-rule:nonzero;stroke:#000000;stroke-width:1.16923106;stroke-linecap:butt;stroke-linejoin:miter;stroke-miterlimit:4;stroke-dasharray:none;stroke-opacity:1"
           d="m 252.648,101.66 h 30.402 v 4.68 h -30.402 z" /></g><g
         transform="matrix(1,0,0,-1,0,176.91626)"
         id="g70"><path
           id="path72"
           style="fill:#0007ff;fill-opacity:1;fill-rule:nonzero;stroke:#000000;stroke-width:1.16923106;stroke-linecap:butt;stroke-linejoin:miter;stroke-miterlimit:4;stroke-dasharray:none;stroke-opacity:1"
           d="m 252.648,101.66 h 11.695 v 4.68 h -11.695 z" /></g><g
         transform="matrix(1,0,0,-1,0,176.91626)"
         id="g74"><path
           id="path76"
           style="fill:#ffffff;fill-opacity:1;fill-rule:nonzero;stroke:#000000;stroke-width:1.16923106;stroke-linecap:butt;stroke-linejoin:miter;stroke-miterlimit:4;stroke-dasharray:none;stroke-opacity:1"
           d="m 257.141,129.66 h 30.402 v 4.68 h -30.402 z" /></g><g
         transform="matrix(1,0,0,-1,0,176.91626)"
         id="g78"><path
           id="path80"
           style="fill:#ff00cd;fill-opacity:1;fill-rule:nonzero;stroke:#000000;stroke-width:1.16923106;stroke-linecap:butt;stroke-linejoin:miter;stroke-miterlimit:4;stroke-dasharray:none;stroke-opacity:1"
           d="m 275.848,129.66 h 12.492 v 4.68 h -12.492 z" /></g><g
         transform="matrix(1,0,0,-1,0,176.91626)"
         id="g82"><path
           id="path84"
           style="fill:none;stroke:#000000;stroke-width:1.60000002;stroke-linecap:butt;stroke-linejoin:miter;stroke-miterlimit:4;stroke-dasharray:none;stroke-opacity:1"
           d="M 340.34,164 V 68 h 64 v 96" /></g><g
         transform="matrix(1,0,0,-1,0,176.91626)"
         id="g86"><path
           id="path88"
           style="fill:none;stroke:#000000;stroke-width:1.60000002;stroke-linecap:butt;stroke-linejoin:miter;stroke-miterlimit:4;stroke-dasharray:none;stroke-opacity:1"
           d="M 372.34,68 V 12 h 96 v 152" /></g><g
         transform="matrix(1,0,0,-1,0,176.91626)"
         id="g90"><path
           id="path92"
           style="fill:none;stroke:#ff0000;stroke-width:1.60000002;stroke-linecap:butt;stroke-linejoin:miter;stroke-miterlimit:4;stroke-dasharray:9.6, 1.6;stroke-dashoffset:0;stroke-opacity:1"
           d="m 468.34,132 h -32 V 92 h -32" /></g><g
         transform="matrix(1,0,0,-1,0,176.91626)"
         id="g94"><path
           id="path96"
           style="fill:#ffffff;fill-opacity:1;fill-rule:nonzero;stroke:#000000;stroke-width:1.16923106;stroke-linecap:butt;stroke-linejoin:miter;stroke-miterlimit:4;stroke-dasharray:none;stroke-opacity:1"
           d="m 420.648,109.66 h 30.402 v 4.68 h -30.402 z" /></g><g
         transform="matrix(1,0,0,-1,0,176.91626)"
         id="g98"><path
           id="path100"
           style="fill:#ff0000;fill-opacity:1;fill-rule:nonzero;stroke:#000000;stroke-width:1.16923106;stroke-linecap:butt;stroke-linejoin:miter;stroke-miterlimit:4;stroke-dasharray:none;stroke-opacity:1"
           d="m 432.344,109.66 h 7.012 v 4.68 h -7.012 z" /></g><path
         id="path102"
         style="fill:#000000;fill-opacity:1;fill-rule:nonzero;stroke:none"
         d="m 340.336,8.397 -1.734,-4.719 h 3.484 z m -0.719,1.265 h 1.453 l 3.61,-9.484 h -1.328 l -0.86,2.437 h -4.281 l -0.859,-2.437 h -1.344 z" /><path
         id="path104"
         style="fill:#000000;fill-opacity:1;fill-rule:nonzero;stroke:none"
         d="M 402.105,4.709 V 1.225 h 2.047 c 0.696,0 1.207,0.14 1.532,0.422 0.332,0.289 0.5,0.734 0.5,1.328 0,0.594 -0.168,1.031 -0.5,1.312 -0.325,0.282 -0.836,0.422 -1.532,0.422 z m 0,3.891 V 5.74 h 1.891 c 0.625,0 1.086,0.114 1.391,0.344 0.312,0.239 0.468,0.602 0.468,1.094 0,0.477 -0.156,0.832 -0.468,1.062 -0.305,0.239 -0.766,0.36 -1.391,0.36 z m -1.281,1.062 h 3.266 c 0.976,0 1.734,-0.203 2.265,-0.609 0.532,-0.406 0.797,-0.984 0.797,-1.734 0,-0.586 -0.136,-1.047 -0.406,-1.391 -0.273,-0.344 -0.672,-0.559 -1.203,-0.641 0.633,-0.136 1.125,-0.418 1.469,-0.843 0.351,-0.43 0.531,-0.965 0.531,-1.61 0,-0.844 -0.293,-1.5 -0.875,-1.969 -0.574,-0.46 -1.391,-0.687 -2.453,-0.687 h -3.391 z" /><path
         id="path106"
         style="fill:#000000;fill-opacity:1;fill-rule:nonzero;stroke:none"
         d="m 472.164,8.936 v -1.36 c -0.437,0.407 -0.902,0.707 -1.391,0.907 -0.48,0.195 -0.996,0.297 -1.546,0.297 -1.086,0 -1.918,-0.336 -2.5,-1 -0.575,-0.657 -0.86,-1.61 -0.86,-2.86 0,-1.25 0.285,-2.211 0.86,-2.875 0.582,-0.656 1.414,-0.984 2.5,-0.984 0.55,0 1.066,0.097 1.546,0.297 0.489,0.195 0.954,0.492 1.391,0.89 V 0.92 c -0.449,-0.312 -0.922,-0.547 -1.422,-0.703 -0.5,-0.144 -1.031,-0.219 -1.594,-0.219 -1.437,0 -2.57,0.438 -3.39,1.313 -0.824,0.883 -1.235,2.086 -1.235,3.609 0,1.52 0.411,2.719 1.235,3.594 0.82,0.883 1.953,1.328 3.39,1.328 0.563,0 1.094,-0.078 1.594,-0.234 0.508,-0.149 0.985,-0.371 1.422,-0.672 z" /><g
         transform="matrix(1,0,0,-1,0,176.91626)"
         id="g108"><path
           id="path110"
           style="fill:none;stroke:#006e07;stroke-width:1.60000002;stroke-linecap:butt;stroke-linejoin:miter;stroke-miterlimit:4;stroke-dasharray:9.6, 1.6;stroke-dashoffset:0;stroke-opacity:1"
           d="m 404.34,148 h -24 v -40 h 24" /></g><g
         transform="matrix(1,0,0,-1,0,176.91626)"
         id="g112"><path
           id="path114"
           style="fill:none;stroke:#8d5c02;stroke-width:1.60000002;stroke-linecap:butt;stroke-linejoin:miter;stroke-miterlimit:4;stroke-dasharray:9.6, 1.6;stroke-dashoffset:0;stroke-opacity:1"
           d="m 372.34,52 h 16 V 20 h -16" /></g></g></g></svg>