<?xml version="1.0" encoding="UTF-8" standalone="no"?>
<svg
   xmlns:dc="http://purl.org/dc/elements/1.1/"
   xmlns:cc="http://creativecommons.org/ns#"
   xmlns:rdf="http://www.w3.org/1999/02/22-rdf-syntax-ns#"
   xmlns:svg="http://www.w3.org/2000/svg"
   xmlns="http://www.w3.org/2000/svg"
   xmlns:sodipodi="http://sodipodi.sourceforge.net/DTD/sodipodi-0.dtd"
   xmlns:inkscape="http://www.inkscape.org/namespaces/inkscape"
   version="1.1"
   x="0px"
   y="0px"
   viewBox="0 0 68.097939 68.116997"
   enable-background="new 0 0 100 100"
   xml:space="preserve"
   id="svg10"
   sodipodi:docname="ointment.svg"
   width="68.097939"
   height="68.116997"
   inkscape:version="0.92.0 r15299"><metadata
     id="metadata16"><rdf:RDF><cc:Work
         rdf:about=""><dc:format>image/svg+xml</dc:format><dc:type
           rdf:resource="http://purl.org/dc/dcmitype/StillImage" /><dc:title></dc:title></cc:Work></rdf:RDF></metadata><defs
     id="defs14"><inkscape:path-effect
       effect="bspline"
       id="path-effect3711"
       is_visible="true"
       weight="33.333333"
       steps="2"
       helper_size="0"
       apply_no_weight="true"
       apply_with_weight="true"
       only_selected="false" /><inkscape:path-effect
       effect="bspline"
       id="path-effect3709"
       is_visible="true"
       weight="33.333333"
       steps="2"
       helper_size="0"
       apply_no_weight="true"
       apply_with_weight="true"
       only_selected="false" /></defs><sodipodi:namedview
     pagecolor="#ffffff"
     bordercolor="#666666"
     borderopacity="1"
     objecttolerance="10"
     gridtolerance="10"
     guidetolerance="10"
     inkscape:pageopacity="0"
     inkscape:pageshadow="2"
     inkscape:window-width="1918"
     inkscape:window-height="1042"
     id="namedview12"
     showgrid="false"
     fit-margin-top="0"
     fit-margin-left="0"
     fit-margin-right="0"
     fit-margin-bottom="0"
     inkscape:zoom="5.3400704"
     inkscape:cx="12.01976"
     inkscape:cy="9.4086211"
     inkscape:window-x="1920"
     inkscape:window-y="138"
     inkscape:window-maximized="0"
     inkscape:current-layer="svg10" /><path
     d="m 0.24093675,33.286 c -0.194,3.813 -0.396,7.755 -0.064,11.632 C 1.0979368,55.713 6.7919368,63.669 15.406937,66.2 c 5.695,1.672 11.238,1.912 16.385,1.916 10e-4,0 0.002,0.001 0.004,0.001 0.017,0 0.035,0 0.053,0 0.018,0 0.035,0 0.053,0 0.001,0 0.002,-0.001 0.004,-0.001 5.147,-0.003 10.691,-0.243 16.385,-1.916 8.615,-2.531 14.309,-10.487 15.23,-21.282 0.332,-3.875 0.13,-7.816 -0.064,-11.628 -0.039,-0.762 -0.078,-1.522 -0.112,-2.281 -0.203,-4.468 -1.496,-8.604 -3.636,-11.758 2.363,-1.028 3.769,-2.254 3.769,-3.672 0.289,-7.394 -1.922,-9.619 -2.314,-9.955 -2.839,-3.687 -16.101,-5.612 -29.258,-5.623 0,0 -0.002,-0.001 -0.003,-0.001 -0.018,0 -0.035,0 -0.053,0 -0.018,0 -0.035,0 -0.053,0 -0.001,0 -0.002,0.001 -0.002,0.001 -13.157,0.01 -26.4200002,1.936 -29.2590002,5.623 -0.393,0.336 -2.60400005,2.56 -2.31500005,9.926 0,1.427 1.40800005,2.66 3.77500005,3.693 -2.144,3.155 -3.43900005,7.294 -3.64200005,11.766 -0.036,0.757 -0.074,1.516 -0.113,2.277 z M 31.789937,35.883 c 0.002,0 0.003,10e-4 0.005,10e-4 0.018,0 0.035,0 0.053,0 0.018,0 0.035,0 0.053,0 0.002,0 0.003,-10e-4 0.005,-10e-4 13.949,-0.011 25.831,-2.007 29.929,-4.941 0.002,0.045 0.008,0.089 0.01,0.135 0.035,0.761 0.073,1.524 0.112,2.289 0.192,3.762 0.391,7.651 0.068,11.424 -0.17,1.987 -0.514,3.867 -1.01,5.63 -3.69,2.77 -15.584,4.695 -29.168,4.701 -13.584,-0.005 -25.4780002,-1.931 -29.1680002,-4.7 -0.496,-1.763 -0.84,-3.643 -1.01,-5.63 -0.322,-3.774 -0.124,-7.665 0.068,-11.428 0.039,-0.763 0.078,-1.525 0.112,-2.285 0.002,-0.045 0.008,-0.089 0.01,-0.135 4.1,2.933 15.9830002,4.929 29.9310002,4.94 z m 16.077,28.877 c -5.534,1.626 -10.968,1.854 -16.019,1.856 -5.051,-0.002 -10.485,-0.23 -16.019,-1.856 -5.772,-1.695 -10.1230002,-6.065 -12.4310002,-12.177 5.075,2.448 15.9120002,4.026 28.3920002,4.036 0.002,0 0.003,10e-4 0.005,10e-4 0.018,0 0.035,0 0.053,0 0.018,0 0.035,0 0.053,0 0.002,0 0.003,-10e-4 0.005,-10e-4 12.481,-0.009 23.318,-1.588 28.393,-4.036 -2.308,6.112 -6.66,10.482 -12.432,12.177 z M 31.847937,1.5 c 16.099,0.006 26.501,2.747 28.143,5.01 0.008,0.016 0.021,0.028 0.029,0.044 0.131,0.194 0.205,0.384 0.205,0.568 0,2.345 -10.795,5.615 -28.378,5.621 -17.583,-0.007 -28.3780002,-3.276 -28.3780002,-5.621 0,-0.166 0.06,-0.338 0.168,-0.512 0.026,-0.036 0.055,-0.07 0.074,-0.11 1.668,-2.261 12.0630002,-4.994 28.1370002,-5 z M 1.7199368,15.519 c -0.134,-3.428 0.307,-5.61 0.785,-6.94 2.773,3.713 16.0830002,5.652 29.2880002,5.663 0,0 0.002,10e-4 0.003,10e-4 0.018,0 0.035,0 0.053,0 0.018,0 0.035,0 0.053,0 0.001,0 0.002,-10e-4 0.002,-10e-4 13.203,-0.011 26.51,-1.949 29.287,-5.661 0.479,1.334 0.921,3.524 0.786,6.967 0,2.506 -11.478,6.001 -30.17,6.002 -18.643,-0.011 -30.0870002,-3.499 -30.0870002,-6.031 z m 30.0750002,7.532 v 0 c 0.003,0 0.005,0 0.008,0 0.033,0 0.065,0.001 0.098,0.001 0.002,0 0.003,-0.001 0.005,-0.001 9.983,-0.008 20.352,-1.126 26.371,-3.241 1.784,2.509 2.963,5.758 3.399,9.331 -0.042,0.03 -0.089,0.05 -0.125,0.09 -2.335,2.495 -13.537,5.147 -29.703,5.153 -16.161,-0.006 -27.3640002,-2.656 -29.7010002,-5.151 -0.037,-0.04 -0.084,-0.061 -0.127,-0.09 0.436,-3.577 1.617,-6.829 3.403,-9.339 6.0210002,2.121 16.3900002,3.239 26.3720002,3.247 z"
     id="path2"
     inkscape:connector-curvature="0"
     style="fill:#000000" /><path
     d="m 14.140937,49.461 c 0,0.038 0.016,0.071 0.022,0.108 0.006,0.036 0.01,0.071 0.021,0.105 0.021,0.071 0.053,0.133 0.093,0.194 0.01,0.014 0.018,0.029 0.029,0.043 0.053,0.069 0.116,0.125 0.189,0.172 0.006,0.004 0.01,0.007 0.016,0.011 0.081,0.049 0.17,0.08 0.267,0.096 0.002,0 0.004,0.002 0.006,0.002 0.005,10e-4 0.01,10e-4 0.015,0.002 0.031,0.004 0.059,0.019 0.092,0.019 0.007,0 0.012,-0.004 0.019,-0.004 5.052,0.726 10.925,1.112 17.005,1.117 0.002,0 0.003,10e-4 0.004,10e-4 0.018,0 0.035,0 0.053,0 0.018,0 0.035,0 0.053,0 0.002,0 0.003,-10e-4 0.004,-10e-4 6.099,-0.005 11.985,-0.393 17.046,-1.123 0.017,10e-4 0.032,0.01 0.05,0.01 0.348,0 0.628,-0.242 0.712,-0.563 0.006,-0.02 0.008,-0.04 0.012,-0.06 0.008,-0.043 0.026,-0.082 0.026,-0.127 V 39.29 c 0,-0.028 -0.013,-0.052 -0.016,-0.08 -10e-4,-0.022 0.007,-0.042 0.003,-0.063 -0.005,-0.038 -0.026,-0.068 -0.037,-0.103 -0.008,-0.023 -0.014,-0.047 -0.025,-0.069 -0.128,-0.309 -0.443,-0.51 -0.789,-0.462 -5.04,0.737 -10.931,1.127 -17.04,1.129 -6.081,-0.002 -11.948,-0.389 -16.969,-1.119 -0.249,-0.035 -0.479,0.066 -0.641,0.236 0,0 -10e-4,10e-4 -10e-4,10e-4 -0.058,0.061 -0.104,0.128 -0.139,0.206 -0.015,0.031 -0.024,0.063 -0.034,0.096 -0.01,0.033 -0.029,0.061 -0.034,0.095 -0.003,0.02 0.005,0.038 0.003,0.058 -0.003,0.026 -0.015,0.048 -0.015,0.074 z m 17.774,-8.319 c 0.002,0 0.003,10e-4 0.004,10e-4 0.018,0 0.035,0 0.053,0 0.018,0 0.035,0 0.053,0 0.002,0 0.003,-10e-4 0.004,-10e-4 5.822,-0.005 11.444,-0.362 16.346,-1.029 v 8.669 c -4.898,0.679 -10.547,1.041 -16.403,1.043 -5.826,-0.002 -11.449,-0.361 -16.331,-1.033 v -8.67 c 4.883,0.662 10.48,1.016 16.274,1.02 z"
     id="path4"
     inkscape:connector-curvature="0"
     style="fill:#000000" /><g
     id="g3736"
     transform="matrix(0,0.35130339,-0.35130339,0,107.18923,31.864588)"><text
       id="text6"
       font-weight="bold"
       font-size="5px"
       y="115"
       x="0"
       style="font-weight:bold;font-size:5px;font-family:'Helvetica Neue', Helvetica, Arial-Unicode, Arial, Sans-serif;fill:#000000">Created by Alina Oleynik</text>
<text
       id="text8"
       font-weight="bold"
       font-size="5px"
       y="120"
       x="0"
       style="font-weight:bold;font-size:5px;font-family:'Helvetica Neue', Helvetica, Arial-Unicode, Arial, Sans-serif;fill:#000000">from the Noun Project</text>
</g><text
     xml:space="preserve"
     style="font-style:normal;font-variant:normal;font-weight:normal;font-stretch:normal;font-size:7.74312496px;line-height:18.14794922px;font-family:eufm10;-inkscape-font-specification:eufm10;text-align:center;letter-spacing:0px;word-spacing:0px;writing-mode:lr-tb;text-anchor:middle;fill:#000000;fill-opacity:1;stroke:none;stroke-width:0.72591794px;stroke-linecap:butt;stroke-linejoin:miter;stroke-opacity:1"
     x="31.760073"
     y="47.163734"
     id="text3732"><tspan
       sodipodi:role="line"
       id="tspan3730"
       x="31.760073"
       y="47.163734"
       style="stroke-width:0.72591794px">ointment</tspan></text>
<path
     style="opacity:1;fill:#8f00ff;fill-opacity:1;stroke:#000000;stroke-width:0.73360687;stroke-linecap:butt;stroke-linejoin:round;stroke-miterlimit:4;stroke-dasharray:none;stroke-dashoffset:0;stroke-opacity:1"
     d="M 27.901828,6.237867 C 28.857151,6.089677 28.974262,4.902991 28.542169,4.299156 28.111166,3.696843 27.405939,3.83917 26.730652,3.81234 c -2.034861,0.107226 -4.187443,0.147044 -5.977001,0.342818 -0.613522,0.06712 -1.390471,0.05853 -1.739458,0.707548 -0.349778,0.650497 -0.0035,1.873587 0.869929,1.842258 2.327523,-0.08349 5.160266,-0.02385 8.017707,-0.467099 z"
     id="path5321"
     inkscape:connector-curvature="0"
     sodipodi:nodetypes="sscscss" /><path
     style="opacity:1;fill:#8f00ff;fill-opacity:1;stroke:#000000;stroke-width:0.73360687;stroke-linecap:butt;stroke-linejoin:round;stroke-miterlimit:4;stroke-dasharray:none;stroke-dashoffset:0;stroke-opacity:1"
     d="m 26.730654,3.81234 c 4.73e-4,-0.966747 -1.154091,-1.264944 -1.817187,-0.930843 -0.661425,0.333258 -0.629235,1.051983 -0.759586,1.715114 -0.206953,2.027147 -0.498614,4.16025 -0.58035,5.958629 -0.02802,0.616546 -0.155986,1.382933 0.431653,1.827569 0.588975,0.445646 1.850766,0.291562 1.954117,-0.576295 0.275414,-2.312678 0.769935,-5.102559 0.771351,-7.994174 z"
     id="path5321-7"
     inkscape:connector-curvature="0"
     sodipodi:nodetypes="sscscss" /><path
     style="opacity:1;fill:#8f00ff;fill-opacity:1;stroke:#000000;stroke-width:0.73360687;stroke-linecap:butt;stroke-linejoin:round;stroke-miterlimit:4;stroke-dasharray:none;stroke-dashoffset:0;stroke-opacity:1"
     d="m 34.963931,9.411868 c 0.873973,-0.413246 0.649449,-1.584369 0.06374,-2.040729 -0.584233,-0.45521 -1.22006,-0.118571 -1.875191,0.04737 -1.920742,0.680373 -3.973496,1.329523 -5.63389,2.025179 -0.56924,0.238495 -1.316676,0.450777 -1.467097,1.172161 -0.150762,0.723023 0.528427,1.797528 1.357042,1.519581 2.208106,-0.740676 4.941277,-1.487513 7.555396,-2.723564 z"
     id="path5321-6"
     inkscape:connector-curvature="0"
     sodipodi:nodetypes="sscscss" /><path
     style="opacity:1;fill:#8f00ff;fill-opacity:1;stroke:#000000;stroke-width:0.73360687;stroke-linecap:butt;stroke-linejoin:round;stroke-miterlimit:4;stroke-dasharray:none;stroke-dashoffset:0;stroke-opacity:1"
     d="M 34.313743,2.583806 C 34.943946,1.850699 34.262323,0.872267 33.5416,0.693718 32.822695,0.515619 32.378861,1.081846 31.847937,1.5 c -1.477705,1.403049 -3.088704,2.831291 -4.322369,4.142366 -0.422943,0.449481 -1.019329,0.947525 -0.863205,1.667696 0.156479,0.721808 1.214114,1.426979 1.857936,0.83592 1.715668,-1.575061 3.908461,-3.369399 5.793444,-5.562178 z"
     id="path5321-3"
     inkscape:connector-curvature="0"
     sodipodi:nodetypes="sscscss" /><path
     style="opacity:1;fill:#8f00ff;fill-opacity:1;stroke:#000000;stroke-width:0.73360687;stroke-linecap:butt;stroke-linejoin:round;stroke-miterlimit:4;stroke-dasharray:none;stroke-dashoffset:0;stroke-opacity:1"
     d="m 40.516422,11.71676 c 0.754037,0.605004 1.708815,-0.109376 1.862845,-0.835733 C 42.532909,10.156501 41.95197,9.732105 41.516069,9.215652 40.063764,7.786328 38.581764,6.22464 37.229648,5.036099 36.766096,4.628627 36.248134,4.049456 35.533665,4.229888 c -0.716092,0.180843 -1.385028,1.261761 -0.772497,1.885189 1.632281,1.661323 3.499876,3.792069 5.755256,5.601682 z"
     id="path5321-9"
     inkscape:connector-curvature="0"
     sodipodi:nodetypes="sscscss" /><path
     style="opacity:1;fill:#8f00ff;fill-opacity:1;stroke:#000000;stroke-width:0.73360687;stroke-linecap:butt;stroke-linejoin:round;stroke-miterlimit:4;stroke-dasharray:none;stroke-dashoffset:0;stroke-opacity:1"
     d="m 38.254588,3.685049 c -0.02094,-0.96652 -1.181831,-1.239065 -1.837363,-0.890356 -0.653879,0.34783 -0.605774,1.065666 -0.721401,1.731521 -0.161992,2.031235 -0.406325,4.170276 -0.448199,5.970024 -0.01436,0.617015 -0.12531,1.386049 0.472036,1.817558 0.598703,0.432488 1.856771,0.250488 1.94087,-0.619446 0.22411,-2.318212 0.656702,-5.118365 0.594055,-8.009301 z"
     id="path5321-1"
     inkscape:connector-curvature="0"
     sodipodi:nodetypes="sscscss" /><path
     style="opacity:1;fill:#8f00ff;fill-opacity:1;stroke:#000000;stroke-width:0.73360687;stroke-linecap:butt;stroke-linejoin:round;stroke-miterlimit:4;stroke-dasharray:none;stroke-dashoffset:0;stroke-opacity:1"
     d="m 41.516069,9.215652 c 0.873973,-0.413246 0.649449,-1.584369 0.06374,-2.04073 -0.584233,-0.45521 -1.22006,-0.118571 -1.875191,0.04737 -1.920742,0.680374 -3.973496,1.329524 -5.63389,2.02518 -0.56924,0.238495 -1.316676,0.450777 -1.467097,1.172161 -0.150762,0.723023 0.528427,1.797528 1.357042,1.519581 2.208106,-0.740676 4.941277,-1.487513 7.555396,-2.723564 z"
     id="path5321-0"
     inkscape:connector-curvature="0"
     sodipodi:nodetypes="sscscss" /><path
     style="opacity:1;fill:#8f00ff;fill-opacity:1;stroke:#000000;stroke-width:0.73360687;stroke-linecap:butt;stroke-linejoin:round;stroke-miterlimit:4;stroke-dasharray:none;stroke-dashoffset:0;stroke-opacity:1"
     d="m 20.294829,6.937372 c 0.873973,-0.413246 0.649449,-1.584369 0.06374,-2.040729 -0.584233,-0.45521 -1.22006,-0.118571 -1.875191,0.04737 -1.920742,0.680373 -3.973496,1.329523 -5.63389,2.025179 -0.56924,0.238495 -1.316676,0.450777 -1.467097,1.172161 -0.150762,0.723023 0.528427,1.797528 1.357042,1.519581 2.208106,-0.740676 4.941277,-1.487513 7.555396,-2.723564 z"
     id="path5321-6-4"
     inkscape:connector-curvature="0"
     sodipodi:nodetypes="sscscss" /><path
     style="opacity:1;fill:#8f00ff;fill-opacity:1;stroke:#000000;stroke-width:0.73360687;stroke-linecap:butt;stroke-linejoin:round;stroke-miterlimit:4;stroke-dasharray:none;stroke-dashoffset:0;stroke-opacity:1"
     d="M 46.465303,2.715851 C 46.444363,1.749331 45.283472,1.476786 44.62794,1.825495 43.974061,2.173325 44.022166,2.891161 43.906539,3.557016 43.744547,5.588251 43.500214,7.727292 43.45834,9.52704 c -0.01436,0.617015 -0.12531,1.386049 0.472036,1.817558 0.598703,0.432488 1.856771,0.250488 1.94087,-0.619446 0.22411,-2.318212 0.656702,-5.118365 0.594055,-8.009301 z"
     id="path5321-1-1"
     inkscape:connector-curvature="0"
     sodipodi:nodetypes="sscscss" /><path
     style="opacity:1;fill:#8f00ff;fill-opacity:1;stroke:#000000;stroke-width:0.73360687;stroke-linecap:butt;stroke-linejoin:round;stroke-miterlimit:4;stroke-dasharray:none;stroke-dashoffset:0;stroke-opacity:1"
     d="M 51.181751,7.229309 C 52.137074,7.081119 52.254185,5.894433 51.822092,5.290598 51.391089,4.688285 50.685862,4.830612 50.010575,4.803782 47.975714,4.911008 45.823132,4.950826 44.033574,5.1466 c -0.613522,0.06712 -1.390471,0.05853 -1.739458,0.707548 -0.349778,0.650497 -0.0035,1.873587 0.869929,1.842258 2.327523,-0.08349 5.160266,-0.02385 8.017707,-0.467099 z"
     id="path5321-18"
     inkscape:connector-curvature="0"
     sodipodi:nodetypes="sscscss" /></svg>