<?xml version="1.0" encoding="UTF-8" standalone="no"?>
<svg
   xmlns:dc="http://purl.org/dc/elements/1.1/"
   xmlns:cc="http://creativecommons.org/ns#"
   xmlns:rdf="http://www.w3.org/1999/02/22-rdf-syntax-ns#"
   xmlns:svg="http://www.w3.org/2000/svg"
   xmlns="http://www.w3.org/2000/svg"
   viewBox="0 0 768 288"
   height="288"
   width="768"
   xml:space="preserve"
   id="svg2"
   version="1.1"><metadata
     id="metadata8"><rdf:RDF><cc:Work
         rdf:about=""><dc:format>image/svg+xml</dc:format><dc:type
           rdf:resource="http://purl.org/dc/dcmitype/StillImage" /></cc:Work></rdf:RDF></metadata><defs
     id="defs6"><clipPath
       id="clipPath20"
       clipPathUnits="userSpaceOnUse"><path
         id="path18"
         d="m 28.8,28.8 h 540 v 180 h -540 z" /></clipPath><clipPath
       id="clipPath120"
       clipPathUnits="userSpaceOnUse"><path
         id="path118"
         d="m 28.8,28.8 h 540 v 180 h -540 z" /></clipPath></defs><g
     transform="matrix(1.3333333,0,0,-1.3333333,0,288)"
     id="g10"><g
       id="g12" /><g
       id="g14"><g
         clip-path="url(#clipPath20)"
         id="g16"><path
           id="path22"
           style="fill:none;stroke:#000000;stroke-width:0.75;stroke-linecap:round;stroke-linejoin:round;stroke-miterlimit:10;stroke-dasharray:none;stroke-opacity:1"
           d="m 548.8,181.56 h -10.1 -10.1 -10.1 -10.1 -10.11 l -10.1,0.41 -10.1,0.91 h -10.1 -10.1 -10.1 -10.1 l -10.1,0.06 -10.1,0.76 -10.1,0.05 h -10.11 -10.1 -10.1 l -10.1,-0.59 -10.1,-2.28 -10.1,-5.84 -10.1,-0.01 h -10.1 l -10.1,-0.88 -10.1,-3.59 -10.11,-85.54 -10.1,-19.23 -10.1,-2.16 -10.1,-0.11 h -10.1 -10.1 -10.1 -10.1 -10.1 -10.1 -10.11 -10.1 -10.1 -10.1 -10.1 -10.1 -10.1 -10.1 -10.1 -10.1 H 94.25 84.15 74.05 63.95 53.85 43.75 33.65 23.55 13.45 3.35 0" /></g></g><g
       id="g24"><path
         id="path26"
         style="fill:none;stroke:#000000;stroke-width:0.75;stroke-linecap:round;stroke-linejoin:round;stroke-miterlimit:10;stroke-dasharray:none;stroke-opacity:1"
         d="M 548.8,28.8 H 48.8" /><path
         id="path28"
         style="fill:none;stroke:#000000;stroke-width:0.75;stroke-linecap:round;stroke-linejoin:round;stroke-miterlimit:10;stroke-dasharray:none;stroke-opacity:1"
         d="M 548.8,28.8 V 21.6" /><path
         id="path30"
         style="fill:none;stroke:#000000;stroke-width:0.75;stroke-linecap:round;stroke-linejoin:round;stroke-miterlimit:10;stroke-dasharray:none;stroke-opacity:1"
         d="M 448.8,28.8 V 21.6" /><path
         id="path32"
         style="fill:none;stroke:#000000;stroke-width:0.75;stroke-linecap:round;stroke-linejoin:round;stroke-miterlimit:10;stroke-dasharray:none;stroke-opacity:1"
         d="M 348.8,28.8 V 21.6" /><path
         id="path34"
         style="fill:none;stroke:#000000;stroke-width:0.75;stroke-linecap:round;stroke-linejoin:round;stroke-miterlimit:10;stroke-dasharray:none;stroke-opacity:1"
         d="M 248.8,28.8 V 21.6" /><path
         id="path36"
         style="fill:none;stroke:#000000;stroke-width:0.75;stroke-linecap:round;stroke-linejoin:round;stroke-miterlimit:10;stroke-dasharray:none;stroke-opacity:1"
         d="M 148.8,28.8 V 21.6" /><path
         id="path38"
         style="fill:none;stroke:#000000;stroke-width:0.75;stroke-linecap:round;stroke-linejoin:round;stroke-miterlimit:10;stroke-dasharray:none;stroke-opacity:1"
         d="M 48.8,28.8 V 21.6" /><text
         id="text42"
         style="font-variant:normal;font-weight:normal;font-size:12px;font-family:Helvetica;-inkscape-font-specification:Helvetica;writing-mode:lr-tb;fill:#000000;fill-opacity:1;fill-rule:nonzero;stroke:none"
         transform="matrix(1,0,0,-1,40.46,10.08)"><tspan
           id="tspan40"
           y="0"
           x="0 6.6719999 10.008">1.0</tspan></text>
<text
         id="text46"
         style="font-variant:normal;font-weight:normal;font-size:12px;font-family:Helvetica;-inkscape-font-specification:Helvetica;writing-mode:lr-tb;fill:#000000;fill-opacity:1;fill-rule:nonzero;stroke:none"
         transform="matrix(1,0,0,-1,140.46,10.08)"><tspan
           id="tspan44"
           y="0"
           x="0 6.6719999 10.008">0.8</tspan></text>
<text
         id="text50"
         style="font-variant:normal;font-weight:normal;font-size:12px;font-family:Helvetica;-inkscape-font-specification:Helvetica;writing-mode:lr-tb;fill:#000000;fill-opacity:1;fill-rule:nonzero;stroke:none"
         transform="matrix(1,0,0,-1,240.46,10.08)"><tspan
           id="tspan48"
           y="0"
           x="0 6.6719999 10.008">0.6</tspan></text>
<text
         id="text54"
         style="font-variant:normal;font-weight:normal;font-size:12px;font-family:Helvetica;-inkscape-font-specification:Helvetica;writing-mode:lr-tb;fill:#000000;fill-opacity:1;fill-rule:nonzero;stroke:none"
         transform="matrix(1,0,0,-1,340.46,10.08)"><tspan
           id="tspan52"
           y="0"
           x="0 6.6719999 10.008">0.4</tspan></text>
<text
         id="text58"
         style="font-variant:normal;font-weight:normal;font-size:12px;font-family:Helvetica;-inkscape-font-specification:Helvetica;writing-mode:lr-tb;fill:#000000;fill-opacity:1;fill-rule:nonzero;stroke:none"
         transform="matrix(1,0,0,-1,440.46,10.08)"><tspan
           id="tspan56"
           y="0"
           x="0 6.6719999 10.008">0.2</tspan></text>
<text
         id="text62"
         style="font-variant:normal;font-weight:normal;font-size:12px;font-family:Helvetica;-inkscape-font-specification:Helvetica;writing-mode:lr-tb;fill:#000000;fill-opacity:1;fill-rule:nonzero;stroke:none"
         transform="matrix(1,0,0,-1,540.46,10.08)"><tspan
           id="tspan60"
           y="0"
           x="0 6.6719999 10.008">0.0</tspan></text>
<path
         id="path64"
         style="fill:none;stroke:#000000;stroke-width:0.75;stroke-linecap:round;stroke-linejoin:round;stroke-miterlimit:10;stroke-dasharray:none;stroke-opacity:1"
         d="M 28.8,40.48 V 199.51" /><path
         id="path66"
         style="fill:none;stroke:#000000;stroke-width:0.75;stroke-linecap:round;stroke-linejoin:round;stroke-miterlimit:10;stroke-dasharray:none;stroke-opacity:1"
         d="M 28.8,40.48 H 21.6" /><path
         id="path68"
         style="fill:none;stroke:#000000;stroke-width:0.75;stroke-linecap:round;stroke-linejoin:round;stroke-miterlimit:10;stroke-dasharray:none;stroke-opacity:1"
         d="M 28.8,70.36 H 21.6" /><path
         id="path70"
         style="fill:none;stroke:#000000;stroke-width:0.75;stroke-linecap:round;stroke-linejoin:round;stroke-miterlimit:10;stroke-dasharray:none;stroke-opacity:1"
         d="M 28.8,100.24 H 21.6" /><path
         id="path72"
         style="fill:none;stroke:#000000;stroke-width:0.75;stroke-linecap:round;stroke-linejoin:round;stroke-miterlimit:10;stroke-dasharray:none;stroke-opacity:1"
         d="M 28.8,139.74 H 21.6" /><path
         id="path74"
         style="fill:none;stroke:#000000;stroke-width:0.75;stroke-linecap:round;stroke-linejoin:round;stroke-miterlimit:10;stroke-dasharray:none;stroke-opacity:1"
         d="M 28.8,169.62 H 21.6" /><path
         id="path76"
         style="fill:none;stroke:#000000;stroke-width:0.75;stroke-linecap:round;stroke-linejoin:round;stroke-miterlimit:10;stroke-dasharray:none;stroke-opacity:1"
         d="M 28.8,199.51 H 21.6" /><text
         id="text80"
         style="font-variant:normal;font-weight:normal;font-size:12px;font-family:Helvetica;-inkscape-font-specification:Helvetica;writing-mode:lr-tb;fill:#000000;fill-opacity:1;fill-rule:nonzero;stroke:none"
         transform="matrix(0,1,1,0,18.72,28.8)"><tspan
           id="tspan78"
           y="0"
           x="0 6.6719999 10.008 16.68">0.05</tspan></text>
<text
         id="text84"
         style="font-variant:normal;font-weight:normal;font-size:12px;font-family:Helvetica;-inkscape-font-specification:Helvetica;writing-mode:lr-tb;fill:#000000;fill-opacity:1;fill-rule:nonzero;stroke:none"
         transform="matrix(0,1,1,0,18.72,88.56)"><tspan
           id="tspan82"
           y="0"
           x="0 6.6719999 10.008 16.68">0.20</tspan></text>
<text
         id="text88"
         style="font-variant:normal;font-weight:normal;font-size:12px;font-family:Helvetica;-inkscape-font-specification:Helvetica;writing-mode:lr-tb;fill:#000000;fill-opacity:1;fill-rule:nonzero;stroke:none"
         transform="matrix(0,1,1,0,18.72,128.07)"><tspan
           id="tspan86"
           y="0"
           x="0 6.6719999 10.008 16.68">0.50</tspan></text>
<text
         id="text92"
         style="font-variant:normal;font-weight:normal;font-size:12px;font-family:Helvetica;-inkscape-font-specification:Helvetica;writing-mode:lr-tb;fill:#000000;fill-opacity:1;fill-rule:nonzero;stroke:none"
         transform="matrix(0,1,1,0,18.72,187.83)"><tspan
           id="tspan90"
           y="0"
           x="0 6.6719999 10.008 16.68">2.00</tspan></text>
<path
         id="path94"
         style="fill:none;stroke:#000000;stroke-width:0.75;stroke-linecap:round;stroke-linejoin:round;stroke-miterlimit:10;stroke-dasharray:none;stroke-opacity:1"
         d="m 28.8,28.8 h 540 v 180 h -540 v -180" /></g><g
       id="g96"><text
         id="text100"
         style="font-variant:normal;font-weight:normal;font-size:12px;font-family:Helvetica;-inkscape-font-specification:Helvetica;writing-mode:lr-tb;fill:#000000;fill-opacity:1;fill-rule:nonzero;stroke:none"
         transform="matrix(0,1,1,0,-5.75,107.81)"><tspan
           id="tspan98"
           y="0"
           x="0">N</tspan></text>
<text
         id="text104"
         style="font-variant:normal;font-weight:normal;font-size:15px;font-family:Symbol;-inkscape-font-specification:Symbol;writing-mode:lr-tb;fill:#000000;fill-opacity:1;fill-rule:nonzero;stroke:none"
         transform="matrix(0,1,1,0,-5.75,116.47)"><tspan
           id="tspan102"
           y="0"
           x="0">(</tspan></text>
<text
         id="text108"
         style="font-variant:normal;font-weight:normal;font-size:12px;font-family:Helvetica;-inkscape-font-specification:Helvetica;writing-mode:lr-tb;fill:#000000;fill-opacity:1;fill-rule:nonzero;stroke:none"
         transform="matrix(0,1,1,0,-5.75,121.46)"><tspan
           id="tspan106"
           y="0"
           x="0">t</tspan></text>
<text
         id="text112"
         style="font-variant:normal;font-weight:normal;font-size:15px;font-family:Symbol;-inkscape-font-specification:Symbol;writing-mode:lr-tb;fill:#000000;fill-opacity:1;fill-rule:nonzero;stroke:none"
         transform="matrix(0,1,1,0,-5.75,124.8)"><tspan
           id="tspan110"
           y="0"
           x="0">)</tspan></text>
</g><g
       id="g114"><g
         clip-path="url(#clipPath120)"
         id="g116"><path
           id="path122"
           style="fill:#bebebe;fill-opacity:1;fill-rule:nonzero;stroke:none"
           d="m 548.8,166.37 h -10.1 -10.1 -10.1 -10.1 -10.11 l -10.1,-0.74 -10.1,3.17 h -10.1 -10.1 -10.1 -10.1 l -10.1,-0.63 -10.1,-9.47 h -10.1 -10.11 -10.1 -10.1 l -10.1,-14.47 -10.1,-6.11 -10.1,-4.87 h -10.1 -10.1 l -10.1,-7.66 -10.1,-76.35 -10.11,-6.79 -10.1,-0.9 -10.1,-1.54 h -10.1 -10.1 -10.1 -10.1 -10.1 -10.1 -10.1 -10.11 -10.1 -10.1 -10.1 -10.1 -10.1 -10.1 -10.1 -10.1 -10.1 H 94.25 84.15 74.05 63.95 53.85 43.75 33.65 23.55 13.45 3.35 0 v 62.66 h 3.35 10.1 10.1 10.1 10.1 10.1 10.1 10.1 10.1 10.1 10.11 10.1 10.1 10.1 10.1 10.1 10.1 10.1 10.1 10.1 10.11 10.1 10.1 10.1 10.1 10.1 10.1 l 10.1,2.58 10.1,84.79 10.1,6.09 10.11,1.71 h 10.1 10.1 10.1 10.1 l 10.1,0.14 10.1,-0.09 h 10.1 10.1 10.1 10.11 10.1 10.1 10.1 10.1 10.1 10.1 10.1 10.1 l 10.1,0.13 h 10.11 10.1 10.1 10.1 10.1 z" /><path
           id="path124"
           style="fill:none;stroke:#000000;stroke-width:1.5;stroke-linecap:round;stroke-linejoin:round;stroke-miterlimit:10;stroke-dasharray:none;stroke-opacity:1"
           d="m 548.8,181.56 h -10.1 -10.1 -10.1 -10.1 -10.11 l -10.1,0.41 -10.1,0.91 h -10.1 -10.1 -10.1 -10.1 l -10.1,0.06 -10.1,0.76 -10.1,0.05 h -10.11 -10.1 -10.1 l -10.1,-0.59 -10.1,-2.28 -10.1,-5.84 -10.1,-0.01 h -10.1 l -10.1,-0.88 -10.1,-3.59 -10.11,-85.54 -10.1,-19.23 -10.1,-2.16 -10.1,-0.11 h -10.1 -10.1 -10.1 -10.1 -10.1 -10.1 -10.11 -10.1 -10.1 -10.1 -10.1 -10.1 -10.1 -10.1 -10.1 -10.1 H 94.25 84.15 74.05 63.95 53.85 43.75 33.65 23.55 13.45 3.35 0" /><path
           id="path126"
           style="fill:none;stroke:#000000;stroke-width:1.5;stroke-linecap:round;stroke-linejoin:round;stroke-miterlimit:10;stroke-dasharray:4.5, 7.5;stroke-dashoffset:0;stroke-opacity:1"
           d="m 548.8,169.62 h -250 V 70.36 H 0" /></g></g></g></svg>