<?xml version="1.0" encoding="UTF-8" standalone="no"?>
<svg
   xmlns:dc="http://purl.org/dc/elements/1.1/"
   xmlns:cc="http://creativecommons.org/ns#"
   xmlns:rdf="http://www.w3.org/1999/02/22-rdf-syntax-ns#"
   xmlns:svg="http://www.w3.org/2000/svg"
   xmlns="http://www.w3.org/2000/svg"
   viewBox="0 0 384 288"
   height="288"
   width="384"
   xml:space="preserve"
   id="svg2"
   version="1.1"><metadata
     id="metadata8"><rdf:RDF><cc:Work
         rdf:about=""><dc:format>image/svg+xml</dc:format><dc:type
           rdf:resource="http://purl.org/dc/dcmitype/StillImage" /></cc:Work></rdf:RDF></metadata><defs
     id="defs6"><clipPath
       id="clipPath34"
       clipPathUnits="userSpaceOnUse"><path
         id="path32"
         d="M 30.1,37.41 H 273.6 V 201.6 H 30.1 Z" /></clipPath></defs><g
     transform="matrix(1.3333333,0,0,-1.3333333,0,288)"
     id="g10"><g
       id="g12" /><g
       id="g14" /><g
       id="g16" /><g
       id="g18"><path
         id="path20"
         style="fill:#ffffff;fill-opacity:1;fill-rule:nonzero;stroke:#ffffff;stroke-width:1.05999994;stroke-linecap:round;stroke-linejoin:round;stroke-miterlimit:10;stroke-dasharray:none;stroke-opacity:1"
         d="M 0,0 H 288 V 216 H 0 Z" /></g><g
       id="g22" /><g
       id="g24" /><g
       id="g26" /><g
       id="g28"><g
         clip-path="url(#clipPath34)"
         id="g30"><path
           id="path36"
           style="fill:#e5e5e5;fill-opacity:1;fill-rule:nonzero;stroke:none"
           d="M 30.1,37.41 H 273.6 V 201.6 H 30.1 Z" /><path
           id="path38"
           style="fill:none;stroke:#f2f2f2;stroke-width:0.52999997;stroke-linecap:butt;stroke-linejoin:round;stroke-miterlimit:10;stroke-dasharray:none;stroke-opacity:1"
           d="M 47.32,37.41 V 201.6" /><path
           id="path40"
           style="fill:none;stroke:#f2f2f2;stroke-width:0.52999997;stroke-linecap:butt;stroke-linejoin:round;stroke-miterlimit:10;stroke-dasharray:none;stroke-opacity:1"
           d="M 108.81,37.41 V 201.6" /><path
           id="path42"
           style="fill:none;stroke:#f2f2f2;stroke-width:0.52999997;stroke-linecap:butt;stroke-linejoin:round;stroke-miterlimit:10;stroke-dasharray:none;stroke-opacity:1"
           d="M 170.3,37.41 V 201.6" /><path
           id="path44"
           style="fill:none;stroke:#f2f2f2;stroke-width:0.52999997;stroke-linecap:butt;stroke-linejoin:round;stroke-miterlimit:10;stroke-dasharray:none;stroke-opacity:1"
           d="M 231.79,37.41 V 201.6" /><path
           id="path46"
           style="fill:none;stroke:#ffffff;stroke-width:1.05999994;stroke-linecap:butt;stroke-linejoin:round;stroke-miterlimit:10;stroke-dasharray:none;stroke-opacity:1"
           d="M 78.06,37.41 V 201.6" /><path
           id="path48"
           style="fill:none;stroke:#ffffff;stroke-width:1.05999994;stroke-linecap:butt;stroke-linejoin:round;stroke-miterlimit:10;stroke-dasharray:none;stroke-opacity:1"
           d="M 139.55,37.41 V 201.6" /><path
           id="path50"
           style="fill:none;stroke:#ffffff;stroke-width:1.05999994;stroke-linecap:butt;stroke-linejoin:round;stroke-miterlimit:10;stroke-dasharray:none;stroke-opacity:1"
           d="M 201.04,37.41 V 201.6" /><path
           id="path52"
           style="fill:none;stroke:#ffffff;stroke-width:1.05999994;stroke-linecap:butt;stroke-linejoin:round;stroke-miterlimit:10;stroke-dasharray:none;stroke-opacity:1"
           d="M 262.53,37.41 V 201.6" /><path
           id="path54"
           style="fill:#008000;fill-opacity:1;fill-rule:nonzero;stroke:#000000;stroke-width:1.05999994;stroke-linecap:round;stroke-linejoin:round;stroke-miterlimit:10;stroke-dasharray:none;stroke-opacity:1"
           d="m 41.17,44.88 h 0.43 0.44 0.43 0.43 0.44 0.43 0.43 0.44 l 0.43,0.01 h 0.43 0.44 0.43 l 0.43,0.01 h 0.44 0.43 l 0.43,0.01 h 0.43 l 0.44,0.01 0.43,0.01 0.43,0.01 0.44,0.01 0.43,0.01 0.43,0.01 0.44,0.02 0.43,0.02 0.43,0.01 0.44,0.02 0.43,0.03 0.43,0.02 0.44,0.03 0.43,0.02 0.43,0.03 0.44,0.04 0.43,0.03 0.43,0.04 0.44,0.04 0.43,0.04 0.43,0.05 0.44,0.05 0.43,0.05 0.43,0.06 0.43,0.06 0.44,0.07 0.43,0.07 0.43,0.08 0.44,0.08 0.43,0.09 0.43,0.09 0.44,0.1 0.43,0.12 0.43,0.11 0.44,0.13 0.43,0.14 0.43,0.15 0.44,0.15 0.43,0.16 0.43,0.18 0.44,0.19 0.43,0.19 0.43,0.21 0.44,0.21 0.43,0.23 0.43,0.23 0.43,0.25 0.44,0.25 0.43,0.26 0.43,0.27 0.44,0.28 0.43,0.29 0.43,0.3 0.44,0.31 0.43,0.33 0.43,0.33 0.44,0.34 0.43,0.35 0.43,0.37 0.44,0.38 0.43,0.4 0.43,0.41 0.44,0.43 0.43,0.45 0.43,0.46 0.44,0.47 0.43,0.5 0.43,0.52 0.44,0.53 0.43,0.56 0.43,0.57 0.43,0.58 0.44,0.61 0.43,0.63 0.43,0.64 0.44,0.66 0.43,0.68 0.43,0.69 0.44,0.71 0.43,0.73 0.43,0.74 0.44,0.76 0.43,0.77 0.43,0.79 0.44,0.8 0.43,0.81 0.43,0.83 0.44,0.84 0.43,0.85 0.43,0.86 0.44,0.87 0.43,0.88 0.43,0.89 0.44,0.88 0.43,0.9 0.43,0.89 0.43,0.89 0.44,0.89 0.43,0.89 0.43,0.88 0.44,0.86 0.43,0.86 0.43,0.85 0.44,0.83 0.43,0.81 0.43,0.8 0.44,0.79 0.43,0.76 0.43,0.75 0.44,0.74 0.43,0.73 0.43,0.72 0.44,0.71 0.43,0.71 0.43,0.71 0.44,0.72 0.43,0.72 0.43,0.73 0.43,0.76 0.44,0.77 0.43,0.8 0.43,0.82 0.44,0.86 0.43,0.88 0.43,0.92 0.44,0.95 0.43,0.99 0.43,1.02 0.44,1.06 0.43,1.08 0.43,1.11 0.44,1.14 0.43,1.16 0.43,1.18 0.44,1.2 0.43,1.21 0.43,1.22 0.44,1.23 0.43,1.23 0.43,1.22 0.44,1.22 0.43,1.22 0.43,1.2 0.43,1.19 0.44,1.17 0.43,1.16 0.43,1.14 0.44,1.12 0.43,1.1 0.43,1.08 0.44,1.06 0.43,1.04 0.43,1.02 0.44,1 0.43,0.97 0.43,0.95 0.44,0.94 0.43,0.91 0.43,0.9 0.44,0.87 0.43,0.85 0.43,0.83 0.44,0.82 0.43,0.79 0.43,0.78 0.43,0.76 0.44,0.75 0.43,0.73 0.43,0.72 0.44,0.7 0.43,0.69 0.43,0.68 0.44,0.67 0.43,0.65 0.43,0.64 0.44,0.62 0.43,0.61 0.43,0.6 0.44,0.57 0.43,0.55 0.43,0.53 0.44,0.5 0.43,0.48 0.43,0.44 0.44,0.41 0.43,0.38 0.43,0.33 0.44,0.3 0.43,0.26 0.43,0.22 0.43,0.18 0.44,0.14 0.43,0.1 0.43,0.06 0.44,0.02 0.43,-0.01 0.43,-0.03 0.44,-0.07 0.43,-0.1 0.43,-0.12 0.44,-0.15 0.43,-0.16 0.43,-0.19 0.44,-0.19 0.43,-0.22 0.43,-0.22 0.44,-0.25 0.43,-0.25 0.43,-0.27 0.44,-0.27 0.43,-0.29 0.43,-0.31 0.43,-0.32 0.44,-0.34 0.43,-0.35 0.43,-0.37 0.44,-0.39 0.43,-0.41 0.43,-0.43 0.44,-0.45 0.43,-0.47 0.43,-0.48 0.44,-0.51 0.43,-0.53 0.43,-0.54 0.44,-0.55 0.43,-0.57 0.43,-0.58 0.44,-0.58 0.43,-0.59 0.43,-0.59 0.44,-0.59 0.43,-0.58 0.43,-0.58 0.44,-0.56 0.43,-0.55 0.43,-0.54 0.43,-0.53 0.44,-0.51 0.43,-0.49 0.43,-0.48 0.44,-0.47 0.43,-0.45 0.43,-0.45 0.44,-0.44 0.43,-0.44 0.43,-0.44 0.44,-0.44 0.43,-0.45 0.43,-0.47 0.44,-0.47 0.43,-0.49 0.43,-0.52 0.44,-0.53 0.43,-0.56 0.43,-0.58 0.44,-0.6 0.43,-0.62 0.43,-0.64 0.43,-0.67 0.44,-0.68 0.43,-0.71 0.43,-0.71 0.44,-0.73 0.43,-0.73 0.43,-0.75 0.44,-0.76 0.43,-0.75 0.43,-0.77 0.44,-0.76 0.43,-0.77 0.43,-0.77 0.44,-0.77 0.43,-0.78 0.43,-0.78 0.44,-0.78 0.43,-0.78 0.43,-0.79 0.44,-0.79 0.43,-0.8 0.43,-0.8 0.44,-0.8 0.43,-0.81 0.43,-0.81 0.43,-0.81 0.44,-0.82 0.43,-0.82 0.43,-0.82 0.44,-0.82 0.43,-0.82 0.43,-0.81 0.44,-0.81 0.43,-0.81 0.43,-0.79 0.44,-0.8 0.43,-0.78 0.43,-0.77 0.44,-0.77 0.43,-0.75 0.43,-0.75 0.44,-0.73 0.43,-0.72 0.43,-0.71 0.44,-0.7 0.43,-0.69 0.43,-0.67 0.43,-0.67 0.44,-0.65 0.43,-0.63 0.43,-0.63 0.44,-0.62 0.43,-0.6 0.43,-0.58 0.44,-0.57 0.43,-0.56 0.43,-0.55 0.44,-0.53 0.43,-0.51 0.43,-0.5 0.44,-0.48 0.43,-0.47 0.43,-0.46 0.44,-0.44 0.43,-0.43 0.43,-0.41 0.44,-0.4 0.43,-0.4 0.43,-0.38 0.44,-0.38 0.43,-0.38 0.43,-0.37 0.43,-0.38 0.44,-0.37 0.43,-0.38 0.43,-0.38 0.44,-0.39 0.43,-0.39 0.43,-0.41 0.44,-0.41 0.43,-0.43 0.43,-0.44 0.44,-0.46 0.43,-0.46 0.43,-0.48 0.44,-0.5 0.43,-0.5 0.43,-0.52 0.44,-0.52 0.43,-0.54 0.43,-0.54 0.44,-0.55 0.43,-0.55 0.43,-0.55 0.44,-0.56 0.43,-0.55 0.43,-0.55 0.43,-0.55 0.44,-0.54 0.43,-0.54 0.43,-0.52 0.44,-0.52 0.43,-0.51 0.43,-0.49 0.44,-0.49 0.43,-0.47 0.43,-0.46 0.44,-0.44 0.43,-0.43 0.43,-0.42 0.44,-0.41 0.43,-0.39 0.43,-0.38 0.44,-0.36 0.43,-0.34 0.43,-0.34 0.44,-0.32 0.43,-0.3 0.43,-0.3 0.43,-0.27 0.44,-0.26 0.43,-0.25 0.43,-0.23 0.44,-0.22 0.43,-0.21 0.43,-0.2 0.44,-0.19 0.43,-0.18 0.43,-0.17 0.44,-0.16 0.43,-0.17 0.43,-0.15 0.44,-0.16 0.43,-0.16 0.43,-0.16 0.44,-0.16 0.43,-0.17 0.43,-0.17 0.44,-0.17 0.43,-0.19 0.43,-0.19 0.44,-0.2 0.43,-0.2 0.43,-0.21 0.43,-0.22 0.44,-0.22 0.43,-0.22 0.43,-0.22 0.44,-0.22 0.43,-0.22 0.43,-0.22 0.44,-0.21 0.43,-0.21 0.43,-0.21 0.44,-0.2 0.43,-0.19 0.43,-0.19 0.44,-0.18 0.43,-0.17 0.43,-0.17 0.44,-0.16 0.43,-0.16 0.43,-0.15 0.44,-0.14 0.43,-0.14 0.43,-0.14 0.43,-0.13 0.44,-0.13 0.43,-0.12 0.43,-0.12 0.44,-0.12 0.43,-0.11 0.43,-0.1 0.44,-0.11 0.43,-0.1 0.43,-0.09 0.44,-0.1 0.43,-0.08 0.43,-0.09 0.44,-0.08 0.43,-0.08 0.43,-0.08 0.44,-0.08 0.43,-0.08 0.43,-0.07 0.44,-0.08 0.43,-0.08 0.43,-0.07 0.44,-0.08 0.43,-0.08 0.43,-0.08 0.43,-0.08 0.44,-0.08 0.43,-0.08 0.43,-0.08 0.44,-0.08 0.43,-0.09 0.43,-0.08 0.44,-0.08 0.43,-0.09 0.43,-0.08 0.44,-0.08 0.43,-0.09 0.43,-0.08 0.44,-0.08 0.43,-0.08 0.43,-0.08 0.44,-0.08 0.43,-0.07 0.43,-0.08 0.44,-0.08 0.43,-0.07 0.43,-0.08 0.43,-0.08 0.44,-0.07 0.43,-0.08 0.43,-0.08 0.44,-0.08 0.43,-0.08 0.43,-0.09 0.44,-0.08 0.43,-0.09 0.43,-0.09 0.44,-0.09 0.43,-0.1 0.43,-0.09 0.44,-0.1 0.43,-0.1 0.43,-0.1 0.44,-0.09 0.43,-0.1 0.43,-0.09 0.44,-0.1 0.43,-0.09 0.43,-0.08 v -0.82 h -0.43 -0.43 -0.44 -0.43 -0.43 -0.44 -0.43 -0.43 -0.44 -0.43 -0.43 -0.44 -0.43 -0.43 -0.44 -0.43 -0.43 -0.44 -0.43 -0.43 -0.44 -0.43 -0.43 -0.43 -0.44 -0.43 -0.43 -0.44 -0.43 -0.43 -0.44 -0.43 -0.43 -0.44 -0.43 -0.43 -0.44 -0.43 -0.43 -0.44 -0.43 -0.43 -0.44 -0.43 -0.43 -0.43 -0.44 -0.43 -0.43 -0.44 -0.43 -0.43 -0.44 -0.43 -0.43 -0.44 -0.43 -0.43 -0.44 -0.43 -0.43 -0.44 -0.43 -0.43 -0.44 -0.43 -0.43 -0.44 -0.43 -0.43 -0.43 -0.44 -0.43 -0.43 -0.44 -0.43 -0.43 -0.44 -0.43 -0.43 -0.44 -0.43 -0.43 -0.44 -0.43 -0.43 -0.44 -0.43 -0.43 -0.44 -0.43 -0.43 -0.43 -0.44 -0.43 -0.43 -0.44 -0.43 -0.43 -0.44 -0.43 -0.43 -0.44 -0.43 -0.43 -0.44 -0.43 -0.43 -0.44 -0.43 -0.43 -0.44 -0.43 -0.43 -0.44 -0.43 -0.43 -0.43 -0.44 -0.43 -0.43 -0.44 -0.43 -0.43 -0.44 -0.43 -0.43 -0.44 -0.43 -0.43 -0.44 -0.43 -0.43 -0.44 -0.43 -0.43 -0.44 -0.43 -0.43 -0.43 -0.44 -0.43 -0.43 -0.44 -0.43 -0.43 -0.44 -0.43 -0.43 -0.44 -0.43 -0.43 -0.44 -0.43 -0.43 -0.44 -0.43 -0.43 -0.44 -0.43 -0.43 -0.44 -0.43 -0.43 -0.43 -0.44 -0.43 -0.43 -0.44 -0.43 -0.43 -0.44 -0.43 -0.43 -0.44 -0.43 -0.43 -0.44 -0.43 -0.43 -0.44 -0.43 -0.43 -0.44 -0.43 -0.43 -0.44 -0.43 -0.43 -0.43 -0.44 -0.43 -0.43 -0.44 -0.43 -0.43 -0.44 -0.43 -0.43 -0.44 -0.43 -0.43 -0.44 -0.43 -0.43 -0.44 -0.43 -0.43 -0.44 -0.43 -0.43 -0.43 -0.44 -0.43 -0.43 -0.44 -0.43 -0.43 -0.44 -0.43 -0.43 -0.44 -0.43 -0.43 -0.44 -0.43 -0.43 -0.44 -0.43 -0.43 -0.44 -0.43 -0.43 -0.44 -0.43 -0.43 -0.43 -0.44 -0.43 -0.43 -0.44 -0.43 -0.43 -0.44 -0.43 -0.43 -0.44 -0.43 -0.43 -0.44 -0.43 -0.43 -0.44 -0.43 -0.43 -0.44 -0.43 -0.43 -0.43 -0.44 -0.43 -0.43 -0.44 -0.43 -0.43 -0.44 -0.43 -0.43 -0.44 -0.43 -0.43 -0.44 -0.43 -0.43 -0.44 -0.43 -0.43 -0.44 -0.43 -0.43 -0.44 -0.43 -0.43 -0.43 -0.44 -0.43 -0.43 -0.44 -0.43 -0.43 -0.44 -0.43 -0.43 -0.44 -0.43 -0.43 -0.44 -0.43 -0.43 -0.44 -0.43 -0.43 -0.44 -0.43 -0.43 -0.43 -0.44 -0.43 -0.43 -0.44 -0.43 -0.43 -0.44 -0.43 -0.43 -0.44 -0.43 -0.43 -0.44 -0.43 -0.43 -0.44 -0.43 -0.43 -0.44 -0.43 -0.43 -0.44 -0.43 -0.43 -0.43 -0.44 -0.43 -0.43 -0.44 -0.43 -0.43 -0.44 -0.43 -0.43 -0.44 -0.43 -0.43 -0.44 -0.43 -0.43 -0.44 -0.43 -0.43 -0.44 -0.43 -0.43 -0.43 -0.44 -0.43 -0.43 -0.44 -0.43 -0.43 -0.44 -0.43 -0.43 -0.44 -0.43 -0.43 -0.44 -0.43 -0.43 -0.44 -0.43 -0.43 -0.44 -0.43 -0.43 -0.44 H 99.65 99.22 98.79 98.35 97.92 97.49 97.05 96.62 96.19 95.75 95.32 94.89 94.45 94.02 93.59 93.15 92.72 92.29 91.85 91.42 90.99 90.55 90.12 89.69 89.26 88.82 88.39 87.96 87.52 87.09 86.66 86.22 85.79 85.36 84.92 84.49 84.06 83.62 83.19 82.76 82.32 81.89 81.46 81.02 80.59 80.16 79.72 79.29 78.86 78.43 77.99 77.56 77.13 76.69 76.26 75.83 75.39 74.96 74.53 74.09 73.66 73.23 72.79 72.36 71.93 71.49 71.06 70.63 70.19 69.76 69.33 68.89 68.46 68.03 67.6 67.16 66.73 66.3 65.86 65.43 65 64.56 64.13 63.7 63.26 62.83 62.4 61.96 61.53 61.1 60.66 60.23 59.8 59.36 58.93 58.5 58.07 57.63 57.2 56.77 56.33 55.9 55.47 55.03 54.6 54.17 53.73 53.3 52.87 52.43 52 51.57 51.13 50.7 50.27 49.83 49.4 48.97 48.53 48.1 47.67 47.24 46.8 46.37 45.94 45.5 45.07 44.64 44.2 43.77 43.34 42.9 42.47 42.04 41.6 Z" /><path
           id="path56"
           style="fill:#333333;fill-opacity:0.50199998;fill-rule:nonzero;stroke:none"
           d="m 42.78,58.69 4.99,2.82 5,2.38 4.99,1.98 4.99,1.6 5,1.27 4.99,0.99 5,0.74 4.99,0.54 5,0.36 4.99,0.21 5,0.09 4.99,-0.01 4.99,-0.1 5,-0.18 4.99,-0.23 5,-0.28 4.99,-0.32 5,-0.35 4.99,-0.38 5,-0.4 4.99,-0.42 4.99,-0.42 5,-0.44 4.99,-0.44 5,-0.44 4.99,-0.45 5,-0.44 4.99,-0.44 5,-0.44 4.99,-0.44 4.99,-0.42 5,-0.43 4.99,-0.41 5,-0.41 4.99,-0.4 5,-0.4 4.99,-0.39 5,-0.38 4.99,-0.37 4.99,-0.36 5,-0.36 4.99,-0.34 5,-0.34 4.99,-0.33 V 44.88 h -4.99 -5 -4.99 -5 -4.99 -4.99 -5 -4.99 -5 -4.99 -5 -4.99 -5 -4.99 -4.99 -5 -4.99 -5 -4.99 -5 -4.99 -5 -4.99 -4.99 -5 -4.99 -5 -4.99 -5 -4.99 -5 -4.99 -4.99 -5 -4.99 -5 -4.99 -5 -4.99 -5 -4.99 -4.99 -5 -4.99 z" /><path
           id="path58"
           style="fill:none;stroke:#ff0000;stroke-width:2.13000011;stroke-linecap:butt;stroke-linejoin:round;stroke-miterlimit:10;stroke-dasharray:8.5, 8.5;stroke-dashoffset:0;stroke-opacity:1"
           d="M 145.08,37.41 V 201.6" /><path
           id="path60"
           style="fill:none;stroke:#00008b;stroke-width:2.13000011;stroke-linecap:butt;stroke-linejoin:round;stroke-miterlimit:10;stroke-dasharray:none;stroke-opacity:1"
           d="M 108.11,37.41 V 201.6" /></g></g><g
       id="g62" /><g
       id="g64" /><g
       id="g66" /><g
       id="g68" /><g
       id="g70" /><g
       id="g72" /><g
       id="g74" /><g
       id="g76" /><g
       id="g78" /><g
       id="g80" /><g
       id="g82"><path
         id="path84"
         style="fill:none;stroke:#7f7f7f;stroke-width:1.05999994;stroke-linecap:butt;stroke-linejoin:round;stroke-miterlimit:10;stroke-dasharray:none;stroke-opacity:1"
         d="m 78.06,33.16 v 4.25" /><path
         id="path86"
         style="fill:none;stroke:#7f7f7f;stroke-width:1.05999994;stroke-linecap:butt;stroke-linejoin:round;stroke-miterlimit:10;stroke-dasharray:none;stroke-opacity:1"
         d="m 139.55,33.16 v 4.25" /><path
         id="path88"
         style="fill:none;stroke:#7f7f7f;stroke-width:1.05999994;stroke-linecap:butt;stroke-linejoin:round;stroke-miterlimit:10;stroke-dasharray:none;stroke-opacity:1"
         d="m 201.04,33.16 v 4.25" /><path
         id="path90"
         style="fill:none;stroke:#7f7f7f;stroke-width:1.05999994;stroke-linecap:butt;stroke-linejoin:round;stroke-miterlimit:10;stroke-dasharray:none;stroke-opacity:1"
         d="m 262.53,33.16 v 4.25" /></g><g
       id="g92" /><g
       id="g94"><text
         id="text98"
         style="font-variant:normal;font-weight:normal;font-size:10px;font-family:Helvetica;-inkscape-font-specification:Helvetica;writing-mode:lr-tb;fill:#7f7f7f;fill-opacity:1;fill-rule:nonzero;stroke:none"
         transform="matrix(1,0,0,-1,65.55,23.15)"><tspan
           id="tspan96"
           y="0"
           x="0 5.5599999 8.3400002 13.9 19.459999">0.005</tspan></text>
<text
         id="text102"
         style="font-variant:normal;font-weight:normal;font-size:10px;font-family:Helvetica;-inkscape-font-specification:Helvetica;writing-mode:lr-tb;fill:#7f7f7f;fill-opacity:1;fill-rule:nonzero;stroke:none"
         transform="matrix(1,0,0,-1,127.04,23.15)"><tspan
           id="tspan100"
           y="0"
           x="0 5.5599999 8.3400002 13.9 19.459999">0.010</tspan></text>
<text
         id="text106"
         style="font-variant:normal;font-weight:normal;font-size:10px;font-family:Helvetica;-inkscape-font-specification:Helvetica;writing-mode:lr-tb;fill:#7f7f7f;fill-opacity:1;fill-rule:nonzero;stroke:none"
         transform="matrix(1,0,0,-1,188.53,23.15)"><tspan
           id="tspan104"
           y="0"
           x="0 5.5599999 8.3400002 13.9 19.459999">0.015</tspan></text>
<text
         id="text110"
         style="font-variant:normal;font-weight:normal;font-size:10px;font-family:Helvetica;-inkscape-font-specification:Helvetica;writing-mode:lr-tb;fill:#7f7f7f;fill-opacity:1;fill-rule:nonzero;stroke:none"
         transform="matrix(1,0,0,-1,250.02,23.15)"><tspan
           id="tspan108"
           y="0"
           x="0 5.5599999 8.3400002 13.9 19.459999">0.020</tspan></text>
</g><g
       id="g112" /><g
       id="g114" /><g
       id="g116" /><g
       id="g118" /><g
       id="g120"><text
         id="text124"
         style="font-variant:normal;font-weight:normal;font-size:12px;font-family:Symbol;-inkscape-font-specification:Symbol;writing-mode:lr-tb;fill:#000000;fill-opacity:1;fill-rule:nonzero;stroke:none"
         transform="matrix(1,0,0,-1,148.56,13.56)"><tspan
           id="tspan122"
           y="0"
           x="0">ρ</tspan></text>
</g><g
       id="g126" /><g
       id="g128"><text
         id="text132"
         style="font-variant:normal;font-weight:normal;font-size:12px;font-family:Helvetica;-inkscape-font-specification:Helvetica;writing-mode:lr-tb;fill:#000000;fill-opacity:1;fill-rule:nonzero;stroke:none"
         transform="matrix(0,1,1,0,19.42,99.5)"><tspan
           id="tspan130"
           y="0"
           x="0 8.6639996 15.336 22.007999 28.007999 30.672001 34.007999">Density</tspan></text>
</g><g
       id="g134" /><g
       id="g136" /><g
       id="g138" /><g
       id="g140" /></g></svg>