<?xml version="1.0" encoding="UTF-8" standalone="no"?>
<svg
   xmlns:dc="http://purl.org/dc/elements/1.1/"
   xmlns:cc="http://creativecommons.org/ns#"
   xmlns:rdf="http://www.w3.org/1999/02/22-rdf-syntax-ns#"
   xmlns:svg="http://www.w3.org/2000/svg"
   xmlns="http://www.w3.org/2000/svg"
   viewBox="0 0 384 288"
   height="288"
   width="384"
   xml:space="preserve"
   id="svg2"
   version="1.1"><metadata
     id="metadata8"><rdf:RDF><cc:Work
         rdf:about=""><dc:format>image/svg+xml</dc:format><dc:type
           rdf:resource="http://purl.org/dc/dcmitype/StillImage" /></cc:Work></rdf:RDF></metadata><defs
     id="defs6"><clipPath
       id="clipPath22"
       clipPathUnits="userSpaceOnUse"><path
         id="path20"
         d="M 0,0 H 288 V 216 H 0 Z" /></clipPath><clipPath
       id="clipPath36"
       clipPathUnits="userSpaceOnUse"><path
         id="path34"
         d="m 30.102,201.602 h 243.5 V 37.149 h -243.5 z" /></clipPath><clipPath
       id="clipPath46"
       clipPathUnits="userSpaceOnUse"><path
         id="path44"
         d="M 30,37 H 274 V 202 H 30 Z" /></clipPath></defs><g
     transform="matrix(1.3333333,0,0,-1.3333333,0,288)"
     id="g10"><g
       id="g12"><g
         id="g14"><g
           id="g16"><g
             clip-path="url(#clipPath22)"
             id="g18"><g
               id="g24"><path
                 id="path26"
                 style="fill:#ffffff;fill-opacity:1;fill-rule:nonzero;stroke:none"
                 d="M 0,0 H 288 V 216 H 0 Z" /><path
                 id="path28"
                 style="fill:none;stroke:#ffffff;stroke-width:1.05999994;stroke-linecap:round;stroke-linejoin:round;stroke-miterlimit:10;stroke-dasharray:none;stroke-opacity:1"
                 d="M 0,216 H 288 V 0 H 0 Z" /></g></g></g></g></g><g
       id="g30"><g
         clip-path="url(#clipPath36)"
         id="g32"><g
           id="g38"><g
             id="g40"><g
               clip-path="url(#clipPath46)"
               id="g42"><g
                 id="g48"><path
                   id="path50"
                   style="fill:#e5e5e5;fill-opacity:1;fill-rule:nonzero;stroke:none"
                   d="m 30.102,201.602 h 243.5 V 37.149 h -243.5 z" /><path
                   id="path52"
                   style="fill:none;stroke:#f2f2f2;stroke-width:0.52999997;stroke-linecap:butt;stroke-linejoin:round;stroke-miterlimit:10;stroke-dasharray:none;stroke-opacity:1"
                   d="M 41.172,37.148 V 201.602" /><path
                   id="path54"
                   style="fill:none;stroke:#f2f2f2;stroke-width:0.52999997;stroke-linecap:butt;stroke-linejoin:round;stroke-miterlimit:10;stroke-dasharray:none;stroke-opacity:1"
                   d="M 104.422,37.148 V 201.602" /><path
                   id="path56"
                   style="fill:none;stroke:#f2f2f2;stroke-width:0.52999997;stroke-linecap:butt;stroke-linejoin:round;stroke-miterlimit:10;stroke-dasharray:none;stroke-opacity:1"
                   d="M 167.66,37.148 V 201.602" /><path
                   id="path58"
                   style="fill:none;stroke:#f2f2f2;stroke-width:0.52999997;stroke-linecap:butt;stroke-linejoin:round;stroke-miterlimit:10;stroke-dasharray:none;stroke-opacity:1"
                   d="M 230.91,37.148 V 201.602" /><path
                   id="path60"
                   style="fill:none;stroke:#ffffff;stroke-width:1.05999994;stroke-linecap:butt;stroke-linejoin:round;stroke-miterlimit:10;stroke-dasharray:none;stroke-opacity:1"
                   d="M 72.789,37.148 V 201.602" /><path
                   id="path62"
                   style="fill:none;stroke:#ffffff;stroke-width:1.05999994;stroke-linecap:butt;stroke-linejoin:round;stroke-miterlimit:10;stroke-dasharray:none;stroke-opacity:1"
                   d="M 136.039,37.148 V 201.602" /><path
                   id="path64"
                   style="fill:none;stroke:#ffffff;stroke-width:1.05999994;stroke-linecap:butt;stroke-linejoin:round;stroke-miterlimit:10;stroke-dasharray:none;stroke-opacity:1"
                   d="M 199.289,37.148 V 201.602" /><path
                   id="path66"
                   style="fill:none;stroke:#ffffff;stroke-width:1.05999994;stroke-linecap:butt;stroke-linejoin:round;stroke-miterlimit:10;stroke-dasharray:none;stroke-opacity:1"
                   d="M 262.531,37.148 V 201.602" /><path
                   id="path68"
                   style="fill:#008000;fill-opacity:1;fill-rule:nonzero;stroke:#000000;stroke-width:1.05999994;stroke-linecap:round;stroke-linejoin:round;stroke-miterlimit:10;stroke-dasharray:none;stroke-opacity:1"
                   d="m 41.172,45.281 0.43,0.078 0.437,0.082 0.43,0.079 0.429,0.101 0.442,0.098 0.43,0.109 0.429,0.121 0.442,0.129 0.429,0.141 0.43,0.152 0.441,0.16 0.86,0.36 0.437,0.211 0.434,0.207 0.43,0.23 0.429,0.25 0.438,0.25 0.429,0.281 0.43,0.289 0.442,0.301 0.429,0.32 0.43,0.329 0.441,0.351 0.43,0.36 0.43,0.371 0.441,0.39 0.43,0.399 0.429,0.41 0.442,0.43 0.43,0.429 0.429,0.449 0.438,0.461 0.429,0.469 0.43,0.481 0.442,0.5 0.429,0.511 0.43,0.52 0.441,0.539 0.43,0.562 0.43,0.579 0.429,0.601 0.442,0.609 0.429,0.641 0.43,0.68 0.442,0.687 0.429,0.731 0.43,0.75 0.437,0.793 0.43,0.808 0.434,0.86 0.437,0.89 0.43,0.918 0.43,0.953 0.441,0.989 0.43,1.011 0.429,1.059 0.442,1.078 0.429,1.121 0.43,1.141 0.442,1.172 0.429,1.187 0.43,1.223 0.43,1.25 0.437,1.269 0.434,1.289 0.429,1.309 0.438,1.332 0.43,1.348 0.429,1.371 0.442,1.39 0.429,1.411 0.43,1.429 0.441,1.442 0.43,1.449 0.43,1.48 0.441,1.481 0.43,1.5 0.43,1.508 0.437,1.519 0.434,1.52 0.429,1.519 0.438,1.532 0.859,3.039 0.442,1.511 0.429,1.508 0.43,1.492 0.43,1.469 0.441,1.473 0.43,1.437 0.43,1.442 0.441,1.41 0.43,1.398 0.429,1.379 0.442,1.371 0.429,1.36 0.43,1.363 0.438,1.34 0.429,1.34 0.434,1.339 0.437,1.34 0.43,1.348 0.43,1.359 0.441,1.364 0.43,1.367 0.43,1.39 0.441,1.391 0.43,1.422 0.429,1.418 0.442,1.441 0.429,1.438 0.86,2.922 0.437,1.461 0.434,1.457 0.43,1.461 0.437,1.449 0.43,1.429 0.429,1.411 0.442,1.39 0.43,1.36 0.429,1.32 0.442,1.293 0.429,1.25 0.43,1.187 0.441,1.141 0.43,1.09 0.43,1.051 0.437,0.988 0.434,0.93 0.43,0.882 0.437,0.821 0.43,0.777 0.429,0.731 0.43,0.691 0.442,0.66 0.429,0.617 0.43,0.602 0.441,0.57 0.43,0.57 0.43,0.551 0.441,0.547 0.43,0.543 0.429,0.551 0.442,0.566 0.43,0.571 0.429,0.582 0.438,0.589 0.429,0.61 0.43,0.621 0.442,0.629 0.429,0.629 0.43,0.64 0.441,0.641 0.43,0.629 0.43,0.633 0.441,0.609 0.43,0.598 0.429,0.57 0.43,0.551 0.442,0.512 0.429,0.476 0.43,0.453 0.437,0.41 0.43,0.368 0.434,0.332 0.437,0.289 0.43,0.242 0.43,0.207 0.441,0.172 0.43,0.129 0.429,0.101 0.442,0.059 0.429,0.039 0.43,-0.008 0.442,-0.031 0.429,-0.051 0.43,-0.078 0.437,-0.109 0.43,-0.133 0.434,-0.149 0.429,-0.172 0.438,-0.199 0.43,-0.211 0.429,-0.218 0.442,-0.25 0.429,-0.25 0.43,-0.282 0.441,-0.277 0.43,-0.289 0.43,-0.293 0.441,-0.301 0.86,-0.617 0.437,-0.313 0.434,-0.296 0.429,-0.313 0.438,-0.301 0.43,-0.297 0.429,-0.3 0.442,-0.301 0.429,-0.301 0.43,-0.309 0.441,-0.308 0.43,-0.32 0.43,-0.332 0.43,-0.348 0.441,-0.383 0.43,-0.398 0.429,-0.422 0.442,-0.457 0.429,-0.5 0.43,-0.551 0.438,-0.59 0.429,-0.633 0.434,-0.687 0.437,-0.731 0.43,-0.789 0.43,-0.84 0.441,-0.902 0.43,-0.937 0.43,-0.981 0.441,-1.031 0.43,-1.07 0.429,-1.11 0.442,-1.14 0.429,-1.168 0.43,-1.18 0.43,-1.192 0.437,-1.21 0.434,-1.211 0.43,-1.207 0.437,-1.204 0.43,-1.179 0.429,-1.168 0.442,-1.16 0.43,-1.121 0.429,-1.098 0.442,-1.07 0.429,-1.043 0.43,-1.008 0.441,-0.981 0.43,-0.949 0.43,-0.91 0.437,-0.883 0.434,-0.848 0.43,-0.82 0.437,-0.801 0.43,-0.757 0.429,-0.75 0.442,-0.723 0.43,-0.699 0.429,-0.68 0.43,-0.672 0.441,-0.656 0.86,-1.281 0.441,-0.641 0.43,-0.629 0.429,-0.641 0.442,-0.64 0.43,-0.649 0.429,-0.671 0.438,-0.68 0.429,-0.692 0.43,-0.718 0.442,-0.731 0.429,-0.758 0.43,-0.793 0.441,-0.82 0.43,-0.84 0.43,-0.867 0.441,-0.902 0.43,-0.93 0.429,-0.961 0.43,-0.976 0.442,-1.012 0.429,-1.02 0.43,-1.05 0.437,-1.059 0.43,-1.07 0.434,-1.082 0.437,-1.09 0.43,-1.09 0.43,-1.078 0.441,-1.082 0.43,-1.059 0.429,-1.051 0.442,-1.031 0.429,-1 0.43,-0.988 0.442,-0.949 0.429,-0.922 0.43,-0.899 0.437,-0.859 0.43,-0.82 0.434,-0.801 0.437,-0.77 0.43,-0.73 0.43,-0.699 0.429,-0.672 0.442,-0.649 0.429,-0.629 0.43,-0.613 0.441,-0.59 0.43,-0.566 0.43,-0.57 0.441,-0.563 0.43,-0.551 0.43,-0.547 0.437,-0.55 0.434,-0.563 0.429,-0.558 0.438,-0.571 0.43,-0.57 0.429,-0.578 0.442,-0.582 0.429,-0.59 0.43,-0.598 0.441,-0.609 0.43,-0.602 0.86,-1.218 0.441,-0.602 0.43,-0.602 0.429,-0.597 0.442,-0.582 0.429,-0.578 0.43,-0.563 0.438,-0.547 0.429,-0.543 0.434,-0.519 0.437,-0.508 0.43,-0.492 0.43,-0.469 0.441,-0.469 0.86,-0.883 0.441,-0.418 0.43,-0.421 0.429,-0.411 0.442,-0.41 0.429,-0.398 0.43,-0.41 0.438,-0.399 0.429,-0.41 0.434,-0.422 0.43,-0.418 0.437,-0.422 0.43,-0.437 0.429,-0.453 0.442,-0.457 0.43,-0.461 0.429,-0.481 0.442,-0.492 0.429,-0.488 0.43,-0.512 0.441,-0.508 0.43,-0.519 0.43,-0.531 0.437,-0.532 0.434,-0.539 0.43,-0.539 0.437,-0.539 0.43,-0.543 0.429,-0.539 0.442,-0.527 0.859,-1.063 0.442,-0.519 0.429,-0.508 0.43,-0.512 0.43,-0.488 0.441,-0.492 0.43,-0.469 0.429,-0.449 0.442,-0.453 0.43,-0.43 0.429,-0.41 0.438,-0.399 0.429,-0.379 0.43,-0.371 0.442,-0.351 0.429,-0.34 0.43,-0.32 0.441,-0.297 0.43,-0.293 0.43,-0.278 0.441,-0.269 0.859,-0.5 0.442,-0.231 0.43,-0.23 0.859,-0.422 0.437,-0.211 0.43,-0.187 0.434,-0.2 0.437,-0.179 0.43,-0.192 0.43,-0.179 0.441,-0.18 0.859,-0.359 0.442,-0.172 0.429,-0.18 0.43,-0.172 0.442,-0.168 0.429,-0.18 0.43,-0.171 0.437,-0.168 0.43,-0.172 0.434,-0.18 0.437,-0.168 0.43,-0.172 0.43,-0.168 0.441,-0.16 0.43,-0.172 0.429,-0.168 0.43,-0.16 0.441,-0.16 0.86,-0.32 0.441,-0.153 0.86,-0.297 0.437,-0.152 0.434,-0.148 0.429,-0.141 0.438,-0.141 0.859,-0.281 0.442,-0.137 0.429,-0.132 0.43,-0.129 0.441,-0.141 0.86,-0.258 0.441,-0.133 0.43,-0.117 0.43,-0.133 0.429,-0.117 0.442,-0.133 0.429,-0.117 0.43,-0.121 0.438,-0.109 0.429,-0.121 0.434,-0.11 0.437,-0.109 0.43,-0.109 0.43,-0.114 0.441,-0.097 0.43,-0.102 0.43,-0.098 0.441,-0.101 0.43,-0.102 0.429,-0.09 0.442,-0.089 0.859,-0.18 0.438,-0.09 0.429,-0.09 0.434,-0.078 0.437,-0.09 0.43,-0.082 0.43,-0.078 0.429,-0.09 0.442,-0.082 0.43,-0.078 0.429,-0.082 0.442,-0.078 0.429,-0.082 0.43,-0.078 0.441,-0.082 0.43,-0.071 0.43,-0.078 0.437,-0.082 0.434,-0.078 0.43,-0.07 0.437,-0.078 0.859,-0.141 0.442,-0.07 0.859,-0.141 0.442,-0.07 0.429,-0.07 0.43,-0.059 0.43,-0.07 0.441,-0.063 0.43,-0.058 0.429,-0.071 0.442,-0.058 0.43,-0.063 0.429,-0.066 0.438,-0.063 0.859,-0.14 0.442,-0.071 0.429,-0.066 0.43,-0.07 0.441,-0.071 0.43,-0.082 0.43,-0.07 0.441,-0.078 0.43,-0.082 0.429,-0.078 0.442,-0.082 0.43,-0.079 0.429,-0.082 V 44.629 H 41.172 Z" /><path
                   id="path70"
                   style="fill:#333333;fill-opacity:0.50199998;fill-rule:nonzero;stroke:none"
                   d="m 41.359,62.621 1.27,0.117 1.269,0.121 1.262,0.11 1.27,0.109 2.539,0.203 1.261,0.098 3.809,0.269 1.262,0.082 1.269,0.079 1.27,0.082 1.269,0.07 1.262,0.07 2.539,0.141 1.27,0.058 1.261,0.059 1.27,0.063 1.269,0.046 1.258,0.051 1.274,0.051 1.269,0.051 1.27,0.039 1.258,0.039 1.269,0.043 1.274,0.039 1.269,0.039 1.258,0.031 1.269,0.028 1.274,0.031 1.269,0.031 1.258,0.02 1.27,0.031 1.269,0.019 1.274,0.02 1.258,0.019 1.269,0.008 1.27,0.024 1.269,0.008 1.262,0.011 1.269,0.008 1.27,0.012 1.269,0.008 h 2.532 l 1.269,0.011 H 106 l 1.27,-0.011 h 1.269 l 1.262,-0.008 h 1.269 l 1.27,-0.012 1.269,-0.008 1.262,-0.011 1.27,-0.008 1.269,-0.012 1.27,-0.02 1.261,-0.011 1.27,-0.008 2.539,-0.039 1.262,-0.024 1.269,-0.007 2.539,-0.039 1.258,-0.032 1.274,-0.019 2.539,-0.039 1.257,-0.032 1.274,-0.019 1.269,-0.031 1.258,-0.02 1.27,-0.031 1.269,-0.027 1.274,-0.032 1.258,-0.031 1.269,-0.027 1.27,-0.024 1.269,-0.039 1.262,-0.027 3.808,-0.094 1.262,-0.039 1.27,-0.027 1.269,-0.032 1.27,-0.039 1.261,-0.031 1.27,-0.039 1.27,-0.031 1.269,-0.039 1.262,-0.039 1.269,-0.032 1.27,-0.039 1.269,-0.043 1.262,-0.039 1.27,-0.031 2.539,-0.078 1.261,-0.039 1.27,-0.039 1.269,-0.043 1.27,-0.039 1.262,-0.039 1.269,-0.039 1.27,-0.043 1.269,-0.039 1.258,-0.039 1.274,-0.051 2.539,-0.078 1.257,-0.043 1.274,-0.039 1.269,-0.051 1.27,-0.039 1.258,-0.039 1.269,-0.039 1.274,-0.051 1.269,-0.039 1.258,-0.043 1.27,-0.051 1.269,-0.039 1.274,-0.039 1.257,-0.051 1.27,-0.039 1.269,-0.051 1.274,-0.039 1.258,-0.05 2.539,-0.079 1.261,-0.05 1.27,-0.039 1.27,-0.051 1.269,-0.039 1.262,-0.051 1.269,-0.039 1.27,-0.051 1.269,-0.043 1.262,-0.047 1.27,-0.043 1.269,-0.047 1.27,-0.043 1.261,-0.046 1.27,-0.043 1.269,-0.047 1.27,-0.043 1.262,-0.047 1.269,-0.043 1.27,-0.051 1.269,-0.047 1.258,-0.043 1.274,-0.047 1.269,-0.043 1.27,-0.046 1.257,-0.043 1.274,-0.047 1.269,-0.043 1.27,-0.047 1.258,-0.043 1.269,-0.051 1.274,-0.039 1.269,-0.051 1.258,-0.039 1.27,-0.051 1.269,-0.039 1.274,-0.05 1.257,-0.039 1.27,-0.051 1.269,-0.039 V 44.629 H 41.359 Z" /><path
                   id="path72"
                   style="fill:none;stroke:#ff0000;stroke-width:2.13000011;stroke-linecap:butt;stroke-linejoin:round;stroke-miterlimit:10;stroke-dasharray:8.5, 8.5;stroke-dashoffset:0;stroke-opacity:1"
                   d="M 130.141,37.148 V 201.602" /><path
                   id="path74"
                   style="fill:none;stroke:#00008b;stroke-width:2.13000011;stroke-linecap:butt;stroke-linejoin:round;stroke-miterlimit:10;stroke-dasharray:none;stroke-opacity:1"
                   d="M 77.441,37.148 V 201.602" /></g></g></g></g></g></g><g
       id="g76"><path
         id="path78"
         style="fill:none;stroke:#7f7f7f;stroke-width:1.05999994;stroke-linecap:butt;stroke-linejoin:round;stroke-miterlimit:10;stroke-dasharray:none;stroke-opacity:1"
         d="m 72.789,32.898 v 4.25" /><path
         id="path80"
         style="fill:none;stroke:#7f7f7f;stroke-width:1.05999994;stroke-linecap:butt;stroke-linejoin:round;stroke-miterlimit:10;stroke-dasharray:none;stroke-opacity:1"
         d="m 136.039,32.898 v 4.25" /><path
         id="path82"
         style="fill:none;stroke:#7f7f7f;stroke-width:1.05999994;stroke-linecap:butt;stroke-linejoin:round;stroke-miterlimit:10;stroke-dasharray:none;stroke-opacity:1"
         d="m 199.289,32.898 v 4.25" /><path
         id="path84"
         style="fill:none;stroke:#7f7f7f;stroke-width:1.05999994;stroke-linecap:butt;stroke-linejoin:round;stroke-miterlimit:10;stroke-dasharray:none;stroke-opacity:1"
         d="m 262.531,32.898 v 4.25" /><path
         id="path86"
         style="fill:#7f7f7f;fill-opacity:1;fill-rule:nonzero;stroke:none"
         d="m 68.121,26.285 c 0,2.469 -0.766,3.688 -2.312,3.688 -1.532,0 -2.313,-1.25 -2.313,-3.625 0,-2.391 0.797,-3.625 2.313,-3.625 1.5,0 2.312,1.234 2.312,3.562 z m -0.891,0.078 c 0,-2 -0.468,-2.906 -1.437,-2.906 -0.938,0 -1.406,0.938 -1.406,2.875 0,1.953 0.468,2.859 1.422,2.859 0.953,0 1.421,-0.921 1.421,-2.828 z" /><path
         id="path88"
         style="fill:#7f7f7f;fill-opacity:1;fill-rule:nonzero;stroke:none"
         d="m 69.496,23.926 h 1.031 v -1.047 h -1.031 z" /><path
         id="path90"
         style="fill:#7f7f7f;fill-opacity:1;fill-rule:nonzero;stroke:none"
         d="m 76.461,26.285 c 0,2.469 -0.766,3.688 -2.313,3.688 -1.531,0 -2.312,-1.25 -2.312,-3.625 0,-2.391 0.797,-3.625 2.312,-3.625 1.5,0 2.313,1.234 2.313,3.562 z m -0.891,0.078 c 0,-2 -0.468,-2.906 -1.437,-2.906 -0.938,0 -1.406,0.938 -1.406,2.875 0,1.953 0.468,2.859 1.421,2.859 0.954,0 1.422,-0.921 1.422,-2.828 z" /><path
         id="path92"
         style="fill:#7f7f7f;fill-opacity:1;fill-rule:nonzero;stroke:none"
         d="m 82.164,24.582 v 0.781 h -1.047 v 4.61 h -0.656 l -3.219,-4.469 v -0.922 h 2.985 v -1.703 h 0.89 v 1.703 z m -1.937,0.781 h -2.219 l 2.219,3.11 z" /><path
         id="path94"
         style="fill:#7f7f7f;fill-opacity:1;fill-rule:nonzero;stroke:none"
         d="m 131.371,26.285 c 0,2.469 -0.766,3.688 -2.312,3.688 -1.532,0 -2.313,-1.25 -2.313,-3.625 0,-2.391 0.797,-3.625 2.313,-3.625 1.5,0 2.312,1.234 2.312,3.562 z m -0.891,0.078 c 0,-2 -0.468,-2.906 -1.437,-2.906 -0.938,0 -1.406,0.938 -1.406,2.875 0,1.953 0.468,2.859 1.422,2.859 0.953,0 1.421,-0.921 1.421,-2.828 z" /><path
         id="path96"
         style="fill:#7f7f7f;fill-opacity:1;fill-rule:nonzero;stroke:none"
         d="m 132.746,23.926 h 1.031 v -1.047 h -1.031 z" /><path
         id="path98"
         style="fill:#7f7f7f;fill-opacity:1;fill-rule:nonzero;stroke:none"
         d="m 139.711,26.285 c 0,2.469 -0.766,3.688 -2.313,3.688 -1.531,0 -2.312,-1.25 -2.312,-3.625 0,-2.391 0.797,-3.625 2.312,-3.625 1.5,0 2.313,1.234 2.313,3.562 z m -0.891,0.078 c 0,-2 -0.468,-2.906 -1.437,-2.906 -0.938,0 -1.406,0.938 -1.406,2.875 0,1.953 0.468,2.859 1.421,2.859 0.954,0 1.422,-0.921 1.422,-2.828 z" /><path
         id="path100"
         style="fill:#7f7f7f;fill-opacity:1;fill-rule:nonzero;stroke:none"
         d="m 145.336,25.082 c 0,1.313 -0.891,2.203 -2.172,2.203 -0.687,0 -1.25,-0.265 -1.625,-0.781 0.016,1.719 0.578,2.687 1.578,2.687 0.625,0 1.047,-0.39 1.188,-1.078 h 0.89 c -0.172,1.172 -0.937,1.86 -2.015,1.86 -1.657,0 -2.532,-1.391 -2.532,-3.86 0,-2.218 0.75,-3.39 2.375,-3.39 1.344,0 2.313,0.968 2.313,2.359 z m -0.891,-0.078 c 0,-0.891 -0.609,-1.5 -1.422,-1.5 -0.812,0 -1.437,0.641 -1.437,1.562 0,0.875 0.609,1.438 1.469,1.438 0.859,0 1.39,-0.547 1.39,-1.5 z" /><path
         id="path102"
         style="fill:#7f7f7f;fill-opacity:1;fill-rule:nonzero;stroke:none"
         d="m 194.621,26.285 c 0,2.469 -0.766,3.688 -2.312,3.688 -1.532,0 -2.313,-1.25 -2.313,-3.625 0,-2.391 0.797,-3.625 2.313,-3.625 1.5,0 2.312,1.234 2.312,3.562 z m -0.891,0.078 c 0,-2 -0.468,-2.906 -1.437,-2.906 -0.938,0 -1.406,0.938 -1.406,2.875 0,1.953 0.468,2.859 1.422,2.859 0.953,0 1.421,-0.921 1.421,-2.828 z" /><path
         id="path104"
         style="fill:#7f7f7f;fill-opacity:1;fill-rule:nonzero;stroke:none"
         d="m 195.996,23.926 h 1.031 v -1.047 h -1.031 z" /><path
         id="path106"
         style="fill:#7f7f7f;fill-opacity:1;fill-rule:nonzero;stroke:none"
         d="m 202.961,26.285 c 0,2.469 -0.766,3.688 -2.313,3.688 -1.531,0 -2.312,-1.25 -2.312,-3.625 0,-2.391 0.797,-3.625 2.312,-3.625 1.5,0 2.313,1.234 2.313,3.562 z m -0.891,0.078 c 0,-2 -0.468,-2.906 -1.437,-2.906 -0.938,0 -1.406,0.938 -1.406,2.875 0,1.953 0.468,2.859 1.421,2.859 0.954,0 1.422,-0.921 1.422,-2.828 z" /><path
         id="path108"
         style="fill:#7f7f7f;fill-opacity:1;fill-rule:nonzero;stroke:none"
         d="m 208.586,24.879 c 0,0.797 -0.391,1.344 -1.219,1.734 0.735,0.438 0.969,0.797 0.969,1.469 0,1.109 -0.859,1.891 -2.125,1.891 -1.25,0 -2.125,-0.782 -2.125,-1.891 0,-0.656 0.234,-1.016 0.953,-1.469 -0.812,-0.39 -1.203,-0.937 -1.203,-1.718 0,-1.313 0.969,-2.172 2.375,-2.172 1.406,0 2.375,0.859 2.375,2.156 z m -1.141,3.187 c 0,-0.671 -0.5,-1.109 -1.234,-1.109 -0.734,0 -1.234,0.438 -1.234,1.109 0,0.688 0.5,1.125 1.234,1.125 0.75,0 1.234,-0.437 1.234,-1.125 z m 0.25,-3.203 c 0,-0.828 -0.609,-1.359 -1.5,-1.359 -0.859,0 -1.468,0.531 -1.468,1.359 0,0.828 0.609,1.36 1.484,1.36 0.875,0 1.484,-0.532 1.484,-1.36 z" /><path
         id="path110"
         style="fill:#7f7f7f;fill-opacity:1;fill-rule:nonzero;stroke:none"
         d="m 257.863,26.285 c 0,2.469 -0.765,3.688 -2.312,3.688 -1.531,0 -2.313,-1.25 -2.313,-3.625 0,-2.391 0.797,-3.625 2.313,-3.625 1.5,0 2.312,1.234 2.312,3.562 z m -0.89,0.078 c 0,-2 -0.469,-2.906 -1.438,-2.906 -0.937,0 -1.406,0.938 -1.406,2.875 0,1.953 0.469,2.859 1.422,2.859 0.953,0 1.422,-0.921 1.422,-2.828 z" /><path
         id="path112"
         style="fill:#7f7f7f;fill-opacity:1;fill-rule:nonzero;stroke:none"
         d="m 259.234,23.926 h 1.031 v -1.047 h -1.031 z" /><path
         id="path114"
         style="fill:#7f7f7f;fill-opacity:1;fill-rule:nonzero;stroke:none"
         d="m 264.609,22.879 v 7.094 h -0.578 c -0.312,-1.094 -0.515,-1.25 -1.875,-1.407 v -0.64 h 1.578 v -5.047 z" /><path
         id="path116"
         style="fill:#7f7f7f;fill-opacity:1;fill-rule:nonzero;stroke:none"
         d="m 271.762,26.285 c 0,2.469 -0.766,3.688 -2.313,3.688 -1.531,0 -2.312,-1.25 -2.312,-3.625 0,-2.391 0.797,-3.625 2.312,-3.625 1.5,0 2.313,1.234 2.313,3.562 z m -0.891,0.078 c 0,-2 -0.469,-2.906 -1.437,-2.906 -0.938,0 -1.407,0.938 -1.407,2.875 0,1.953 0.469,2.859 1.422,2.859 0.953,0 1.422,-0.921 1.422,-2.828 z" /><path
         id="path118"
         style="fill:#000000;fill-opacity:1;fill-rule:nonzero;stroke:none"
         d="m 149.902,19.75 h 1.594 l 3.891,-7.312 v 7.312 h 1.14 V 11 h -1.593 l -3.875,7.312 V 11 h -1.157 z" /><path
         id="path120"
         style="fill:#000000;fill-opacity:1;fill-rule:nonzero;stroke:none"
         d="m 15.047,107.371 c -2.719,0 -4.375,-1.344 -4.375,-3.562 v -3.375 h 8.75 v 3.375 c 0,2.203 -1.656,3.562 -4.375,3.562 z m 0,-1.109 c 2.219,0 3.391,-0.922 3.391,-2.641 v -2.062 h -6.782 v 2.062 c 0,1.719 1.172,2.641 3.391,2.641 z" /><path
         id="path122"
         style="fill:#000000;fill-opacity:1;fill-rule:nonzero;stroke:none"
         d="m 16.562,114.191 c -0.906,0 -1.484,-0.078 -1.953,-0.25 -1.031,-0.406 -1.656,-1.375 -1.656,-2.546 0,-1.75 1.297,-2.875 3.359,-2.875 2.063,0 3.297,1.093 3.297,2.859 0,1.437 -0.828,2.422 -2.093,2.687 v -1.015 c 0.828,-0.281 1.156,-0.844 1.156,-1.641 0,-1.047 -0.672,-1.828 -2.11,-1.844 z m -0.89,-1.062 c 0,0 0.047,0 0.078,-0.016 v -3.531 c -1.109,0.078 -1.875,0.797 -1.875,1.797 0,0.984 0.813,1.75 1.797,1.75 z" /><path
         id="path124"
         style="fill:#000000;fill-opacity:1;fill-rule:nonzero;stroke:none"
         d="m 19.422,120.551 h -4.75 c -1.047,0 -1.719,-0.781 -1.719,-1.985 0,-0.937 0.359,-1.546 1.235,-2.093 h -1.047 v -0.922 h 6.281 v 1 h -3.469 c -1.281,0 -2.125,0.687 -2.125,1.703 0,0.797 0.484,1.297 1.234,1.297 h 4.36 z" /><path
         id="path126"
         style="fill:#000000;fill-opacity:1;fill-rule:nonzero;stroke:none"
         d="m 17.656,126.895 c -0.937,0 -1.406,-0.532 -1.703,-1.782 l -0.234,-0.968 c -0.188,-0.813 -0.453,-1.157 -0.891,-1.157 -0.578,0 -0.953,0.516 -0.953,1.328 0,0.813 0.344,1.235 1.016,1.266 v 1.047 c -1.235,0 -1.938,-0.828 -1.938,-2.281 0,-1.453 0.75,-2.407 1.922,-2.407 0.984,0 1.453,0.5 1.813,2 l 0.218,0.922 c 0.172,0.703 0.375,0.985 0.828,0.985 0.594,0 0.938,-0.594 0.938,-1.469 0,-0.906 -0.203,-1.406 -1.172,-1.531 v -1.063 c 1.453,0.047 2.109,0.86 2.109,2.516 0,1.578 -0.734,2.594 -1.953,2.594 z" /><path
         id="path128"
         style="fill:#000000;fill-opacity:1;fill-rule:nonzero;stroke:none"
         d="m 19.422,129.223 h -6.281 v -1 h 6.281 z m -7.234,0.125 h -1.25 v -1.25 h 1.25 z" /><path
         id="path130"
         style="fill:#000000;fill-opacity:1;fill-rule:nonzero;stroke:none"
         d="m 19.422,133.09 h -0.844 c 0.047,-0.125 0.047,-0.281 0.047,-0.485 0,-0.421 -0.109,-0.546 -0.563,-0.546 h -4.109 v 1.031 h -0.812 v -1.031 h -1.735 v -1 h 1.735 v -0.844 h 0.812 v 0.844 h 4.563 c 0.625,0 0.984,0.437 0.984,1.218 0,0.235 -0.016,0.485 -0.078,0.813 z" /><path
         id="path132"
         style="fill:#000000;fill-opacity:1;fill-rule:nonzero;stroke:none"
         d="m 13.141,139.113 v -1.078 l 4.89,-1.734 -4.89,-1.61 v -1.078 l 6.312,2.125 0.985,-0.375 c 0.453,-0.172 0.609,-0.375 0.609,-0.812 0,-0.141 -0.016,-0.313 -0.063,-0.531 h 0.891 c 0.109,0.218 0.156,0.421 0.156,0.671 0,0.719 -0.39,1.297 -1.297,1.625 z" /><path
         id="path134"
         style="fill:#ffffff;fill-opacity:1;fill-rule:nonzero;stroke:none"
         d="m 168.172,191.559 h 95.387 v -70.418 h -95.387 z" /><path
         id="path136"
         style="fill:#f2f2f2;fill-opacity:1;fill-rule:nonzero;stroke:#ffffff;stroke-width:1.05999994;stroke-linecap:round;stroke-linejoin:round;stroke-miterlimit:10;stroke-dasharray:none;stroke-opacity:1"
         d="m 172.422,182.988 h 17.277 v -28.797 h -17.277 z" /><path
         id="path138"
         style="fill:none;stroke:#00008b;stroke-width:2.13000011;stroke-linecap:butt;stroke-linejoin:round;stroke-miterlimit:10;stroke-dasharray:none;stroke-opacity:1"
         d="m 181.059,154.191 v 28.797" /><path
         id="path140"
         style="fill:#f2f2f2;fill-opacity:1;fill-rule:nonzero;stroke:#ffffff;stroke-width:1.05999994;stroke-linecap:round;stroke-linejoin:round;stroke-miterlimit:10;stroke-dasharray:none;stroke-opacity:1"
         d="m 172.422,154.191 h 17.277 V 125.39 h -17.277 z" /><path
         id="path142"
         style="fill:none;stroke:#ff0000;stroke-width:2.13000011;stroke-linecap:butt;stroke-linejoin:round;stroke-miterlimit:10;stroke-dasharray:8.5, 8.5;stroke-dashoffset:0;stroke-opacity:1"
         d="m 181.059,125.391 v 28.8" /><path
         id="path144"
         style="fill:#000000;fill-opacity:1;fill-rule:nonzero;stroke:none"
         d="m 197.797,171.469 v 0.828 h -5.735 v -0.828 h 2.407 V 165 h 0.937 v 6.469 z" /><path
         id="path146"
         style="fill:#000000;fill-opacity:1;fill-rule:nonzero;stroke:none"
         d="m 199.973,169.516 v 0.843 c -0.141,0.016 -0.203,0.032 -0.313,0.032 -0.547,0 -0.953,-0.329 -1.437,-1.094 v 0.937 h -0.75 V 165 h 0.828 v 2.719 c 0,1.187 0.39,1.765 1.672,1.797 z" /><path
         id="path148"
         style="fill:#000000;fill-opacity:1;fill-rule:nonzero;stroke:none"
         d="m 205.062,165 v 5.234 h -0.828 v -2.89 c 0,-1.063 -0.546,-1.766 -1.422,-1.766 -0.656,0 -1.078,0.406 -1.078,1.031 v 3.625 h -0.828 v -3.953 c 0,-0.875 0.641,-1.437 1.656,-1.437 0.782,0 1.266,0.281 1.75,0.968 V 165 Z" /><path
         id="path150"
         style="fill:#000000;fill-opacity:1;fill-rule:nonzero;stroke:none"
         d="m 208.355,165 v 0.703 c -0.109,-0.031 -0.25,-0.047 -0.406,-0.047 -0.359,0 -0.453,0.11 -0.453,0.469 v 3.437 h 0.859 v 0.672 h -0.859 v 1.454 h -0.844 v -1.454 h -0.703 v -0.672 h 0.703 v -3.796 c 0,-0.532 0.36,-0.828 1.016,-0.828 0.203,0 0.406,0.015 0.687,0.062 z" /><path
         id="path152"
         style="fill:#000000;fill-opacity:1;fill-rule:nonzero;stroke:none"
         d="m 213.449,165 v 3.953 c 0,0.891 -0.625,1.438 -1.656,1.438 -0.734,0 -1.188,-0.235 -1.672,-0.875 v 2.781 h -0.828 V 165 h 0.828 v 2.891 c 0,1.062 0.563,1.765 1.422,1.765 0.594,0 1.078,-0.344 1.078,-1.031 V 165 Z" /><path
         id="path154"
         style="fill:#000000;fill-opacity:1;fill-rule:nonzero;stroke:none"
         d="m 198.031,141.355 c 0,1.36 -0.812,2.141 -2.25,2.141 h -3.015 v -7.297 h 0.937 v 3.094 h 2.281 c 1.204,0 2.047,0.844 2.047,2.062 z m -0.969,0.032 c 0,-0.797 -0.531,-1.282 -1.421,-1.282 h -1.938 v 2.563 h 1.938 c 0.89,0 1.421,-0.484 1.421,-1.281 z" /><path
         id="path156"
         style="fill:#000000;fill-opacity:1;fill-rule:nonzero;stroke:none"
         d="m 203.125,138.777 c 0,1.813 -0.859,2.813 -2.375,2.813 -1.469,0 -2.359,-1.016 -2.359,-2.766 0,-1.765 0.875,-2.781 2.375,-2.781 1.468,0 2.359,1.016 2.359,2.734 z m -0.859,0.016 c 0,-1.234 -0.578,-1.969 -1.5,-1.969 -0.938,0 -1.5,0.719 -1.5,2 0,1.25 0.562,2 1.5,2 0.937,0 1.5,-0.734 1.5,-2.031 z" /><path
         id="path158"
         style="fill:#000000;fill-opacity:1;fill-rule:nonzero;stroke:none"
         d="m 208.184,137.668 c 0,0.781 -0.438,1.172 -1.485,1.422 l -0.797,0.187 c -0.687,0.157 -0.968,0.375 -0.968,0.75 0,0.485 0.421,0.797 1.109,0.797 0.672,0 1.031,-0.297 1.047,-0.844 h 0.875 c 0,1.032 -0.688,1.61 -1.891,1.61 -1.219,0 -2.015,-0.625 -2.015,-1.594 0,-0.828 0.421,-1.219 1.656,-1.516 l 0.781,-0.187 c 0.578,-0.141 0.813,-0.313 0.813,-0.688 0,-0.5 -0.485,-0.781 -1.219,-0.781 -0.75,0 -1.172,0.172 -1.281,0.969 h -0.875 c 0.031,-1.203 0.718,-1.75 2.093,-1.75 1.313,0 2.157,0.609 2.157,1.625 z" /><path
         id="path160"
         style="fill:#000000;fill-opacity:1;fill-rule:nonzero;stroke:none"
         d="m 211.137,136.199 v 0.703 c -0.11,-0.031 -0.25,-0.047 -0.407,-0.047 -0.359,0 -0.453,0.11 -0.453,0.469 v 3.438 h 0.86 v 0.672 h -0.86 v 1.453 h -0.843 v -1.453 h -0.704 v -0.672 h 0.704 v -3.797 c 0,-0.531 0.359,-0.828 1.015,-0.828 0.203,0 0.406,0.015 0.688,0.062 z" /><path
         id="path162"
         style="fill:#000000;fill-opacity:1;fill-rule:nonzero;stroke:none"
         d="m 216.496,138.574 c 0,0.766 -0.062,1.25 -0.203,1.641 -0.344,0.859 -1.141,1.375 -2.125,1.375 -1.453,0 -2.391,-1.078 -2.391,-2.797 0,-1.719 0.907,-2.75 2.375,-2.75 1.203,0 2.032,0.687 2.235,1.75 h -0.828 c -0.235,-0.688 -0.704,-0.969 -1.375,-0.969 -0.875,0 -1.516,0.563 -1.547,1.75 z m -0.891,0.75 c 0,0 0,-0.047 0,-0.062 h -2.937 c 0.062,0.922 0.656,1.562 1.5,1.562 0.812,0 1.437,-0.687 1.437,-1.5 z" /><path
         id="path164"
         style="fill:#000000;fill-opacity:1;fill-rule:nonzero;stroke:none"
         d="m 220.133,140.715 v 0.844 c -0.141,0.015 -0.203,0.031 -0.313,0.031 -0.547,0 -0.953,-0.328 -1.437,-1.094 v 0.938 h -0.75 v -5.235 h 0.828 v 2.719 c 0,1.187 0.391,1.766 1.672,1.797 z" /><path
         id="path166"
         style="fill:#000000;fill-opacity:1;fill-rule:nonzero;stroke:none"
         d="m 221.941,136.199 v 5.235 h -0.828 v -5.235 z m 0.11,6.031 v 1.032 h -1.047 v -1.032 z" /><path
         id="path168"
         style="fill:#000000;fill-opacity:1;fill-rule:nonzero;stroke:none"
         d="m 227.723,138.777 c 0,1.813 -0.86,2.813 -2.375,2.813 -1.469,0 -2.36,-1.016 -2.36,-2.766 0,-1.765 0.875,-2.781 2.375,-2.781 1.469,0 2.36,1.016 2.36,2.734 z m -0.86,0.016 c 0,-1.234 -0.578,-1.969 -1.5,-1.969 -0.937,0 -1.5,0.719 -1.5,2 0,1.25 0.563,2 1.5,2 0.938,0 1.5,-0.734 1.5,-2.031 z" /><path
         id="path170"
         style="fill:#000000;fill-opacity:1;fill-rule:nonzero;stroke:none"
         d="m 231.395,140.715 v 0.844 c -0.141,0.015 -0.204,0.031 -0.313,0.031 -0.547,0 -0.953,-0.328 -1.437,-1.094 v 0.938 h -0.75 v -5.235 h 0.828 v 2.719 c 0,1.187 0.39,1.766 1.672,1.797 z" /><path
         id="path172"
         style="fill:#000000;fill-opacity:1;fill-rule:nonzero;stroke:none"
         d="m 241.895,136.199 v 3.938 c 0,0.937 -0.516,1.453 -1.5,1.453 -0.688,0 -1.11,-0.203 -1.61,-0.797 -0.297,0.562 -0.719,0.797 -1.406,0.797 -0.703,0 -1.156,-0.266 -1.609,-0.891 v 0.735 h -0.766 v -5.235 h 0.844 v 3.297 c 0,0.75 0.547,1.359 1.218,1.359 0.625,0 0.969,-0.375 0.969,-1.046 v -3.61 h 0.828 v 3.297 c 0,0.75 0.563,1.359 1.25,1.359 0.61,0 0.953,-0.39 0.953,-1.046 v -3.61 z" /><path
         id="path174"
         style="fill:#000000;fill-opacity:1;fill-rule:nonzero;stroke:none"
         d="m 247.754,138.574 c 0,0.766 -0.063,1.25 -0.203,1.641 -0.344,0.859 -1.141,1.375 -2.125,1.375 -1.453,0 -2.391,-1.078 -2.391,-2.797 0,-1.719 0.906,-2.75 2.375,-2.75 1.203,0 2.031,0.687 2.235,1.75 h -0.829 c -0.234,-0.688 -0.703,-0.969 -1.375,-0.969 -0.875,0 -1.515,0.563 -1.546,1.75 z m -0.891,0.75 c 0,0 0,-0.047 0,-0.062 h -2.937 c 0.062,0.922 0.656,1.562 1.5,1.562 0.812,0 1.437,-0.687 1.437,-1.5 z" /><path
         id="path176"
         style="fill:#000000;fill-opacity:1;fill-rule:nonzero;stroke:none"
         d="m 253.535,136.215 v 0.64 c -0.078,-0.031 -0.125,-0.031 -0.172,-0.031 -0.297,0 -0.453,0.156 -0.453,0.422 v 2.906 c 0,0.938 -0.672,1.438 -1.969,1.438 -1.265,0 -2.046,-0.485 -2.093,-1.703 h 0.828 c 0.078,0.64 0.453,0.937 1.234,0.937 0.75,0 1.172,-0.281 1.172,-0.781 v -0.219 c 0,-0.359 -0.203,-0.5 -0.875,-0.578 -1.172,-0.156 -1.359,-0.203 -1.672,-0.328 -0.609,-0.25 -0.922,-0.719 -0.922,-1.359 0,-0.954 0.657,-1.516 1.719,-1.516 0.672,0 1.313,0.281 1.781,0.781 0.094,-0.406 0.453,-0.687 0.86,-0.687 0.172,0 0.297,0.015 0.562,0.078 z m -1.453,1.797 c 0,-0.75 -0.766,-1.235 -1.578,-1.235 -0.641,0 -1.016,0.235 -1.016,0.797 0,0.563 0.36,0.797 1.25,0.922 0.891,0.125 1.063,0.156 1.344,0.297 z" /><path
         id="path178"
         style="fill:#000000;fill-opacity:1;fill-rule:nonzero;stroke:none"
         d="m 258.625,136.199 v 3.953 c 0,0.875 -0.656,1.438 -1.672,1.438 -0.765,0 -1.265,-0.297 -1.734,-1.031 v 0.875 h -0.766 v -5.235 h 0.828 v 2.891 c 0,1.062 0.578,1.765 1.422,1.765 0.672,0 1.094,-0.39 1.094,-1.031 v -3.625 z" /></g></g></svg>