<?xml version="1.0" encoding="UTF-8" standalone="no"?>
<svg
   xmlns:dc="http://purl.org/dc/elements/1.1/"
   xmlns:cc="http://creativecommons.org/ns#"
   xmlns:rdf="http://www.w3.org/1999/02/22-rdf-syntax-ns#"
   xmlns:svg="http://www.w3.org/2000/svg"
   xmlns="http://www.w3.org/2000/svg"
   viewBox="0 0 384 288"
   height="288"
   width="384"
   xml:space="preserve"
   id="svg2"
   version="1.1"><metadata
     id="metadata8"><rdf:RDF><cc:Work
         rdf:about=""><dc:format>image/svg+xml</dc:format><dc:type
           rdf:resource="http://purl.org/dc/dcmitype/StillImage" /></cc:Work></rdf:RDF></metadata><defs
     id="defs6"><clipPath
       id="clipPath34"
       clipPathUnits="userSpaceOnUse"><path
         id="path32"
         d="M 30.1,37.77 H 273.6 V 201.6 H 30.1 Z" /></clipPath></defs><g
     transform="matrix(1.3333333,0,0,-1.3333333,0,288)"
     id="g10"><g
       id="g12" /><g
       id="g14" /><g
       id="g16" /><g
       id="g18"><path
         id="path20"
         style="fill:#ffffff;fill-opacity:1;fill-rule:nonzero;stroke:#ffffff;stroke-width:1.05999994;stroke-linecap:round;stroke-linejoin:round;stroke-miterlimit:10;stroke-dasharray:none;stroke-opacity:1"
         d="M 0,0 H 288 V 216 H 0 Z" /></g><g
       id="g22" /><g
       id="g24" /><g
       id="g26" /><g
       id="g28"><g
         clip-path="url(#clipPath34)"
         id="g30"><path
           id="path36"
           style="fill:#e5e5e5;fill-opacity:1;fill-rule:nonzero;stroke:none"
           d="M 30.1,37.77 H 273.6 V 201.6 H 30.1 Z" /><path
           id="path38"
           style="fill:none;stroke:#f2f2f2;stroke-width:0.52999997;stroke-linecap:butt;stroke-linejoin:round;stroke-miterlimit:10;stroke-dasharray:none;stroke-opacity:1"
           d="M 71.7,37.77 V 201.6" /><path
           id="path40"
           style="fill:none;stroke:#f2f2f2;stroke-width:0.52999997;stroke-linecap:butt;stroke-linejoin:round;stroke-miterlimit:10;stroke-dasharray:none;stroke-opacity:1"
           d="M 148.03,37.77 V 201.6" /><path
           id="path42"
           style="fill:none;stroke:#f2f2f2;stroke-width:0.52999997;stroke-linecap:butt;stroke-linejoin:round;stroke-miterlimit:10;stroke-dasharray:none;stroke-opacity:1"
           d="M 224.37,37.77 V 201.6" /><path
           id="path44"
           style="fill:none;stroke:#ffffff;stroke-width:1.05999994;stroke-linecap:butt;stroke-linejoin:round;stroke-miterlimit:10;stroke-dasharray:none;stroke-opacity:1"
           d="M 33.54,37.77 V 201.6" /><path
           id="path46"
           style="fill:none;stroke:#ffffff;stroke-width:1.05999994;stroke-linecap:butt;stroke-linejoin:round;stroke-miterlimit:10;stroke-dasharray:none;stroke-opacity:1"
           d="M 109.87,37.77 V 201.6" /><path
           id="path48"
           style="fill:none;stroke:#ffffff;stroke-width:1.05999994;stroke-linecap:butt;stroke-linejoin:round;stroke-miterlimit:10;stroke-dasharray:none;stroke-opacity:1"
           d="M 186.2,37.77 V 201.6" /><path
           id="path50"
           style="fill:none;stroke:#ffffff;stroke-width:1.05999994;stroke-linecap:butt;stroke-linejoin:round;stroke-miterlimit:10;stroke-dasharray:none;stroke-opacity:1"
           d="M 262.53,37.77 V 201.6" /><path
           id="path52"
           style="fill:#008000;fill-opacity:1;fill-rule:nonzero;stroke:#000000;stroke-width:1.05999994;stroke-linecap:round;stroke-linejoin:round;stroke-miterlimit:10;stroke-dasharray:none;stroke-opacity:1"
           d="m 41.17,45.22 h 0.43 0.44 0.43 0.43 0.44 0.43 0.43 0.44 0.43 0.43 0.44 0.43 0.43 0.44 0.43 0.43 0.43 0.44 0.43 0.43 0.44 0.43 0.43 0.44 0.43 0.43 0.44 0.43 0.43 0.44 0.43 0.43 0.44 0.43 0.43 0.44 0.43 0.43 0.44 0.43 0.43 0.43 0.44 0.43 0.43 0.44 0.43 l 0.43,0.01 h 0.44 0.43 0.43 0.44 0.43 l 0.43,0.01 H 65 65.43 l 0.43,0.01 h 0.44 l 0.43,0.01 h 0.43 l 0.44,0.01 0.43,0.01 0.43,0.01 h 0.43 l 0.44,0.01 0.43,0.01 0.43,0.01 0.44,0.02 0.43,0.01 0.43,0.01 0.44,0.02 0.43,0.02 0.43,0.02 0.44,0.03 0.43,0.03 0.43,0.03 0.44,0.04 0.43,0.04 0.43,0.05 0.44,0.06 0.43,0.06 0.43,0.07 0.44,0.08 0.43,0.09 0.43,0.1 0.44,0.1 0.43,0.12 0.43,0.12 0.43,0.14 0.44,0.14 0.43,0.15 0.43,0.17 0.44,0.17 0.43,0.18 0.43,0.19 0.44,0.2 0.43,0.22 0.43,0.22 0.44,0.24 0.43,0.25 0.43,0.26 0.44,0.28 0.43,0.3 0.43,0.32 0.44,0.34 0.43,0.36 0.43,0.38 0.44,0.41 0.43,0.44 0.43,0.46 0.44,0.49 0.43,0.52 0.43,0.55 0.43,0.58 0.44,0.61 0.43,0.64 0.43,0.67 0.44,0.7 0.43,0.72 0.43,0.75 0.44,0.78 0.43,0.8 0.43,0.82 0.44,0.85 0.43,0.87 0.43,0.9 0.44,0.91 0.43,0.94 0.43,0.95 0.44,0.98 0.43,1.01 0.43,1.03 0.44,1.05 0.43,1.07 0.43,1.1 0.43,1.13 0.44,1.16 0.43,1.19 0.43,1.21 0.44,1.25 0.43,1.28 0.43,1.31 0.44,1.35 0.43,1.39 0.43,1.42 0.44,1.45 0.43,1.49 0.43,1.53 0.44,1.56 0.43,1.59 0.43,1.64 0.44,1.67 0.43,1.7 0.43,1.73 0.44,1.76 0.43,1.79 0.43,1.81 0.44,1.84 0.43,1.85 0.43,1.87 0.43,1.88 0.44,1.89 0.43,1.88 0.43,1.88 0.44,1.86 0.43,1.85 0.43,1.83 0.44,1.79 0.43,1.77 0.43,1.73 0.44,1.69 0.43,1.64 0.43,1.59 0.44,1.55 0.43,1.5 0.43,1.46 0.44,1.41 0.43,1.37 0.43,1.32 0.44,1.29 0.43,1.25 0.43,1.22 0.43,1.2 0.44,1.18 0.43,1.16 0.43,1.14 0.44,1.12 0.43,1.12 0.43,1.1 0.44,1.09 0.43,1.08 0.43,1.07 0.44,1.05 0.43,1.04 0.43,1.01 0.44,0.99 0.43,0.97 0.43,0.94 0.44,0.9 0.43,0.86 0.43,0.82 0.44,0.78 0.43,0.73 0.43,0.69 0.44,0.64 0.43,0.58 0.43,0.53 0.43,0.47 0.44,0.42 0.43,0.38 0.43,0.32 0.44,0.28 0.43,0.22 0.43,0.18 0.44,0.14 0.43,0.1 0.43,0.06 0.44,0.03 0.43,-0.01 0.43,-0.03 0.44,-0.06 0.43,-0.09 0.43,-0.1 0.44,-0.13 0.43,-0.15 0.43,-0.16 0.44,-0.17 0.43,-0.19 0.43,-0.2 0.43,-0.2 0.44,-0.22 0.43,-0.22 0.43,-0.23 0.44,-0.24 0.43,-0.25 0.43,-0.25 0.44,-0.27 0.43,-0.28 0.43,-0.28 0.44,-0.3 0.43,-0.32 0.43,-0.32 0.44,-0.35 0.43,-0.36 0.43,-0.37 0.44,-0.39 0.43,-0.4 0.43,-0.41 0.44,-0.42 0.43,-0.44 0.43,-0.44 0.44,-0.46 0.43,-0.47 0.43,-0.47 0.43,-0.5 0.44,-0.5 0.43,-0.54 0.43,-0.56 0.44,-0.58 0.43,-0.63 0.43,-0.66 0.44,-0.7 0.43,-0.76 0.43,-0.82 0.44,-0.88 0.43,-0.93 0.43,-0.99 0.44,-1.05 0.43,-1.1 0.43,-1.16 0.44,-1.21 0.43,-1.25 0.43,-1.28 0.44,-1.3 0.43,-1.32 0.43,-1.32 0.43,-1.32 0.44,-1.32 0.43,-1.29 0.43,-1.27 0.44,-1.25 0.43,-1.21 0.43,-1.17 0.44,-1.14 0.43,-1.09 0.43,-1.06 0.44,-1.02 0.43,-0.98 0.43,-0.95 0.44,-0.92 0.43,-0.89 0.43,-0.87 0.44,-0.85 0.43,-0.84 0.43,-0.83 0.44,-0.82 0.43,-0.81 0.43,-0.82 0.44,-0.82 0.43,-0.83 0.43,-0.83 0.43,-0.83 0.44,-0.85 0.43,-0.85 0.43,-0.86 0.44,-0.86 0.43,-0.86 0.43,-0.86 0.44,-0.86 0.43,-0.85 0.43,-0.85 0.44,-0.84 0.43,-0.82 0.43,-0.81 0.44,-0.79 0.43,-0.77 0.43,-0.75 0.44,-0.74 0.43,-0.72 0.43,-0.69 0.44,-0.68 0.43,-0.66 0.43,-0.64 0.43,-0.63 0.44,-0.62 0.43,-0.6 0.43,-0.6 0.44,-0.58 0.43,-0.57 0.43,-0.56 0.44,-0.56 0.43,-0.55 0.43,-0.55 0.44,-0.54 0.43,-0.54 0.43,-0.54 0.44,-0.53 0.43,-0.53 0.43,-0.54 0.44,-0.53 0.43,-0.54 0.43,-0.55 0.44,-0.54 0.43,-0.55 0.43,-0.56 0.44,-0.56 0.43,-0.57 0.43,-0.57 0.43,-0.57 0.44,-0.58 0.43,-0.57 0.43,-0.58 0.44,-0.57 0.43,-0.57 0.43,-0.57 0.44,-0.55 0.43,-0.55 0.43,-0.53 0.44,-0.52 0.43,-0.51 0.43,-0.49 0.44,-0.48 0.43,-0.46 0.43,-0.44 0.44,-0.42 0.43,-0.41 0.43,-0.4 0.44,-0.38 0.43,-0.36 0.43,-0.36 0.44,-0.34 0.43,-0.34 0.43,-0.32 0.43,-0.33 0.44,-0.31 0.43,-0.31 0.43,-0.31 0.44,-0.3 0.43,-0.3 0.43,-0.29 0.44,-0.3 0.43,-0.29 0.43,-0.29 0.44,-0.29 0.43,-0.28 0.43,-0.28 0.44,-0.27 0.43,-0.27 0.43,-0.27 0.44,-0.26 0.43,-0.26 0.43,-0.25 0.44,-0.25 0.43,-0.26 0.43,-0.25 0.43,-0.25 0.44,-0.25 0.43,-0.26 0.43,-0.26 0.44,-0.27 0.43,-0.27 0.43,-0.29 0.44,-0.29 0.43,-0.3 0.43,-0.32 0.44,-0.33 0.43,-0.34 0.43,-0.35 0.44,-0.36 0.43,-0.37 0.43,-0.38 0.44,-0.39 0.43,-0.39 0.43,-0.4 0.44,-0.4 0.43,-0.4 0.43,-0.4 0.44,-0.4 0.43,-0.38 0.43,-0.38 0.43,-0.37 0.44,-0.36 0.43,-0.34 0.43,-0.32 0.44,-0.31 0.43,-0.28 0.43,-0.26 0.44,-0.24 0.43,-0.22 0.43,-0.19 0.44,-0.18 0.43,-0.15 0.43,-0.13 0.44,-0.12 0.43,-0.1 0.43,-0.08 0.44,-0.07 0.43,-0.07 0.43,-0.05 0.44,-0.06 0.43,-0.05 0.43,-0.05 0.43,-0.05 0.44,-0.06 0.43,-0.06 0.43,-0.06 0.44,-0.08 0.43,-0.08 0.43,-0.09 0.44,-0.1 0.43,-0.1 0.43,-0.11 0.44,-0.12 0.43,-0.12 0.43,-0.13 0.44,-0.14 0.43,-0.14 0.43,-0.14 0.44,-0.14 0.43,-0.15 0.43,-0.15 0.44,-0.15 0.43,-0.15 0.43,-0.15 0.44,-0.16 0.43,-0.15 0.43,-0.15 0.43,-0.16 0.44,-0.15 0.43,-0.15 0.43,-0.14 0.44,-0.15 0.43,-0.14 0.43,-0.14 0.44,-0.14 0.43,-0.13 0.43,-0.13 0.44,-0.13 0.43,-0.12 0.43,-0.12 0.44,-0.12 0.43,-0.12 0.43,-0.11 0.44,-0.11 0.43,-0.11 0.43,-0.11 0.44,-0.1 0.43,-0.11 0.43,-0.1 0.43,-0.09 0.44,-0.1 0.43,-0.09 0.43,-0.09 0.44,-0.09 0.43,-0.09 0.43,-0.09 0.44,-0.09 0.43,-0.09 0.43,-0.09 0.44,-0.1 0.43,-0.1 0.43,-0.11 0.44,-0.11 0.43,-0.12 0.43,-0.13 0.44,-0.13 0.43,-0.14 0.43,-0.14 0.44,-0.15 0.43,-0.16 0.43,-0.15 v -2.31 h -0.43 -0.43 -0.44 -0.43 -0.43 -0.44 -0.43 -0.43 -0.44 -0.43 -0.43 -0.44 -0.43 -0.43 -0.44 -0.43 -0.43 -0.44 -0.43 -0.43 -0.44 -0.43 -0.43 -0.43 -0.44 -0.43 -0.43 -0.44 -0.43 -0.43 -0.44 -0.43 -0.43 -0.44 -0.43 -0.43 -0.44 -0.43 -0.43 -0.44 -0.43 -0.43 -0.44 -0.43 -0.43 -0.43 -0.44 -0.43 -0.43 -0.44 -0.43 -0.43 -0.44 -0.43 -0.43 -0.44 -0.43 -0.43 -0.44 -0.43 -0.43 -0.44 -0.43 -0.43 -0.44 -0.43 -0.43 -0.44 -0.43 -0.43 -0.43 -0.44 -0.43 -0.43 -0.44 -0.43 -0.43 -0.44 -0.43 -0.43 -0.44 -0.43 -0.43 -0.44 -0.43 -0.43 -0.44 -0.43 -0.43 -0.44 -0.43 -0.43 -0.43 -0.44 -0.43 -0.43 -0.44 -0.43 -0.43 -0.44 -0.43 -0.43 -0.44 -0.43 -0.43 -0.44 -0.43 -0.43 -0.44 -0.43 -0.43 -0.44 -0.43 -0.43 -0.44 -0.43 -0.43 -0.43 -0.44 -0.43 -0.43 -0.44 -0.43 -0.43 -0.44 -0.43 -0.43 -0.44 -0.43 -0.43 -0.44 -0.43 -0.43 -0.44 -0.43 -0.43 -0.44 -0.43 -0.43 -0.43 -0.44 -0.43 -0.43 -0.44 -0.43 -0.43 -0.44 -0.43 -0.43 -0.44 -0.43 -0.43 -0.44 -0.43 -0.43 -0.44 -0.43 -0.43 -0.44 -0.43 -0.43 -0.44 -0.43 -0.43 -0.43 -0.44 -0.43 -0.43 -0.44 -0.43 -0.43 -0.44 -0.43 -0.43 -0.44 -0.43 -0.43 -0.44 -0.43 -0.43 -0.44 -0.43 -0.43 -0.44 -0.43 -0.43 -0.44 -0.43 -0.43 -0.43 -0.44 -0.43 -0.43 -0.44 -0.43 -0.43 -0.44 -0.43 -0.43 -0.44 -0.43 -0.43 -0.44 -0.43 -0.43 -0.44 -0.43 -0.43 -0.44 -0.43 -0.43 -0.43 -0.44 -0.43 -0.43 -0.44 -0.43 -0.43 -0.44 -0.43 -0.43 -0.44 -0.43 -0.43 -0.44 -0.43 -0.43 -0.44 -0.43 -0.43 -0.44 -0.43 -0.43 -0.44 -0.43 -0.43 -0.43 -0.44 -0.43 -0.43 -0.44 -0.43 -0.43 -0.44 -0.43 -0.43 -0.44 -0.43 -0.43 -0.44 -0.43 -0.43 -0.44 -0.43 -0.43 -0.44 -0.43 -0.43 -0.43 -0.44 -0.43 -0.43 -0.44 -0.43 -0.43 -0.44 -0.43 -0.43 -0.44 -0.43 -0.43 -0.44 -0.43 -0.43 -0.44 -0.43 -0.43 -0.44 -0.43 -0.43 -0.44 -0.43 -0.43 -0.43 -0.44 -0.43 -0.43 -0.44 -0.43 -0.43 -0.44 -0.43 -0.43 -0.44 -0.43 -0.43 -0.44 -0.43 -0.43 -0.44 -0.43 -0.43 -0.44 -0.43 -0.43 -0.43 -0.44 -0.43 -0.43 -0.44 -0.43 -0.43 -0.44 -0.43 -0.43 -0.44 -0.43 -0.43 -0.44 -0.43 -0.43 -0.44 -0.43 -0.43 -0.44 -0.43 -0.43 -0.44 -0.43 -0.43 -0.43 -0.44 -0.43 -0.43 -0.44 -0.43 -0.43 -0.44 -0.43 -0.43 -0.44 -0.43 -0.43 -0.44 -0.43 -0.43 -0.44 -0.43 -0.43 -0.44 -0.43 -0.43 -0.43 -0.44 -0.43 -0.43 -0.44 -0.43 -0.43 -0.44 -0.43 -0.43 -0.44 -0.43 -0.43 -0.44 -0.43 -0.43 -0.44 -0.43 -0.43 -0.44 -0.43 -0.43 -0.44 H 99.65 99.22 98.79 98.35 97.92 97.49 97.05 96.62 96.19 95.75 95.32 94.89 94.45 94.02 93.59 93.15 92.72 92.29 91.85 91.42 90.99 90.55 90.12 89.69 89.26 88.82 88.39 87.96 87.52 87.09 86.66 86.22 85.79 85.36 84.92 84.49 84.06 83.62 83.19 82.76 82.32 81.89 81.46 81.02 80.59 80.16 79.72 79.29 78.86 78.43 77.99 77.56 77.13 76.69 76.26 75.83 75.39 74.96 74.53 74.09 73.66 73.23 72.79 72.36 71.93 71.49 71.06 70.63 70.19 69.76 69.33 68.89 68.46 68.03 67.6 67.16 66.73 66.3 65.86 65.43 65 64.56 64.13 63.7 63.26 62.83 62.4 61.96 61.53 61.1 60.66 60.23 59.8 59.36 58.93 58.5 58.07 57.63 57.2 56.77 56.33 55.9 55.47 55.03 54.6 54.17 53.73 53.3 52.87 52.43 52 51.57 51.13 50.7 50.27 49.83 49.4 48.97 48.53 48.1 47.67 47.24 46.8 46.37 45.94 45.5 45.07 44.64 44.2 43.77 43.34 42.9 42.47 42.04 41.6 Z" /><path
           id="path54"
           style="fill:#333333;fill-opacity:0.50199998;fill-rule:nonzero;stroke:none"
           d="m 42.79,155.16 2.31,-3.28 2.32,-3.18 2.31,-3.09 2.31,-3 2.32,-2.9 2.31,-2.82 2.31,-2.74 2.31,-2.65 2.32,-2.58 2.31,-2.5 2.31,-2.42 2.32,-2.35 2.31,-2.28 2.31,-2.22 2.32,-2.14 2.31,-2.09 2.31,-2.02 2.32,-1.96 2.31,-1.9 2.31,-1.85 2.31,-1.79 2.32,-1.73 2.31,-1.69 2.31,-1.63 2.32,-1.59 2.31,-1.54 2.31,-1.49 2.32,-1.45 2.31,-1.4 2.31,-1.36 2.32,-1.33 2.31,-1.28 2.31,-1.24 2.31,-1.21 2.32,-1.17 2.31,-1.14 2.31,-1.1 2.32,-1.07 2.31,-1.04 2.31,-1 2.32,-0.98 2.31,-0.95 2.31,-0.92 2.32,-0.89 2.31,-0.86 2.31,-0.84 2.31,-0.82 2.32,-0.79 2.31,-0.76 2.31,-0.75 2.32,-0.72 2.31,-0.7 2.31,-0.68 2.32,-0.65 2.31,-0.64 2.31,-0.62 2.32,-0.6 2.31,-0.59 2.31,-0.56 2.31,-0.55 2.32,-0.54 2.31,-0.51 2.31,-0.5 2.32,-0.49 2.31,-0.47 2.31,-0.46 2.32,-0.44 2.31,-0.43 2.31,-0.42 2.32,-0.41 2.31,-0.39 2.31,-0.38 2.31,-0.37 2.32,-0.36 2.31,-0.35 2.31,-0.34 2.32,-0.33 2.31,-0.32 2.31,-0.3 2.32,-0.3 2.31,-0.29 2.31,-0.29 2.32,-0.27 2.31,-0.27 2.31,-0.25 2.31,-0.25 2.32,-0.24 2.31,-0.24 2.31,-0.23 2.32,-0.22 2.31,-0.21 2.31,-0.21 2.32,-0.2 2.31,-0.2 2.31,-0.19 v -6.18 h -2.31 -2.31 -2.32 -2.31 -2.31 -2.32 -2.31 -2.31 -2.32 -2.31 -2.31 -2.31 -2.32 -2.31 -2.31 -2.32 -2.31 -2.31 -2.32 -2.31 -2.31 -2.32 -2.31 -2.31 -2.31 -2.32 -2.31 -2.31 -2.32 -2.31 -2.31 -2.32 -2.31 -2.31 -2.32 -2.31 -2.31 -2.31 -2.32 -2.31 -2.31 -2.32 -2.31 -2.31 -2.32 -2.31 -2.31 -2.32 -2.31 -2.31 -2.31 -2.32 -2.31 -2.31 -2.32 -2.31 -2.31 -2.32 -2.31 -2.31 -2.32 -2.31 -2.31 -2.31 -2.32 -2.31 -2.31 -2.32 -2.31 -2.31 H 98.3 95.99 93.68 91.36 89.05 86.74 84.43 82.11 79.8 77.49 75.17 72.86 70.55 68.23 65.92 63.61 61.29 58.98 56.67 54.36 52.04 49.73 47.42 45.1 42.79 Z" /><path
           id="path56"
           style="fill:none;stroke:#ff0000;stroke-width:2.13000011;stroke-linecap:butt;stroke-linejoin:round;stroke-miterlimit:10;stroke-dasharray:8.5, 8.5;stroke-dashoffset:0;stroke-opacity:1"
           d="M 152.73,37.77 V 201.6" /><path
           id="path58"
           style="fill:none;stroke:#00008b;stroke-width:2.13000011;stroke-linecap:butt;stroke-linejoin:round;stroke-miterlimit:10;stroke-dasharray:none;stroke-opacity:1"
           d="M 115.42,37.77 V 201.6" /></g></g><g
       id="g60" /><g
       id="g62" /><g
       id="g64" /><g
       id="g66" /><g
       id="g68" /><g
       id="g70" /><g
       id="g72" /><g
       id="g74" /><g
       id="g76" /><g
       id="g78" /><g
       id="g80"><path
         id="path82"
         style="fill:none;stroke:#7f7f7f;stroke-width:1.05999994;stroke-linecap:butt;stroke-linejoin:round;stroke-miterlimit:10;stroke-dasharray:none;stroke-opacity:1"
         d="m 33.54,33.52 v 4.25" /><path
         id="path84"
         style="fill:none;stroke:#7f7f7f;stroke-width:1.05999994;stroke-linecap:butt;stroke-linejoin:round;stroke-miterlimit:10;stroke-dasharray:none;stroke-opacity:1"
         d="m 109.87,33.52 v 4.25" /><path
         id="path86"
         style="fill:none;stroke:#7f7f7f;stroke-width:1.05999994;stroke-linecap:butt;stroke-linejoin:round;stroke-miterlimit:10;stroke-dasharray:none;stroke-opacity:1"
         d="m 186.2,33.52 v 4.25" /><path
         id="path88"
         style="fill:none;stroke:#7f7f7f;stroke-width:1.05999994;stroke-linecap:butt;stroke-linejoin:round;stroke-miterlimit:10;stroke-dasharray:none;stroke-opacity:1"
         d="m 262.53,33.52 v 4.25" /></g><g
       id="g90" /><g
       id="g92"><text
         id="text96"
         style="font-variant:normal;font-weight:normal;font-size:10px;font-family:Helvetica;-inkscape-font-specification:Helvetica;writing-mode:lr-tb;fill:#7f7f7f;fill-opacity:1;fill-rule:nonzero;stroke:none"
         transform="matrix(1,0,0,-1,30.76,23.51)"><tspan
           id="tspan94"
           y="0"
           x="0">0</tspan></text>
<text
         id="text100"
         style="font-variant:normal;font-weight:normal;font-size:10px;font-family:Helvetica;-inkscape-font-specification:Helvetica;writing-mode:lr-tb;fill:#7f7f7f;fill-opacity:1;fill-rule:nonzero;stroke:none"
         transform="matrix(1,0,0,-1,98.75,23.51)"><tspan
           id="tspan98"
           y="0"
           x="0 5.5599999 11.12 16.68">1000</tspan></text>
<text
         id="text104"
         style="font-variant:normal;font-weight:normal;font-size:10px;font-family:Helvetica;-inkscape-font-specification:Helvetica;writing-mode:lr-tb;fill:#7f7f7f;fill-opacity:1;fill-rule:nonzero;stroke:none"
         transform="matrix(1,0,0,-1,175.08,23.51)"><tspan
           id="tspan102"
           y="0"
           x="0 5.5599999 11.12 16.68">2000</tspan></text>
<text
         id="text108"
         style="font-variant:normal;font-weight:normal;font-size:10px;font-family:Helvetica;-inkscape-font-specification:Helvetica;writing-mode:lr-tb;fill:#7f7f7f;fill-opacity:1;fill-rule:nonzero;stroke:none"
         transform="matrix(1,0,0,-1,251.41,23.51)"><tspan
           id="tspan106"
           y="0"
           x="0 5.5599999 11.12 16.68">3000</tspan></text>
</g><g
       id="g110" /><g
       id="g112" /><g
       id="g114" /><g
       id="g116" /><g
       id="g118"><text
         id="text122"
         style="font-variant:normal;font-weight:normal;font-size:12px;font-family:Symbol;-inkscape-font-specification:Symbol;writing-mode:lr-tb;fill:#000000;fill-opacity:1;fill-rule:nonzero;stroke:none"
         transform="matrix(1,0,0,-1,148.89,11.03)"><tspan
           id="tspan120"
           y="0"
           x="0">δ</tspan></text>
</g><g
       id="g124" /><g
       id="g126"><text
         id="text130"
         style="font-variant:normal;font-weight:normal;font-size:12px;font-family:Helvetica;-inkscape-font-specification:Helvetica;writing-mode:lr-tb;fill:#000000;fill-opacity:1;fill-rule:nonzero;stroke:none"
         transform="matrix(0,1,1,0,19.42,99.68)"><tspan
           id="tspan128"
           y="0"
           x="0 8.6639996 15.336 22.007999 28.007999 30.672001 34.007999">Density</tspan></text>
</g><g
       id="g132" /><g
       id="g134" /><g
       id="g136" /><g
       id="g138" /></g></svg>