<?xml version="1.0" encoding="UTF-8" standalone="no"?>
<!-- Created with Inkscape (http://www.inkscape.org/) -->

<svg
   xmlns:dc="http://purl.org/dc/elements/1.1/"
   xmlns:cc="http://creativecommons.org/ns#"
   xmlns:rdf="http://www.w3.org/1999/02/22-rdf-syntax-ns#"
   xmlns:svg="http://www.w3.org/2000/svg"
   xmlns="http://www.w3.org/2000/svg"
   xmlns:sodipodi="http://sodipodi.sourceforge.net/DTD/sodipodi-0.dtd"
   xmlns:inkscape="http://www.inkscape.org/namespaces/inkscape"
   width="112.77467mm"
   height="47.643108mm"
   viewBox="0 0 112.77467 47.643108"
   version="1.1"
   id="svg3314"
   inkscape:version="0.92.0 r15299"
   sodipodi:docname="StadlerSTT.svg">
  <defs
     id="defs3308" />
  <sodipodi:namedview
     id="base"
     pagecolor="#ffffff"
     bordercolor="#666666"
     borderopacity="1.0"
     inkscape:pageopacity="0.0"
     inkscape:pageshadow="2"
     inkscape:zoom="1.4"
     inkscape:cx="191.73449"
     inkscape:cy="-43.479077"
     inkscape:document-units="mm"
     inkscape:current-layer="layer1"
     showgrid="false"
     fit-margin-top="0"
     fit-margin-left="0"
     fit-margin-right="0"
     fit-margin-bottom="0"
     inkscape:window-width="1438"
     inkscape:window-height="862"
     inkscape:window-x="0"
     inkscape:window-y="18"
     inkscape:window-maximized="0" />
  <metadata
     id="metadata3311">
    <rdf:RDF>
      <cc:Work
         rdf:about="">
        <dc:format>image/svg+xml</dc:format>
        <dc:type
           rdf:resource="http://purl.org/dc/dcmitype/StillImage" />
        <dc:title></dc:title>
      </cc:Work>
    </rdf:RDF>
  </metadata>
  <g
     inkscape:label="Layer 1"
     inkscape:groupmode="layer"
     id="layer1"
     transform="translate(-53.981708,-29.005825)">
    <g
       transform="matrix(0.35277777,0,0,-0.35277777,7.1144752,288.31983)"
       id="g3306">
      <g
         transform="translate(225.637,602.465)"
         id="g2497">
        <path
           inkscape:connector-curvature="0"
           id="path2499"
           style="fill:#231f20;fill-opacity:1;fill-rule:evenodd;stroke:none"
           d="m 0,0 c 0,-1.216 -0.987,-2.203 -2.203,-2.203 -1.216,0 -2.204,0.987 -2.204,2.203 0,1.217 0.988,2.203 2.204,2.203 C -0.987,2.203 0,1.217 0,0" />
      </g>
      <g
         transform="translate(225.637,602.465)"
         id="g2501">
        <path
           inkscape:connector-curvature="0"
           id="path2503"
           style="fill:none;stroke:#231f20;stroke-width:0.5;stroke-linecap:butt;stroke-linejoin:miter;stroke-miterlimit:10;stroke-dasharray:none;stroke-opacity:1"
           d="m 0,0 c 0,-1.216 -0.987,-2.203 -2.203,-2.203 -1.216,0 -2.204,0.987 -2.204,2.203 0,1.217 0.988,2.203 2.204,2.203 C -0.987,2.203 0,1.217 0,0 Z" />
      </g>
      <g
         transform="translate(247.668,602.465)"
         id="g2505">
        <path
           inkscape:connector-curvature="0"
           id="path2507"
           style="fill:#231f20;fill-opacity:1;fill-rule:evenodd;stroke:none"
           d="m 0,0 c 0,-1.216 -0.986,-2.203 -2.203,-2.203 -1.217,0 -2.203,0.987 -2.203,2.203 0,1.217 0.986,2.203 2.203,2.203 C -0.986,2.203 0,1.217 0,0" />
      </g>
      <g
         transform="translate(247.668,602.465)"
         id="g2509">
        <path
           inkscape:connector-curvature="0"
           id="path2511"
           style="fill:none;stroke:#231f20;stroke-width:0.5;stroke-linecap:butt;stroke-linejoin:miter;stroke-miterlimit:10;stroke-dasharray:none;stroke-opacity:1"
           d="m 0,0 c 0,-1.216 -0.986,-2.203 -2.203,-2.203 -1.217,0 -2.203,0.987 -2.203,2.203 0,1.217 0.986,2.203 2.203,2.203 C -0.986,2.203 0,1.217 0,0 Z" />
      </g>
      <g
         transform="translate(269.7,602.465)"
         id="g2513">
        <path
           inkscape:connector-curvature="0"
           id="path2515"
           style="fill:#231f20;fill-opacity:1;fill-rule:evenodd;stroke:none"
           d="m 0,0 c 0,-1.216 -0.987,-2.203 -2.203,-2.203 -1.216,0 -2.203,0.987 -2.203,2.203 0,1.217 0.987,2.203 2.203,2.203 C -0.987,2.203 0,1.217 0,0" />
      </g>
      <g
         transform="translate(269.7,602.465)"
         id="g2517">
        <path
           inkscape:connector-curvature="0"
           id="path2519"
           style="fill:none;stroke:#231f20;stroke-width:0.5;stroke-linecap:butt;stroke-linejoin:miter;stroke-miterlimit:10;stroke-dasharray:none;stroke-opacity:1"
           d="m 0,0 c 0,-1.216 -0.987,-2.203 -2.203,-2.203 -1.216,0 -2.203,0.987 -2.203,2.203 0,1.217 0.987,2.203 2.203,2.203 C -0.987,2.203 0,1.217 0,0 Z" />
      </g>
      <g
         transform="translate(137.509,602.465)"
         id="g2521">
        <path
           inkscape:connector-curvature="0"
           id="path2523"
           style="fill:#231f20;fill-opacity:1;fill-rule:evenodd;stroke:none"
           d="m 0,0 c 0,-1.216 -0.987,-2.203 -2.203,-2.203 -1.216,0 -2.204,0.987 -2.204,2.203 0,1.217 0.988,2.203 2.204,2.203 C -0.987,2.203 0,1.217 0,0" />
      </g>
      <g
         transform="translate(137.509,602.465)"
         id="g2525">
        <path
           inkscape:connector-curvature="0"
           id="path2527"
           style="fill:none;stroke:#231f20;stroke-width:0.5;stroke-linecap:butt;stroke-linejoin:miter;stroke-miterlimit:10;stroke-dasharray:none;stroke-opacity:1"
           d="m 0,0 c 0,-1.216 -0.987,-2.203 -2.203,-2.203 -1.216,0 -2.204,0.987 -2.204,2.203 0,1.217 0.988,2.203 2.204,2.203 C -0.987,2.203 0,1.217 0,0 Z" />
      </g>
      <g
         transform="translate(293.051,602.465)"
         id="g2529">
        <path
           inkscape:connector-curvature="0"
           id="path2531"
           style="fill:#231f20;fill-opacity:1;fill-rule:evenodd;stroke:none"
           d="m 0,0 c 0,-1.216 -0.988,-2.203 -2.204,-2.203 -1.216,0 -2.203,0.987 -2.203,2.203 0,1.217 0.987,2.203 2.203,2.203 C -0.988,2.203 0,1.217 0,0" />
      </g>
      <g
         transform="translate(293.051,602.465)"
         id="g2533">
        <path
           inkscape:connector-curvature="0"
           id="path2535"
           style="fill:none;stroke:#231f20;stroke-width:0.5;stroke-linecap:butt;stroke-linejoin:miter;stroke-miterlimit:10;stroke-dasharray:none;stroke-opacity:1"
           d="m 0,0 c 0,-1.216 -0.988,-2.203 -2.204,-2.203 -1.216,0 -2.203,0.987 -2.203,2.203 0,1.217 0.987,2.203 2.203,2.203 C -0.988,2.203 0,1.217 0,0 Z" />
      </g>
      <g
         transform="translate(337.115,602.465)"
         id="g2537">
        <path
           inkscape:connector-curvature="0"
           id="path2539"
           style="fill:#231f20;fill-opacity:1;fill-rule:evenodd;stroke:none"
           d="m 0,0 c 0,-1.216 -0.987,-2.203 -2.203,-2.203 -1.217,0 -2.204,0.987 -2.204,2.203 0,1.217 0.987,2.203 2.204,2.203 C -0.987,2.203 0,1.217 0,0" />
      </g>
      <g
         transform="translate(337.115,602.465)"
         id="g2541">
        <path
           inkscape:connector-curvature="0"
           id="path2543"
           style="fill:none;stroke:#231f20;stroke-width:0.5;stroke-linecap:butt;stroke-linejoin:miter;stroke-miterlimit:10;stroke-dasharray:none;stroke-opacity:1"
           d="m 0,0 c 0,-1.216 -0.987,-2.203 -2.203,-2.203 -1.217,0 -2.204,0.987 -2.204,2.203 0,1.217 0.987,2.203 2.204,2.203 C -0.987,2.203 0,1.217 0,0 Z" />
      </g>
      <g
         transform="translate(359.147,602.465)"
         id="g2545">
        <path
           inkscape:connector-curvature="0"
           id="path2547"
           style="fill:#231f20;fill-opacity:1;fill-rule:evenodd;stroke:none"
           d="m 0,0 c 0,-1.216 -0.986,-2.203 -2.204,-2.203 -1.216,0 -2.203,0.987 -2.203,2.203 0,1.217 0.987,2.203 2.203,2.203 C -0.986,2.203 0,1.217 0,0" />
      </g>
      <g
         transform="translate(359.147,602.465)"
         id="g2549">
        <path
           inkscape:connector-curvature="0"
           id="path2551"
           style="fill:none;stroke:#231f20;stroke-width:0.5;stroke-linecap:butt;stroke-linejoin:miter;stroke-miterlimit:10;stroke-dasharray:none;stroke-opacity:1"
           d="m 0,0 c 0,-1.216 -0.986,-2.203 -2.204,-2.203 -1.216,0 -2.203,0.987 -2.203,2.203 0,1.217 0.987,2.203 2.203,2.203 C -0.986,2.203 0,1.217 0,0 Z" />
      </g>
      <g
         transform="translate(381.178,602.465)"
         id="g2553">
        <path
           inkscape:connector-curvature="0"
           id="path2555"
           style="fill:#231f20;fill-opacity:1;fill-rule:evenodd;stroke:none"
           d="m 0,0 c 0,-1.216 -0.986,-2.203 -2.203,-2.203 -1.216,0 -2.203,0.987 -2.203,2.203 0,1.217 0.987,2.203 2.203,2.203 C -0.986,2.203 0,1.217 0,0" />
      </g>
      <g
         transform="translate(381.178,602.465)"
         id="g2557">
        <path
           inkscape:connector-curvature="0"
           id="path2559"
           style="fill:none;stroke:#231f20;stroke-width:0.5;stroke-linecap:butt;stroke-linejoin:miter;stroke-miterlimit:10;stroke-dasharray:none;stroke-opacity:1"
           d="m 0,0 c 0,-1.216 -0.986,-2.203 -2.203,-2.203 -1.216,0 -2.203,0.987 -2.203,2.203 0,1.217 0.987,2.203 2.203,2.203 C -0.986,2.203 0,1.217 0,0 Z" />
      </g>
      <g
         transform="translate(403.21,602.465)"
         id="g2561">
        <path
           inkscape:connector-curvature="0"
           id="path2563"
           style="fill:#231f20;fill-opacity:1;fill-rule:evenodd;stroke:none"
           d="m 0,0 c 0,-1.216 -0.987,-2.203 -2.203,-2.203 -1.217,0 -2.203,0.987 -2.203,2.203 0,1.217 0.986,2.203 2.203,2.203 C -0.987,2.203 0,1.217 0,0" />
      </g>
      <g
         transform="translate(403.21,602.465)"
         id="g2565">
        <path
           inkscape:connector-curvature="0"
           id="path2567"
           style="fill:none;stroke:#231f20;stroke-width:0.5;stroke-linecap:butt;stroke-linejoin:miter;stroke-miterlimit:10;stroke-dasharray:none;stroke-opacity:1"
           d="m 0,0 c 0,-1.216 -0.987,-2.203 -2.203,-2.203 -1.217,0 -2.203,0.987 -2.203,2.203 0,1.217 0.986,2.203 2.203,2.203 C -0.987,2.203 0,1.217 0,0 Z" />
      </g>
      <g
         transform="translate(315.082,690.593)"
         id="g2569">
        <path
           inkscape:connector-curvature="0"
           id="path2571"
           style="fill:#231f20;fill-opacity:1;fill-rule:evenodd;stroke:none"
           d="m 0,0 c 0,-1.216 -0.986,-2.204 -2.203,-2.204 -1.216,0 -2.203,0.988 -2.203,2.204 0,1.217 0.987,2.203 2.203,2.203 C -0.986,2.203 0,1.217 0,0" />
      </g>
      <g
         transform="translate(315.082,690.593)"
         id="g2573">
        <path
           inkscape:connector-curvature="0"
           id="path2575"
           style="fill:none;stroke:#231f20;stroke-width:0.5;stroke-linecap:butt;stroke-linejoin:miter;stroke-miterlimit:10;stroke-dasharray:none;stroke-opacity:1"
           d="m 0,0 c 0,-1.216 -0.986,-2.204 -2.203,-2.204 -1.216,0 -2.203,0.988 -2.203,2.204 0,1.217 0.987,2.203 2.203,2.203 C -0.986,2.203 0,1.217 0,0 Z" />
      </g>
      <g
         transform="translate(192.588,690.593)"
         id="g2577">
        <path
           inkscape:connector-curvature="0"
           id="path2579"
           style="fill:#231f20;fill-opacity:1;fill-rule:evenodd;stroke:none"
           d="m 0,0 c 0,-1.216 -0.986,-2.204 -2.203,-2.204 -1.216,0 -2.203,0.988 -2.203,2.204 0,1.217 0.987,2.203 2.203,2.203 C -0.986,2.203 0,1.217 0,0" />
      </g>
      <g
         transform="translate(192.588,690.593)"
         id="g2581">
        <path
           inkscape:connector-curvature="0"
           id="path2583"
           style="fill:none;stroke:#231f20;stroke-width:0.5;stroke-linecap:butt;stroke-linejoin:miter;stroke-miterlimit:10;stroke-dasharray:none;stroke-opacity:1"
           d="m 0,0 c 0,-1.216 -0.986,-2.204 -2.203,-2.204 -1.216,0 -2.203,0.988 -2.203,2.204 0,1.217 0.987,2.203 2.203,2.203 C -0.986,2.203 0,1.217 0,0 Z" />
      </g>
      <g
         transform="translate(337.115,641.021)"
         id="g2585">
        <path
           inkscape:connector-curvature="0"
           id="path2587"
           style="fill:#231f20;fill-opacity:1;fill-rule:evenodd;stroke:none"
           d="m 0,0 c 0,-1.217 -0.987,-2.204 -2.203,-2.204 -1.217,0 -2.204,0.987 -2.204,2.204 0,1.216 0.987,2.203 2.204,2.203 C -0.987,2.203 0,1.216 0,0" />
      </g>
      <g
         transform="translate(337.115,641.021)"
         id="g2589">
        <path
           inkscape:connector-curvature="0"
           id="path2591"
           style="fill:none;stroke:#231f20;stroke-width:0.5;stroke-linecap:butt;stroke-linejoin:miter;stroke-miterlimit:10;stroke-dasharray:none;stroke-opacity:1"
           d="m 0,0 c 0,-1.217 -0.987,-2.204 -2.203,-2.204 -1.217,0 -2.204,0.987 -2.204,2.204 0,1.216 0.987,2.203 2.204,2.203 C -0.987,2.203 0,1.216 0,0 Z" />
      </g>
      <g
         transform="translate(403.21,652.037)"
         id="g2593">
        <path
           inkscape:connector-curvature="0"
           id="path2595"
           style="fill:#231f20;fill-opacity:1;fill-rule:evenodd;stroke:none"
           d="m 0,0 c 0,-1.216 -0.987,-2.203 -2.203,-2.203 -1.217,0 -2.203,0.987 -2.203,2.203 0,1.216 0.986,2.203 2.203,2.203 C -0.987,2.203 0,1.216 0,0" />
      </g>
      <g
         transform="translate(403.21,652.037)"
         id="g2597">
        <path
           inkscape:connector-curvature="0"
           id="path2599"
           style="fill:none;stroke:#231f20;stroke-width:0.5;stroke-linecap:butt;stroke-linejoin:miter;stroke-miterlimit:10;stroke-dasharray:none;stroke-opacity:1"
           d="m 0,0 c 0,-1.216 -0.987,-2.203 -2.203,-2.203 -1.217,0 -2.203,0.987 -2.203,2.203 0,1.216 0.986,2.203 2.203,2.203 C -0.987,2.203 0,1.216 0,0 Z" />
      </g>
      <g
         transform="translate(280.716,652.588)"
         id="g2601">
        <path
           inkscape:connector-curvature="0"
           id="path2603"
           style="fill:#231f20;fill-opacity:1;fill-rule:evenodd;stroke:none"
           d="m 0,0 c 0,-1.216 -0.986,-2.203 -2.203,-2.203 -1.216,0 -2.204,0.987 -2.204,2.203 0,1.216 0.988,2.204 2.204,2.204 C -0.986,2.204 0,1.216 0,0" />
      </g>
      <g
         transform="translate(280.716,652.588)"
         id="g2605">
        <path
           inkscape:connector-curvature="0"
           id="path2607"
           style="fill:none;stroke:#231f20;stroke-width:0.5;stroke-linecap:butt;stroke-linejoin:miter;stroke-miterlimit:10;stroke-dasharray:none;stroke-opacity:1"
           d="m 0,0 c 0,-1.216 -0.986,-2.203 -2.203,-2.203 -1.216,0 -2.204,0.987 -2.204,2.203 0,1.216 0.988,2.204 2.204,2.204 C -0.986,2.204 0,1.216 0,0 Z" />
      </g>
      <g
         transform="translate(203.604,641.021)"
         id="g2609">
        <path
           inkscape:connector-curvature="0"
           id="path2611"
           style="fill:#231f20;fill-opacity:1;fill-rule:evenodd;stroke:none"
           d="m 0,0 c 0,-1.217 -0.987,-2.204 -2.203,-2.204 -1.217,0 -2.203,0.987 -2.203,2.204 0,1.216 0.986,2.203 2.203,2.203 C -0.987,2.203 0,1.216 0,0" />
      </g>
      <g
         transform="translate(203.604,641.021)"
         id="g2613">
        <path
           inkscape:connector-curvature="0"
           id="path2615"
           style="fill:none;stroke:#231f20;stroke-width:0.5;stroke-linecap:butt;stroke-linejoin:miter;stroke-miterlimit:10;stroke-dasharray:none;stroke-opacity:1"
           d="m 0,0 c 0,-1.217 -0.987,-2.204 -2.203,-2.204 -1.217,0 -2.203,0.987 -2.203,2.204 0,1.216 0.986,2.203 2.203,2.203 C -0.987,2.203 0,1.216 0,0 Z" />
      </g>
      <g
         transform="translate(315.082,610.727)"
         id="g2617">
        <path
           inkscape:connector-curvature="0"
           id="path2619"
           style="fill:#231f20;fill-opacity:1;fill-rule:evenodd;stroke:none"
           d="m 0,0 c 0,-1.216 -0.986,-2.203 -2.203,-2.203 -1.216,0 -2.203,0.987 -2.203,2.203 0,1.216 0.987,2.203 2.203,2.203 C -0.986,2.203 0,1.216 0,0" />
      </g>
      <g
         transform="translate(315.082,610.727)"
         id="g2621">
        <path
           inkscape:connector-curvature="0"
           id="path2623"
           style="fill:none;stroke:#231f20;stroke-width:0.5;stroke-linecap:butt;stroke-linejoin:miter;stroke-miterlimit:10;stroke-dasharray:none;stroke-opacity:1"
           d="m 0,0 c 0,-1.216 -0.986,-2.203 -2.203,-2.203 -1.216,0 -2.203,0.987 -2.203,2.203 0,1.216 0.987,2.203 2.203,2.203 C -0.986,2.203 0,1.216 0,0 Z" />
      </g>
      <g
         transform="translate(159.54,610.727)"
         id="g2625">
        <path
           inkscape:connector-curvature="0"
           id="path2627"
           style="fill:#231f20;fill-opacity:1;fill-rule:evenodd;stroke:none"
           d="m 0,0 c 0,-1.216 -0.986,-2.203 -2.203,-2.203 -1.216,0 -2.203,0.987 -2.203,2.203 0,1.216 0.987,2.203 2.203,2.203 C -0.986,2.203 0,1.216 0,0" />
      </g>
      <g
         transform="translate(159.54,610.727)"
         id="g2629">
        <path
           inkscape:connector-curvature="0"
           id="path2631"
           style="fill:none;stroke:#231f20;stroke-width:0.5;stroke-linecap:butt;stroke-linejoin:miter;stroke-miterlimit:10;stroke-dasharray:none;stroke-opacity:1"
           d="m 0,0 c 0,-1.216 -0.986,-2.203 -2.203,-2.203 -1.216,0 -2.203,0.987 -2.203,2.203 0,1.216 0.987,2.203 2.203,2.203 C -0.986,2.203 0,1.216 0,0 Z" />
      </g>
      <g
         transform="translate(225.637,624.497)"
         id="g2633">
        <path
           inkscape:connector-curvature="0"
           id="path2635"
           style="fill:#231f20;fill-opacity:1;fill-rule:evenodd;stroke:none"
           d="m 0,0 c 0,-1.217 -0.987,-2.203 -2.203,-2.203 -1.216,0 -2.204,0.986 -2.204,2.203 0,1.216 0.988,2.203 2.204,2.203 C -0.987,2.203 0,1.216 0,0" />
      </g>
      <g
         transform="translate(225.637,624.497)"
         id="g2637">
        <path
           inkscape:connector-curvature="0"
           id="path2639"
           style="fill:none;stroke:#231f20;stroke-width:0.5;stroke-linecap:butt;stroke-linejoin:miter;stroke-miterlimit:10;stroke-dasharray:none;stroke-opacity:1"
           d="m 0,0 c 0,-1.217 -0.987,-2.203 -2.203,-2.203 -1.216,0 -2.204,0.986 -2.204,2.203 0,1.216 0.988,2.203 2.204,2.203 C -0.987,2.203 0,1.216 0,0 Z" />
      </g>
      <g
         transform="translate(359.147,624.497)"
         id="g2641">
        <path
           inkscape:connector-curvature="0"
           id="path2643"
           style="fill:#231f20;fill-opacity:1;fill-rule:evenodd;stroke:none"
           d="m 0,0 c 0,-1.217 -0.986,-2.203 -2.204,-2.203 -1.216,0 -2.203,0.986 -2.203,2.203 0,1.216 0.987,2.203 2.203,2.203 C -0.986,2.203 0,1.216 0,0" />
      </g>
      <g
         transform="translate(359.147,624.497)"
         id="g2645">
        <path
           inkscape:connector-curvature="0"
           id="path2647"
           style="fill:none;stroke:#231f20;stroke-width:0.5;stroke-linecap:butt;stroke-linejoin:miter;stroke-miterlimit:10;stroke-dasharray:none;stroke-opacity:1"
           d="m 0,0 c 0,-1.217 -0.986,-2.203 -2.204,-2.203 -1.216,0 -2.203,0.986 -2.203,2.203 0,1.216 0.987,2.203 2.203,2.203 C -0.986,2.203 0,1.216 0,0 Z" />
        <g
           transform="translate(-212.826)"
           id="g2649">
          <path
             inkscape:connector-curvature="0"
             id="path2651"
             style="fill:none;stroke:#231f20;stroke-width:0.5;stroke-linecap:butt;stroke-linejoin:miter;stroke-miterlimit:10;stroke-dasharray:none;stroke-opacity:1"
             d="M 0,0 V 44.064 H 44.064 V 22.032 H 55.08 v -33.048" />
          <g
             transform="translate(44.064,22.032)"
             id="g2653">
            <path
               inkscape:connector-curvature="0"
               id="path2655"
               style="fill:none;stroke:#231f20;stroke-width:0.5;stroke-linecap:butt;stroke-linejoin:miter;stroke-miterlimit:10;stroke-dasharray:none;stroke-opacity:1"
               d="M 0,0 H -11.016 V -11.016" />
            <g
               transform="translate(-22.032,22.033)"
               id="g2657">
              <path
                 inkscape:connector-curvature="0"
                 id="path2659"
                 style="fill:none;stroke:#231f20;stroke-width:0.5;stroke-linecap:butt;stroke-linejoin:miter;stroke-miterlimit:10;stroke-dasharray:none;stroke-opacity:1"
                 d="M 0,0 V 11.016 H 44.064 V -11.016" />
              <g
                 transform="translate(22.032,11.016)"
                 id="g2661">
                <path
                   inkscape:connector-curvature="0"
                   id="path2663"
                   style="fill:none;stroke:#231f20;stroke-width:0.5;stroke-linecap:butt;stroke-linejoin:miter;stroke-miterlimit:10;stroke-dasharray:none;stroke-opacity:1"
                   d="M 0,0 V 22.032 H 55.08 V 5.508 H 44.064 V -16.524 H 33.048 v -60.588" />
                <g
                   transform="translate(44.064,-16.524)"
                   id="g2665">
                  <path
                     inkscape:connector-curvature="0"
                     id="path2667"
                     style="fill:none;stroke:#231f20;stroke-width:0.5;stroke-linecap:butt;stroke-linejoin:miter;stroke-miterlimit:10;stroke-dasharray:none;stroke-opacity:1"
                     d="M 0,0 H 22.032 V -44.064 H 11.016 v -16.524" />
                  <g
                     transform="translate(22.032,-44.064)"
                     id="g2669">
                    <path
                       inkscape:connector-curvature="0"
                       id="path2671"
                       style="fill:none;stroke:#231f20;stroke-width:0.5;stroke-linecap:butt;stroke-linejoin:miter;stroke-miterlimit:10;stroke-dasharray:none;stroke-opacity:1"
                       d="M 0,0 H 11.016 V -16.524" />
                    <g
                       transform="translate(-38.556,82.62)"
                       id="g2673">
                      <path
                         inkscape:connector-curvature="0"
                         id="path2675"
                         style="fill:none;stroke:#231f20;stroke-width:0.5;stroke-linecap:butt;stroke-linejoin:miter;stroke-miterlimit:10;stroke-dasharray:none;stroke-opacity:1"
                         d="M 0,0 V 11.016" />
                      <g
                         transform="translate(-27.54,-99.144)"
                         id="g2677">
                        <path
                           inkscape:connector-curvature="0"
                           id="path2679"
                           style="fill:none;stroke:#231f20;stroke-width:0.5;stroke-linecap:butt;stroke-linejoin:miter;stroke-miterlimit:10;stroke-dasharray:none;stroke-opacity:1"
                           d="M 0,0 V 11.016 H 22.032 V 0" />
                        <g
                           transform="translate(-55.08)"
                           id="g2681">
                          <path
                             inkscape:connector-curvature="0"
                             id="path2683"
                             style="fill:none;stroke:#231f20;stroke-width:0.5;stroke-linecap:butt;stroke-linejoin:miter;stroke-miterlimit:10;stroke-dasharray:none;stroke-opacity:1"
                             d="M 0,0 V 22.032 H 22.032 V 0" />
                          <g
                             transform="translate(249.177,82.62)"
                             id="g2685">
                            <path
                               inkscape:connector-curvature="0"
                               id="path2687"
                               style="fill:none;stroke:#231f20;stroke-width:0.5;stroke-linecap:butt;stroke-linejoin:miter;stroke-miterlimit:10;stroke-dasharray:none;stroke-opacity:1"
                               d="M 0,0 H 16.525 V -33.048" />
                            <g
                               transform="translate(-5.508,-82.62)"
                               id="g2689">
                              <path
                                 inkscape:connector-curvature="0"
                                 id="path2691"
                                 style="fill:none;stroke:#231f20;stroke-width:0.5;stroke-linecap:butt;stroke-linejoin:miter;stroke-miterlimit:10;stroke-dasharray:none;stroke-opacity:1"
                                 d="M 0,0 V 16.524 H 22.033 V 0" />
                              <g
                                 transform="translate(11.017,16.524)"
                                 id="g2693">
                                <path
                                   inkscape:connector-curvature="0"
                                   id="path2695"
                                   style="fill:none;stroke:#231f20;stroke-width:0.5;stroke-linecap:butt;stroke-linejoin:miter;stroke-miterlimit:10;stroke-dasharray:none;stroke-opacity:1"
                                   d="M 0,0 V 44.064 H -22.033" />
                                <g
                                   transform="translate(-49.573,82.62)"
                                   id="g2697">
                                <path
                                   inkscape:connector-curvature="0"
                                   id="path2699"
                                   style="fill:none;stroke:#231f20;stroke-width:0.5;stroke-linecap:butt;stroke-linejoin:miter;stroke-miterlimit:10;stroke-dasharray:none;stroke-opacity:1"
                                   d="M 0,0 V 11.016" />
                                <g
                                   transform="translate(-27.54,-22.032)"
                                   id="g2701">
                                <path
                                   inkscape:connector-curvature="0"
                                   id="path2703"
                                   style="fill:none;stroke:#231f20;stroke-width:0.5;stroke-linecap:butt;stroke-linejoin:miter;stroke-miterlimit:10;stroke-dasharray:none;stroke-opacity:1"
                                   d="M 0,0 V 22.032 H 71.604 V 5.508 H 55.08 V -16.524 H 44.064 v -60.588" />
                                <g
                                   transform="translate(-22.032,-77.112)"
                                   id="g2705">
                                <path
                                   inkscape:connector-curvature="0"
                                   id="path2707"
                                   style="fill:none;stroke:#231f20;stroke-width:0.5;stroke-linecap:butt;stroke-linejoin:miter;stroke-miterlimit:10;stroke-dasharray:none;stroke-opacity:1"
                                   d="m 0,0 v 22.032 h 5.508 v 55.08 H 44.065 V 0" />
                                <g
                                   transform="translate(-45.382,82.62)"
                                   id="g2709">
                                <path
                                   inkscape:connector-curvature="0"
                                   id="path2711"
                                   style="fill:none;stroke:#231f20;stroke-width:0.5;stroke-linecap:butt;stroke-linejoin:miter;stroke-miterlimit:10;stroke-dasharray:none;stroke-opacity:1"
                                   d="M 0,0 H 33.048 V -55.08" />
                                <g
                                   transform="translate(50.89,-60.588)"
                                   id="g2713">
                                <path
                                   inkscape:connector-curvature="0"
                                   id="path2715"
                                   style="fill:none;stroke:#231f20;stroke-width:0.5;stroke-linecap:butt;stroke-linejoin:miter;stroke-miterlimit:10;stroke-dasharray:none;stroke-opacity:1"
                                   d="M 0,0 H 16.524 V -13.77" />
                                <g
                                   transform="translate(126.33,-22.032)"
                                   id="g2717">
                                <path
                                   inkscape:connector-curvature="0"
                                   id="path2719"
                                   style="fill:none;stroke:#231f20;stroke-width:0.5;stroke-linecap:butt;stroke-linejoin:miter;stroke-miterlimit:10;stroke-dasharray:none;stroke-opacity:1"
                                   d="M 0,0 V 132.192" />
                                <g
                                   transform="translate(1.102,127.161)"
                                   id="g2721">
                                <path
                                   inkscape:connector-curvature="0"
                                   id="path2723"
                                   style="fill:none;stroke:#231f20;stroke-width:0.5;stroke-linecap:butt;stroke-linejoin:miter;stroke-miterlimit:10;stroke-dasharray:none;stroke-opacity:1"
                                   d="M 0,0 -1.102,4.406 -2.204,0" />
                                <g
                                   transform="translate(-9.363,-17.001)"
                                   id="g2725">
                                <path
                                   inkscape:connector-curvature="0"
                                   id="path2727"
                                   style="fill:none;stroke:#231f20;stroke-width:0.5;stroke-linecap:butt;stroke-linejoin:miter;stroke-miterlimit:10;stroke-dasharray:none;stroke-opacity:1"
                                   d="M 0,0 H 8.261" />
                                <g
                                   transform="translate(0,-11.016)"
                                   id="g2729">
                                <path
                                   inkscape:connector-curvature="0"
                                   id="path2731"
                                   style="fill:none;stroke:#231f20;stroke-width:0.5;stroke-linecap:butt;stroke-linejoin:miter;stroke-miterlimit:10;stroke-dasharray:none;stroke-opacity:1"
                                   d="M 0,0 H 8.261" />
                                <g
                                   transform="translate(0,-22.032)"
                                   id="g2733">
                                <path
                                   inkscape:connector-curvature="0"
                                   id="path2735"
                                   style="fill:none;stroke:#231f20;stroke-width:0.5;stroke-linecap:butt;stroke-linejoin:miter;stroke-miterlimit:10;stroke-dasharray:none;stroke-opacity:1"
                                   d="M 0,0 H 8.261" />
                                <g
                                   transform="translate(0,-16.524)"
                                   id="g2737">
                                <path
                                   inkscape:connector-curvature="0"
                                   id="path2739"
                                   style="fill:none;stroke:#231f20;stroke-width:0.5;stroke-linecap:butt;stroke-linejoin:miter;stroke-miterlimit:10;stroke-dasharray:none;stroke-opacity:1"
                                   d="M 0,0 H 8.261" />
                                <g
                                   transform="translate(0,-44.064)"
                                   id="g2741">
                                <path
                                   inkscape:connector-curvature="0"
                                   id="path2743"
                                   style="fill:none;stroke:#231f20;stroke-width:0.5;stroke-linecap:butt;stroke-linejoin:miter;stroke-miterlimit:10;stroke-dasharray:none;stroke-opacity:1"
                                   d="M 0,0 H 8.261" />
                                <g
                                   transform="translate(0,66.096)"
                                   id="g2745">
                                <path
                                   inkscape:connector-curvature="0"
                                   id="path2747"
                                   style="fill:none;stroke:#231f20;stroke-width:0.5;stroke-linecap:butt;stroke-linejoin:miter;stroke-miterlimit:10;stroke-dasharray:none;stroke-opacity:1"
                                   d="M 0,0 H 8.261" />
                                <g
                                   transform="translate(0,-33.048)"
                                   id="g2749">
                                <path
                                   inkscape:connector-curvature="0"
                                   id="path2751"
                                   style="fill:none;stroke:#231f20;stroke-width:0.5;stroke-linecap:butt;stroke-linejoin:miter;stroke-miterlimit:10;stroke-dasharray:none;stroke-opacity:1"
                                   d="M 0,0 H 8.261" />
                                <g
                                   transform="translate(0,-27.54)"
                                   id="g2753">
                                <path
                                   inkscape:connector-curvature="0"
                                   id="path2755"
                                   style="fill:none;stroke:#231f20;stroke-width:0.5;stroke-linecap:butt;stroke-linejoin:miter;stroke-miterlimit:10;stroke-dasharray:none;stroke-opacity:1"
                                   d="M 0,0 H 8.261" />
                                <g
                                   transform="translate(0,-13.77)"
                                   id="g2757">
                                <path
                                   inkscape:connector-curvature="0"
                                   id="path2759"
                                   style="fill:none;stroke:#231f20;stroke-width:0.5;stroke-linecap:butt;stroke-linejoin:miter;stroke-miterlimit:10;stroke-dasharray:none;stroke-opacity:1"
                                   d="M 0,0 H 8.261" />
                                <g
                                   transform="translate(0,-8.262)"
                                   id="g2761">
                                <path
                                   inkscape:connector-curvature="0"
                                   id="path2763"
                                   style="fill:none;stroke:#231f20;stroke-width:0.5;stroke-linecap:butt;stroke-linejoin:miter;stroke-miterlimit:10;stroke-dasharray:none;stroke-opacity:1"
                                   d="M 0,0 H 8.261" />
                                </g>
                                </g>
                                </g>
                                </g>
                                </g>
                                </g>
                                </g>
                                </g>
                                </g>
                                </g>
                                </g>
                                </g>
                                </g>
                                </g>
                                </g>
                                </g>
                                </g>
                              </g>
                            </g>
                          </g>
                        </g>
                      </g>
                    </g>
                  </g>
                </g>
              </g>
            </g>
          </g>
        </g>
      </g>
      <g
         transform="translate(214.62,602.465)"
         id="g2765">
        <path
           inkscape:connector-curvature="0"
           id="path2767"
           style="fill:#231f20;fill-opacity:1;fill-rule:evenodd;stroke:none"
           d="m 0,0 c 0,-1.216 -0.987,-2.203 -2.203,-2.203 -1.216,0 -2.203,0.987 -2.203,2.203 0,1.217 0.987,2.203 2.203,2.203 C -0.987,2.203 0,1.217 0,0" />
      </g>
      <g
         transform="translate(214.62,602.465)"
         id="g2769">
        <path
           inkscape:connector-curvature="0"
           id="path2771"
           style="fill:none;stroke:#231f20;stroke-width:0.5;stroke-linecap:butt;stroke-linejoin:miter;stroke-miterlimit:10;stroke-dasharray:none;stroke-opacity:1"
           d="m 0,0 c 0,-1.216 -0.987,-2.203 -2.203,-2.203 -1.216,0 -2.203,0.987 -2.203,2.203 0,1.217 0.987,2.203 2.203,2.203 C -0.987,2.203 0,1.217 0,0 Z" />
      </g>
      <text
         id="text2777"
         style="font-style:italic;font-variant:normal;font-size:7.5323px;font-family:Times;-inkscape-font-specification:Times-Italic;writing-mode:lr-tb;fill:#231f20;fill-opacity:1;fill-rule:nonzero;stroke:none"
         transform="matrix(1,0,0,-1,185.065,698.879)">
        <tspan
           id="tspan2773"
           y="0"
           x="0">l</tspan>
        <tspan
           id="tspan2775"
           y="-2.7681203"
           x="240.39259">x</tspan>
      </text>
      <text
         id="text2781"
         style="font-variant:normal;font-weight:normal;font-size:5.64919996px;font-family:Times;-inkscape-font-specification:Times-Roman;writing-mode:lr-tb;fill:#231f20;fill-opacity:1;fill-rule:nonzero;stroke:none"
         transform="matrix(1,0,0,-1,428.8023,699.7638)">
        <tspan
           id="tspan2779"
           sodipodi:role="line"
           y="0"
           x="0 2.8240352">1</tspan>
      </text>
      <text
         id="text2785"
         style="font-variant:normal;font-weight:normal;font-size:7.5323px;font-family:Times;-inkscape-font-specification:Times-Roman;writing-mode:lr-tb;fill:#231f20;fill-opacity:1;fill-rule:nonzero;stroke:none"
         transform="matrix(1,0,0,-1,433.0383,701.6471)">
        <tspan
           id="tspan2783"
           sodipodi:role="line"
           y="0"
           x="0 4.2482171">=</tspan>
      </text>
      <text
         id="text2789"
         style="font-style:italic;font-variant:normal;font-size:7.5323px;font-family:Times;-inkscape-font-specification:Times-Italic;writing-mode:lr-tb;fill:#231f20;fill-opacity:1;fill-rule:nonzero;stroke:none"
         transform="matrix(1,0,0,-1,439.17035,701.6471)">
        <tspan
           id="tspan2787"
           y="0"
           x="0">t</tspan>
      </text>
      <text
         id="text2793"
         style="font-style:italic;font-variant:normal;font-size:5.64919996px;font-family:Times;-inkscape-font-specification:Times-Italic;writing-mode:lr-tb;fill:#231f20;fill-opacity:1;fill-rule:nonzero;stroke:none"
         transform="matrix(1,0,0,-1,441.2643,699.7638)">
        <tspan
           id="tspan2791"
           sodipodi:role="line"
           y="0"
           x="0 4.0781574 6.0672407 8.5749207">mrca</tspan>
      </text>
      <text
         id="text2797"
         style="font-style:italic;font-variant:normal;font-size:7.5323px;font-family:Times;-inkscape-font-specification:Times-Italic;writing-mode:lr-tb;fill:#231f20;fill-opacity:1;fill-rule:nonzero;stroke:none"
         transform="matrix(1,0,0,-1,425.4573,675.8493)">
        <tspan
           id="tspan2795"
           y="0"
           x="0">x</tspan>
      </text>
      <text
         id="text2801"
         style="font-variant:normal;font-weight:normal;font-size:5.64919996px;font-family:Times;-inkscape-font-specification:Times-Roman;writing-mode:lr-tb;fill:#231f20;fill-opacity:1;fill-rule:nonzero;stroke:none"
         transform="matrix(1,0,0,-1,428.8023,673.966)">
        <tspan
           id="tspan2799"
           y="0"
           x="0">3</tspan>
      </text>
      <text
         id="text2805"
         style="font-style:italic;font-variant:normal;font-size:7.5323px;font-family:Times;-inkscape-font-specification:Times-Italic;writing-mode:lr-tb;fill:#231f20;fill-opacity:1;fill-rule:nonzero;stroke:none"
         transform="matrix(1,0,0,-1,425.4573,663.0627)">
        <tspan
           id="tspan2803"
           y="0"
           x="0">x</tspan>
      </text>
      <text
         id="text2809"
         style="font-variant:normal;font-weight:normal;font-size:5.64919996px;font-family:Times;-inkscape-font-specification:Times-Roman;writing-mode:lr-tb;fill:#231f20;fill-opacity:1;fill-rule:nonzero;stroke:none"
         transform="matrix(1,0,0,-1,428.8023,661.1794)">
        <tspan
           id="tspan2807"
           y="0"
           x="0">4</tspan>
      </text>
      <text
         id="text2813"
         style="font-style:italic;font-variant:normal;font-size:7.5323px;font-family:Times;-inkscape-font-specification:Times-Italic;writing-mode:lr-tb;fill:#231f20;fill-opacity:1;fill-rule:nonzero;stroke:none"
         transform="matrix(1,0,0,-1,425.4573,618.999)">
        <tspan
           id="tspan2811"
           y="0"
           x="0">x</tspan>
      </text>
      <text
         id="text2817"
         style="font-variant:normal;font-weight:normal;font-size:5.64919996px;font-family:Times;-inkscape-font-specification:Times-Roman;writing-mode:lr-tb;fill:#231f20;fill-opacity:1;fill-rule:nonzero;stroke:none"
         transform="matrix(1,0,0,-1,428.8023,617.116)">
        <tspan
           id="tspan2815"
           y="0"
           x="0">6</tspan>
      </text>
      <text
         id="text2821"
         style="font-variant:normal;font-weight:normal;font-size:7.5323px;font-family:Times;-inkscape-font-specification:Times-Roman;writing-mode:lr-tb;fill:#231f20;fill-opacity:1;fill-rule:nonzero;stroke:none"
         transform="matrix(1,0,0,-1,425.2543,602.5031)">
        <tspan
           id="tspan2819"
           y="0"
           x="0">0</tspan>
      </text>
      <text
         id="text2825"
         style="font-style:italic;font-variant:normal;font-size:7.5323px;font-family:Times;-inkscape-font-specification:Times-Italic;writing-mode:lr-tb;fill:#231f20;fill-opacity:1;fill-rule:nonzero;stroke:none"
         transform="matrix(1,0,0,-1,425.45767,712.66299)">
        <tspan
           id="tspan2823"
           y="0"
           x="0">x</tspan>
      </text>
      <text
         id="text2829"
         style="font-variant:normal;font-weight:normal;font-size:5.64919996px;font-family:Times;-inkscape-font-specification:Times-Roman;writing-mode:lr-tb;fill:#231f20;fill-opacity:1;fill-rule:nonzero;stroke:none"
         transform="matrix(1,0,0,-1,428.8023,710.7793)">
        <tspan
           id="tspan2827"
           sodipodi:role="line"
           y="0"
           x="0 2.8240352">0</tspan>
      </text>
      <text
         id="text2833"
         style="font-variant:normal;font-weight:normal;font-size:7.5323px;font-family:Times;-inkscape-font-specification:Times-Roman;writing-mode:lr-tb;fill:#231f20;fill-opacity:1;fill-rule:nonzero;stroke:none"
         transform="matrix(1,0,0,-1,433.0383,712.6626)">
        <tspan
           id="tspan2831"
           sodipodi:role="line"
           y="0"
           x="0 4.2482171">=</tspan>
      </text>
      <text
         id="text2837"
         style="font-style:italic;font-variant:normal;font-size:7.5323px;font-family:Times;-inkscape-font-specification:Times-Italic;writing-mode:lr-tb;fill:#231f20;fill-opacity:1;fill-rule:nonzero;stroke:none"
         transform="matrix(1,0,0,-1,439.17035,712.6626)">
        <tspan
           id="tspan2835"
           y="0"
           x="0">t</tspan>
      </text>
      <text
         id="text2841"
         style="font-style:italic;font-variant:normal;font-size:5.64919996px;font-family:Times;-inkscape-font-specification:Times-Italic;writing-mode:lr-tb;fill:#231f20;fill-opacity:1;fill-rule:nonzero;stroke:none"
         transform="matrix(1,0,0,-1,441.2643,710.7793)">
        <tspan
           id="tspan2839"
           sodipodi:role="line"
           y="0"
           x="0 2.8240352">or</tspan>
      </text>
      <text
         id="text2845"
         style="font-style:italic;font-variant:normal;font-size:7.5323px;font-family:Times;-inkscape-font-specification:Times-Italic;writing-mode:lr-tb;fill:#231f20;fill-opacity:1;fill-rule:nonzero;stroke:none"
         transform="matrix(1,0,0,-1,425.4363,610.751)">
        <tspan
           id="tspan2843"
           y="0"
           x="0">y</tspan>
      </text>
      <text
         id="text2849"
         style="font-variant:normal;font-weight:normal;font-size:5.64919996px;font-family:Times;-inkscape-font-specification:Times-Roman;writing-mode:lr-tb;fill:#231f20;fill-opacity:1;fill-rule:nonzero;stroke:none"
         transform="matrix(1,0,0,-1,428.7813,608.868)">
        <tspan
           id="tspan2847"
           y="0"
           x="0">2</tspan>
      </text>
      <text
         id="text2853"
         style="font-style:italic;font-variant:normal;font-size:7.5323px;font-family:Times;-inkscape-font-specification:Times-Italic;writing-mode:lr-tb;fill:#231f20;fill-opacity:1;fill-rule:nonzero;stroke:none"
         transform="matrix(1,0,0,-1,425.4573,624.535)">
        <tspan
           id="tspan2851"
           y="0"
           x="0">x</tspan>
      </text>
      <text
         id="text2857"
         style="font-variant:normal;font-weight:normal;font-size:5.64919996px;font-family:Times;-inkscape-font-specification:Times-Roman;writing-mode:lr-tb;fill:#231f20;fill-opacity:1;fill-rule:nonzero;stroke:none"
         transform="matrix(1,0,0,-1,428.8023,622.652)">
        <tspan
           id="tspan2855"
           y="0"
           x="0">5</tspan>
      </text>
      <text
         id="text2861"
         style="font-style:italic;font-variant:normal;font-size:7.5323px;font-family:Times;-inkscape-font-specification:Times-Italic;writing-mode:lr-tb;fill:#231f20;fill-opacity:1;fill-rule:nonzero;stroke:none"
         transform="matrix(1,0,0,-1,425.4573,684.1534)">
        <tspan
           id="tspan2859"
           y="0"
           x="0">x</tspan>
      </text>
      <text
         id="text2865"
         style="font-variant:normal;font-weight:normal;font-size:5.64919996px;font-family:Times;-inkscape-font-specification:Times-Roman;writing-mode:lr-tb;fill:#231f20;fill-opacity:1;fill-rule:nonzero;stroke:none"
         transform="matrix(1,0,0,-1,428.8023,682.2701)">
        <tspan
           id="tspan2863"
           y="0"
           x="0">2</tspan>
      </text>
      <text
         id="text2869"
         style="font-style:italic;font-variant:normal;font-size:7.5323px;font-family:Times;-inkscape-font-specification:Times-Italic;writing-mode:lr-tb;fill:#231f20;fill-opacity:1;fill-rule:nonzero;stroke:none"
         transform="matrix(1,0,0,-1,425.4363,652.0468)">
        <tspan
           id="tspan2867"
           y="0"
           x="0">y</tspan>
      </text>
      <text
         id="text2873"
         style="font-variant:normal;font-weight:normal;font-size:5.64919996px;font-family:Times;-inkscape-font-specification:Times-Roman;writing-mode:lr-tb;fill:#231f20;fill-opacity:1;fill-rule:nonzero;stroke:none"
         transform="matrix(1,0,0,-1,428.7813,650.1635)">
        <tspan
           id="tspan2871"
           y="0"
           x="0">1</tspan>
      </text>
      <text
         id="text2877"
         style="font-style:italic;font-variant:normal;font-size:7.5323px;font-family:Times;-inkscape-font-specification:Times-Italic;writing-mode:lr-tb;fill:#231f20;fill-opacity:1;fill-rule:nonzero;stroke:none"
         transform="matrix(1,0,0,-1,248.2233,698.879)">
        <tspan
           id="tspan2875"
           y="0"
           x="0">r</tspan>
      </text>
    </g>
  </g>
</svg>
