<?xml version="1.0" encoding="UTF-8" standalone="no"?>
<svg
   xmlns:dc="http://purl.org/dc/elements/1.1/"
   xmlns:cc="http://creativecommons.org/ns#"
   xmlns:rdf="http://www.w3.org/1999/02/22-rdf-syntax-ns#"
   xmlns:svg="http://www.w3.org/2000/svg"
   xmlns="http://www.w3.org/2000/svg"
   viewBox="0 0 587.63361 277.93939"
   height="277.93939"
   width="587.63361"
   xml:space="preserve"
   id="svg2"
   version="1.1"><metadata
     id="metadata8"><rdf:RDF><cc:Work
         rdf:about=""><dc:format>image/svg+xml</dc:format><dc:type
           rdf:resource="http://purl.org/dc/dcmitype/StillImage" /></cc:Work></rdf:RDF></metadata><defs
     id="defs6" /><g
     transform="matrix(1.3333333,0,0,-1.3333333,0,277.93939)"
     id="g10"><g
       id="g12"><g
         transform="matrix(1,0,0,-1,0,208.45454)"
         id="g14"><path
           id="path16"
           style="fill:none;stroke:#000000;stroke-width:1.60000002;stroke-linecap:butt;stroke-linejoin:miter;stroke-miterlimit:4;stroke-dasharray:none;stroke-opacity:1"
           d="m 6.68,184.891 v -88 h 80 v 88" /></g><g
         transform="matrix(1,0,0,-1,0,208.45454)"
         id="g18"><path
           id="path20"
           style="fill:none;stroke:#000000;stroke-width:1.60000002;stroke-linecap:butt;stroke-linejoin:miter;stroke-miterlimit:4;stroke-dasharray:none;stroke-opacity:1"
           d="m 102.68,16.891 h 64 v 168" /></g><path
         id="path22"
         style="fill:#000000;fill-opacity:1;fill-rule:nonzero;stroke:none"
         d="M 6.688,12.915 4,5.65 H 9.359 Z M 5.562,14.853 H 7.797 L 13.359,0.275 H 11.312 L 9.984,4.009 H 3.406 L 2.078,0.275 H 0 Z" /><path
         id="path24"
         style="fill:#000000;fill-opacity:1;fill-rule:nonzero;stroke:none"
         d="M 83.484,7.244 V 1.9 h 3.157 c 1.062,0 1.847,0.219 2.359,0.656 0.508,0.438 0.766,1.109 0.766,2.016 0,0.914 -0.258,1.586 -0.766,2.015 -0.512,0.438 -1.297,0.657 -2.359,0.657 z m 0,5.984 V 8.837 h 2.922 c 0.957,0 1.672,0.18 2.141,0.547 0.476,0.364 0.719,0.914 0.719,1.656 0,0.727 -0.243,1.274 -0.719,1.641 -0.469,0.363 -1.184,0.547 -2.141,0.547 z m -1.968,1.625 h 5.031 c 1.508,0 2.672,-0.313 3.484,-0.938 0.813,-0.625 1.219,-1.511 1.219,-2.656 0,-0.898 -0.211,-1.609 -0.625,-2.14 C 90.207,8.595 89.594,8.267 88.781,8.134 89.75,7.923 90.504,7.486 91.047,6.822 91.586,6.165 91.859,5.341 91.859,4.353 91.859,3.048 91.414,2.044 90.531,1.337 89.645,0.626 88.383,0.275 86.75,0.275 h -5.234 z" /><path
         id="path26"
         style="fill:#000000;fill-opacity:1;fill-rule:nonzero;stroke:none"
         d="m 172.551,13.736 v -2.078 c -0.656,0.625 -1.367,1.086 -2.125,1.39 -0.75,0.301 -1.547,0.453 -2.391,0.453 -1.668,0 -2.945,-0.511 -3.828,-1.531 -0.887,-1.012 -1.328,-2.48 -1.328,-4.406 0,-1.93 0.441,-3.402 1.328,-4.422 0.883,-1.012 2.16,-1.516 3.828,-1.516 0.844,0 1.641,0.149 2.391,0.454 0.758,0.3 1.469,0.765 2.125,1.39 V 1.408 c -0.688,-0.469 -1.418,-0.825 -2.188,-1.063 -0.773,-0.226 -1.586,-0.344 -2.437,-0.344 -2.211,0 -3.949,0.672 -5.219,2.016 -1.273,1.352 -1.906,3.203 -1.906,5.547 0,2.344 0.633,4.187 1.906,5.531 1.27,1.352 3.008,2.031 5.219,2.031 0.863,0 1.679,-0.117 2.453,-0.343 0.769,-0.231 1.492,-0.578 2.172,-1.047 z" /><g
         transform="matrix(1,0,0,-1,0,208.45454)"
         id="g28"><path
           id="path30"
           style="fill:none;stroke:#000000;stroke-width:1.60000002;stroke-linecap:butt;stroke-linejoin:miter;stroke-miterlimit:4;stroke-dasharray:none;stroke-opacity:1"
           d="m 102.68,16.891 v -12" /></g><g
         transform="matrix(1,0,0,-1,0,208.45454)"
         id="g32"><path
           id="path34"
           style="fill:none;stroke:#000000;stroke-width:1.60000002;stroke-linecap:butt;stroke-linejoin:miter;stroke-miterlimit:4;stroke-dasharray:none;stroke-opacity:1"
           d="m 46.68,96.891 v -80 h 56" /></g><path
         id="path36"
         style="fill:#000000;fill-opacity:1;fill-rule:nonzero;stroke:none"
         d="m 28.199,104.466 c -0.875,-1.492 -1.527,-2.968 -1.953,-4.437 -0.418,-1.469 -0.625,-2.953 -0.625,-4.453 0,-1.5 0.211,-2.993 0.641,-4.469 0.426,-1.481 1.07,-2.961 1.937,-4.453 h -1.562 c -0.981,1.531 -1.715,3.035 -2.203,4.515 -0.481,1.477 -0.719,2.946 -0.719,4.407 0,1.445 0.238,2.906 0.719,4.375 0.488,1.476 1.222,2.984 2.203,4.515 z" /><path
         id="path38"
         style="fill:#000000;fill-opacity:1;fill-rule:nonzero;stroke:none"
         d="m 36.652,101.935 -2.687,-7.266 h 5.359 z m -1.125,1.938 h 2.235 l 5.562,-14.579 h -2.047 l -1.328,3.735 h -6.578 l -1.328,-3.735 h -2.078 z" /><path
         id="path40"
         style="fill:#000000;fill-opacity:1;fill-rule:nonzero;stroke:none"
         d="m 45.824,91.779 h 2.063 v -1.688 l -1.61,-3.125 h -1.25 l 0.797,3.125 z" /><path
         id="path42"
         style="fill:#000000;fill-opacity:1;fill-rule:nonzero;stroke:none"
         d="m 53.785,96.263 v -5.344 h 3.156 c 1.063,0 1.848,0.219 2.36,0.657 0.508,0.437 0.765,1.109 0.765,2.015 0,0.914 -0.257,1.586 -0.765,2.016 -0.512,0.437 -1.297,0.656 -2.36,0.656 z m 0,5.985 v -4.391 h 2.922 c 0.957,0 1.672,0.18 2.141,0.547 0.476,0.363 0.718,0.914 0.718,1.656 0,0.727 -0.242,1.273 -0.718,1.641 -0.469,0.363 -1.184,0.547 -2.141,0.547 z m -1.969,1.625 h 5.032 c 1.507,0 2.672,-0.313 3.484,-0.938 0.813,-0.625 1.219,-1.512 1.219,-2.656 0,-0.899 -0.211,-1.61 -0.625,-2.141 -0.418,-0.523 -1.031,-0.851 -1.844,-0.984 0.969,-0.211 1.723,-0.649 2.266,-1.313 0.539,-0.656 0.812,-1.48 0.812,-2.468 0,-1.305 -0.445,-2.309 -1.328,-3.016 -0.887,-0.711 -2.148,-1.063 -3.781,-1.063 h -5.235 z" /><path
         id="path44"
         style="fill:#000000;fill-opacity:1;fill-rule:nonzero;stroke:none"
         d="m 65.168,104.466 h 1.562 c 0.969,-1.531 1.692,-3.039 2.172,-4.515 0.489,-1.469 0.735,-2.93 0.735,-4.375 0,-1.461 -0.246,-2.93 -0.735,-4.407 -0.48,-1.48 -1.203,-2.984 -2.172,-4.515 h -1.562 c 0.863,1.492 1.508,2.972 1.937,4.453 0.426,1.476 0.641,2.969 0.641,4.469 0,1.5 -0.215,2.984 -0.641,4.453 -0.429,1.469 -1.074,2.945 -1.937,4.437 z" /><path
         id="path46"
         style="fill:#000000;fill-opacity:1;fill-rule:nonzero;stroke:none"
         d="m 74.023,184.466 c -0.875,-1.492 -1.527,-2.968 -1.953,-4.437 -0.418,-1.469 -0.625,-2.953 -0.625,-4.453 0,-1.5 0.211,-2.993 0.641,-4.469 0.426,-1.481 1.07,-2.961 1.937,-4.453 h -1.562 c -0.981,1.531 -1.715,3.035 -2.203,4.515 -0.481,1.477 -0.719,2.946 -0.719,4.407 0,1.445 0.238,2.906 0.719,4.375 0.488,1.476 1.222,2.984 2.203,4.515 z" /><path
         id="path48"
         style="fill:#000000;fill-opacity:1;fill-rule:nonzero;stroke:none"
         d="m 82.477,181.935 -2.688,-7.266 h 5.359 z m -1.125,1.938 h 2.234 l 5.562,-14.579 h -2.046 l -1.329,3.735 h -6.578 l -1.328,-3.735 h -2.078 z" /><path
         id="path50"
         style="fill:#000000;fill-opacity:1;fill-rule:nonzero;stroke:none"
         d="m 91.648,171.779 h 2.063 v -1.688 l -1.609,-3.125 h -1.25 l 0.796,3.125 z" /><path
         id="path52"
         style="fill:#000000;fill-opacity:1;fill-rule:nonzero;stroke:none"
         d="m 99.609,176.263 v -5.344 h 3.157 c 1.062,0 1.847,0.219 2.359,0.657 0.508,0.437 0.766,1.109 0.766,2.015 0,0.914 -0.258,1.586 -0.766,2.016 -0.512,0.437 -1.297,0.656 -2.359,0.656 z m 0,5.985 v -4.391 h 2.922 c 0.957,0 1.672,0.18 2.141,0.547 0.476,0.363 0.719,0.914 0.719,1.656 0,0.727 -0.243,1.273 -0.719,1.641 -0.469,0.363 -1.184,0.547 -2.141,0.547 z m -1.968,1.625 h 5.031 c 1.508,0 2.672,-0.313 3.484,-0.938 0.813,-0.625 1.219,-1.512 1.219,-2.656 0,-0.899 -0.211,-1.61 -0.625,-2.141 -0.418,-0.523 -1.031,-0.851 -1.844,-0.984 0.969,-0.211 1.723,-0.649 2.266,-1.313 0.539,-0.656 0.812,-1.48 0.812,-2.468 0,-1.305 -0.445,-2.309 -1.328,-3.016 -0.886,-0.711 -2.148,-1.063 -3.781,-1.063 h -5.234 z" /><path
         id="path54"
         style="fill:#000000;fill-opacity:1;fill-rule:nonzero;stroke:none"
         d="m 111.727,171.779 h 2.062 v -1.688 l -1.609,-3.125 h -1.25 l 0.797,3.125 z" /><path
         id="path56"
         style="fill:#000000;fill-opacity:1;fill-rule:nonzero;stroke:none"
         d="m 128.625,182.748 v -2.079 c -0.656,0.625 -1.367,1.086 -2.125,1.391 -0.75,0.301 -1.547,0.453 -2.391,0.453 -1.668,0 -2.945,-0.512 -3.828,-1.531 -0.886,-1.012 -1.328,-2.481 -1.328,-4.406 0,-1.93 0.442,-3.403 1.328,-4.422 0.883,-1.012 2.16,-1.516 3.828,-1.516 0.844,0 1.641,0.149 2.391,0.453 0.758,0.301 1.469,0.766 2.125,1.391 v -2.063 c -0.687,-0.468 -1.418,-0.824 -2.187,-1.062 -0.774,-0.227 -1.586,-0.344 -2.438,-0.344 -2.211,0 -3.949,0.672 -5.219,2.016 -1.273,1.351 -1.906,3.203 -1.906,5.547 0,2.343 0.633,4.187 1.906,5.531 1.27,1.351 3.008,2.031 5.219,2.031 0.863,0 1.68,-0.117 2.453,-0.344 0.77,-0.23 1.492,-0.578 2.172,-1.046 z" /><path
         id="path58"
         style="fill:#000000;fill-opacity:1;fill-rule:nonzero;stroke:none"
         d="m 131.344,184.466 h 1.562 c 0.969,-1.531 1.692,-3.039 2.172,-4.515 0.488,-1.469 0.734,-2.93 0.734,-4.375 0,-1.461 -0.246,-2.93 -0.734,-4.407 -0.48,-1.48 -1.203,-2.984 -2.172,-4.515 h -1.562 c 0.863,1.492 1.508,2.972 1.937,4.453 0.426,1.476 0.641,2.969 0.641,4.469 0,1.5 -0.215,2.984 -0.641,4.453 -0.429,1.469 -1.074,2.945 -1.937,4.437 z" /><g
         transform="matrix(1,0,0,-1,0,208.45454)"
         id="g60"><path
           id="path62"
           style="fill:none;stroke:#0000ff;stroke-width:1.60000002;stroke-linecap:butt;stroke-linejoin:miter;stroke-miterlimit:4;stroke-dasharray:6.4, 1.6;stroke-dashoffset:0;stroke-opacity:1"
           d="m 46.68,64.891 h 72 v 72 h 48" /></g><g
         transform="matrix(1,0,0,-1,0,208.45454)"
         id="g64"><path
           id="path66"
           style="fill:#ffffff;fill-opacity:1;fill-rule:nonzero;stroke:#000000;stroke-width:1.60000002;stroke-linecap:butt;stroke-linejoin:miter;stroke-miterlimit:4;stroke-dasharray:none;stroke-opacity:1"
           d="m 190.68,132.891 h 140 v 8 h -140 z" /></g><g
         transform="matrix(1,0,0,-1,0,208.45454)"
         id="g68"><path
           id="path70"
           style="fill:#0000ff;fill-opacity:1;fill-rule:nonzero;stroke:#000000;stroke-width:1.60000002;stroke-linecap:butt;stroke-linejoin:miter;stroke-miterlimit:4;stroke-dasharray:none;stroke-opacity:1"
           d="m 214.68,132.891 h 28 v 8 h -28 z" /></g></g></g></svg>