<?xml version="1.0" encoding="UTF-8" standalone="no"?>
<svg
   xmlns:dc="http://purl.org/dc/elements/1.1/"
   xmlns:cc="http://creativecommons.org/ns#"
   xmlns:rdf="http://www.w3.org/1999/02/22-rdf-syntax-ns#"
   xmlns:svg="http://www.w3.org/2000/svg"
   xmlns="http://www.w3.org/2000/svg"
   viewBox="0 0 587.63361 277.93939"
   height="277.93939"
   width="587.63361"
   xml:space="preserve"
   id="svg2"
   version="1.1"><metadata
     id="metadata8"><rdf:RDF><cc:Work
         rdf:about=""><dc:format>image/svg+xml</dc:format><dc:type
           rdf:resource="http://purl.org/dc/dcmitype/StillImage" /></cc:Work></rdf:RDF></metadata><defs
     id="defs6" /><g
     transform="matrix(1.3333333,0,0,-1.3333333,0,277.93939)"
     id="g10"><g
       id="g12"><g
         transform="matrix(1,0,0,-1,0,208.45454)"
         id="g14"><path
           id="path16"
           style="fill:none;stroke:#000000;stroke-width:1.60000002;stroke-linecap:butt;stroke-linejoin:miter;stroke-miterlimit:4;stroke-dasharray:none;stroke-opacity:1"
           d="m 6.68,184.891 v -96 h 80 v 96" /></g><g
         transform="matrix(1,0,0,-1,0,208.45454)"
         id="g18"><path
           id="path20"
           style="fill:none;stroke:#000000;stroke-width:1.60000002;stroke-linecap:butt;stroke-linejoin:miter;stroke-miterlimit:4;stroke-dasharray:none;stroke-opacity:1"
           d="m 102.68,16.891 h 64 v 168" /></g><path
         id="path22"
         style="fill:#000000;fill-opacity:1;fill-rule:nonzero;stroke:none"
         d="M 6.688,12.915 4,5.65 H 9.359 Z M 5.562,14.853 H 7.797 L 13.359,0.275 H 11.312 L 9.984,4.009 H 3.406 L 2.078,0.275 H 0 Z" /><path
         id="path24"
         style="fill:#000000;fill-opacity:1;fill-rule:nonzero;stroke:none"
         d="M 83.484,7.244 V 1.9 h 3.157 c 1.062,0 1.847,0.219 2.359,0.656 0.508,0.438 0.766,1.109 0.766,2.016 0,0.914 -0.258,1.586 -0.766,2.015 -0.512,0.438 -1.297,0.657 -2.359,0.657 z m 0,5.984 V 8.837 h 2.922 c 0.957,0 1.672,0.18 2.141,0.547 0.476,0.364 0.719,0.914 0.719,1.656 0,0.727 -0.243,1.274 -0.719,1.641 -0.469,0.363 -1.184,0.547 -2.141,0.547 z m -1.968,1.625 h 5.031 c 1.508,0 2.672,-0.313 3.484,-0.938 0.813,-0.625 1.219,-1.511 1.219,-2.656 0,-0.898 -0.211,-1.609 -0.625,-2.14 C 90.207,8.595 89.594,8.267 88.781,8.134 89.75,7.923 90.504,7.486 91.047,6.822 91.586,6.165 91.859,5.341 91.859,4.353 91.859,3.048 91.414,2.044 90.531,1.337 89.645,0.626 88.383,0.275 86.75,0.275 h -5.234 z" /><path
         id="path26"
         style="fill:#000000;fill-opacity:1;fill-rule:nonzero;stroke:none"
         d="m 172.551,13.736 v -2.078 c -0.656,0.625 -1.367,1.086 -2.125,1.39 -0.75,0.301 -1.547,0.453 -2.391,0.453 -1.668,0 -2.945,-0.511 -3.828,-1.531 -0.887,-1.012 -1.328,-2.48 -1.328,-4.406 0,-1.93 0.441,-3.402 1.328,-4.422 0.883,-1.012 2.16,-1.516 3.828,-1.516 0.844,0 1.641,0.149 2.391,0.454 0.758,0.3 1.469,0.765 2.125,1.39 V 1.408 c -0.688,-0.469 -1.418,-0.825 -2.188,-1.063 -0.773,-0.226 -1.586,-0.344 -2.437,-0.344 -2.211,0 -3.949,0.672 -5.219,2.016 -1.273,1.352 -1.906,3.203 -1.906,5.547 0,2.344 0.633,4.187 1.906,5.531 1.27,1.352 3.008,2.031 5.219,2.031 0.863,0 1.679,-0.117 2.453,-0.343 0.769,-0.231 1.492,-0.578 2.172,-1.047 z" /><g
         transform="matrix(1,0,0,-1,0,208.45454)"
         id="g28"><path
           id="path30"
           style="fill:none;stroke:#000000;stroke-width:1.60000002;stroke-linecap:butt;stroke-linejoin:miter;stroke-miterlimit:4;stroke-dasharray:none;stroke-opacity:1"
           d="m 102.68,16.891 v -12" /></g><g
         transform="matrix(1,0,0,-1,0,208.45454)"
         id="g32"><path
           id="path34"
           style="fill:none;stroke:#000000;stroke-width:1.60000002;stroke-linecap:butt;stroke-linejoin:miter;stroke-miterlimit:4;stroke-dasharray:none;stroke-opacity:1"
           d="m 46.68,88.891 v -72 h 56" /></g><g
         transform="matrix(1,0,0,-1,0,208.45454)"
         id="g36"><path
           id="path38"
           style="fill:none;stroke:#0000ff;stroke-width:1.60000002;stroke-linecap:butt;stroke-linejoin:miter;stroke-miterlimit:4;stroke-dasharray:6.4, 1.6;stroke-dashoffset:0;stroke-opacity:1"
           d="m 46.68,56.891 h 80 v 56 h 40" /></g><g
         transform="matrix(1,0,0,-1,0,208.45454)"
         id="g40"><path
           id="path42"
           style="fill:none;stroke:#000000;stroke-width:1.60000002;stroke-linecap:butt;stroke-linejoin:miter;stroke-miterlimit:4;stroke-dasharray:none;stroke-opacity:1"
           d="m 198.68,184.891 v -56 h 80 v 56" /></g><g
         transform="matrix(1,0,0,-1,0,208.45454)"
         id="g44"><path
           id="path46"
           style="fill:none;stroke:#000000;stroke-width:1.60000002;stroke-linecap:butt;stroke-linejoin:miter;stroke-miterlimit:4;stroke-dasharray:none;stroke-opacity:1"
           d="m 294.68,16.891 h 64 v 168" /></g><path
         id="path48"
         style="fill:#000000;fill-opacity:1;fill-rule:nonzero;stroke:none"
         d="M 198.688,12.915 196,5.65 h 5.359 z m -1.126,1.938 h 2.235 l 5.562,-14.578 h -2.047 l -1.328,3.734 h -6.578 L 194.078,0.275 H 192 Z" /><path
         id="path50"
         style="fill:#000000;fill-opacity:1;fill-rule:nonzero;stroke:none"
         d="M 275.484,7.244 V 1.9 h 3.157 c 1.062,0 1.847,0.219 2.359,0.656 0.508,0.438 0.766,1.109 0.766,2.016 0,0.914 -0.258,1.586 -0.766,2.015 -0.512,0.438 -1.297,0.657 -2.359,0.657 z m 0,5.984 V 8.837 h 2.922 c 0.957,0 1.672,0.18 2.141,0.547 0.476,0.364 0.719,0.914 0.719,1.656 0,0.727 -0.243,1.274 -0.719,1.641 -0.469,0.363 -1.184,0.547 -2.141,0.547 z m -1.968,1.625 h 5.031 c 1.508,0 2.672,-0.313 3.484,-0.938 0.813,-0.625 1.219,-1.511 1.219,-2.656 0,-0.898 -0.211,-1.609 -0.625,-2.14 -0.418,-0.524 -1.031,-0.852 -1.844,-0.985 0.969,-0.211 1.723,-0.648 2.266,-1.312 0.539,-0.657 0.812,-1.481 0.812,-2.469 0,-1.305 -0.445,-2.309 -1.328,-3.016 -0.886,-0.711 -2.148,-1.062 -3.781,-1.062 h -5.234 z" /><path
         id="path52"
         style="fill:#000000;fill-opacity:1;fill-rule:nonzero;stroke:none"
         d="m 364.551,13.736 v -2.078 c -0.656,0.625 -1.367,1.086 -2.125,1.39 -0.75,0.301 -1.547,0.453 -2.391,0.453 -1.668,0 -2.945,-0.511 -3.828,-1.531 -0.887,-1.012 -1.328,-2.48 -1.328,-4.406 0,-1.93 0.441,-3.402 1.328,-4.422 0.883,-1.012 2.16,-1.516 3.828,-1.516 0.844,0 1.641,0.149 2.391,0.454 0.758,0.3 1.469,0.765 2.125,1.39 V 1.408 c -0.688,-0.469 -1.418,-0.825 -2.188,-1.063 -0.773,-0.226 -1.586,-0.344 -2.437,-0.344 -2.211,0 -3.949,0.672 -5.219,2.016 -1.273,1.352 -1.906,3.203 -1.906,5.547 0,2.344 0.633,4.187 1.906,5.531 1.27,1.352 3.008,2.031 5.219,2.031 0.863,0 1.679,-0.117 2.453,-0.343 0.769,-0.231 1.492,-0.578 2.172,-1.047 z" /><g
         transform="matrix(1,0,0,-1,0,208.45454)"
         id="g54"><path
           id="path56"
           style="fill:none;stroke:#000000;stroke-width:1.60000002;stroke-linecap:butt;stroke-linejoin:miter;stroke-miterlimit:4;stroke-dasharray:none;stroke-opacity:1"
           d="m 294.68,16.891 v -12" /></g><g
         transform="matrix(1,0,0,-1,0,208.45454)"
         id="g58"><path
           id="path60"
           style="fill:none;stroke:#000000;stroke-width:1.60000002;stroke-linecap:butt;stroke-linejoin:miter;stroke-miterlimit:4;stroke-dasharray:none;stroke-opacity:1"
           d="m 238.68,128.891 v -112 h 56" /></g><g
         transform="matrix(1,0,0,-1,0,208.45454)"
         id="g62"><path
           id="path64"
           style="fill:none;stroke:#800080;stroke-width:1.60000002;stroke-linecap:butt;stroke-linejoin:miter;stroke-miterlimit:4;stroke-dasharray:6.4, 1.6;stroke-dashoffset:0;stroke-opacity:1"
           d="m 238.68,80.891 h 56 v 80 h 64" /></g><path
         id="path66"
         style="fill:#000000;fill-opacity:1;fill-rule:nonzero;stroke:none"
         d="m 381.758,108.576 h 6.5 v -7.812 h -6.5 z" /><path
         id="path68"
         style="fill:#000000;fill-opacity:1;fill-rule:nonzero;stroke:none"
         d="m 401.883,108.576 h 6.5 v -7.812 h -6.5 z" /><path
         id="path70"
         style="fill:#000000;fill-opacity:1;fill-rule:nonzero;stroke:none"
         d="m 422.008,108.576 h 6.5 v -7.812 h -6.5 z" /><path
         id="path72"
         style="fill:#000000;fill-opacity:1;fill-rule:nonzero;stroke:none"
         d="m 26.102,205.876 -1.344,-3.625 h 2.687 z m -0.563,0.985 h 1.125 l 2.781,-7.297 h -1.031 l -0.672,1.875 h -3.281 l -0.656,-1.875 h -1.047 z" /><path
         id="path74"
         style="fill:#000000;fill-opacity:1;fill-rule:nonzero;stroke:none"
         d="m 33.953,202.986 c 0.207,-0.074 0.41,-0.231 0.609,-0.469 0.208,-0.23 0.411,-0.547 0.61,-0.953 l 1,-2 h -1.063 l -0.921,1.875 c -0.243,0.488 -0.477,0.812 -0.704,0.969 -0.23,0.156 -0.539,0.234 -0.922,0.234 h -1.078 v -3.078 H 30.5 v 7.297 h 2.219 c 0.832,0 1.453,-0.18 1.859,-0.531 0.414,-0.344 0.625,-0.872 0.625,-1.579 0,-0.461 -0.109,-0.839 -0.328,-1.14 -0.211,-0.305 -0.516,-0.512 -0.922,-0.625 z m -2.469,3.062 v -2.593 h 1.235 c 0.476,0 0.836,0.109 1.078,0.328 0.25,0.218 0.375,0.539 0.375,0.968 0,0.426 -0.125,0.75 -0.375,0.969 -0.242,0.219 -0.602,0.328 -1.078,0.328 z" /><path
         id="path76"
         style="fill:#000000;fill-opacity:1;fill-rule:nonzero;stroke:none"
         d="m 42.422,200.611 v 1.953 h -1.61 v 0.812 h 2.579 v -3.14 c -0.375,-0.262 -0.793,-0.465 -1.25,-0.61 -0.461,-0.132 -0.95,-0.203 -1.469,-0.203 -1.149,0 -2.043,0.332 -2.688,1 -0.636,0.664 -0.953,1.594 -0.953,2.782 0,1.187 0.317,2.113 0.953,2.781 0.645,0.664 1.539,1 2.688,1 0.469,0 0.914,-0.059 1.344,-0.172 0.437,-0.117 0.832,-0.289 1.187,-0.516 v -1.062 c -0.367,0.312 -0.75,0.547 -1.156,0.703 -0.406,0.156 -0.84,0.234 -1.297,0.234 -0.898,0 -1.57,-0.25 -2.016,-0.75 -0.437,-0.492 -0.656,-1.23 -0.656,-2.218 0,-0.993 0.219,-1.735 0.656,-2.235 0.446,-0.492 1.118,-0.734 2.016,-0.734 0.352,0 0.664,0.023 0.938,0.078 0.269,0.062 0.515,0.16 0.734,0.297 z" /><path
         id="path78"
         style="fill:#000000;fill-opacity:1;fill-rule:nonzero;stroke:none"
         d="m 51.828,204.876 v -0.859 c -0.25,0.133 -0.512,0.234 -0.781,0.297 -0.274,0.062 -0.559,0.094 -0.859,0.094 -0.438,0 -0.774,-0.071 -1,-0.203 -0.219,-0.137 -0.329,-0.34 -0.329,-0.61 0,-0.211 0.079,-0.375 0.235,-0.5 0.156,-0.117 0.476,-0.226 0.968,-0.328 l 0.297,-0.078 c 0.645,-0.137 1.098,-0.328 1.36,-0.578 0.269,-0.25 0.406,-0.594 0.406,-1.031 0,-0.512 -0.203,-0.918 -0.609,-1.219 -0.399,-0.293 -0.946,-0.438 -1.641,-0.438 -0.305,0 -0.617,0.032 -0.937,0.094 -0.313,0.051 -0.641,0.133 -0.985,0.25 v 0.922 c 0.332,-0.168 0.656,-0.297 0.969,-0.391 0.32,-0.086 0.644,-0.125 0.969,-0.125 0.414,0 0.738,0.071 0.968,0.219 0.227,0.145 0.344,0.348 0.344,0.609 0,0.25 -0.086,0.438 -0.25,0.563 -0.156,0.133 -0.515,0.258 -1.078,0.375 l -0.313,0.078 c -0.554,0.113 -0.953,0.289 -1.203,0.531 -0.25,0.25 -0.375,0.582 -0.375,1 0,0.52 0.18,0.914 0.547,1.188 0.364,0.281 0.883,0.422 1.563,0.422 0.32,0 0.629,-0.028 0.922,-0.078 0.3,-0.043 0.57,-0.11 0.812,-0.204 z" /><path
         id="path80"
         style="fill:#000000;fill-opacity:1;fill-rule:nonzero;stroke:none"
         d="m 56.043,202.314 c -0.719,0 -1.219,-0.086 -1.5,-0.25 -0.281,-0.168 -0.422,-0.449 -0.422,-0.844 0,-0.324 0.102,-0.578 0.313,-0.765 0.207,-0.188 0.492,-0.282 0.859,-0.282 0.5,0 0.898,0.176 1.203,0.532 0.301,0.351 0.453,0.82 0.453,1.406 v 0.203 z m 1.797,0.375 v -3.125 h -0.891 v 0.828 c -0.211,-0.336 -0.469,-0.578 -0.781,-0.734 -0.305,-0.157 -0.672,-0.235 -1.109,-0.235 -0.563,0 -1.012,0.157 -1.344,0.469 -0.336,0.313 -0.5,0.734 -0.5,1.266 0,0.613 0.207,1.078 0.625,1.39 0.414,0.313 1.031,0.469 1.844,0.469 h 1.265 v 0.094 c 0,0.406 -0.14,0.722 -0.422,0.953 -0.273,0.226 -0.652,0.344 -1.14,0.344 -0.313,0 -0.621,-0.043 -0.922,-0.125 -0.293,-0.075 -0.574,-0.184 -0.844,-0.328 v 0.828 c 0.332,0.125 0.649,0.218 0.953,0.281 0.313,0.062 0.614,0.094 0.906,0.094 0.79,0 1.379,-0.203 1.766,-0.61 0.395,-0.406 0.594,-1.027 0.594,-1.859 z" /><path
         id="path82"
         style="fill:#000000;fill-opacity:1;fill-rule:nonzero;stroke:none"
         d="m 63.957,203.986 c 0.219,0.406 0.484,0.703 0.797,0.89 0.312,0.188 0.68,0.282 1.109,0.282 0.571,0 1.008,-0.2 1.313,-0.594 0.312,-0.399 0.469,-0.965 0.469,-1.703 v -3.297 h -0.907 v 3.266 c 0,0.531 -0.093,0.921 -0.281,1.171 -0.18,0.25 -0.461,0.375 -0.844,0.375 -0.468,0 -0.84,-0.156 -1.109,-0.468 -0.262,-0.305 -0.391,-0.719 -0.391,-1.25 v -3.094 h -0.906 v 3.266 c 0,0.531 -0.094,0.921 -0.281,1.171 -0.188,0.25 -0.477,0.375 -0.86,0.375 -0.461,0 -0.824,-0.156 -1.093,-0.468 -0.274,-0.305 -0.407,-0.719 -0.407,-1.25 v -3.094 H 59.66 v 5.469 h 0.906 v -0.844 c 0.207,0.332 0.454,0.578 0.735,0.734 0.289,0.157 0.629,0.235 1.015,0.235 0.407,0 0.743,-0.102 1.016,-0.297 0.281,-0.199 0.488,-0.492 0.625,-0.875 z" /><path
         id="path84"
         style="fill:#000000;fill-opacity:1;fill-rule:nonzero;stroke:none"
         d="m 70.312,200.392 v -2.906 h -0.906 v 7.547 h 0.906 v -0.828 c 0.188,0.32 0.422,0.562 0.704,0.718 0.289,0.157 0.64,0.235 1.046,0.235 0.665,0 1.204,-0.266 1.61,-0.797 0.414,-0.524 0.625,-1.211 0.625,-2.063 0,-0.867 -0.211,-1.562 -0.625,-2.093 -0.406,-0.524 -0.945,-0.782 -1.61,-0.782 -0.406,0 -0.757,0.078 -1.046,0.235 -0.282,0.156 -0.516,0.398 -0.704,0.734 z m 3.063,1.906 c 0,0.657 -0.141,1.172 -0.422,1.547 -0.273,0.375 -0.641,0.563 -1.109,0.563 -0.481,0 -0.856,-0.188 -1.125,-0.563 -0.274,-0.375 -0.407,-0.89 -0.407,-1.547 0,-0.668 0.133,-1.187 0.407,-1.562 0.269,-0.375 0.644,-0.563 1.125,-0.563 0.468,0 0.836,0.188 1.109,0.563 0.281,0.375 0.422,0.894 0.422,1.562 z" /><path
         id="path86"
         style="fill:#000000;fill-opacity:1;fill-rule:nonzero;stroke:none"
         d="m 75.785,207.158 h 0.906 v -7.594 h -0.906 z" /><path
         id="path88"
         style="fill:#000000;fill-opacity:1;fill-rule:nonzero;stroke:none"
         d="m 83.246,202.517 v -0.437 h -4.141 c 0.04,-0.618 0.227,-1.086 0.563,-1.407 0.332,-0.324 0.797,-0.484 1.391,-0.484 0.343,0 0.675,0.039 1,0.125 0.332,0.082 0.656,0.207 0.968,0.375 v -0.844 c -0.324,-0.137 -0.656,-0.242 -1,-0.312 -0.336,-0.071 -0.672,-0.11 -1.015,-0.11 -0.875,0 -1.571,0.25 -2.078,0.75 -0.512,0.508 -0.766,1.203 -0.766,2.078 0,0.895 0.238,1.602 0.719,2.125 0.488,0.52 1.144,0.782 1.968,0.782 0.739,0 1.321,-0.235 1.75,-0.703 0.426,-0.469 0.641,-1.118 0.641,-1.938 z m -0.906,0.266 c 0,0.488 -0.137,0.879 -0.406,1.172 -0.274,0.3 -0.625,0.453 -1.063,0.453 -0.512,0 -0.918,-0.149 -1.219,-0.438 -0.293,-0.281 -0.464,-0.68 -0.515,-1.187 z" /><path
         id="path90"
         style="fill:#000000;fill-opacity:1;fill-rule:nonzero;stroke:none"
         d="m 88.191,200.392 h 1.625 v 5.563 l -1.765,-0.344 v 0.89 l 1.75,0.36 h 0.984 v -6.469 h 1.61 v -0.828 h -4.204 z" /><path
         id="path92"
         style="fill:#000000;fill-opacity:1;fill-rule:nonzero;stroke:none"
         d="m 218.102,205.876 -1.344,-3.625 h 2.687 z m -0.563,0.985 h 1.125 l 2.781,-7.297 h -1.031 l -0.672,1.875 h -3.281 l -0.656,-1.875 h -1.047 z" /><path
         id="path94"
         style="fill:#000000;fill-opacity:1;fill-rule:nonzero;stroke:none"
         d="m 225.953,202.986 c 0.207,-0.074 0.41,-0.231 0.609,-0.469 0.208,-0.23 0.411,-0.547 0.61,-0.953 l 1,-2 h -1.063 l -0.921,1.875 c -0.243,0.488 -0.477,0.812 -0.704,0.969 -0.23,0.156 -0.539,0.234 -0.922,0.234 h -1.078 v -3.078 H 222.5 v 7.297 h 2.219 c 0.832,0 1.453,-0.18 1.859,-0.531 0.414,-0.344 0.625,-0.872 0.625,-1.579 0,-0.461 -0.109,-0.839 -0.328,-1.14 -0.211,-0.305 -0.516,-0.512 -0.922,-0.625 z m -2.469,3.062 v -2.593 h 1.235 c 0.476,0 0.836,0.109 1.078,0.328 0.25,0.218 0.375,0.539 0.375,0.968 0,0.426 -0.125,0.75 -0.375,0.969 -0.242,0.219 -0.602,0.328 -1.078,0.328 z" /><path
         id="path96"
         style="fill:#000000;fill-opacity:1;fill-rule:nonzero;stroke:none"
         d="m 234.422,200.611 v 1.953 h -1.61 v 0.812 h 2.579 v -3.14 c -0.375,-0.262 -0.793,-0.465 -1.25,-0.61 -0.461,-0.132 -0.95,-0.203 -1.469,-0.203 -1.149,0 -2.043,0.332 -2.688,1 -0.636,0.664 -0.953,1.594 -0.953,2.782 0,1.187 0.317,2.113 0.953,2.781 0.645,0.664 1.539,1 2.688,1 0.469,0 0.914,-0.059 1.344,-0.172 0.437,-0.117 0.832,-0.289 1.187,-0.516 v -1.062 c -0.367,0.312 -0.75,0.547 -1.156,0.703 -0.406,0.156 -0.84,0.234 -1.297,0.234 -0.898,0 -1.57,-0.25 -2.016,-0.75 -0.437,-0.492 -0.656,-1.23 -0.656,-2.218 0,-0.993 0.219,-1.735 0.656,-2.235 0.446,-0.492 1.118,-0.734 2.016,-0.734 0.352,0 0.664,0.023 0.938,0.078 0.269,0.062 0.515,0.16 0.734,0.297 z" /><path
         id="path98"
         style="fill:#000000;fill-opacity:1;fill-rule:nonzero;stroke:none"
         d="m 243.828,204.876 v -0.859 c -0.25,0.133 -0.512,0.234 -0.781,0.297 -0.274,0.062 -0.559,0.094 -0.859,0.094 -0.438,0 -0.774,-0.071 -1,-0.203 -0.219,-0.137 -0.329,-0.34 -0.329,-0.61 0,-0.211 0.079,-0.375 0.235,-0.5 0.156,-0.117 0.476,-0.226 0.968,-0.328 l 0.297,-0.078 c 0.645,-0.137 1.098,-0.328 1.36,-0.578 0.269,-0.25 0.406,-0.594 0.406,-1.031 0,-0.512 -0.203,-0.918 -0.609,-1.219 -0.399,-0.293 -0.946,-0.438 -1.641,-0.438 -0.305,0 -0.617,0.032 -0.937,0.094 -0.313,0.051 -0.641,0.133 -0.985,0.25 v 0.922 c 0.332,-0.168 0.656,-0.297 0.969,-0.391 0.32,-0.086 0.644,-0.125 0.969,-0.125 0.414,0 0.738,0.071 0.968,0.219 0.227,0.145 0.344,0.348 0.344,0.609 0,0.25 -0.086,0.438 -0.25,0.563 -0.156,0.133 -0.515,0.258 -1.078,0.375 l -0.313,0.078 c -0.554,0.113 -0.953,0.289 -1.203,0.531 -0.25,0.25 -0.375,0.582 -0.375,1 0,0.52 0.18,0.914 0.547,1.188 0.364,0.281 0.883,0.422 1.563,0.422 0.32,0 0.629,-0.028 0.922,-0.078 0.3,-0.043 0.57,-0.11 0.812,-0.204 z" /><path
         id="path100"
         style="fill:#000000;fill-opacity:1;fill-rule:nonzero;stroke:none"
         d="m 248.043,202.314 c -0.719,0 -1.219,-0.086 -1.5,-0.25 -0.281,-0.168 -0.422,-0.449 -0.422,-0.844 0,-0.324 0.102,-0.578 0.313,-0.765 0.207,-0.188 0.492,-0.282 0.859,-0.282 0.5,0 0.898,0.176 1.203,0.532 0.301,0.351 0.453,0.82 0.453,1.406 v 0.203 z m 1.797,0.375 v -3.125 h -0.891 v 0.828 c -0.211,-0.336 -0.469,-0.578 -0.781,-0.734 -0.305,-0.157 -0.672,-0.235 -1.109,-0.235 -0.563,0 -1.012,0.157 -1.344,0.469 -0.336,0.313 -0.5,0.734 -0.5,1.266 0,0.613 0.207,1.078 0.625,1.39 0.414,0.313 1.031,0.469 1.844,0.469 h 1.265 v 0.094 c 0,0.406 -0.14,0.722 -0.422,0.953 -0.273,0.226 -0.652,0.344 -1.14,0.344 -0.313,0 -0.621,-0.043 -0.922,-0.125 -0.293,-0.075 -0.574,-0.184 -0.844,-0.328 v 0.828 c 0.332,0.125 0.649,0.218 0.953,0.281 0.313,0.062 0.614,0.094 0.906,0.094 0.79,0 1.379,-0.203 1.766,-0.61 0.395,-0.406 0.594,-1.027 0.594,-1.859 z" /><path
         id="path102"
         style="fill:#000000;fill-opacity:1;fill-rule:nonzero;stroke:none"
         d="m 255.957,203.986 c 0.219,0.406 0.484,0.703 0.797,0.89 0.312,0.188 0.68,0.282 1.109,0.282 0.571,0 1.008,-0.2 1.313,-0.594 0.312,-0.399 0.469,-0.965 0.469,-1.703 v -3.297 h -0.907 v 3.266 c 0,0.531 -0.093,0.921 -0.281,1.171 -0.18,0.25 -0.461,0.375 -0.844,0.375 -0.468,0 -0.84,-0.156 -1.109,-0.468 -0.262,-0.305 -0.391,-0.719 -0.391,-1.25 v -3.094 h -0.906 v 3.266 c 0,0.531 -0.094,0.921 -0.281,1.171 -0.188,0.25 -0.477,0.375 -0.86,0.375 -0.461,0 -0.824,-0.156 -1.093,-0.468 -0.274,-0.305 -0.407,-0.719 -0.407,-1.25 v -3.094 h -0.906 v 5.469 h 0.906 v -0.844 c 0.207,0.332 0.454,0.578 0.735,0.734 0.289,0.157 0.629,0.235 1.015,0.235 0.407,0 0.743,-0.102 1.016,-0.297 0.281,-0.199 0.488,-0.492 0.625,-0.875 z" /><path
         id="path104"
         style="fill:#000000;fill-opacity:1;fill-rule:nonzero;stroke:none"
         d="m 262.312,200.392 v -2.906 h -0.906 v 7.547 h 0.906 v -0.828 c 0.188,0.32 0.422,0.562 0.704,0.718 0.289,0.157 0.64,0.235 1.046,0.235 0.665,0 1.204,-0.266 1.61,-0.797 0.414,-0.524 0.625,-1.211 0.625,-2.063 0,-0.867 -0.211,-1.562 -0.625,-2.093 -0.406,-0.524 -0.945,-0.782 -1.61,-0.782 -0.406,0 -0.757,0.078 -1.046,0.235 -0.282,0.156 -0.516,0.398 -0.704,0.734 z m 3.063,1.906 c 0,0.657 -0.141,1.172 -0.422,1.547 -0.273,0.375 -0.641,0.563 -1.109,0.563 -0.481,0 -0.856,-0.188 -1.125,-0.563 -0.274,-0.375 -0.407,-0.89 -0.407,-1.547 0,-0.668 0.133,-1.187 0.407,-1.562 0.269,-0.375 0.644,-0.563 1.125,-0.563 0.468,0 0.836,0.188 1.109,0.563 0.281,0.375 0.422,0.894 0.422,1.562 z" /><path
         id="path106"
         style="fill:#000000;fill-opacity:1;fill-rule:nonzero;stroke:none"
         d="m 267.785,207.158 h 0.906 v -7.594 h -0.906 z" /><path
         id="path108"
         style="fill:#000000;fill-opacity:1;fill-rule:nonzero;stroke:none"
         d="m 275.246,202.517 v -0.437 h -4.141 c 0.04,-0.618 0.227,-1.086 0.563,-1.407 0.332,-0.324 0.797,-0.484 1.391,-0.484 0.343,0 0.675,0.039 1,0.125 0.332,0.082 0.656,0.207 0.968,0.375 v -0.844 c -0.324,-0.137 -0.656,-0.242 -1,-0.312 -0.336,-0.071 -0.672,-0.11 -1.015,-0.11 -0.875,0 -1.571,0.25 -2.078,0.75 -0.512,0.508 -0.766,1.203 -0.766,2.078 0,0.895 0.238,1.602 0.719,2.125 0.488,0.52 1.144,0.782 1.968,0.782 0.739,0 1.321,-0.235 1.75,-0.703 0.426,-0.469 0.641,-1.118 0.641,-1.938 z m -0.906,0.266 c 0,0.488 -0.137,0.879 -0.406,1.172 -0.274,0.3 -0.625,0.453 -1.063,0.453 -0.512,0 -0.918,-0.149 -1.219,-0.438 -0.293,-0.281 -0.464,-0.68 -0.515,-1.187 z" /><path
         id="path110"
         style="fill:#000000;fill-opacity:1;fill-rule:nonzero;stroke:none"
         d="m 280.879,200.392 h 3.437 v -0.828 h -4.625 v 0.828 c 0.375,0.383 0.883,0.906 1.532,1.563 0.644,0.656 1.05,1.078 1.218,1.265 0.313,0.352 0.532,0.649 0.657,0.891 0.125,0.25 0.187,0.492 0.187,0.734 0,0.383 -0.137,0.695 -0.406,0.938 -0.274,0.25 -0.625,0.375 -1.063,0.375 -0.312,0 -0.64,-0.059 -0.984,-0.172 -0.336,-0.106 -0.699,-0.266 -1.094,-0.485 v 1 c 0.395,0.157 0.766,0.274 1.11,0.36 0.343,0.082 0.66,0.125 0.953,0.125 0.75,0 1.347,-0.188 1.797,-0.563 0.457,-0.375 0.687,-0.883 0.687,-1.515 0,-0.305 -0.058,-0.59 -0.172,-0.86 -0.117,-0.261 -0.32,-0.574 -0.609,-0.937 -0.086,-0.094 -0.344,-0.371 -0.781,-0.828 -0.438,-0.45 -1.055,-1.078 -1.844,-1.891 z" /></g></g></svg>