<?xml version="1.0" encoding="UTF-8" standalone="no"?>
<svg
   xmlns:dc="http://purl.org/dc/elements/1.1/"
   xmlns:cc="http://creativecommons.org/ns#"
   xmlns:rdf="http://www.w3.org/1999/02/22-rdf-syntax-ns#"
   xmlns:svg="http://www.w3.org/2000/svg"
   xmlns="http://www.w3.org/2000/svg"
   viewBox="0 0 587.63361 277.93939"
   height="277.93939"
   width="587.63361"
   xml:space="preserve"
   id="svg2"
   version="1.1"><metadata
     id="metadata8"><rdf:RDF><cc:Work
         rdf:about=""><dc:format>image/svg+xml</dc:format><dc:type
           rdf:resource="http://purl.org/dc/dcmitype/StillImage" /></cc:Work></rdf:RDF></metadata><defs
     id="defs6" /><g
     transform="matrix(1.3333333,0,0,-1.3333333,0,277.93939)"
     id="g10"><g
       id="g12"><g
         transform="matrix(1,0,0,-1,0,208.45454)"
         id="g14"><path
           id="path16"
           style="fill:none;stroke:#000000;stroke-width:1.60000002;stroke-linecap:butt;stroke-linejoin:miter;stroke-miterlimit:4;stroke-dasharray:none;stroke-opacity:1"
           d="m 6.68,184.891 v -88 h 80 v 88" /></g><g
         transform="matrix(1,0,0,-1,0,208.45454)"
         id="g18"><path
           id="path20"
           style="fill:none;stroke:#000000;stroke-width:1.60000002;stroke-linecap:butt;stroke-linejoin:miter;stroke-miterlimit:4;stroke-dasharray:none;stroke-opacity:1"
           d="m 102.68,16.891 h 64 v 168" /></g><path
         id="path22"
         style="fill:#000000;fill-opacity:1;fill-rule:nonzero;stroke:none"
         d="M 6.688,12.915 4,5.65 H 9.359 Z M 5.562,14.853 H 7.797 L 13.359,0.275 H 11.312 L 9.984,4.009 H 3.406 L 2.078,0.275 H 0 Z" /><path
         id="path24"
         style="fill:#000000;fill-opacity:1;fill-rule:nonzero;stroke:none"
         d="M 83.484,7.244 V 1.9 h 3.157 c 1.062,0 1.847,0.219 2.359,0.656 0.508,0.438 0.766,1.109 0.766,2.016 0,0.914 -0.258,1.586 -0.766,2.015 -0.512,0.438 -1.297,0.657 -2.359,0.657 z m 0,5.984 V 8.837 h 2.922 c 0.957,0 1.672,0.18 2.141,0.547 0.476,0.364 0.719,0.914 0.719,1.656 0,0.727 -0.243,1.274 -0.719,1.641 -0.469,0.363 -1.184,0.547 -2.141,0.547 z m -1.968,1.625 h 5.031 c 1.508,0 2.672,-0.313 3.484,-0.938 0.813,-0.625 1.219,-1.511 1.219,-2.656 0,-0.898 -0.211,-1.609 -0.625,-2.14 C 90.207,8.595 89.594,8.267 88.781,8.134 89.75,7.923 90.504,7.486 91.047,6.822 91.586,6.165 91.859,5.341 91.859,4.353 91.859,3.048 91.414,2.044 90.531,1.337 89.645,0.626 88.383,0.275 86.75,0.275 h -5.234 z" /><path
         id="path26"
         style="fill:#000000;fill-opacity:1;fill-rule:nonzero;stroke:none"
         d="m 172.551,13.736 v -2.078 c -0.656,0.625 -1.367,1.086 -2.125,1.39 -0.75,0.301 -1.547,0.453 -2.391,0.453 -1.668,0 -2.945,-0.511 -3.828,-1.531 -0.887,-1.012 -1.328,-2.48 -1.328,-4.406 0,-1.93 0.441,-3.402 1.328,-4.422 0.883,-1.012 2.16,-1.516 3.828,-1.516 0.844,0 1.641,0.149 2.391,0.454 0.758,0.3 1.469,0.765 2.125,1.39 V 1.408 c -0.688,-0.469 -1.418,-0.825 -2.188,-1.063 -0.773,-0.226 -1.586,-0.344 -2.437,-0.344 -2.211,0 -3.949,0.672 -5.219,2.016 -1.273,1.352 -1.906,3.203 -1.906,5.547 0,2.344 0.633,4.187 1.906,5.531 1.27,1.352 3.008,2.031 5.219,2.031 0.863,0 1.679,-0.117 2.453,-0.343 0.769,-0.231 1.492,-0.578 2.172,-1.047 z" /><g
         transform="matrix(1,0,0,-1,0,208.45454)"
         id="g28"><path
           id="path30"
           style="fill:none;stroke:#000000;stroke-width:1.60000002;stroke-linecap:butt;stroke-linejoin:miter;stroke-miterlimit:4;stroke-dasharray:none;stroke-opacity:1"
           d="m 102.68,16.891 v -12" /></g><g
         transform="matrix(1,0,0,-1,0,208.45454)"
         id="g32"><path
           id="path34"
           style="fill:none;stroke:#000000;stroke-width:1.60000002;stroke-linecap:butt;stroke-linejoin:miter;stroke-miterlimit:4;stroke-dasharray:none;stroke-opacity:1"
           d="m 46.68,96.891 v -80 h 56" /></g><path
         id="path36"
         style="fill:#000000;fill-opacity:1;fill-rule:nonzero;stroke:none"
         d="m 28.199,104.466 c -0.875,-1.492 -1.527,-2.968 -1.953,-4.437 -0.418,-1.469 -0.625,-2.953 -0.625,-4.453 0,-1.5 0.211,-2.993 0.641,-4.469 0.426,-1.481 1.07,-2.961 1.937,-4.453 h -1.562 c -0.981,1.531 -1.715,3.035 -2.203,4.515 -0.481,1.477 -0.719,2.946 -0.719,4.407 0,1.445 0.238,2.906 0.719,4.375 0.488,1.476 1.222,2.984 2.203,4.515 z" /><path
         id="path38"
         style="fill:#000000;fill-opacity:1;fill-rule:nonzero;stroke:none"
         d="m 36.652,101.935 -2.687,-7.266 h 5.359 z m -1.125,1.938 h 2.235 l 5.562,-14.579 h -2.047 l -1.328,3.735 h -6.578 l -1.328,-3.735 h -2.078 z" /><path
         id="path40"
         style="fill:#000000;fill-opacity:1;fill-rule:nonzero;stroke:none"
         d="m 45.824,91.779 h 2.063 v -1.688 l -1.61,-3.125 h -1.25 l 0.797,3.125 z" /><path
         id="path42"
         style="fill:#000000;fill-opacity:1;fill-rule:nonzero;stroke:none"
         d="m 53.785,96.263 v -5.344 h 3.156 c 1.063,0 1.848,0.219 2.36,0.657 0.508,0.437 0.765,1.109 0.765,2.015 0,0.914 -0.257,1.586 -0.765,2.016 -0.512,0.437 -1.297,0.656 -2.36,0.656 z m 0,5.985 v -4.391 h 2.922 c 0.957,0 1.672,0.18 2.141,0.547 0.476,0.363 0.718,0.914 0.718,1.656 0,0.727 -0.242,1.273 -0.718,1.641 -0.469,0.363 -1.184,0.547 -2.141,0.547 z m -1.969,1.625 h 5.032 c 1.507,0 2.672,-0.313 3.484,-0.938 0.813,-0.625 1.219,-1.512 1.219,-2.656 0,-0.899 -0.211,-1.61 -0.625,-2.141 -0.418,-0.523 -1.031,-0.851 -1.844,-0.984 0.969,-0.211 1.723,-0.649 2.266,-1.313 0.539,-0.656 0.812,-1.48 0.812,-2.468 0,-1.305 -0.445,-2.309 -1.328,-3.016 -0.887,-0.711 -2.148,-1.063 -3.781,-1.063 h -5.235 z" /><path
         id="path44"
         style="fill:#000000;fill-opacity:1;fill-rule:nonzero;stroke:none"
         d="m 65.168,104.466 h 1.562 c 0.969,-1.531 1.692,-3.039 2.172,-4.515 0.489,-1.469 0.735,-2.93 0.735,-4.375 0,-1.461 -0.246,-2.93 -0.735,-4.407 -0.48,-1.48 -1.203,-2.984 -2.172,-4.515 h -1.562 c 0.863,1.492 1.508,2.972 1.937,4.453 0.426,1.476 0.641,2.969 0.641,4.469 0,1.5 -0.215,2.984 -0.641,4.453 -0.429,1.469 -1.074,2.945 -1.937,4.437 z" /><path
         id="path46"
         style="fill:#000000;fill-opacity:1;fill-rule:nonzero;stroke:none"
         d="m 74.023,184.466 c -0.875,-1.492 -1.527,-2.968 -1.953,-4.437 -0.418,-1.469 -0.625,-2.953 -0.625,-4.453 0,-1.5 0.211,-2.993 0.641,-4.469 0.426,-1.481 1.07,-2.961 1.937,-4.453 h -1.562 c -0.981,1.531 -1.715,3.035 -2.203,4.515 -0.481,1.477 -0.719,2.946 -0.719,4.407 0,1.445 0.238,2.906 0.719,4.375 0.488,1.476 1.222,2.984 2.203,4.515 z" /><path
         id="path48"
         style="fill:#000000;fill-opacity:1;fill-rule:nonzero;stroke:none"
         d="m 82.477,181.935 -2.688,-7.266 h 5.359 z m -1.125,1.938 h 2.234 l 5.562,-14.579 h -2.046 l -1.329,3.735 h -6.578 l -1.328,-3.735 h -2.078 z" /><path
         id="path50"
         style="fill:#000000;fill-opacity:1;fill-rule:nonzero;stroke:none"
         d="m 91.648,171.779 h 2.063 v -1.688 l -1.609,-3.125 h -1.25 l 0.796,3.125 z" /><path
         id="path52"
         style="fill:#000000;fill-opacity:1;fill-rule:nonzero;stroke:none"
         d="m 99.609,176.263 v -5.344 h 3.157 c 1.062,0 1.847,0.219 2.359,0.657 0.508,0.437 0.766,1.109 0.766,2.015 0,0.914 -0.258,1.586 -0.766,2.016 -0.512,0.437 -1.297,0.656 -2.359,0.656 z m 0,5.985 v -4.391 h 2.922 c 0.957,0 1.672,0.18 2.141,0.547 0.476,0.363 0.719,0.914 0.719,1.656 0,0.727 -0.243,1.273 -0.719,1.641 -0.469,0.363 -1.184,0.547 -2.141,0.547 z m -1.968,1.625 h 5.031 c 1.508,0 2.672,-0.313 3.484,-0.938 0.813,-0.625 1.219,-1.512 1.219,-2.656 0,-0.899 -0.211,-1.61 -0.625,-2.141 -0.418,-0.523 -1.031,-0.851 -1.844,-0.984 0.969,-0.211 1.723,-0.649 2.266,-1.313 0.539,-0.656 0.812,-1.48 0.812,-2.468 0,-1.305 -0.445,-2.309 -1.328,-3.016 -0.886,-0.711 -2.148,-1.063 -3.781,-1.063 h -5.234 z" /><path
         id="path54"
         style="fill:#000000;fill-opacity:1;fill-rule:nonzero;stroke:none"
         d="m 111.727,171.779 h 2.062 v -1.688 l -1.609,-3.125 h -1.25 l 0.797,3.125 z" /><path
         id="path56"
         style="fill:#000000;fill-opacity:1;fill-rule:nonzero;stroke:none"
         d="m 128.625,182.748 v -2.079 c -0.656,0.625 -1.367,1.086 -2.125,1.391 -0.75,0.301 -1.547,0.453 -2.391,0.453 -1.668,0 -2.945,-0.512 -3.828,-1.531 -0.886,-1.012 -1.328,-2.481 -1.328,-4.406 0,-1.93 0.442,-3.403 1.328,-4.422 0.883,-1.012 2.16,-1.516 3.828,-1.516 0.844,0 1.641,0.149 2.391,0.453 0.758,0.301 1.469,0.766 2.125,1.391 v -2.063 c -0.687,-0.468 -1.418,-0.824 -2.187,-1.062 -0.774,-0.227 -1.586,-0.344 -2.438,-0.344 -2.211,0 -3.949,0.672 -5.219,2.016 -1.273,1.351 -1.906,3.203 -1.906,5.547 0,2.343 0.633,4.187 1.906,5.531 1.27,1.351 3.008,2.031 5.219,2.031 0.863,0 1.68,-0.117 2.453,-0.344 0.77,-0.23 1.492,-0.578 2.172,-1.046 z" /><path
         id="path58"
         style="fill:#000000;fill-opacity:1;fill-rule:nonzero;stroke:none"
         d="m 131.344,184.466 h 1.562 c 0.969,-1.531 1.692,-3.039 2.172,-4.515 0.488,-1.469 0.734,-2.93 0.734,-4.375 0,-1.461 -0.246,-2.93 -0.734,-4.407 -0.48,-1.48 -1.203,-2.984 -2.172,-4.515 h -1.562 c 0.863,1.492 1.508,2.972 1.937,4.453 0.426,1.476 0.641,2.969 0.641,4.469 0,1.5 -0.215,2.984 -0.641,4.453 -0.429,1.469 -1.074,2.945 -1.937,4.437 z" /><g
         transform="matrix(1,0,0,-1,0,208.45454)"
         id="g60"><path
           id="path62"
           style="fill:none;stroke:#800080;stroke-width:1.60000002;stroke-linecap:butt;stroke-linejoin:miter;stroke-miterlimit:4;stroke-dasharray:6.4, 1.6;stroke-dashoffset:0;stroke-opacity:1"
           d="m 46.68,80.891 h 56 v 80 h 64" /></g><g
         transform="matrix(1,0,0,-1,0,208.45454)"
         id="g64"><path
           id="path66"
           style="fill:none;stroke:#0000ff;stroke-width:1.60000002;stroke-linecap:butt;stroke-linejoin:miter;stroke-miterlimit:4;stroke-dasharray:6.4, 1.6;stroke-dashoffset:0;stroke-opacity:1"
           d="m 46.68,72.891 h 64 v 80 h 56" /></g><g
         transform="matrix(1,0,0,-1,0,208.45454)"
         id="g68"><path
           id="path70"
           style="fill:none;stroke:#0000ff;stroke-width:1.60000002;stroke-linecap:butt;stroke-linejoin:miter;stroke-miterlimit:4;stroke-dasharray:6.4, 1.6;stroke-dashoffset:0;stroke-opacity:1"
           d="m 46.68,56.891 h 80 v 56 h 40" /></g><g
         transform="matrix(1,0,0,-1,0,208.45454)"
         id="g72"><path
           id="path74"
           style="fill:none;stroke:#0000ff;stroke-width:1.60000002;stroke-linecap:butt;stroke-linejoin:miter;stroke-miterlimit:4;stroke-dasharray:6.4, 1.6;stroke-dashoffset:0;stroke-opacity:1"
           d="m 46.68,64.891 h 72 v 72 h 48" /></g><g
         transform="matrix(1,0,0,-1,0,208.45454)"
         id="g76"><path
           id="path78"
           style="fill:#ffffff;fill-opacity:1;fill-rule:nonzero;stroke:#000000;stroke-width:1.60000002;stroke-linecap:butt;stroke-linejoin:miter;stroke-miterlimit:4;stroke-dasharray:none;stroke-opacity:1"
           d="m 190.68,108.891 h 140 v 8 h -140 z" /></g><g
         transform="matrix(1,0,0,-1,0,208.45454)"
         id="g80"><path
           id="path82"
           style="fill:#0000ff;fill-opacity:1;fill-rule:nonzero;stroke:#000000;stroke-width:1.60000002;stroke-linecap:butt;stroke-linejoin:miter;stroke-miterlimit:4;stroke-dasharray:none;stroke-opacity:1"
           d="m 210.68,108.891 h 27.719 v 7.922 H 210.68 Z" /></g><g
         transform="matrix(1,0,0,-1,0,208.45454)"
         id="g84"><path
           id="path86"
           style="fill:#ffffff;fill-opacity:1;fill-rule:nonzero;stroke:#000000;stroke-width:1.60000002;stroke-linecap:butt;stroke-linejoin:miter;stroke-miterlimit:4;stroke-dasharray:none;stroke-opacity:1"
           d="m 190.68,132.891 h 140 v 8 h -140 z" /></g><g
         transform="matrix(1,0,0,-1,0,208.45454)"
         id="g88"><path
           id="path90"
           style="fill:#0000ff;fill-opacity:1;fill-rule:nonzero;stroke:#000000;stroke-width:1.60000002;stroke-linecap:butt;stroke-linejoin:miter;stroke-miterlimit:4;stroke-dasharray:none;stroke-opacity:1"
           d="M 222.68,132.891 H 248 v 7.922 h -25.32 z" /></g><g
         transform="matrix(1,0,0,-1,0,208.45454)"
         id="g92"><path
           id="path94"
           style="fill:#ffffff;fill-opacity:1;fill-rule:nonzero;stroke:#000000;stroke-width:1.60000002;stroke-linecap:butt;stroke-linejoin:miter;stroke-miterlimit:4;stroke-dasharray:none;stroke-opacity:1"
           d="m 190.68,148.891 h 140 v 8 h -140 z" /></g><g
         transform="matrix(1,0,0,-1,0,208.45454)"
         id="g96"><path
           id="path98"
           style="fill:#0000ff;fill-opacity:1;fill-rule:nonzero;stroke:#000000;stroke-width:1.60000002;stroke-linecap:butt;stroke-linejoin:miter;stroke-miterlimit:4;stroke-dasharray:none;stroke-opacity:1"
           d="m 214.961,148.969 h 27.719 v 7.922 h -27.719 z" /></g><g
         transform="matrix(1,0,0,-1,0,208.45454)"
         id="g100"><path
           id="path102"
           style="fill:#ffffff;fill-opacity:1;fill-rule:nonzero;stroke:#000000;stroke-width:1.60000002;stroke-linecap:butt;stroke-linejoin:miter;stroke-miterlimit:4;stroke-dasharray:none;stroke-opacity:1"
           d="m 190.68,156.891 h 88 v 8 h -88 z" /></g><g
         transform="matrix(1,0,0,-1,0,208.45454)"
         id="g104"><path
           id="path106"
           style="fill:#800080;fill-opacity:1;fill-rule:nonzero;stroke:#000000;stroke-width:1.60000002;stroke-linecap:butt;stroke-linejoin:miter;stroke-miterlimit:4;stroke-dasharray:none;stroke-opacity:1"
           d="m 266.68,156.969 h 64 v 7.844 h -64 z" /></g><path
         id="path108"
         style="fill:#000000;fill-opacity:1;fill-rule:nonzero;stroke:none"
         d="m 338.027,46.357 h 1.813 c 2.414,0 3.988,0.43 4.719,1.281 0.738,0.856 1.109,2.699 1.109,5.531 v 7.391 c 0,3.094 0.383,5.344 1.156,6.75 0.781,1.414 2.129,2.395 4.047,2.938 -1.918,0.488 -3.266,1.437 -4.047,2.843 -0.773,1.414 -1.156,3.68 -1.156,6.797 v 7.391 c 0,2.82 -0.371,4.664 -1.109,5.531 -0.731,0.863 -2.305,1.297 -4.719,1.297 h -1.813 v 4.25 h 1.625 c 4.301,0 7.172,-0.731 8.61,-2.188 1.437,-1.461 2.156,-4.382 2.156,-8.765 v -7.156 c 0,-2.961 0.461,-5.012 1.391,-6.157 0.937,-1.136 2.629,-1.703 5.078,-1.703 h 1.609 v -4.265 h -1.609 c -2.449,0 -4.141,-0.579 -5.078,-1.735 -0.93,-1.148 -1.391,-3.219 -1.391,-6.219 V 53.06 c 0,-4.395 -0.719,-7.328 -2.156,-8.797 -1.438,-1.469 -4.309,-2.203 -8.61,-2.203 h -1.625 z" /><path
         id="path110"
         style="fill:#000000;fill-opacity:1;fill-rule:nonzero;stroke:none"
         d="m 371.605,94.298 v -1.047 c -0.335,0.313 -0.687,0.539 -1.062,0.688 -0.375,0.156 -0.773,0.234 -1.188,0.234 -0.835,0 -1.476,-0.258 -1.921,-0.765 -0.438,-0.512 -0.657,-1.246 -0.657,-2.203 0,-0.961 0.219,-1.696 0.657,-2.204 0.445,-0.511 1.086,-0.765 1.921,-0.765 0.415,0 0.813,0.07 1.188,0.219 0.375,0.156 0.727,0.39 1.062,0.703 v -1.032 c -0.343,-0.242 -0.71,-0.418 -1.093,-0.531 -0.387,-0.113 -0.793,-0.172 -1.219,-0.172 -1.105,0 -1.977,0.336 -2.609,1.016 -0.637,0.676 -0.954,1.598 -0.954,2.766 0,1.164 0.317,2.085 0.954,2.765 0.632,0.676 1.504,1.016 2.609,1.016 0.437,0 0.848,-0.059 1.234,-0.172 0.383,-0.117 0.743,-0.289 1.078,-0.516 z" /><path
         id="path112"
         style="fill:#000000;fill-opacity:1;fill-rule:nonzero;stroke:none"
         d="m 375.223,92.408 c -0.481,0 -0.86,-0.188 -1.141,-0.563 -0.281,-0.375 -0.422,-0.89 -0.422,-1.547 0,-0.656 0.133,-1.172 0.406,-1.547 0.282,-0.375 0.664,-0.562 1.157,-0.562 0.476,0 0.859,0.187 1.14,0.562 0.282,0.375 0.422,0.891 0.422,1.547 0,0.645 -0.14,1.157 -0.422,1.532 -0.281,0.382 -0.664,0.578 -1.14,0.578 z m 0,0.75 c 0.781,0 1.394,-0.258 1.843,-0.766 0.446,-0.5 0.672,-1.199 0.672,-2.094 0,-0.898 -0.226,-1.601 -0.672,-2.109 -0.449,-0.512 -1.062,-0.766 -1.843,-0.766 -0.782,0 -1.399,0.254 -1.844,0.766 -0.449,0.508 -0.672,1.211 -0.672,2.109 0,0.895 0.223,1.594 0.672,2.094 0.445,0.508 1.062,0.766 1.844,0.766 z" /><path
         id="path114"
         style="fill:#000000;fill-opacity:1;fill-rule:nonzero;stroke:none"
         d="m 383.758,90.861 v -3.297 h -0.891 v 3.266 c 0,0.519 -0.105,0.906 -0.312,1.156 -0.2,0.258 -0.5,0.39 -0.907,0.39 -0.48,0 -0.859,-0.156 -1.14,-0.468 -0.281,-0.305 -0.422,-0.719 -0.422,-1.25 v -3.094 h -0.906 v 5.469 h 0.906 v -0.844 c 0.219,0.32 0.473,0.562 0.766,0.719 0.289,0.164 0.625,0.25 1,0.25 0.625,0 1.097,-0.196 1.421,-0.578 0.321,-0.387 0.485,-0.961 0.485,-1.719 z" /><path
         id="path116"
         style="fill:#000000;fill-opacity:1;fill-rule:nonzero;stroke:none"
         d="m 384.918,93.033 h 0.953 l 1.703,-4.594 1.719,4.594 h 0.953 l -2.062,-5.469 h -1.219 z" /><path
         id="path118"
         style="fill:#000000;fill-opacity:1;fill-rule:nonzero;stroke:none"
         d="M 396.164,90.517 V 90.08 h -4.141 c 0.039,-0.618 0.227,-1.086 0.563,-1.407 0.332,-0.324 0.797,-0.484 1.391,-0.484 0.343,0 0.675,0.039 1,0.125 0.332,0.082 0.656,0.207 0.968,0.375 v -0.844 c -0.324,-0.137 -0.656,-0.242 -1,-0.312 -0.336,-0.071 -0.672,-0.11 -1.015,-0.11 -0.875,0 -1.571,0.25 -2.078,0.75 -0.512,0.508 -0.766,1.203 -0.766,2.078 0,0.895 0.238,1.602 0.719,2.125 0.488,0.52 1.144,0.782 1.968,0.782 0.739,0 1.321,-0.235 1.75,-0.703 0.426,-0.469 0.641,-1.118 0.641,-1.938 z m -0.906,0.266 c 0,0.488 -0.137,0.879 -0.406,1.172 -0.274,0.3 -0.625,0.453 -1.063,0.453 -0.512,0 -0.918,-0.149 -1.219,-0.438 -0.293,-0.281 -0.465,-0.68 -0.515,-1.187 z" /><path
         id="path120"
         style="fill:#000000;fill-opacity:1;fill-rule:nonzero;stroke:none"
         d="m 400.801,92.189 c -0.106,0.062 -0.215,0.101 -0.328,0.125 -0.118,0.031 -0.246,0.047 -0.391,0.047 -0.512,0 -0.902,-0.168 -1.172,-0.5 -0.273,-0.324 -0.406,-0.797 -0.406,-1.422 v -2.875 h -0.906 v 5.469 h 0.906 v -0.844 c 0.187,0.332 0.43,0.578 0.734,0.734 0.301,0.157 0.672,0.235 1.11,0.235 0.062,0 0.129,-0.008 0.203,-0.016 0.07,0 0.156,-0.012 0.25,-0.031 z" /><path
         id="path122"
         style="fill:#000000;fill-opacity:1;fill-rule:nonzero;stroke:none"
         d="m 405.234,92.876 v -0.859 c -0.25,0.133 -0.511,0.234 -0.781,0.297 -0.273,0.062 -0.558,0.094 -0.859,0.094 -0.438,0 -0.774,-0.071 -1,-0.203 -0.219,-0.137 -0.328,-0.34 -0.328,-0.61 0,-0.211 0.078,-0.375 0.234,-0.5 0.156,-0.117 0.477,-0.226 0.969,-0.328 l 0.297,-0.078 c 0.644,-0.137 1.097,-0.328 1.359,-0.578 0.27,-0.25 0.406,-0.594 0.406,-1.031 0,-0.512 -0.203,-0.918 -0.609,-1.219 -0.399,-0.293 -0.945,-0.438 -1.641,-0.438 -0.304,0 -0.617,0.032 -0.937,0.094 -0.313,0.051 -0.641,0.133 -0.985,0.25 v 0.922 c 0.332,-0.168 0.657,-0.297 0.969,-0.391 0.32,-0.086 0.645,-0.125 0.969,-0.125 0.414,0 0.738,0.071 0.969,0.219 0.226,0.145 0.343,0.348 0.343,0.609 0,0.25 -0.086,0.438 -0.25,0.563 -0.156,0.133 -0.515,0.258 -1.078,0.375 l -0.312,0.078 c -0.555,0.113 -0.953,0.289 -1.203,0.531 -0.25,0.25 -0.375,0.582 -0.375,1 0,0.52 0.179,0.914 0.547,1.188 0.363,0.281 0.882,0.422 1.562,0.422 0.32,0 0.629,-0.028 0.922,-0.078 0.301,-0.043 0.57,-0.11 0.812,-0.204 z" /><path
         id="path124"
         style="fill:#000000;fill-opacity:1;fill-rule:nonzero;stroke:none"
         d="m 406.965,93.033 h 0.906 v -5.469 h -0.906 z m 0,2.125 h 0.906 v -1.141 h -0.906 z" /><path
         id="path126"
         style="fill:#000000;fill-opacity:1;fill-rule:nonzero;stroke:none"
         d="m 411.863,92.408 c -0.48,0 -0.859,-0.188 -1.14,-0.563 -0.282,-0.375 -0.422,-0.89 -0.422,-1.547 0,-0.656 0.133,-1.172 0.406,-1.547 0.281,-0.375 0.664,-0.562 1.156,-0.562 0.477,0 0.86,0.187 1.141,0.562 0.281,0.375 0.422,0.891 0.422,1.547 0,0.645 -0.141,1.157 -0.422,1.532 -0.281,0.382 -0.664,0.578 -1.141,0.578 z m 0,0.75 c 0.782,0 1.395,-0.258 1.844,-0.766 0.445,-0.5 0.672,-1.199 0.672,-2.094 0,-0.898 -0.227,-1.601 -0.672,-2.109 -0.449,-0.512 -1.062,-0.766 -1.844,-0.766 -0.781,0 -1.398,0.254 -1.843,0.766 -0.45,0.508 -0.672,1.211 -0.672,2.109 0,0.895 0.222,1.594 0.672,2.094 0.445,0.508 1.062,0.766 1.843,0.766 z" /><path
         id="path128"
         style="fill:#000000;fill-opacity:1;fill-rule:nonzero;stroke:none"
         d="m 420.398,90.861 v -3.297 h -0.89 v 3.266 c 0,0.519 -0.106,0.906 -0.313,1.156 -0.199,0.258 -0.5,0.39 -0.906,0.39 -0.48,0 -0.859,-0.156 -1.141,-0.468 -0.281,-0.305 -0.421,-0.719 -0.421,-1.25 v -3.094 h -0.907 v 5.469 h 0.907 v -0.844 c 0.218,0.32 0.472,0.562 0.765,0.719 0.289,0.164 0.625,0.25 1,0.25 0.625,0 1.098,-0.196 1.422,-0.578 0.32,-0.387 0.484,-0.961 0.484,-1.719 z" /><path
         id="path130"
         style="fill:#000000;fill-opacity:1;fill-rule:nonzero;stroke:none"
         d="m 425.684,92.876 v -0.859 c -0.25,0.133 -0.512,0.234 -0.782,0.297 -0.273,0.062 -0.558,0.094 -0.859,0.094 -0.438,0 -0.773,-0.071 -1,-0.203 -0.219,-0.137 -0.328,-0.34 -0.328,-0.61 0,-0.211 0.078,-0.375 0.234,-0.5 0.156,-0.117 0.477,-0.226 0.969,-0.328 l 0.297,-0.078 c 0.644,-0.137 1.097,-0.328 1.359,-0.578 0.27,-0.25 0.406,-0.594 0.406,-1.031 0,-0.512 -0.203,-0.918 -0.609,-1.219 -0.398,-0.293 -0.945,-0.438 -1.641,-0.438 -0.304,0 -0.617,0.032 -0.937,0.094 -0.313,0.051 -0.641,0.133 -0.984,0.25 v 0.922 c 0.332,-0.168 0.656,-0.297 0.968,-0.391 0.321,-0.086 0.645,-0.125 0.969,-0.125 0.414,0 0.738,0.071 0.969,0.219 0.226,0.145 0.344,0.348 0.344,0.609 0,0.25 -0.086,0.438 -0.25,0.563 -0.157,0.133 -0.516,0.258 -1.079,0.375 l -0.312,0.078 c -0.555,0.113 -0.953,0.289 -1.203,0.531 -0.25,0.25 -0.375,0.582 -0.375,1 0,0.52 0.18,0.914 0.547,1.188 0.363,0.281 0.883,0.422 1.562,0.422 0.321,0 0.629,-0.028 0.922,-0.078 0.301,-0.043 0.57,-0.11 0.813,-0.204 z" /><path
         id="path132"
         style="fill:#000000;fill-opacity:1;fill-rule:nonzero;stroke:none"
         d="m 368.887,82.658 v -0.75 h -0.86 c -0.324,0 -0.547,-0.071 -0.672,-0.203 -0.125,-0.125 -0.187,-0.356 -0.187,-0.688 v -0.484 h 1.469 V 79.83 h -1.469 v -4.766 h -0.906 v 4.766 h -0.86 v 0.703 h 0.86 v 0.375 c 0,0.613 0.14,1.054 0.422,1.328 0.281,0.281 0.726,0.422 1.343,0.422 z" /><path
         id="path134"
         style="fill:#000000;fill-opacity:1;fill-rule:nonzero;stroke:none"
         d="m 372.793,79.689 c -0.105,0.062 -0.215,0.101 -0.328,0.125 -0.117,0.031 -0.246,0.047 -0.391,0.047 -0.512,0 -0.902,-0.168 -1.172,-0.5 -0.273,-0.324 -0.406,-0.797 -0.406,-1.422 v -2.875 h -0.906 v 5.469 h 0.906 v -0.844 c 0.188,0.332 0.43,0.578 0.734,0.734 0.301,0.157 0.672,0.235 1.11,0.235 0.062,0 0.129,-0.008 0.203,-0.016 0.07,0 0.156,-0.012 0.25,-0.031 z" /><path
         id="path136"
         style="fill:#000000;fill-opacity:1;fill-rule:nonzero;stroke:none"
         d="m 375.652,79.908 c -0.48,0 -0.859,-0.188 -1.14,-0.563 -0.282,-0.375 -0.422,-0.89 -0.422,-1.547 0,-0.656 0.133,-1.172 0.406,-1.547 0.281,-0.375 0.664,-0.562 1.156,-0.562 0.477,0 0.86,0.187 1.141,0.562 0.281,0.375 0.422,0.891 0.422,1.547 0,0.645 -0.141,1.157 -0.422,1.532 -0.281,0.382 -0.664,0.578 -1.141,0.578 z m 0,0.75 c 0.782,0 1.395,-0.258 1.844,-0.766 0.445,-0.5 0.672,-1.199 0.672,-2.094 0,-0.898 -0.227,-1.601 -0.672,-2.109 -0.449,-0.512 -1.062,-0.766 -1.844,-0.766 -0.781,0 -1.398,0.254 -1.843,0.766 -0.45,0.508 -0.672,1.211 -0.672,2.109 0,0.895 0.222,1.594 0.672,2.094 0.445,0.508 1.062,0.766 1.843,0.766 z" /><path
         id="path138"
         style="fill:#000000;fill-opacity:1;fill-rule:nonzero;stroke:none"
         d="m 383.906,79.486 c 0.219,0.406 0.485,0.703 0.797,0.89 0.313,0.188 0.68,0.282 1.109,0.282 0.571,0 1.008,-0.2 1.313,-0.594 0.313,-0.399 0.469,-0.965 0.469,-1.703 v -3.297 h -0.906 v 3.266 c 0,0.531 -0.094,0.921 -0.282,1.171 -0.179,0.25 -0.461,0.375 -0.844,0.375 -0.468,0 -0.839,-0.156 -1.109,-0.468 -0.262,-0.305 -0.391,-0.719 -0.391,-1.25 v -3.094 h -0.906 v 3.266 c 0,0.531 -0.094,0.921 -0.281,1.171 -0.187,0.25 -0.477,0.375 -0.859,0.375 -0.461,0 -0.825,-0.156 -1.094,-0.468 -0.274,-0.305 -0.406,-0.719 -0.406,-1.25 v -3.094 h -0.907 v 5.469 h 0.907 v -0.844 c 0.207,0.332 0.453,0.578 0.734,0.734 0.289,0.157 0.629,0.235 1.016,0.235 0.406,0 0.742,-0.102 1.015,-0.297 0.281,-0.199 0.489,-0.492 0.625,-0.875 z" /><path
         id="path140"
         style="fill:#000000;fill-opacity:1;fill-rule:nonzero;stroke:none"
         d="m 396.18,79.705 v 2.953 h 0.89 v -7.594 h -0.89 v 0.828 c -0.188,-0.336 -0.43,-0.578 -0.719,-0.734 -0.293,-0.157 -0.641,-0.235 -1.047,-0.235 -0.656,0 -1.195,0.258 -1.609,0.782 -0.418,0.531 -0.625,1.226 -0.625,2.093 0,0.852 0.207,1.539 0.625,2.063 0.414,0.531 0.953,0.797 1.609,0.797 0.406,0 0.754,-0.078 1.047,-0.235 0.289,-0.156 0.531,-0.398 0.719,-0.718 z m -3.063,-1.907 c 0,-0.668 0.133,-1.187 0.406,-1.562 0.27,-0.375 0.645,-0.563 1.125,-0.563 0.469,0 0.836,0.188 1.11,0.563 0.281,0.375 0.422,0.894 0.422,1.562 0,0.657 -0.141,1.172 -0.422,1.547 -0.274,0.375 -0.641,0.563 -1.11,0.563 -0.48,0 -0.855,-0.188 -1.125,-0.563 -0.273,-0.375 -0.406,-0.89 -0.406,-1.547 z" /><path
         id="path142"
         style="fill:#000000;fill-opacity:1;fill-rule:nonzero;stroke:none"
         d="m 398.918,80.533 h 0.906 v -5.469 h -0.906 z m 0,2.125 h 0.906 v -1.141 h -0.906 z" /><path
         id="path144"
         style="fill:#000000;fill-opacity:1;fill-rule:nonzero;stroke:none"
         d="m 405.176,80.376 v -0.859 c -0.25,0.133 -0.512,0.234 -0.781,0.297 -0.274,0.062 -0.559,0.094 -0.86,0.094 -0.437,0 -0.773,-0.071 -1,-0.203 -0.219,-0.137 -0.328,-0.34 -0.328,-0.61 0,-0.211 0.078,-0.375 0.234,-0.5 0.157,-0.117 0.477,-0.226 0.969,-0.328 l 0.297,-0.078 c 0.645,-0.137 1.098,-0.328 1.359,-0.578 0.27,-0.25 0.407,-0.594 0.407,-1.031 0,-0.512 -0.203,-0.918 -0.61,-1.219 -0.398,-0.293 -0.945,-0.438 -1.64,-0.438 -0.305,0 -0.618,0.032 -0.938,0.094 -0.312,0.051 -0.64,0.133 -0.984,0.25 v 0.922 c 0.332,-0.168 0.656,-0.297 0.969,-0.391 0.32,-0.086 0.644,-0.125 0.968,-0.125 0.414,0 0.739,0.071 0.969,0.219 0.227,0.145 0.344,0.348 0.344,0.609 0,0.25 -0.086,0.438 -0.25,0.563 -0.156,0.133 -0.516,0.258 -1.078,0.375 l -0.313,0.078 c -0.555,0.113 -0.953,0.289 -1.203,0.531 -0.25,0.25 -0.375,0.582 -0.375,1 0,0.52 0.18,0.914 0.547,1.188 0.363,0.281 0.883,0.422 1.562,0.422 0.321,0 0.629,-0.028 0.922,-0.078 0.301,-0.043 0.571,-0.11 0.813,-0.204 z" /><path
         id="path146"
         style="fill:#000000;fill-opacity:1;fill-rule:nonzero;stroke:none"
         d="m 407.797,82.08 v -1.547 h 1.859 V 79.83 h -1.859 v -2.969 c 0,-0.438 0.062,-0.727 0.187,-0.86 0.125,-0.125 0.375,-0.187 0.75,-0.187 h 0.922 v -0.75 h -0.922 c -0.699,0 -1.183,0.129 -1.453,0.391 -0.261,0.257 -0.39,0.726 -0.39,1.406 v 2.969 h -0.657 v 0.703 h 0.657 v 1.547 z" /><path
         id="path148"
         style="fill:#000000;fill-opacity:1;fill-rule:nonzero;stroke:none"
         d="m 410.832,80.533 h 0.906 v -5.469 h -0.906 z m 0,2.125 h 0.906 v -1.141 h -0.906 z" /><path
         id="path150"
         style="fill:#000000;fill-opacity:1;fill-rule:nonzero;stroke:none"
         d="m 418.152,78.361 v -3.297 h -0.89 v 3.266 c 0,0.519 -0.106,0.906 -0.313,1.156 -0.199,0.258 -0.5,0.39 -0.906,0.39 -0.481,0 -0.859,-0.156 -1.141,-0.468 -0.281,-0.305 -0.422,-0.719 -0.422,-1.25 v -3.094 h -0.906 v 5.469 h 0.906 v -0.844 c 0.219,0.32 0.473,0.562 0.766,0.719 0.289,0.164 0.625,0.25 1,0.25 0.625,0 1.098,-0.196 1.422,-0.578 0.32,-0.387 0.484,-0.961 0.484,-1.719 z" /><path
         id="path152"
         style="fill:#000000;fill-opacity:1;fill-rule:nonzero;stroke:none"
         d="m 423.891,80.33 v -0.844 c -0.25,0.133 -0.508,0.238 -0.766,0.312 -0.25,0.071 -0.508,0.11 -0.766,0.11 -0.586,0 -1.039,-0.188 -1.359,-0.563 -0.324,-0.367 -0.484,-0.883 -0.484,-1.547 0,-0.668 0.16,-1.187 0.484,-1.562 0.32,-0.367 0.773,-0.547 1.359,-0.547 0.258,0 0.516,0.031 0.766,0.094 0.258,0.07 0.516,0.179 0.766,0.328 v -0.844 c -0.25,-0.117 -0.512,-0.199 -0.782,-0.25 -0.261,-0.062 -0.543,-0.094 -0.843,-0.094 -0.836,0 -1.496,0.254 -1.985,0.766 -0.48,0.519 -0.719,1.223 -0.719,2.109 0,0.883 0.243,1.582 0.735,2.094 0.488,0.508 1.16,0.766 2.015,0.766 0.282,0 0.551,-0.028 0.813,-0.078 0.258,-0.055 0.516,-0.137 0.766,-0.25 z" /><path
         id="path154"
         style="fill:#000000;fill-opacity:1;fill-rule:nonzero;stroke:none"
         d="m 426.352,82.08 v -1.547 h 1.859 V 79.83 h -1.859 v -2.969 c 0,-0.438 0.062,-0.727 0.187,-0.86 0.125,-0.125 0.375,-0.187 0.75,-0.187 h 0.922 v -0.75 h -0.922 c -0.699,0 -1.184,0.129 -1.453,0.391 -0.262,0.257 -0.391,0.726 -0.391,1.406 v 2.969 h -0.656 v 0.703 h 0.656 v 1.547 z" /><path
         id="path156"
         style="fill:#000000;fill-opacity:1;fill-rule:nonzero;stroke:none"
         d="m 369.59,67.876 v -0.859 c -0.25,0.133 -0.512,0.234 -0.781,0.297 -0.274,0.062 -0.559,0.094 -0.86,0.094 -0.437,0 -0.773,-0.071 -1,-0.203 -0.219,-0.137 -0.328,-0.34 -0.328,-0.61 0,-0.211 0.078,-0.375 0.234,-0.5 0.157,-0.117 0.477,-0.226 0.969,-0.328 l 0.297,-0.078 c 0.645,-0.137 1.098,-0.328 1.359,-0.578 0.27,-0.25 0.407,-0.594 0.407,-1.031 0,-0.512 -0.203,-0.918 -0.61,-1.219 -0.398,-0.293 -0.945,-0.438 -1.64,-0.438 -0.305,0 -0.617,0.032 -0.938,0.094 -0.312,0.051 -0.64,0.133 -0.984,0.25 v 0.922 c 0.332,-0.168 0.656,-0.297 0.969,-0.391 0.32,-0.086 0.644,-0.125 0.968,-0.125 0.414,0 0.739,0.071 0.969,0.219 0.227,0.145 0.344,0.348 0.344,0.609 0,0.25 -0.086,0.438 -0.25,0.563 -0.156,0.133 -0.516,0.258 -1.078,0.375 l -0.313,0.078 c -0.554,0.113 -0.953,0.289 -1.203,0.531 -0.25,0.25 -0.375,0.582 -0.375,1 0,0.52 0.18,0.914 0.547,1.188 0.363,0.281 0.883,0.422 1.562,0.422 0.321,0 0.629,-0.028 0.922,-0.078 0.301,-0.043 0.571,-0.11 0.813,-0.204 z" /><path
         id="path158"
         style="fill:#000000;fill-opacity:1;fill-rule:nonzero;stroke:none"
         d="m 372.211,69.58 v -1.547 h 1.859 V 67.33 h -1.859 v -2.969 c 0,-0.438 0.062,-0.727 0.187,-0.86 0.125,-0.125 0.375,-0.187 0.75,-0.187 h 0.922 v -0.75 h -0.922 c -0.699,0 -1.183,0.129 -1.453,0.391 -0.261,0.257 -0.39,0.726 -0.39,1.406 v 2.969 h -0.657 v 0.703 h 0.657 v 1.547 z" /><path
         id="path160"
         style="fill:#000000;fill-opacity:1;fill-rule:nonzero;stroke:none"
         d="m 377.73,65.314 c -0.718,0 -1.218,-0.086 -1.5,-0.25 -0.281,-0.168 -0.421,-0.449 -0.421,-0.844 0,-0.324 0.101,-0.578 0.312,-0.765 0.207,-0.188 0.492,-0.282 0.859,-0.282 0.5,0 0.899,0.176 1.204,0.532 0.3,0.351 0.453,0.82 0.453,1.406 v 0.203 z m 1.797,0.375 v -3.125 h -0.89 v 0.828 c -0.211,-0.336 -0.469,-0.578 -0.782,-0.734 -0.304,-0.157 -0.671,-0.235 -1.109,-0.235 -0.562,0 -1.012,0.157 -1.344,0.469 -0.336,0.313 -0.5,0.734 -0.5,1.266 0,0.613 0.207,1.078 0.625,1.39 0.414,0.313 1.032,0.469 1.844,0.469 h 1.266 v 0.094 c 0,0.406 -0.141,0.722 -0.422,0.953 -0.274,0.226 -0.653,0.344 -1.141,0.344 -0.312,0 -0.621,-0.043 -0.922,-0.125 -0.293,-0.075 -0.574,-0.184 -0.843,-0.328 v 0.828 c 0.332,0.125 0.648,0.218 0.953,0.281 0.312,0.062 0.613,0.094 0.906,0.094 0.789,0 1.379,-0.203 1.766,-0.61 0.394,-0.406 0.593,-1.027 0.593,-1.859 z" /><path
         id="path162"
         style="fill:#000000;fill-opacity:1;fill-rule:nonzero;stroke:none"
         d="m 382.27,69.58 v -1.547 h 1.859 V 67.33 h -1.859 v -2.969 c 0,-0.438 0.062,-0.727 0.187,-0.86 0.125,-0.125 0.375,-0.187 0.75,-0.187 h 0.922 v -0.75 h -0.922 c -0.699,0 -1.184,0.129 -1.453,0.391 -0.262,0.257 -0.391,0.726 -0.391,1.406 v 2.969 h -0.656 v 0.703 h 0.656 v 1.547 z" /><path
         id="path164"
         style="fill:#000000;fill-opacity:1;fill-rule:nonzero;stroke:none"
         d="M 389.992,65.517 V 65.08 h -4.14 c 0.039,-0.618 0.226,-1.086 0.562,-1.407 0.332,-0.324 0.797,-0.484 1.391,-0.484 0.343,0 0.675,0.039 1,0.125 0.332,0.082 0.656,0.207 0.968,0.375 v -0.844 c -0.324,-0.137 -0.656,-0.242 -1,-0.312 -0.335,-0.071 -0.671,-0.11 -1.015,-0.11 -0.875,0 -1.57,0.25 -2.078,0.75 -0.512,0.508 -0.766,1.203 -0.766,2.078 0,0.895 0.238,1.602 0.719,2.125 0.488,0.52 1.144,0.782 1.969,0.782 0.738,0 1.32,-0.235 1.75,-0.703 0.425,-0.469 0.64,-1.118 0.64,-1.938 z m -0.906,0.266 c 0,0.488 -0.137,0.879 -0.406,1.172 -0.274,0.3 -0.625,0.453 -1.063,0.453 -0.512,0 -0.918,-0.149 -1.219,-0.438 -0.293,-0.281 -0.464,-0.68 -0.515,-1.187 z" /><path
         id="path166"
         style="fill:#000000;fill-opacity:1;fill-rule:nonzero;stroke:none"
         d="m 394.941,67.876 v -0.859 c -0.25,0.133 -0.511,0.234 -0.781,0.297 -0.273,0.062 -0.558,0.094 -0.859,0.094 -0.438,0 -0.774,-0.071 -1,-0.203 -0.219,-0.137 -0.328,-0.34 -0.328,-0.61 0,-0.211 0.078,-0.375 0.234,-0.5 0.156,-0.117 0.477,-0.226 0.969,-0.328 l 0.297,-0.078 c 0.644,-0.137 1.097,-0.328 1.359,-0.578 0.27,-0.25 0.406,-0.594 0.406,-1.031 0,-0.512 -0.203,-0.918 -0.609,-1.219 -0.399,-0.293 -0.945,-0.438 -1.641,-0.438 -0.304,0 -0.617,0.032 -0.937,0.094 -0.313,0.051 -0.641,0.133 -0.985,0.25 v 0.922 c 0.332,-0.168 0.657,-0.297 0.969,-0.391 0.32,-0.086 0.645,-0.125 0.969,-0.125 0.414,0 0.738,0.071 0.969,0.219 0.226,0.145 0.343,0.348 0.343,0.609 0,0.25 -0.086,0.438 -0.25,0.563 -0.156,0.133 -0.515,0.258 -1.078,0.375 l -0.312,0.078 c -0.555,0.113 -0.953,0.289 -1.203,0.531 -0.25,0.25 -0.375,0.582 -0.375,1 0,0.52 0.179,0.914 0.547,1.188 0.363,0.281 0.882,0.422 1.562,0.422 0.32,0 0.629,-0.028 0.922,-0.078 0.301,-0.043 0.57,-0.11 0.812,-0.204 z" /><path
         id="path168"
         style="fill:#000000;fill-opacity:1;fill-rule:nonzero;stroke:none"
         d="m 403.34,67.876 v -0.859 c -0.25,0.133 -0.512,0.234 -0.781,0.297 -0.274,0.062 -0.559,0.094 -0.86,0.094 -0.437,0 -0.773,-0.071 -1,-0.203 -0.219,-0.137 -0.328,-0.34 -0.328,-0.61 0,-0.211 0.078,-0.375 0.234,-0.5 0.157,-0.117 0.477,-0.226 0.969,-0.328 l 0.297,-0.078 c 0.645,-0.137 1.098,-0.328 1.359,-0.578 0.27,-0.25 0.407,-0.594 0.407,-1.031 0,-0.512 -0.203,-0.918 -0.61,-1.219 -0.398,-0.293 -0.945,-0.438 -1.64,-0.438 -0.305,0 -0.617,0.032 -0.938,0.094 -0.312,0.051 -0.64,0.133 -0.984,0.25 v 0.922 c 0.332,-0.168 0.656,-0.297 0.969,-0.391 0.32,-0.086 0.644,-0.125 0.968,-0.125 0.414,0 0.739,0.071 0.969,0.219 0.227,0.145 0.344,0.348 0.344,0.609 0,0.25 -0.086,0.438 -0.25,0.563 -0.156,0.133 -0.516,0.258 -1.078,0.375 l -0.313,0.078 c -0.554,0.113 -0.953,0.289 -1.203,0.531 -0.25,0.25 -0.375,0.582 -0.375,1 0,0.52 0.18,0.914 0.547,1.188 0.363,0.281 0.883,0.422 1.562,0.422 0.321,0 0.629,-0.028 0.922,-0.078 0.301,-0.043 0.571,-0.11 0.813,-0.204 z" /><path
         id="path170"
         style="fill:#000000;fill-opacity:1;fill-rule:nonzero;stroke:none"
         d="m 407.555,65.314 c -0.719,0 -1.219,-0.086 -1.5,-0.25 -0.282,-0.168 -0.422,-0.449 -0.422,-0.844 0,-0.324 0.101,-0.578 0.312,-0.765 0.207,-0.188 0.493,-0.282 0.86,-0.282 0.5,0 0.898,0.176 1.203,0.532 0.301,0.351 0.453,0.82 0.453,1.406 v 0.203 z m 1.797,0.375 v -3.125 h -0.891 v 0.828 c -0.211,-0.336 -0.469,-0.578 -0.781,-0.734 -0.305,-0.157 -0.672,-0.235 -1.11,-0.235 -0.562,0 -1.011,0.157 -1.343,0.469 -0.336,0.313 -0.5,0.734 -0.5,1.266 0,0.613 0.207,1.078 0.625,1.39 0.414,0.313 1.031,0.469 1.843,0.469 h 1.266 v 0.094 c 0,0.406 -0.141,0.722 -0.422,0.953 -0.273,0.226 -0.652,0.344 -1.141,0.344 -0.312,0 -0.621,-0.043 -0.921,-0.125 -0.293,-0.075 -0.575,-0.184 -0.844,-0.328 v 0.828 c 0.332,0.125 0.648,0.218 0.953,0.281 0.312,0.062 0.613,0.094 0.906,0.094 0.789,0 1.379,-0.203 1.766,-0.61 0.394,-0.406 0.594,-1.027 0.594,-1.859 z" /><path
         id="path172"
         style="fill:#000000;fill-opacity:1;fill-rule:nonzero;stroke:none"
         d="m 415.469,66.986 c 0.219,0.406 0.484,0.703 0.797,0.89 0.312,0.188 0.679,0.282 1.109,0.282 0.57,0 1.008,-0.2 1.313,-0.594 0.312,-0.399 0.468,-0.965 0.468,-1.703 v -3.297 h -0.906 v 3.266 c 0,0.531 -0.094,0.921 -0.281,1.171 -0.18,0.25 -0.461,0.375 -0.844,0.375 -0.469,0 -0.84,-0.156 -1.109,-0.468 -0.262,-0.305 -0.391,-0.719 -0.391,-1.25 v -3.094 h -0.906 v 3.266 c 0,0.531 -0.094,0.921 -0.281,1.171 -0.188,0.25 -0.477,0.375 -0.86,0.375 -0.461,0 -0.824,-0.156 -1.094,-0.468 -0.273,-0.305 -0.406,-0.719 -0.406,-1.25 v -3.094 h -0.906 v 5.469 h 0.906 v -0.844 c 0.207,0.332 0.453,0.578 0.734,0.734 0.29,0.157 0.629,0.235 1.016,0.235 0.406,0 0.742,-0.102 1.016,-0.297 0.281,-0.199 0.488,-0.492 0.625,-0.875 z" /><path
         id="path174"
         style="fill:#000000;fill-opacity:1;fill-rule:nonzero;stroke:none"
         d="m 421.824,63.392 v -2.906 h -0.906 v 7.547 h 0.906 v -0.828 c 0.188,0.32 0.422,0.562 0.703,0.718 0.289,0.157 0.641,0.235 1.047,0.235 0.664,0 1.203,-0.266 1.61,-0.797 0.414,-0.524 0.625,-1.211 0.625,-2.063 0,-0.867 -0.211,-1.562 -0.625,-2.093 -0.407,-0.524 -0.946,-0.782 -1.61,-0.782 -0.406,0 -0.758,0.078 -1.047,0.235 -0.281,0.156 -0.515,0.398 -0.703,0.734 z m 3.063,1.906 c 0,0.657 -0.141,1.172 -0.422,1.547 -0.274,0.375 -0.641,0.563 -1.11,0.563 -0.48,0 -0.855,-0.188 -1.125,-0.563 -0.273,-0.375 -0.406,-0.89 -0.406,-1.547 0,-0.668 0.133,-1.187 0.406,-1.562 0.27,-0.375 0.645,-0.563 1.125,-0.563 0.469,0 0.836,0.188 1.11,0.563 0.281,0.375 0.422,0.894 0.422,1.562 z" /><path
         id="path176"
         style="fill:#000000;fill-opacity:1;fill-rule:nonzero;stroke:none"
         d="m 427.297,70.158 h 0.906 v -7.594 h -0.906 z" /><path
         id="path178"
         style="fill:#000000;fill-opacity:1;fill-rule:nonzero;stroke:none"
         d="M 434.758,65.517 V 65.08 h -4.141 c 0.039,-0.618 0.227,-1.086 0.563,-1.407 0.332,-0.324 0.797,-0.484 1.39,-0.484 0.344,0 0.676,0.039 1,0.125 0.332,0.082 0.657,0.207 0.969,0.375 v -0.844 c -0.324,-0.137 -0.656,-0.242 -1,-0.312 -0.336,-0.071 -0.672,-0.11 -1.016,-0.11 -0.875,0 -1.57,0.25 -2.078,0.75 -0.511,0.508 -0.765,1.203 -0.765,2.078 0,0.895 0.238,1.602 0.718,2.125 0.489,0.52 1.145,0.782 1.969,0.782 0.738,0 1.321,-0.235 1.75,-0.703 0.426,-0.469 0.641,-1.118 0.641,-1.938 z m -0.906,0.266 c 0,0.488 -0.137,0.879 -0.407,1.172 -0.273,0.3 -0.625,0.453 -1.062,0.453 -0.512,0 -0.918,-0.149 -1.219,-0.438 -0.293,-0.281 -0.465,-0.68 -0.516,-1.187 z" /><path
         id="path180"
         style="fill:#000000;fill-opacity:1;fill-rule:nonzero;stroke:none"
         d="m 439.832,67.205 v 2.953 h 0.891 v -7.594 h -0.891 v 0.828 c -0.187,-0.336 -0.43,-0.578 -0.719,-0.734 -0.293,-0.157 -0.64,-0.235 -1.047,-0.235 -0.656,0 -1.195,0.258 -1.609,0.782 -0.418,0.531 -0.625,1.226 -0.625,2.093 0,0.852 0.207,1.539 0.625,2.063 0.414,0.531 0.953,0.797 1.609,0.797 0.407,0 0.754,-0.078 1.047,-0.235 0.289,-0.156 0.532,-0.398 0.719,-0.718 z m -3.062,-1.907 c 0,-0.668 0.132,-1.187 0.406,-1.562 0.269,-0.375 0.644,-0.563 1.125,-0.563 0.469,0 0.836,0.188 1.109,0.563 0.281,0.375 0.422,0.894 0.422,1.562 0,0.657 -0.141,1.172 -0.422,1.547 -0.273,0.375 -0.64,0.563 -1.109,0.563 -0.481,0 -0.856,-0.188 -1.125,-0.563 -0.274,-0.375 -0.406,-0.89 -0.406,-1.547 z" /><path
         id="path182"
         style="fill:#000000;fill-opacity:1;fill-rule:nonzero;stroke:none"
         d="m 368.887,57.658 v -0.75 h -0.86 c -0.324,0 -0.547,-0.071 -0.672,-0.203 -0.125,-0.125 -0.187,-0.356 -0.187,-0.688 v -0.484 h 1.469 V 54.83 h -1.469 v -4.766 h -0.906 v 4.766 h -0.86 v 0.703 h 0.86 v 0.375 c 0,0.613 0.14,1.054 0.422,1.328 0.281,0.281 0.726,0.422 1.343,0.422 z" /><path
         id="path184"
         style="fill:#000000;fill-opacity:1;fill-rule:nonzero;stroke:none"
         d="m 372.793,54.689 c -0.105,0.062 -0.215,0.101 -0.328,0.125 -0.117,0.031 -0.246,0.047 -0.391,0.047 -0.512,0 -0.902,-0.168 -1.172,-0.5 -0.273,-0.324 -0.406,-0.797 -0.406,-1.422 v -2.875 h -0.906 v 5.469 h 0.906 v -0.844 c 0.188,0.332 0.43,0.578 0.734,0.734 0.301,0.157 0.672,0.235 1.11,0.235 0.062,0 0.129,-0.008 0.203,-0.016 0.07,0 0.156,-0.012 0.25,-0.031 z" /><path
         id="path186"
         style="fill:#000000;fill-opacity:1;fill-rule:nonzero;stroke:none"
         d="m 375.652,54.908 c -0.48,0 -0.859,-0.188 -1.14,-0.563 -0.282,-0.375 -0.422,-0.89 -0.422,-1.547 0,-0.656 0.133,-1.172 0.406,-1.547 0.281,-0.375 0.664,-0.562 1.156,-0.562 0.477,0 0.86,0.187 1.141,0.562 0.281,0.375 0.422,0.891 0.422,1.547 0,0.645 -0.141,1.157 -0.422,1.532 -0.281,0.382 -0.664,0.578 -1.141,0.578 z m 0,0.75 c 0.782,0 1.395,-0.258 1.844,-0.766 0.445,-0.5 0.672,-1.199 0.672,-2.094 0,-0.898 -0.227,-1.601 -0.672,-2.109 -0.449,-0.512 -1.062,-0.766 -1.844,-0.766 -0.781,0 -1.398,0.254 -1.843,0.766 -0.45,0.508 -0.672,1.211 -0.672,2.109 0,0.895 0.222,1.594 0.672,2.094 0.445,0.508 1.062,0.766 1.843,0.766 z" /><path
         id="path188"
         style="fill:#000000;fill-opacity:1;fill-rule:nonzero;stroke:none"
         d="m 383.906,54.486 c 0.219,0.406 0.485,0.703 0.797,0.89 0.313,0.188 0.68,0.282 1.109,0.282 0.571,0 1.008,-0.2 1.313,-0.594 0.313,-0.399 0.469,-0.965 0.469,-1.703 v -3.297 h -0.906 v 3.266 c 0,0.531 -0.094,0.921 -0.282,1.171 -0.179,0.25 -0.461,0.375 -0.844,0.375 -0.468,0 -0.839,-0.156 -1.109,-0.468 -0.262,-0.305 -0.391,-0.719 -0.391,-1.25 v -3.094 h -0.906 v 3.266 c 0,0.531 -0.094,0.921 -0.281,1.171 -0.187,0.25 -0.477,0.375 -0.859,0.375 -0.461,0 -0.825,-0.156 -1.094,-0.468 -0.274,-0.305 -0.406,-0.719 -0.406,-1.25 v -3.094 h -0.907 v 5.469 h 0.907 v -0.844 c 0.207,0.332 0.453,0.578 0.734,0.734 0.289,0.157 0.629,0.235 1.016,0.235 0.406,0 0.742,-0.102 1.015,-0.297 0.281,-0.199 0.489,-0.492 0.625,-0.875 z" /><path
         id="path190"
         style="fill:#000000;fill-opacity:1;fill-rule:nonzero;stroke:none"
         d="m 393.445,50.892 v -2.906 h -0.906 v 7.547 h 0.906 v -0.828 c 0.188,0.32 0.422,0.562 0.703,0.718 0.29,0.157 0.641,0.235 1.047,0.235 0.664,0 1.203,-0.266 1.61,-0.797 0.414,-0.524 0.625,-1.211 0.625,-2.063 0,-0.867 -0.211,-1.562 -0.625,-2.093 -0.407,-0.524 -0.946,-0.782 -1.61,-0.782 -0.406,0 -0.757,0.078 -1.047,0.235 -0.281,0.156 -0.515,0.398 -0.703,0.734 z m 3.063,1.906 c 0,0.657 -0.141,1.172 -0.422,1.547 -0.274,0.375 -0.641,0.563 -1.109,0.563 -0.481,0 -0.856,-0.188 -1.125,-0.563 -0.274,-0.375 -0.407,-0.89 -0.407,-1.547 0,-0.668 0.133,-1.187 0.407,-1.562 0.269,-0.375 0.644,-0.563 1.125,-0.563 0.468,0 0.835,0.188 1.109,0.563 0.281,0.375 0.422,0.894 0.422,1.562 z" /><path
         id="path192"
         style="fill:#000000;fill-opacity:1;fill-rule:nonzero;stroke:none"
         d="m 401.043,54.908 c -0.481,0 -0.859,-0.188 -1.141,-0.563 -0.281,-0.375 -0.422,-0.89 -0.422,-1.547 0,-0.656 0.133,-1.172 0.407,-1.547 0.281,-0.375 0.664,-0.562 1.156,-0.562 0.477,0 0.859,0.187 1.141,0.562 0.281,0.375 0.421,0.891 0.421,1.547 0,0.645 -0.14,1.157 -0.421,1.532 -0.282,0.382 -0.664,0.578 -1.141,0.578 z m 0,0.75 c 0.781,0 1.395,-0.258 1.844,-0.766 0.445,-0.5 0.672,-1.199 0.672,-2.094 0,-0.898 -0.227,-1.601 -0.672,-2.109 -0.449,-0.512 -1.063,-0.766 -1.844,-0.766 -0.781,0 -1.398,0.254 -1.844,0.766 -0.449,0.508 -0.672,1.211 -0.672,2.109 0,0.895 0.223,1.594 0.672,2.094 0.446,0.508 1.063,0.766 1.844,0.766 z" /><path
         id="path194"
         style="fill:#000000;fill-opacity:1;fill-rule:nonzero;stroke:none"
         d="m 408.516,55.376 v -0.859 c -0.25,0.133 -0.512,0.234 -0.782,0.297 -0.273,0.062 -0.558,0.094 -0.859,0.094 -0.437,0 -0.773,-0.071 -1,-0.203 -0.219,-0.137 -0.328,-0.34 -0.328,-0.61 0,-0.211 0.078,-0.375 0.234,-0.5 0.157,-0.117 0.477,-0.226 0.969,-0.328 l 0.297,-0.078 c 0.644,-0.137 1.098,-0.328 1.359,-0.578 0.27,-0.25 0.406,-0.594 0.406,-1.031 0,-0.512 -0.203,-0.918 -0.609,-1.219 -0.398,-0.293 -0.945,-0.438 -1.641,-0.438 -0.304,0 -0.617,0.032 -0.937,0.094 -0.313,0.051 -0.641,0.133 -0.984,0.25 v 0.922 c 0.332,-0.168 0.656,-0.297 0.968,-0.391 0.321,-0.086 0.645,-0.125 0.969,-0.125 0.414,0 0.738,0.071 0.969,0.219 0.226,0.145 0.344,0.348 0.344,0.609 0,0.25 -0.086,0.438 -0.25,0.563 -0.157,0.133 -0.516,0.258 -1.079,0.375 l -0.312,0.078 c -0.555,0.113 -0.953,0.289 -1.203,0.531 -0.25,0.25 -0.375,0.582 -0.375,1 0,0.52 0.18,0.914 0.547,1.188 0.363,0.281 0.883,0.422 1.562,0.422 0.321,0 0.629,-0.028 0.922,-0.078 0.301,-0.043 0.57,-0.11 0.813,-0.204 z" /><path
         id="path196"
         style="fill:#000000;fill-opacity:1;fill-rule:nonzero;stroke:none"
         d="m 411.137,57.08 v -1.547 h 1.859 V 54.83 h -1.859 v -2.969 c 0,-0.438 0.062,-0.727 0.187,-0.86 0.125,-0.125 0.375,-0.187 0.75,-0.187 h 0.922 v -0.75 h -0.922 c -0.699,0 -1.183,0.129 -1.453,0.391 -0.262,0.257 -0.391,0.726 -0.391,1.406 v 2.969 h -0.656 v 0.703 h 0.656 v 1.547 z" /><path
         id="path198"
         style="fill:#000000;fill-opacity:1;fill-rule:nonzero;stroke:none"
         d="M 418.859,53.017 V 52.58 h -4.14 c 0.039,-0.618 0.226,-1.086 0.562,-1.407 0.332,-0.324 0.797,-0.484 1.391,-0.484 0.344,0 0.676,0.039 1,0.125 0.332,0.082 0.656,0.207 0.969,0.375 v -0.844 c -0.325,-0.137 -0.657,-0.242 -1,-0.312 -0.336,-0.071 -0.672,-0.11 -1.016,-0.11 -0.875,0 -1.57,0.25 -2.078,0.75 -0.512,0.508 -0.766,1.203 -0.766,2.078 0,0.895 0.239,1.602 0.719,2.125 0.488,0.52 1.145,0.782 1.969,0.782 0.738,0 1.32,-0.235 1.75,-0.703 0.426,-0.469 0.64,-1.118 0.64,-1.938 z m -0.906,0.266 c 0,0.488 -0.137,0.879 -0.406,1.172 -0.274,0.3 -0.625,0.453 -1.063,0.453 -0.511,0 -0.918,-0.149 -1.218,-0.438 -0.293,-0.281 -0.465,-0.68 -0.516,-1.187 z" /><path
         id="path200"
         style="fill:#000000;fill-opacity:1;fill-rule:nonzero;stroke:none"
         d="m 423.496,54.689 c -0.105,0.062 -0.215,0.101 -0.328,0.125 -0.117,0.031 -0.246,0.047 -0.391,0.047 -0.511,0 -0.902,-0.168 -1.172,-0.5 -0.273,-0.324 -0.406,-0.797 -0.406,-1.422 v -2.875 h -0.906 v 5.469 h 0.906 v -0.844 c 0.188,0.332 0.43,0.578 0.735,0.734 0.3,0.157 0.671,0.235 1.109,0.235 0.062,0 0.129,-0.008 0.203,-0.016 0.07,0 0.156,-0.012 0.25,-0.031 z" /><path
         id="path202"
         style="fill:#000000;fill-opacity:1;fill-rule:nonzero;stroke:none"
         d="m 424.445,55.533 h 0.907 v -5.469 h -0.907 z m 0,2.125 h 0.907 v -1.141 h -0.907 z" /><path
         id="path204"
         style="fill:#000000;fill-opacity:1;fill-rule:nonzero;stroke:none"
         d="m 429.344,54.908 c -0.481,0 -0.86,-0.188 -1.141,-0.563 -0.281,-0.375 -0.422,-0.89 -0.422,-1.547 0,-0.656 0.133,-1.172 0.407,-1.547 0.281,-0.375 0.664,-0.562 1.156,-0.562 0.476,0 0.859,0.187 1.14,0.562 0.282,0.375 0.422,0.891 0.422,1.547 0,0.645 -0.14,1.157 -0.422,1.532 -0.281,0.382 -0.664,0.578 -1.14,0.578 z m 0,0.75 c 0.781,0 1.394,-0.258 1.844,-0.766 0.445,-0.5 0.671,-1.199 0.671,-2.094 0,-0.898 -0.226,-1.601 -0.671,-2.109 -0.45,-0.512 -1.063,-0.766 -1.844,-0.766 -0.782,0 -1.399,0.254 -1.844,0.766 -0.449,0.508 -0.672,1.211 -0.672,2.109 0,0.895 0.223,1.594 0.672,2.094 0.445,0.508 1.062,0.766 1.844,0.766 z" /><path
         id="path206"
         style="fill:#000000;fill-opacity:1;fill-rule:nonzero;stroke:none"
         d="m 436.504,54.689 c -0.106,0.062 -0.215,0.101 -0.328,0.125 -0.117,0.031 -0.246,0.047 -0.391,0.047 -0.512,0 -0.902,-0.168 -1.172,-0.5 -0.273,-0.324 -0.406,-0.797 -0.406,-1.422 v -2.875 h -0.906 v 5.469 h 0.906 v -0.844 c 0.188,0.332 0.43,0.578 0.734,0.734 0.301,0.157 0.672,0.235 1.11,0.235 0.062,0 0.129,-0.008 0.203,-0.016 0.07,0 0.156,-0.012 0.25,-0.031 z" /><path
         id="path208"
         style="fill:#000000;fill-opacity:1;fill-rule:nonzero;stroke:none"
         d="m 171.664,182.861 h 1.469 l 1.859,-4.969 1.875,4.969 h 1.469 v -7.297 h -0.969 v 6.406 l -1.875,-5 h -1 l -1.875,5 v -6.406 h -0.953 z" /><path
         id="path210"
         style="fill:#000000;fill-opacity:1;fill-rule:nonzero;stroke:none"
         d="m 182.734,178.314 c -0.718,0 -1.218,-0.086 -1.5,-0.25 -0.281,-0.168 -0.422,-0.449 -0.422,-0.844 0,-0.324 0.102,-0.578 0.313,-0.765 0.207,-0.188 0.492,-0.282 0.859,-0.282 0.5,0 0.899,0.176 1.204,0.532 0.3,0.351 0.453,0.82 0.453,1.406 v 0.203 z m 1.797,0.375 v -3.125 h -0.89 v 0.828 c -0.211,-0.336 -0.469,-0.578 -0.782,-0.734 -0.304,-0.157 -0.671,-0.235 -1.109,-0.235 -0.562,0 -1.012,0.157 -1.344,0.469 -0.336,0.313 -0.5,0.734 -0.5,1.266 0,0.613 0.207,1.078 0.625,1.39 0.414,0.313 1.031,0.469 1.844,0.469 h 1.266 v 0.094 c 0,0.406 -0.141,0.722 -0.422,0.953 -0.274,0.226 -0.653,0.344 -1.141,0.344 -0.312,0 -0.621,-0.043 -0.922,-0.125 -0.293,-0.075 -0.574,-0.184 -0.844,-0.328 v 0.828 c 0.333,0.125 0.649,0.218 0.954,0.281 0.312,0.062 0.613,0.094 0.906,0.094 0.789,0 1.379,-0.203 1.766,-0.61 0.394,-0.406 0.593,-1.027 0.593,-1.859 z" /><path
         id="path212"
         style="fill:#000000;fill-opacity:1;fill-rule:nonzero;stroke:none"
         d="m 190.93,181.033 -1.969,-2.657 2.078,-2.812 h -1.062 l -1.594,2.156 -1.594,-2.156 h -1.062 l 2.125,2.859 -1.938,2.61 h 1.063 l 1.453,-1.953 1.437,1.953 z" /><path
         id="path214"
         style="fill:#000000;fill-opacity:1;fill-rule:nonzero;stroke:none"
         d="m 192.301,181.033 h 0.906 v -5.469 h -0.906 z m 0,2.125 h 0.906 v -1.141 h -0.906 z" /><path
         id="path216"
         style="fill:#000000;fill-opacity:1;fill-rule:nonzero;stroke:none"
         d="m 199.34,179.986 c 0.219,0.406 0.484,0.703 0.797,0.89 0.312,0.188 0.679,0.282 1.109,0.282 0.57,0 1.008,-0.2 1.313,-0.594 0.312,-0.399 0.468,-0.965 0.468,-1.703 v -3.297 h -0.906 v 3.266 c 0,0.531 -0.094,0.921 -0.281,1.171 -0.18,0.25 -0.461,0.375 -0.844,0.375 -0.469,0 -0.84,-0.156 -1.109,-0.468 -0.262,-0.305 -0.391,-0.719 -0.391,-1.25 v -3.094 h -0.906 v 3.266 c 0,0.531 -0.094,0.921 -0.281,1.171 -0.188,0.25 -0.477,0.375 -0.86,0.375 -0.461,0 -0.824,-0.156 -1.094,-0.468 -0.273,-0.305 -0.406,-0.719 -0.406,-1.25 v -3.094 h -0.906 v 5.469 h 0.906 v -0.844 c 0.207,0.332 0.453,0.578 0.735,0.734 0.289,0.157 0.628,0.235 1.015,0.235 0.406,0 0.742,-0.102 1.016,-0.297 0.281,-0.199 0.488,-0.492 0.625,-0.875 z" /><path
         id="path218"
         style="fill:#000000;fill-opacity:1;fill-rule:nonzero;stroke:none"
         d="m 204.727,177.72 v 3.313 h 0.906 v -3.282 c 0,-0.511 0.097,-0.898 0.297,-1.156 0.207,-0.262 0.508,-0.39 0.906,-0.39 0.488,0 0.875,0.148 1.156,0.453 0.281,0.312 0.422,0.738 0.422,1.281 v 3.094 h 0.906 v -5.469 h -0.906 v 0.844 c -0.219,-0.336 -0.476,-0.586 -0.766,-0.75 -0.281,-0.157 -0.617,-0.235 -1,-0.235 -0.625,0 -1.105,0.192 -1.437,0.578 -0.324,0.395 -0.484,0.969 -0.484,1.719 z m 2.265,3.438 z" /><path
         id="path220"
         style="fill:#000000;fill-opacity:1;fill-rule:nonzero;stroke:none"
         d="m 215.434,179.986 c 0.218,0.406 0.484,0.703 0.796,0.89 0.313,0.188 0.68,0.282 1.11,0.282 0.57,0 1.008,-0.2 1.312,-0.594 0.313,-0.399 0.469,-0.965 0.469,-1.703 v -3.297 h -0.906 v 3.266 c 0,0.531 -0.094,0.921 -0.281,1.171 -0.18,0.25 -0.461,0.375 -0.844,0.375 -0.469,0 -0.84,-0.156 -1.11,-0.468 -0.261,-0.305 -0.39,-0.719 -0.39,-1.25 v -3.094 h -0.906 v 3.266 c 0,0.531 -0.094,0.921 -0.282,1.171 -0.187,0.25 -0.476,0.375 -0.859,0.375 -0.461,0 -0.824,-0.156 -1.094,-0.468 -0.273,-0.305 -0.406,-0.719 -0.406,-1.25 v -3.094 h -0.906 v 5.469 h 0.906 v -0.844 c 0.207,0.332 0.453,0.578 0.734,0.734 0.289,0.157 0.629,0.235 1.016,0.235 0.406,0 0.742,-0.102 1.016,-0.297 0.281,-0.199 0.488,-0.492 0.625,-0.875 z" /><path
         id="path222"
         style="fill:#000000;fill-opacity:1;fill-rule:nonzero;stroke:none"
         d="m 229.598,182.298 v -1.047 c -0.336,0.313 -0.688,0.539 -1.063,0.688 -0.375,0.156 -0.773,0.234 -1.187,0.234 -0.836,0 -1.477,-0.258 -1.922,-0.765 -0.438,-0.512 -0.656,-1.246 -0.656,-2.203 0,-0.961 0.218,-1.696 0.656,-2.204 0.445,-0.511 1.086,-0.765 1.922,-0.765 0.414,0 0.812,0.07 1.187,0.219 0.375,0.156 0.727,0.39 1.063,0.703 v -1.032 c -0.344,-0.242 -0.711,-0.418 -1.094,-0.531 -0.387,-0.113 -0.793,-0.172 -1.219,-0.172 -1.105,0 -1.976,0.336 -2.609,1.016 -0.637,0.676 -0.953,1.598 -0.953,2.766 0,1.164 0.316,2.085 0.953,2.765 0.633,0.676 1.504,1.016 2.609,1.016 0.438,0 0.848,-0.059 1.235,-0.172 0.382,-0.117 0.742,-0.289 1.078,-0.516 z" /><path
         id="path224"
         style="fill:#000000;fill-opacity:1;fill-rule:nonzero;stroke:none"
         d="m 231.09,183.158 h 0.906 v -7.594 h -0.906 z" /><path
         id="path226"
         style="fill:#000000;fill-opacity:1;fill-rule:nonzero;stroke:none"
         d="m 236.348,178.314 c -0.719,0 -1.219,-0.086 -1.5,-0.25 -0.282,-0.168 -0.422,-0.449 -0.422,-0.844 0,-0.324 0.101,-0.578 0.312,-0.765 0.207,-0.188 0.492,-0.282 0.86,-0.282 0.5,0 0.898,0.176 1.203,0.532 0.301,0.351 0.453,0.82 0.453,1.406 v 0.203 z m 1.797,0.375 v -3.125 h -0.891 v 0.828 c -0.211,-0.336 -0.469,-0.578 -0.781,-0.734 -0.305,-0.157 -0.672,-0.235 -1.11,-0.235 -0.562,0 -1.011,0.157 -1.343,0.469 -0.336,0.313 -0.5,0.734 -0.5,1.266 0,0.613 0.207,1.078 0.625,1.39 0.414,0.313 1.031,0.469 1.843,0.469 h 1.266 v 0.094 c 0,0.406 -0.141,0.722 -0.422,0.953 -0.273,0.226 -0.652,0.344 -1.141,0.344 -0.312,0 -0.621,-0.043 -0.921,-0.125 -0.293,-0.075 -0.575,-0.184 -0.844,-0.328 v 0.828 c 0.332,0.125 0.648,0.218 0.953,0.281 0.312,0.062 0.613,0.094 0.906,0.094 0.789,0 1.379,-0.203 1.766,-0.61 0.394,-0.406 0.594,-1.027 0.594,-1.859 z" /><path
         id="path228"
         style="fill:#000000;fill-opacity:1;fill-rule:nonzero;stroke:none"
         d="m 243.605,180.205 v 2.953 h 0.891 v -7.594 h -0.891 v 0.828 c -0.187,-0.336 -0.429,-0.578 -0.718,-0.734 -0.293,-0.157 -0.641,-0.235 -1.047,-0.235 -0.656,0 -1.195,0.258 -1.61,0.782 -0.418,0.531 -0.625,1.226 -0.625,2.093 0,0.852 0.207,1.539 0.625,2.063 0.415,0.531 0.954,0.797 1.61,0.797 0.406,0 0.754,-0.078 1.047,-0.235 0.289,-0.156 0.531,-0.398 0.718,-0.718 z m -3.062,-1.907 c 0,-0.668 0.133,-1.187 0.406,-1.562 0.27,-0.375 0.645,-0.563 1.125,-0.563 0.469,0 0.836,0.188 1.11,0.563 0.281,0.375 0.421,0.894 0.421,1.562 0,0.657 -0.14,1.172 -0.421,1.547 -0.274,0.375 -0.641,0.563 -1.11,0.563 -0.48,0 -0.855,-0.188 -1.125,-0.563 -0.273,-0.375 -0.406,-0.89 -0.406,-1.547 z" /><path
         id="path230"
         style="fill:#000000;fill-opacity:1;fill-rule:nonzero;stroke:none"
         d="m 251.031,178.517 v -0.437 h -4.14 c 0.039,-0.618 0.226,-1.086 0.562,-1.407 0.332,-0.324 0.797,-0.484 1.391,-0.484 0.344,0 0.676,0.039 1,0.125 0.332,0.082 0.656,0.207 0.968,0.375 v -0.844 c -0.324,-0.137 -0.656,-0.242 -1,-0.312 -0.335,-0.071 -0.671,-0.11 -1.015,-0.11 -0.875,0 -1.57,0.25 -2.078,0.75 -0.512,0.508 -0.766,1.203 -0.766,2.078 0,0.895 0.238,1.602 0.719,2.125 0.488,0.52 1.144,0.782 1.969,0.782 0.738,0 1.32,-0.235 1.75,-0.703 0.425,-0.469 0.64,-1.118 0.64,-1.938 z m -0.906,0.266 c 0,0.488 -0.137,0.879 -0.406,1.172 -0.274,0.3 -0.625,0.453 -1.063,0.453 -0.511,0 -0.918,-0.149 -1.218,-0.438 -0.293,-0.281 -0.465,-0.68 -0.516,-1.187 z" /><path
         id="path232"
         style="fill:#000000;fill-opacity:1;fill-rule:nonzero;stroke:none"
         d="m 177.117,169.798 v -1.047 c -0.336,0.313 -0.687,0.539 -1.062,0.688 -0.375,0.156 -0.774,0.234 -1.188,0.234 -0.836,0 -1.476,-0.258 -1.922,-0.765 -0.437,-0.512 -0.656,-1.246 -0.656,-2.203 0,-0.961 0.219,-1.696 0.656,-2.204 0.446,-0.511 1.086,-0.765 1.922,-0.765 0.414,0 0.813,0.07 1.188,0.219 0.375,0.156 0.726,0.39 1.062,0.703 v -1.032 c -0.344,-0.242 -0.711,-0.418 -1.094,-0.531 -0.386,-0.113 -0.793,-0.172 -1.218,-0.172 -1.106,0 -1.977,0.336 -2.61,1.016 -0.636,0.676 -0.953,1.598 -0.953,2.766 0,1.164 0.317,2.085 0.953,2.765 0.633,0.676 1.504,1.016 2.61,1.016 0.437,0 0.847,-0.059 1.234,-0.172 0.383,-0.117 0.742,-0.289 1.078,-0.516 z" /><path
         id="path234"
         style="fill:#000000;fill-opacity:1;fill-rule:nonzero;stroke:none"
         d="m 181.781,167.689 c -0.105,0.062 -0.215,0.101 -0.328,0.125 -0.117,0.031 -0.246,0.047 -0.391,0.047 -0.511,0 -0.902,-0.168 -1.171,-0.5 -0.274,-0.324 -0.407,-0.797 -0.407,-1.422 v -2.875 h -0.906 v 5.469 h 0.906 v -0.844 c 0.188,0.332 0.43,0.578 0.735,0.734 0.301,0.157 0.672,0.235 1.109,0.235 0.063,0 0.129,-0.008 0.203,-0.016 0.071,0 0.157,-0.012 0.25,-0.031 z" /><path
         id="path236"
         style="fill:#000000;fill-opacity:1;fill-rule:nonzero;stroke:none"
         d="m 187.203,166.017 v -0.437 h -4.141 c 0.04,-0.618 0.227,-1.086 0.563,-1.407 0.332,-0.324 0.797,-0.484 1.391,-0.484 0.343,0 0.675,0.039 1,0.125 0.332,0.082 0.656,0.207 0.968,0.375 v -0.844 c -0.324,-0.137 -0.656,-0.242 -1,-0.312 -0.336,-0.071 -0.672,-0.11 -1.015,-0.11 -0.875,0 -1.571,0.25 -2.078,0.75 -0.512,0.508 -0.766,1.203 -0.766,2.078 0,0.895 0.238,1.602 0.719,2.125 0.488,0.52 1.144,0.782 1.968,0.782 0.739,0 1.321,-0.235 1.75,-0.703 0.426,-0.469 0.641,-1.118 0.641,-1.938 z m -0.906,0.266 c 0,0.488 -0.137,0.879 -0.406,1.172 -0.274,0.3 -0.625,0.453 -1.063,0.453 -0.512,0 -0.918,-0.149 -1.219,-0.438 -0.293,-0.281 -0.464,-0.68 -0.515,-1.187 z" /><path
         id="path238"
         style="fill:#000000;fill-opacity:1;fill-rule:nonzero;stroke:none"
         d="m 192.277,167.705 v 2.953 h 0.891 v -7.594 h -0.891 v 0.828 c -0.187,-0.336 -0.429,-0.578 -0.718,-0.734 -0.293,-0.157 -0.641,-0.235 -1.047,-0.235 -0.657,0 -1.196,0.258 -1.61,0.782 -0.418,0.531 -0.625,1.226 -0.625,2.093 0,0.852 0.207,1.539 0.625,2.063 0.414,0.531 0.953,0.797 1.61,0.797 0.406,0 0.754,-0.078 1.047,-0.235 0.289,-0.156 0.531,-0.398 0.718,-0.718 z m -3.062,-1.907 c 0,-0.668 0.133,-1.187 0.406,-1.562 0.27,-0.375 0.645,-0.563 1.125,-0.563 0.469,0 0.836,0.188 1.109,0.563 0.282,0.375 0.422,0.894 0.422,1.562 0,0.657 -0.14,1.172 -0.422,1.547 -0.273,0.375 -0.64,0.563 -1.109,0.563 -0.48,0 -0.855,-0.188 -1.125,-0.563 -0.273,-0.375 -0.406,-0.89 -0.406,-1.547 z" /><path
         id="path240"
         style="fill:#000000;fill-opacity:1;fill-rule:nonzero;stroke:none"
         d="m 195.016,168.533 h 0.906 v -5.469 h -0.906 z m 0,2.125 h 0.906 v -1.141 h -0.906 z" /><path
         id="path242"
         style="fill:#000000;fill-opacity:1;fill-rule:nonzero;stroke:none"
         d="m 201.727,165.798 c 0,0.657 -0.141,1.172 -0.422,1.547 -0.274,0.375 -0.641,0.563 -1.11,0.563 -0.48,0 -0.855,-0.188 -1.125,-0.563 -0.273,-0.375 -0.406,-0.89 -0.406,-1.547 0,-0.668 0.133,-1.187 0.406,-1.562 0.27,-0.375 0.645,-0.563 1.125,-0.563 0.469,0 0.836,0.188 1.11,0.563 0.281,0.375 0.422,0.894 0.422,1.562 z m -3.063,1.907 c 0.188,0.32 0.422,0.562 0.703,0.718 0.289,0.157 0.641,0.235 1.047,0.235 0.664,0 1.203,-0.266 1.609,-0.797 0.415,-0.524 0.625,-1.211 0.625,-2.063 0,-0.867 -0.21,-1.562 -0.625,-2.093 -0.406,-0.524 -0.945,-0.782 -1.609,-0.782 -0.406,0 -0.758,0.078 -1.047,0.235 -0.281,0.156 -0.515,0.398 -0.703,0.734 v -0.828 h -0.906 v 7.594 h 0.906 z" /><path
         id="path244"
         style="fill:#000000;fill-opacity:1;fill-rule:nonzero;stroke:none"
         d="m 204.137,168.533 h 0.906 v -5.469 h -0.906 z m 0,2.125 h 0.906 v -1.141 h -0.906 z" /><path
         id="path246"
         style="fill:#000000;fill-opacity:1;fill-rule:nonzero;stroke:none"
         d="m 206.91,170.658 h 0.906 v -7.594 h -0.906 z" /><path
         id="path248"
         style="fill:#000000;fill-opacity:1;fill-rule:nonzero;stroke:none"
         d="m 209.684,168.533 h 0.906 v -5.469 h -0.906 z m 0,2.125 h 0.906 v -1.141 h -0.906 z" /><path
         id="path250"
         style="fill:#000000;fill-opacity:1;fill-rule:nonzero;stroke:none"
         d="m 213.348,170.08 v -1.547 h 1.859 v -0.703 h -1.859 v -2.969 c 0,-0.438 0.062,-0.727 0.187,-0.86 0.125,-0.125 0.375,-0.187 0.75,-0.187 h 0.922 v -0.75 h -0.922 c -0.699,0 -1.183,0.129 -1.453,0.391 -0.262,0.257 -0.391,0.726 -0.391,1.406 v 2.969 h -0.656 v 0.703 h 0.656 v 1.547 z" /><path
         id="path252"
         style="fill:#000000;fill-opacity:1;fill-rule:nonzero;stroke:none"
         d="m 218.664,162.548 c -0.25,-0.644 -0.5,-1.066 -0.75,-1.265 -0.242,-0.196 -0.559,-0.297 -0.953,-0.297 h -0.719 v 0.75 h 0.516 c 0.25,0 0.441,0.058 0.578,0.172 0.133,0.117 0.285,0.39 0.453,0.828 l 0.172,0.422 -2.219,5.375 h 0.953 l 1.703,-4.282 1.719,4.282 h 0.953 z" /><path
         id="path254"
         style="fill:#000000;fill-opacity:1;fill-rule:nonzero;stroke:none"
         d="m 224.516,170.361 h 6.172 v -0.844 h -2.594 v -6.453 h -0.985 v 6.453 h -2.593 z" /><path
         id="path256"
         style="fill:#000000;fill-opacity:1;fill-rule:nonzero;stroke:none"
         d="m 233.305,167.689 c -0.106,0.062 -0.215,0.101 -0.328,0.125 -0.118,0.031 -0.247,0.047 -0.391,0.047 -0.512,0 -0.902,-0.168 -1.172,-0.5 -0.273,-0.324 -0.406,-0.797 -0.406,-1.422 v -2.875 h -0.906 v 5.469 h 0.906 v -0.844 c 0.187,0.332 0.43,0.578 0.734,0.734 0.301,0.157 0.672,0.235 1.11,0.235 0.062,0 0.128,-0.008 0.203,-0.016 0.07,0 0.156,-0.012 0.25,-0.031 z" /><path
         id="path258"
         style="fill:#000000;fill-opacity:1;fill-rule:nonzero;stroke:none"
         d="m 238.727,166.017 v -0.437 h -4.141 c 0.039,-0.618 0.226,-1.086 0.562,-1.407 0.332,-0.324 0.797,-0.484 1.391,-0.484 0.344,0 0.676,0.039 1,0.125 0.332,0.082 0.656,0.207 0.969,0.375 v -0.844 c -0.324,-0.137 -0.656,-0.242 -1,-0.312 -0.336,-0.071 -0.672,-0.11 -1.016,-0.11 -0.875,0 -1.57,0.25 -2.078,0.75 -0.512,0.508 -0.766,1.203 -0.766,2.078 0,0.895 0.239,1.602 0.719,2.125 0.488,0.52 1.145,0.782 1.969,0.782 0.738,0 1.32,-0.235 1.75,-0.703 0.426,-0.469 0.641,-1.118 0.641,-1.938 z m -0.907,0.266 c 0,0.488 -0.136,0.879 -0.406,1.172 -0.273,0.3 -0.625,0.453 -1.062,0.453 -0.512,0 -0.918,-0.149 -1.219,-0.438 -0.293,-0.281 -0.465,-0.68 -0.516,-1.187 z" /><path
         id="path260"
         style="fill:#000000;fill-opacity:1;fill-rule:nonzero;stroke:none"
         d="m 244.879,166.017 v -0.437 h -4.141 c 0.039,-0.618 0.227,-1.086 0.563,-1.407 0.332,-0.324 0.797,-0.484 1.39,-0.484 0.344,0 0.676,0.039 1,0.125 0.332,0.082 0.657,0.207 0.969,0.375 v -0.844 c -0.324,-0.137 -0.656,-0.242 -1,-0.312 -0.336,-0.071 -0.672,-0.11 -1.015,-0.11 -0.875,0 -1.571,0.25 -2.079,0.75 -0.511,0.508 -0.765,1.203 -0.765,2.078 0,0.895 0.238,1.602 0.719,2.125 0.488,0.52 1.144,0.782 1.968,0.782 0.739,0 1.321,-0.235 1.75,-0.703 0.426,-0.469 0.641,-1.118 0.641,-1.938 z m -0.906,0.266 c 0,0.488 -0.137,0.879 -0.407,1.172 -0.273,0.3 -0.625,0.453 -1.062,0.453 -0.512,0 -0.918,-0.149 -1.219,-0.438 -0.293,-0.281 -0.465,-0.68 -0.515,-1.187 z" /></g></g></svg>