<?xml version="1.0" encoding="UTF-8" standalone="no"?>
<svg
   xmlns:dc="http://purl.org/dc/elements/1.1/"
   xmlns:cc="http://creativecommons.org/ns#"
   xmlns:rdf="http://www.w3.org/1999/02/22-rdf-syntax-ns#"
   xmlns:svg="http://www.w3.org/2000/svg"
   xmlns="http://www.w3.org/2000/svg"
   viewBox="0 0 236.17155 162.15758"
   height="162.15758"
   width="236.17155"
   xml:space="preserve"
   id="svg2"
   version="1.1"><metadata
     id="metadata8"><rdf:RDF><cc:Work
         rdf:about=""><dc:format>image/svg+xml</dc:format><dc:type
           rdf:resource="http://purl.org/dc/dcmitype/StillImage" /></cc:Work></rdf:RDF></metadata><defs
     id="defs6" /><g
     transform="matrix(1.3333333,0,0,-1.3333333,0,162.15757)"
     id="g10"><g
       id="g12"><g
         transform="matrix(1,0,0,-1,0,121.61818)"
         id="g14"><path
           id="path16"
           style="fill:none;stroke:#ff0000;stroke-width:0.80000001;stroke-linecap:butt;stroke-linejoin:miter;stroke-miterlimit:4;stroke-dasharray:2.4, 0.8;stroke-dashoffset:0;stroke-opacity:1"
           d="m 84.793,36.809 16,16 v 32" /></g><path
         id="path18"
         style="fill:#000000;fill-opacity:1;fill-rule:nonzero;stroke:none"
         d="m 56.195,79.216 v -0.422 c -0.125,0.07 -0.257,0.125 -0.39,0.156 -0.125,0.039 -0.25,0.063 -0.375,0.063 -0.293,0 -0.524,-0.094 -0.688,-0.282 -0.156,-0.187 -0.234,-0.449 -0.234,-0.781 0,-0.336 0.078,-0.594 0.234,-0.781 0.164,-0.18 0.395,-0.266 0.688,-0.266 0.125,0 0.25,0.016 0.375,0.047 0.133,0.039 0.265,0.094 0.39,0.156 V 76.7 c -0.125,-0.062 -0.257,-0.109 -0.39,-0.14 -0.137,-0.032 -0.278,-0.047 -0.422,-0.047 -0.418,0 -0.746,0.129 -0.985,0.39 -0.242,0.258 -0.359,0.61 -0.359,1.047 0,0.446 0.117,0.797 0.359,1.047 0.25,0.258 0.586,0.391 1.016,0.391 0.133,0 0.266,-0.016 0.391,-0.047 0.133,-0.024 0.265,-0.063 0.39,-0.125 z" /><path
         id="path20"
         style="fill:#000000;fill-opacity:1;fill-rule:nonzero;stroke:none"
         d="M 56.867,80.388 H 57.32 V 76.591 H 56.867 Z" /><path
         id="path22"
         style="fill:#000000;fill-opacity:1;fill-rule:nonzero;stroke:none"
         d="m 59.262,79.013 c -0.242,0 -0.434,-0.094 -0.578,-0.282 -0.137,-0.187 -0.204,-0.449 -0.204,-0.781 0,-0.324 0.067,-0.578 0.204,-0.765 0.144,-0.188 0.336,-0.282 0.578,-0.282 0.238,0 0.426,0.094 0.562,0.282 0.145,0.187 0.219,0.441 0.219,0.765 0,0.321 -0.074,0.578 -0.219,0.766 -0.136,0.195 -0.324,0.297 -0.562,0.297 z m 0,0.375 c 0.383,0 0.687,-0.133 0.906,-0.391 0.227,-0.25 0.344,-0.601 0.344,-1.047 0,-0.449 -0.117,-0.804 -0.344,-1.062 -0.219,-0.25 -0.523,-0.375 -0.906,-0.375 -0.399,0 -0.703,0.125 -0.922,0.375 -0.219,0.258 -0.328,0.613 -0.328,1.062 0,0.446 0.109,0.797 0.328,1.047 0.219,0.258 0.523,0.391 0.922,0.391 z" /><path
         id="path24"
         style="fill:#000000;fill-opacity:1;fill-rule:nonzero;stroke:none"
         d="m 63.414,78.247 v -1.656 h -0.453 v 1.64 c 0,0.258 -0.055,0.454 -0.156,0.579 -0.094,0.125 -0.246,0.187 -0.453,0.187 -0.243,0 -0.434,-0.078 -0.579,-0.234 -0.136,-0.149 -0.203,-0.356 -0.203,-0.625 v -1.547 h -0.453 v 2.734 h 0.453 v -0.422 c 0.102,0.164 0.227,0.285 0.375,0.36 0.145,0.082 0.317,0.125 0.516,0.125 0.312,0 0.547,-0.102 0.703,-0.297 0.164,-0.188 0.25,-0.469 0.25,-0.844 z" /><path
         id="path26"
         style="fill:#000000;fill-opacity:1;fill-rule:nonzero;stroke:none"
         d="m 65.43,77.966 c -0.368,0 -0.621,-0.043 -0.766,-0.125 -0.137,-0.086 -0.203,-0.227 -0.203,-0.422 0,-0.156 0.051,-0.281 0.156,-0.375 0.102,-0.094 0.242,-0.141 0.422,-0.141 0.25,0 0.445,0.082 0.594,0.25 0.156,0.176 0.234,0.414 0.234,0.719 v 0.094 z m 0.89,0.187 v -1.562 h -0.453 v 0.422 c -0.105,-0.168 -0.234,-0.293 -0.39,-0.375 -0.149,-0.082 -0.329,-0.125 -0.547,-0.125 -0.282,0 -0.508,0.078 -0.672,0.234 -0.168,0.164 -0.25,0.379 -0.25,0.641 0,0.3 0.101,0.531 0.312,0.687 0.207,0.156 0.516,0.235 0.922,0.235 h 0.625 v 0.046 c 0,0.207 -0.07,0.368 -0.203,0.485 -0.137,0.113 -0.324,0.172 -0.562,0.172 -0.157,0 -0.313,-0.024 -0.469,-0.063 -0.149,-0.031 -0.289,-0.09 -0.422,-0.172 V 79.2 c 0.164,0.063 0.328,0.11 0.484,0.141 0.157,0.031 0.305,0.047 0.453,0.047 0.395,0 0.688,-0.106 0.875,-0.313 0.196,-0.199 0.297,-0.508 0.297,-0.922 z" /><path
         id="path28"
         style="fill:#000000;fill-opacity:1;fill-rule:nonzero;stroke:none"
         d="m 67.125,80.388 h 0.453 v -3.797 h -0.453 z" /><path
         id="path30"
         style="fill:#000000;fill-opacity:1;fill-rule:nonzero;stroke:none"
         d="m 55.605,74.388 v -0.375 h -0.437 c -0.156,0 -0.266,-0.032 -0.328,-0.094 -0.063,-0.063 -0.094,-0.184 -0.094,-0.359 v -0.235 h 0.734 v -0.344 h -0.734 v -2.39 h -0.453 v 2.39 h -0.438 v 0.344 h 0.438 v 0.188 c 0,0.3 0.066,0.519 0.203,0.656 0.145,0.144 0.375,0.219 0.688,0.219 z" /><path
         id="path32"
         style="fill:#000000;fill-opacity:1;fill-rule:nonzero;stroke:none"
         d="m 57.496,72.903 c -0.055,0.032 -0.109,0.051 -0.172,0.063 -0.062,0.019 -0.133,0.031 -0.203,0.031 -0.25,0 -0.445,-0.086 -0.578,-0.25 -0.137,-0.168 -0.203,-0.406 -0.203,-0.719 v -1.437 h -0.453 v 2.734 h 0.453 v -0.422 c 0.094,0.164 0.211,0.285 0.359,0.36 0.156,0.082 0.344,0.125 0.563,0.125 0.031,0 0.062,-0.008 0.093,-0.016 0.04,0 0.083,0 0.125,0 z" /><path
         id="path34"
         style="fill:#000000;fill-opacity:1;fill-rule:nonzero;stroke:none"
         d="m 59.133,71.966 c -0.367,0 -0.621,-0.043 -0.766,-0.125 -0.137,-0.086 -0.203,-0.227 -0.203,-0.422 0,-0.156 0.051,-0.281 0.156,-0.375 0.102,-0.094 0.242,-0.141 0.422,-0.141 0.25,0 0.446,0.082 0.594,0.25 0.156,0.176 0.234,0.414 0.234,0.719 v 0.094 z m 0.89,0.187 V 70.591 H 59.57 v 0.422 c -0.105,-0.168 -0.234,-0.293 -0.39,-0.375 -0.149,-0.082 -0.328,-0.125 -0.547,-0.125 -0.281,0 -0.508,0.078 -0.672,0.234 -0.168,0.164 -0.25,0.379 -0.25,0.641 0,0.3 0.101,0.531 0.312,0.687 0.207,0.156 0.516,0.235 0.922,0.235 h 0.625 v 0.046 c 0,0.207 -0.07,0.368 -0.203,0.485 -0.137,0.113 -0.324,0.172 -0.562,0.172 -0.157,0 -0.313,-0.024 -0.469,-0.063 -0.148,-0.031 -0.289,-0.09 -0.422,-0.172 V 73.2 c 0.164,0.063 0.328,0.11 0.484,0.141 0.157,0.031 0.305,0.047 0.454,0.047 0.394,0 0.687,-0.106 0.875,-0.313 0.195,-0.199 0.296,-0.508 0.296,-0.922 z" /><path
         id="path36"
         style="fill:#000000;fill-opacity:1;fill-rule:nonzero;stroke:none"
         d="m 62.949,72.794 c 0.113,0.207 0.25,0.359 0.406,0.453 0.157,0.094 0.344,0.141 0.563,0.141 0.281,0 0.5,-0.102 0.656,-0.297 0.156,-0.199 0.235,-0.481 0.235,-0.844 v -1.656 h -0.454 v 1.64 c 0,0.258 -0.046,0.454 -0.14,0.579 -0.094,0.125 -0.235,0.187 -0.422,0.187 -0.242,0 -0.43,-0.078 -0.563,-0.234 -0.136,-0.149 -0.203,-0.356 -0.203,-0.625 v -1.547 h -0.453 v 1.64 c 0,0.258 -0.047,0.454 -0.14,0.579 -0.086,0.125 -0.227,0.187 -0.422,0.187 -0.231,0 -0.414,-0.078 -0.547,-0.234 -0.137,-0.157 -0.203,-0.367 -0.203,-0.625 v -1.547 h -0.453 v 2.734 h 0.453 v -0.422 c 0.101,0.164 0.222,0.285 0.359,0.36 0.145,0.082 0.317,0.125 0.516,0.125 0.195,0 0.363,-0.055 0.5,-0.157 0.144,-0.093 0.25,-0.242 0.312,-0.437 z" /><path
         id="path38"
         style="fill:#000000;fill-opacity:1;fill-rule:nonzero;stroke:none"
         d="m 67.848,72.075 v -0.219 h -2.063 c 0.02,-0.312 0.113,-0.554 0.281,-0.718 0.164,-0.157 0.395,-0.235 0.688,-0.235 0.176,0 0.344,0.02 0.5,0.063 0.164,0.039 0.328,0.101 0.484,0.187 v -0.422 c -0.156,-0.074 -0.324,-0.125 -0.5,-0.156 -0.168,-0.039 -0.34,-0.062 -0.515,-0.062 -0.43,0 -0.774,0.125 -1.032,0.375 -0.25,0.258 -0.375,0.609 -0.375,1.047 0,0.445 0.118,0.8 0.36,1.062 0.238,0.258 0.562,0.391 0.969,0.391 0.375,0 0.664,-0.121 0.875,-0.36 0.218,-0.23 0.328,-0.547 0.328,-0.953 z M 67.395,72.2 c 0,0.25 -0.071,0.446 -0.204,0.594 -0.136,0.144 -0.312,0.219 -0.531,0.219 -0.25,0 -0.453,-0.075 -0.609,-0.219 -0.149,-0.137 -0.231,-0.336 -0.25,-0.594 z" /><path
         id="path40"
         style="fill:#000000;fill-opacity:1;fill-rule:nonzero;stroke:none"
         d="m 87.367,65.704 c -0.055,0.031 -0.109,0.051 -0.172,0.063 -0.062,0.019 -0.133,0.031 -0.203,0.031 -0.25,0 -0.445,-0.086 -0.578,-0.25 -0.137,-0.168 -0.203,-0.406 -0.203,-0.719 v -1.437 h -0.453 v 2.734 h 0.453 v -0.422 c 0.094,0.164 0.211,0.285 0.359,0.359 0.157,0.083 0.344,0.125 0.563,0.125 0.031,0 0.062,-0.007 0.094,-0.015 0.039,0 0.082,0 0.125,0 z" /><path
         id="path42"
         style="fill:#000000;fill-opacity:1;fill-rule:nonzero;stroke:none"
         d="M 89.992,64.876 V 64.657 H 87.93 c 0.019,-0.312 0.113,-0.554 0.281,-0.719 0.164,-0.156 0.394,-0.234 0.687,-0.234 0.176,0 0.344,0.02 0.5,0.063 0.164,0.039 0.329,0.101 0.485,0.187 v -0.422 c -0.156,-0.074 -0.324,-0.125 -0.5,-0.156 -0.168,-0.039 -0.34,-0.063 -0.516,-0.063 -0.429,0 -0.773,0.125 -1.031,0.375 -0.25,0.258 -0.375,0.61 -0.375,1.047 0,0.446 0.117,0.801 0.359,1.063 0.239,0.258 0.563,0.39 0.969,0.39 0.375,0 0.664,-0.121 0.875,-0.359 0.219,-0.23 0.328,-0.547 0.328,-0.953 z m -0.453,0.125 c 0,0.25 -0.07,0.445 -0.203,0.594 -0.137,0.144 -0.313,0.218 -0.531,0.218 -0.25,0 -0.453,-0.074 -0.61,-0.218 -0.148,-0.137 -0.23,-0.336 -0.25,-0.594 z" /><path
         id="path44"
         style="fill:#000000;fill-opacity:1;fill-rule:nonzero;stroke:none"
         d="m 92.57,66.017 v -0.422 c -0.125,0.07 -0.258,0.125 -0.39,0.156 -0.125,0.039 -0.25,0.062 -0.375,0.062 -0.293,0 -0.524,-0.093 -0.688,-0.281 -0.156,-0.187 -0.234,-0.449 -0.234,-0.781 0,-0.336 0.078,-0.594 0.234,-0.781 0.164,-0.18 0.395,-0.266 0.688,-0.266 0.125,0 0.25,0.016 0.375,0.047 0.132,0.039 0.265,0.094 0.39,0.156 v -0.406 c -0.125,-0.063 -0.258,-0.109 -0.39,-0.141 -0.137,-0.031 -0.278,-0.047 -0.422,-0.047 -0.418,0 -0.746,0.129 -0.985,0.391 -0.242,0.258 -0.359,0.609 -0.359,1.047 0,0.445 0.117,0.797 0.359,1.047 0.25,0.258 0.586,0.39 1.016,0.39 0.133,0 0.266,-0.015 0.391,-0.046 0.132,-0.024 0.265,-0.063 0.39,-0.125 z" /><path
         id="path46"
         style="fill:#000000;fill-opacity:1;fill-rule:nonzero;stroke:none"
         d="m 94.309,65.813 c -0.243,0 -0.434,-0.093 -0.579,-0.281 -0.136,-0.187 -0.203,-0.449 -0.203,-0.781 0,-0.324 0.067,-0.578 0.203,-0.766 0.145,-0.187 0.336,-0.281 0.579,-0.281 0.238,0 0.425,0.094 0.562,0.281 0.145,0.188 0.219,0.442 0.219,0.766 0,0.32 -0.074,0.578 -0.219,0.766 -0.137,0.195 -0.324,0.296 -0.562,0.296 z m 0,0.375 c 0.382,0 0.687,-0.132 0.906,-0.39 0.226,-0.25 0.344,-0.602 0.344,-1.047 0,-0.449 -0.118,-0.805 -0.344,-1.063 -0.219,-0.25 -0.524,-0.375 -0.906,-0.375 -0.399,0 -0.704,0.125 -0.922,0.375 -0.219,0.258 -0.328,0.614 -0.328,1.063 0,0.445 0.109,0.797 0.328,1.047 0.218,0.258 0.523,0.39 0.922,0.39 z" /><path
         id="path48"
         style="fill:#000000;fill-opacity:1;fill-rule:nonzero;stroke:none"
         d="m 98.305,65.595 c 0.113,0.207 0.25,0.359 0.406,0.453 0.156,0.094 0.344,0.14 0.562,0.14 0.282,0 0.5,-0.101 0.657,-0.296 0.156,-0.2 0.234,-0.481 0.234,-0.844 v -1.656 h -0.453 v 1.64 c 0,0.258 -0.047,0.453 -0.141,0.578 -0.093,0.125 -0.234,0.188 -0.422,0.188 -0.242,0 -0.429,-0.078 -0.562,-0.235 -0.137,-0.148 -0.203,-0.355 -0.203,-0.625 V 63.392 H 97.93 v 1.64 c 0,0.258 -0.047,0.453 -0.141,0.578 -0.086,0.125 -0.227,0.188 -0.422,0.188 -0.23,0 -0.414,-0.078 -0.547,-0.235 -0.136,-0.156 -0.203,-0.367 -0.203,-0.625 v -1.546 h -0.453 v 2.734 h 0.453 v -0.422 c 0.102,0.164 0.223,0.285 0.36,0.359 0.144,0.083 0.316,0.125 0.515,0.125 0.196,0 0.363,-0.054 0.5,-0.156 0.145,-0.094 0.25,-0.242 0.313,-0.437 z" /><path
         id="path50"
         style="fill:#000000;fill-opacity:1;fill-rule:nonzero;stroke:none"
         d="m 102.828,64.751 c 0,0.332 -0.07,0.594 -0.203,0.781 -0.137,0.188 -0.324,0.281 -0.563,0.281 -0.242,0 -0.429,-0.093 -0.562,-0.281 -0.137,-0.187 -0.203,-0.449 -0.203,-0.781 0,-0.324 0.066,-0.578 0.203,-0.766 0.133,-0.187 0.32,-0.281 0.562,-0.281 0.239,0 0.426,0.094 0.563,0.281 0.133,0.188 0.203,0.442 0.203,0.766 z m -1.531,0.953 c 0.094,0.164 0.211,0.285 0.359,0.359 0.145,0.083 0.317,0.125 0.516,0.125 0.332,0 0.601,-0.132 0.812,-0.39 0.207,-0.262 0.313,-0.61 0.313,-1.047 0,-0.43 -0.106,-0.777 -0.313,-1.047 -0.211,-0.262 -0.48,-0.391 -0.812,-0.391 -0.199,0 -0.371,0.043 -0.516,0.125 -0.148,0.083 -0.265,0.204 -0.359,0.36 v -0.406 h -0.453 v 3.796 h 0.453 z" /><path
         id="path52"
         style="fill:#000000;fill-opacity:1;fill-rule:nonzero;stroke:none"
         d="m 103.906,66.126 h 0.453 v -2.734 h -0.453 z m 0,1.062 h 0.453 v -0.562 h -0.453 z" /><path
         id="path54"
         style="fill:#000000;fill-opacity:1;fill-rule:nonzero;stroke:none"
         d="m 107.52,65.048 v -1.656 h -0.454 v 1.64 c 0,0.258 -0.054,0.453 -0.156,0.578 -0.094,0.125 -0.246,0.188 -0.453,0.188 -0.242,0 -0.434,-0.078 -0.578,-0.235 -0.137,-0.148 -0.203,-0.355 -0.203,-0.625 v -1.546 h -0.453 v 2.734 h 0.453 v -0.422 c 0.101,0.164 0.226,0.285 0.375,0.359 0.144,0.083 0.316,0.125 0.515,0.125 0.313,0 0.547,-0.101 0.704,-0.296 0.164,-0.188 0.25,-0.469 0.25,-0.844 z" /><path
         id="path56"
         style="fill:#000000;fill-opacity:1;fill-rule:nonzero;stroke:none"
         d="m 109.535,64.767 c -0.367,0 -0.621,-0.043 -0.765,-0.125 -0.137,-0.086 -0.204,-0.227 -0.204,-0.422 0,-0.157 0.051,-0.282 0.157,-0.375 0.101,-0.094 0.242,-0.141 0.422,-0.141 0.25,0 0.445,0.082 0.593,0.25 0.157,0.176 0.235,0.414 0.235,0.719 v 0.094 z m 0.891,0.187 v -1.562 h -0.453 v 0.421 c -0.106,-0.167 -0.235,-0.292 -0.391,-0.375 -0.148,-0.082 -0.328,-0.125 -0.547,-0.125 -0.281,0 -0.508,0.079 -0.672,0.235 -0.168,0.164 -0.25,0.379 -0.25,0.64 0,0.301 0.102,0.532 0.313,0.688 0.207,0.156 0.515,0.234 0.922,0.234 h 0.625 v 0.047 c 0,0.207 -0.071,0.367 -0.203,0.485 -0.137,0.113 -0.325,0.171 -0.563,0.171 -0.156,0 -0.312,-0.023 -0.469,-0.062 -0.148,-0.031 -0.289,-0.09 -0.422,-0.172 v 0.422 c 0.164,0.062 0.329,0.109 0.485,0.141 0.156,0.031 0.304,0.046 0.453,0.046 0.394,0 0.687,-0.105 0.875,-0.312 0.195,-0.199 0.297,-0.508 0.297,-0.922 z" /><path
         id="path58"
         style="fill:#000000;fill-opacity:1;fill-rule:nonzero;stroke:none"
         d="m 113.508,65.048 v -1.656 h -0.453 v 1.64 c 0,0.258 -0.055,0.453 -0.157,0.578 -0.093,0.125 -0.246,0.188 -0.453,0.188 -0.242,0 -0.433,-0.078 -0.578,-0.235 -0.137,-0.148 -0.203,-0.355 -0.203,-0.625 v -1.546 h -0.453 v 2.734 h 0.453 v -0.422 c 0.102,0.164 0.227,0.285 0.375,0.359 0.145,0.083 0.316,0.125 0.516,0.125 0.312,0 0.547,-0.101 0.703,-0.296 0.164,-0.188 0.25,-0.469 0.25,-0.844 z" /><path
         id="path60"
         style="fill:#000000;fill-opacity:1;fill-rule:nonzero;stroke:none"
         d="m 114.727,66.907 v -0.781 h 0.921 v -0.344 h -0.921 v -1.484 c 0,-0.231 0.023,-0.375 0.078,-0.438 0.062,-0.062 0.187,-0.093 0.375,-0.093 h 0.468 v -0.375 h -0.468 c -0.344,0 -0.586,0.062 -0.719,0.187 -0.125,0.133 -0.188,0.375 -0.188,0.719 v 1.484 h -0.328 v 0.344 h 0.328 v 0.781 z" /><path
         id="path62"
         style="fill:#000000;fill-opacity:1;fill-rule:nonzero;stroke:none"
         d="m 88.117,58.876 v -0.219 h -2.062 c 0.019,-0.312 0.113,-0.554 0.281,-0.719 0.164,-0.156 0.394,-0.234 0.687,-0.234 0.176,0 0.344,0.02 0.5,0.063 0.165,0.039 0.329,0.101 0.485,0.187 v -0.422 c -0.156,-0.074 -0.324,-0.125 -0.5,-0.156 -0.168,-0.039 -0.34,-0.063 -0.516,-0.063 -0.43,0 -0.773,0.125 -1.031,0.375 -0.25,0.258 -0.375,0.61 -0.375,1.047 0,0.446 0.117,0.801 0.359,1.063 0.239,0.258 0.563,0.39 0.969,0.39 0.375,0 0.664,-0.121 0.875,-0.359 0.219,-0.23 0.328,-0.547 0.328,-0.953 z m -0.453,0.125 c 0,0.25 -0.07,0.445 -0.203,0.594 -0.137,0.144 -0.313,0.218 -0.531,0.218 -0.25,0 -0.453,-0.074 -0.61,-0.218 -0.148,-0.137 -0.23,-0.336 -0.25,-0.594 z" /><path
         id="path64"
         style="fill:#000000;fill-opacity:1;fill-rule:nonzero;stroke:none"
         d="m 90.523,59.704 v 1.484 h 0.454 v -3.796 h -0.454 v 0.406 c -0.093,-0.156 -0.214,-0.277 -0.359,-0.36 -0.137,-0.082 -0.309,-0.125 -0.516,-0.125 -0.324,0 -0.589,0.129 -0.796,0.391 -0.211,0.27 -0.313,0.617 -0.313,1.047 0,0.437 0.102,0.785 0.313,1.047 0.207,0.258 0.472,0.39 0.796,0.39 0.207,0 0.379,-0.042 0.516,-0.125 0.145,-0.074 0.266,-0.195 0.359,-0.359 z m -1.531,-0.953 c 0,-0.324 0.067,-0.578 0.203,-0.766 0.133,-0.187 0.321,-0.281 0.563,-0.281 0.238,0 0.426,0.094 0.562,0.281 0.133,0.188 0.203,0.442 0.203,0.766 0,0.332 -0.07,0.594 -0.203,0.781 -0.136,0.188 -0.324,0.281 -0.562,0.281 -0.242,0 -0.43,-0.093 -0.563,-0.281 -0.136,-0.187 -0.203,-0.449 -0.203,-0.781 z" /><path
         id="path66"
         style="fill:#000000;fill-opacity:1;fill-rule:nonzero;stroke:none"
         d="m 93.57,58.798 c 0,0.32 -0.07,0.57 -0.203,0.75 -0.125,0.176 -0.312,0.265 -0.562,0.265 -0.243,0 -0.43,-0.089 -0.563,-0.265 -0.137,-0.18 -0.203,-0.43 -0.203,-0.75 0,-0.336 0.066,-0.59 0.203,-0.766 0.133,-0.179 0.32,-0.265 0.563,-0.265 0.25,0 0.437,0.086 0.562,0.265 0.133,0.176 0.203,0.43 0.203,0.766 z m 0.453,-1.063 c 0,-0.468 -0.105,-0.816 -0.312,-1.047 -0.211,-0.226 -0.527,-0.343 -0.953,-0.343 -0.156,0 -0.309,0.015 -0.453,0.047 -0.137,0.023 -0.266,0.058 -0.391,0.109 v 0.437 c 0.125,-0.07 0.25,-0.125 0.375,-0.156 0.133,-0.039 0.27,-0.062 0.406,-0.062 0.289,0 0.508,0.078 0.657,0.234 0.144,0.156 0.218,0.391 0.218,0.703 v 0.219 c -0.093,-0.168 -0.215,-0.293 -0.359,-0.375 -0.137,-0.074 -0.309,-0.109 -0.516,-0.109 -0.336,0 -0.605,0.125 -0.812,0.375 -0.199,0.257 -0.297,0.601 -0.297,1.031 0,0.414 0.098,0.75 0.297,1 0.207,0.258 0.476,0.39 0.812,0.39 0.207,0 0.379,-0.042 0.516,-0.125 0.144,-0.074 0.266,-0.195 0.359,-0.359 v 0.422 h 0.453 z" /><path
         id="path68"
         style="fill:#000000;fill-opacity:1;fill-rule:nonzero;stroke:none"
         d="m 97.164,58.876 v -0.219 h -2.062 c 0.019,-0.312 0.113,-0.554 0.281,-0.719 0.164,-0.156 0.394,-0.234 0.687,-0.234 0.176,0 0.344,0.02 0.5,0.063 0.164,0.039 0.328,0.101 0.485,0.187 v -0.422 c -0.157,-0.074 -0.325,-0.125 -0.5,-0.156 -0.168,-0.039 -0.34,-0.063 -0.516,-0.063 -0.43,0 -0.773,0.125 -1.031,0.375 -0.25,0.258 -0.375,0.61 -0.375,1.047 0,0.446 0.117,0.801 0.359,1.063 0.238,0.258 0.563,0.39 0.969,0.39 0.375,0 0.664,-0.121 0.875,-0.359 0.219,-0.23 0.328,-0.547 0.328,-0.953 z m -0.453,0.125 c 0,0.25 -0.07,0.445 -0.203,0.594 -0.137,0.144 -0.313,0.218 -0.531,0.218 -0.25,0 -0.454,-0.074 -0.61,-0.218 -0.148,-0.137 -0.23,-0.336 -0.25,-0.594 z" /><path
         id="path70"
         style="fill:#000000;fill-opacity:1;fill-rule:nonzero;stroke:none"
         d="m 99.523,60.048 v -0.422 c -0.125,0.062 -0.261,0.109 -0.406,0.141 -0.137,0.031 -0.277,0.046 -0.422,0.046 -0.218,0 -0.386,-0.039 -0.5,-0.109 -0.117,-0.062 -0.172,-0.164 -0.172,-0.297 0,-0.105 0.039,-0.187 0.125,-0.25 0.082,-0.054 0.243,-0.109 0.485,-0.172 l 0.156,-0.031 c 0.313,-0.062 0.535,-0.156 0.672,-0.281 0.133,-0.125 0.203,-0.305 0.203,-0.531 0,-0.25 -0.102,-0.454 -0.297,-0.61 -0.199,-0.144 -0.476,-0.219 -0.828,-0.219 -0.148,0 -0.305,0.016 -0.469,0.047 -0.156,0.032 -0.324,0.071 -0.5,0.125 v 0.469 c 0.164,-0.086 0.328,-0.148 0.485,-0.187 0.164,-0.043 0.328,-0.063 0.484,-0.063 0.219,0 0.383,0.031 0.5,0.094 0.113,0.07 0.172,0.176 0.172,0.312 0,0.125 -0.043,0.219 -0.125,0.282 -0.086,0.062 -0.266,0.125 -0.547,0.187 l -0.156,0.031 c -0.281,0.063 -0.485,0.149 -0.61,0.266 -0.117,0.125 -0.171,0.297 -0.171,0.516 0,0.25 0.086,0.441 0.265,0.578 0.188,0.144 0.445,0.218 0.781,0.218 0.164,0 0.321,-0.011 0.469,-0.031 0.145,-0.023 0.281,-0.058 0.406,-0.109 z" /><g
         transform="matrix(1,0,0,-1,0,121.61818)"
         id="g72"><path
           id="path74"
           style="fill:none;stroke:#0000f6;stroke-width:0.80000001;stroke-linecap:butt;stroke-linejoin:miter;stroke-miterlimit:4;stroke-dasharray:none;stroke-opacity:1"
           d="m 36.793,116.809 v -16 l 16,-16 v -16 l 16,-16 v -16 l 16,-16 v -16" /></g><g
         transform="matrix(1,0,0,-1,0,121.61818)"
         id="g76"><path
           id="path78"
           style="fill:none;stroke:#0000f6;stroke-width:0.80000001;stroke-linecap:butt;stroke-linejoin:miter;stroke-miterlimit:4;stroke-dasharray:none;stroke-opacity:1"
           d="m 68.793,116.809 v -64" /></g><g
         transform="matrix(1,0,0,-1,0,121.61818)"
         id="g80"><path
           id="path82"
           style="fill:none;stroke:#0000f6;stroke-width:0.72000003;stroke-linecap:butt;stroke-linejoin:miter;stroke-miterlimit:4;stroke-dasharray:none;stroke-opacity:1"
           d="m 116.793,116.809 16,-16 v -16 l -16,-16 v -16 l -16,-16 v -16 l -16,-16" /></g><g
         transform="matrix(1,0,0,-1,0,121.61818)"
         id="g84"><path
           id="path86"
           style="fill:none;stroke:#0000f6;stroke-width:0.80000001;stroke-linecap:butt;stroke-linejoin:miter;stroke-miterlimit:4;stroke-dasharray:none;stroke-opacity:1"
           d="m 100.793,116.809 v -16 l 16,-16 v -16" /></g><g
         transform="matrix(1,0,0,-1,0,121.61818)"
         id="g88"><path
           id="path90"
           style="fill:none;stroke:#ff0000;stroke-width:0.80000001;stroke-linecap:butt;stroke-linejoin:miter;stroke-miterlimit:4;stroke-dasharray:2.4, 0.8;stroke-dashoffset:0;stroke-opacity:1"
           d="m 84.793,20.809 v 48 l 16,16" /></g><g
         transform="matrix(1,0,0,-1,0,121.61818)"
         id="g92"><path
           id="path94"
           style="fill:none;stroke:#ff0000;stroke-width:0.80000001;stroke-linecap:butt;stroke-linejoin:miter;stroke-miterlimit:4;stroke-dasharray:2.4, 0.8;stroke-dashoffset:0;stroke-opacity:1"
           d="m 100.793,100.809 v -16" /></g><g
         transform="matrix(1,0,0,-1,0,121.61818)"
         id="g96"><path
           id="path98"
           style="fill:none;stroke:#000000;stroke-width:0.80000001;stroke-linecap:butt;stroke-linejoin:miter;stroke-miterlimit:4;stroke-dasharray:none;stroke-opacity:1"
           d="m 164.793,4.809 v 112" /></g><path
         id="path100"
         style="fill:#000000;fill-opacity:1;fill-rule:evenodd;stroke:none"
         d="m 168.344,13.36 -3.535,-9.613 -3.536,9.613 c 2.086,-1.535 4.942,-1.527 7.071,0 z" /><path
         id="path102"
         style="fill:#000000;fill-opacity:1;fill-rule:nonzero;stroke:none"
         d="m 168.84,85.575 h 1.578 v 1.297 h 0.641 v -2.078 h -2.5 c -0.219,0.305 -0.387,0.641 -0.5,1.016 -0.102,0.367 -0.157,0.757 -0.157,1.171 0,0.907 0.266,1.622 0.797,2.141 0.531,0.512 1.27,0.766 2.219,0.766 0.957,0 1.703,-0.254 2.234,-0.766 0.532,-0.519 0.797,-1.234 0.797,-2.141 0,-0.382 -0.047,-0.742 -0.14,-1.078 -0.094,-0.343 -0.231,-0.66 -0.407,-0.953 h -0.843 c 0.25,0.293 0.437,0.606 0.562,0.938 0.125,0.324 0.188,0.668 0.188,1.031 0,0.711 -0.204,1.246 -0.61,1.609 -0.398,0.356 -0.992,0.532 -1.781,0.532 -0.781,0 -1.375,-0.176 -1.781,-0.532 -0.399,-0.363 -0.594,-0.898 -0.594,-1.609 0,-0.281 0.023,-0.531 0.078,-0.75 0.051,-0.219 0.125,-0.414 0.219,-0.594 z" /><path
         id="path104"
         style="fill:#000000;fill-opacity:1;fill-rule:nonzero;stroke:none"
         d="m 170.387,79.638 h -0.36 v 3.312 c -0.492,-0.031 -0.867,-0.179 -1.125,-0.453 -0.261,-0.269 -0.39,-0.641 -0.39,-1.109 0,-0.282 0.031,-0.551 0.093,-0.813 0.071,-0.258 0.176,-0.515 0.313,-0.765 h -0.688 c -0.105,0.261 -0.183,0.527 -0.234,0.796 -0.062,0.274 -0.094,0.543 -0.094,0.813 0,0.699 0.203,1.258 0.61,1.672 0.406,0.406 0.953,0.609 1.64,0.609 0.719,0 1.286,-0.191 1.703,-0.578 0.426,-0.394 0.641,-0.922 0.641,-1.578 0,-0.582 -0.195,-1.047 -0.578,-1.391 -0.375,-0.343 -0.887,-0.515 -1.531,-0.515 z m 0.203,0.718 c 0.394,0.012 0.707,0.125 0.937,0.344 0.239,0.211 0.36,0.492 0.36,0.844 0,0.398 -0.117,0.719 -0.344,0.969 -0.231,0.242 -0.547,0.375 -0.953,0.406 z" /><path
         id="path106"
         style="fill:#000000;fill-opacity:1;fill-rule:nonzero;stroke:none"
         d="m 170.652,74.825 h -2.64 v 0.719 h 2.625 c 0.406,0 0.711,0.086 0.922,0.25 0.207,0.156 0.312,0.398 0.312,0.719 0,0.386 -0.125,0.695 -0.375,0.922 -0.25,0.218 -0.59,0.328 -1.016,0.328 h -2.468 v 0.718 h 4.375 v -0.718 h -0.672 c 0.258,-0.164 0.453,-0.364 0.578,-0.594 0.133,-0.238 0.203,-0.508 0.203,-0.813 0,-0.507 -0.156,-0.89 -0.469,-1.14 -0.312,-0.258 -0.773,-0.391 -1.375,-0.391 z" /><path
         id="path108"
         style="fill:#000000;fill-opacity:1;fill-rule:nonzero;stroke:none"
         d="m 170.387,69.638 h -0.36 v 3.312 c -0.492,-0.031 -0.867,-0.179 -1.125,-0.453 -0.261,-0.269 -0.39,-0.641 -0.39,-1.109 0,-0.282 0.031,-0.551 0.093,-0.813 0.071,-0.258 0.176,-0.515 0.313,-0.765 h -0.688 c -0.105,0.261 -0.183,0.527 -0.234,0.796 -0.062,0.274 -0.094,0.543 -0.094,0.813 0,0.699 0.203,1.258 0.61,1.672 0.406,0.406 0.953,0.609 1.64,0.609 0.719,0 1.286,-0.191 1.703,-0.578 0.426,-0.394 0.641,-0.922 0.641,-1.578 0,-0.582 -0.195,-1.047 -0.578,-1.391 -0.375,-0.343 -0.887,-0.515 -1.531,-0.515 z m 0.203,0.718 c 0.394,0.012 0.707,0.125 0.937,0.344 0.239,0.211 0.36,0.492 0.36,0.844 0,0.398 -0.117,0.719 -0.344,0.969 -0.231,0.242 -0.547,0.375 -0.953,0.406 z" /><path
         id="path110"
         style="fill:#000000;fill-opacity:1;fill-rule:nonzero;stroke:none"
         d="m 171.715,65.919 c 0.051,0.086 0.086,0.172 0.109,0.266 0.02,0.093 0.031,0.199 0.031,0.312 0,0.406 -0.136,0.719 -0.406,0.938 -0.261,0.218 -0.637,0.328 -1.125,0.328 h -2.312 v 0.718 h 4.375 v -0.718 h -0.672 c 0.258,-0.145 0.453,-0.336 0.578,-0.578 0.133,-0.25 0.203,-0.547 0.203,-0.891 0,-0.051 -0.008,-0.102 -0.016,-0.156 0,-0.063 -0.011,-0.129 -0.031,-0.203 z" /><path
         id="path112"
         style="fill:#000000;fill-opacity:1;fill-rule:nonzero;stroke:none"
         d="m 170.215,63.169 c 0,0.586 -0.07,0.992 -0.203,1.219 -0.137,0.218 -0.36,0.328 -0.672,0.328 -0.262,0 -0.469,-0.082 -0.625,-0.25 -0.149,-0.164 -0.219,-0.395 -0.219,-0.688 0,-0.394 0.141,-0.711 0.422,-0.953 0.289,-0.238 0.672,-0.359 1.141,-0.359 h 0.156 z m 0.297,-1.422 h -2.5 v 0.719 h 0.672 c -0.274,0.156 -0.469,0.359 -0.594,0.609 -0.125,0.242 -0.188,0.539 -0.188,0.891 0,0.449 0.125,0.808 0.375,1.078 0.25,0.262 0.586,0.391 1.016,0.391 0.488,0 0.859,-0.161 1.109,-0.485 0.25,-0.332 0.375,-0.828 0.375,-1.484 v -1 h 0.063 c 0.332,0 0.586,0.109 0.765,0.328 0.188,0.211 0.282,0.512 0.282,0.906 0,0.25 -0.032,0.496 -0.094,0.735 -0.063,0.242 -0.152,0.468 -0.266,0.687 h 0.657 c 0.101,-0.269 0.179,-0.523 0.234,-0.766 0.051,-0.25 0.078,-0.492 0.078,-0.734 0,-0.625 -0.168,-1.094 -0.5,-1.406 -0.324,-0.313 -0.82,-0.469 -1.484,-0.469 z" /><path
         id="path114"
         style="fill:#000000;fill-opacity:1;fill-rule:nonzero;stroke:none"
         d="m 173.637,59.544 h -1.25 V 58.06 h -0.563 v 1.484 h -2.375 c -0.355,0 -0.586,-0.047 -0.687,-0.141 -0.094,-0.101 -0.141,-0.3 -0.141,-0.593 v -0.75 h -0.609 v 0.75 c 0,0.554 0.101,0.933 0.312,1.14 0.207,0.211 0.582,0.313 1.125,0.313 h 2.375 v 0.531 h 0.563 v -0.531 h 1.25 z" /><path
         id="path116"
         style="fill:#000000;fill-opacity:1;fill-rule:nonzero;stroke:none"
         d="m 172.387,57.122 v -0.719 h -4.375 v 0.719 z m 1.703,0 v -0.719 h -0.906 v 0.719 z" /><path
         id="path118"
         style="fill:#000000;fill-opacity:1;fill-rule:nonzero;stroke:none"
         d="m 171.887,53.2 c 0,0.387 -0.153,0.696 -0.453,0.922 -0.305,0.219 -0.715,0.328 -1.235,0.328 -0.523,0 -0.933,-0.109 -1.234,-0.328 -0.305,-0.226 -0.453,-0.535 -0.453,-0.922 0,-0.383 0.148,-0.687 0.453,-0.906 0.301,-0.227 0.711,-0.344 1.234,-0.344 0.52,0 0.93,0.117 1.235,0.344 0.3,0.219 0.453,0.523 0.453,0.906 z m 0.609,0 c 0,-0.625 -0.203,-1.113 -0.609,-1.469 -0.407,-0.351 -0.969,-0.531 -1.688,-0.531 -0.719,0 -1.281,0.18 -1.687,0.531 -0.407,0.356 -0.61,0.844 -0.61,1.469 0,0.625 0.203,1.121 0.61,1.485 0.406,0.355 0.968,0.531 1.687,0.531 0.719,0 1.281,-0.176 1.688,-0.531 0.406,-0.364 0.609,-0.86 0.609,-1.485 z" /><path
         id="path120"
         style="fill:#000000;fill-opacity:1;fill-rule:nonzero;stroke:none"
         d="m 170.652,46.372 h -2.64 v 0.719 h 2.625 c 0.406,0 0.711,0.086 0.922,0.25 0.207,0.156 0.312,0.398 0.312,0.719 0,0.386 -0.125,0.695 -0.375,0.921 -0.25,0.219 -0.59,0.329 -1.016,0.329 h -2.468 v 0.718 h 4.375 V 49.31 h -0.672 c 0.258,-0.164 0.453,-0.364 0.578,-0.594 0.133,-0.238 0.203,-0.508 0.203,-0.813 0,-0.507 -0.156,-0.89 -0.469,-1.14 -0.312,-0.258 -0.773,-0.391 -1.375,-0.391 z" /><path
         id="path122"
         style="fill:#000000;fill-opacity:1;fill-rule:nonzero;stroke:none"
         d="m 172.262,42.138 h -0.688 c 0.102,0.211 0.18,0.422 0.235,0.64 0.05,0.219 0.078,0.446 0.078,0.672 0,0.356 -0.059,0.625 -0.172,0.813 -0.106,0.179 -0.266,0.265 -0.485,0.265 -0.168,0 -0.296,-0.062 -0.39,-0.187 -0.094,-0.133 -0.184,-0.395 -0.266,-0.781 l -0.062,-0.25 c -0.106,-0.508 -0.258,-0.868 -0.453,-1.079 -0.2,-0.218 -0.481,-0.328 -0.844,-0.328 -0.406,0 -0.731,0.164 -0.969,0.485 -0.23,0.324 -0.344,0.765 -0.344,1.328 0,0.23 0.028,0.476 0.078,0.734 0.04,0.25 0.102,0.516 0.188,0.797 h 0.75 c -0.137,-0.258 -0.242,-0.519 -0.313,-0.781 -0.074,-0.258 -0.109,-0.516 -0.109,-0.766 0,-0.344 0.055,-0.601 0.172,-0.781 0.125,-0.188 0.289,-0.281 0.5,-0.281 0.195,0 0.348,0.07 0.453,0.203 0.102,0.137 0.203,0.422 0.297,0.859 l 0.062,0.25 c 0.094,0.449 0.235,0.774 0.422,0.969 0.196,0.199 0.461,0.297 0.797,0.297 0.414,0 0.735,-0.145 0.953,-0.438 0.227,-0.289 0.344,-0.703 0.344,-1.234 0,-0.27 -0.023,-0.52 -0.062,-0.75 -0.043,-0.238 -0.102,-0.457 -0.172,-0.656 z" /><g
         transform="matrix(1,0,0,-1,0,121.61818)"
         id="g124"><path
           id="path126"
           style="fill:#ffffff;fill-opacity:1;fill-rule:nonzero;stroke:#000000;stroke-width:0.40000001;stroke-linecap:butt;stroke-linejoin:miter;stroke-miterlimit:4;stroke-dasharray:none;stroke-opacity:1"
           d="m 95.395,90.504 h 10.398 v 1.598 H 95.395 Z" /></g><g
         transform="matrix(1,0,0,-1,0,121.61818)"
         id="g128"><path
           id="path130"
           style="fill:#ff0000;fill-opacity:1;fill-rule:nonzero;stroke:#000000;stroke-width:0.40000001;stroke-linecap:butt;stroke-linejoin:miter;stroke-miterlimit:4;stroke-dasharray:none;stroke-opacity:1"
           d="m 99.395,90.504 h 2.398 v 1.598 h -2.398 z" /></g><g
         transform="matrix(1,0,0,-1,0,121.61818)"
         id="g132"><path
           id="path134"
           style="fill:#ffffff;fill-opacity:1;fill-rule:nonzero;stroke:#000000;stroke-width:0.40000001;stroke-linecap:butt;stroke-linejoin:miter;stroke-miterlimit:4;stroke-dasharray:none;stroke-opacity:1"
           d="m 95.594,76.008 h 10.402 V 77.61 H 95.594 Z" /></g><g
         transform="matrix(1,0,0,-1,0,121.61818)"
         id="g136"><path
           id="path138"
           style="fill:#ff0000;fill-opacity:1;fill-rule:nonzero;stroke:#000000;stroke-width:0.40000001;stroke-linecap:butt;stroke-linejoin:miter;stroke-miterlimit:4;stroke-dasharray:none;stroke-opacity:1"
           d="m 100.793,76.008 h 1.203 v 1.602 h -1.203 z" /></g><g
         transform="matrix(1,0,0,-1,0,121.61818)"
         id="g140"><path
           id="path142"
           style="fill:#ffffff;fill-opacity:1;fill-rule:nonzero;stroke:#000000;stroke-width:0.40000001;stroke-linecap:butt;stroke-linejoin:miter;stroke-miterlimit:4;stroke-dasharray:none;stroke-opacity:1"
           d="m 85.195,73.609 h 10.398 v 1.602 H 85.195 Z" /></g><g
         transform="matrix(1,0,0,-1,0,121.61818)"
         id="g144"><path
           id="path146"
           style="fill:#ff0000;fill-opacity:1;fill-rule:nonzero;stroke:#000000;stroke-width:0.40000001;stroke-linecap:butt;stroke-linejoin:miter;stroke-miterlimit:4;stroke-dasharray:none;stroke-opacity:1"
           d="m 89.195,73.609 h 1.199 v 1.602 h -1.199 z" /></g><g
         transform="matrix(1,0,0,-1,0,121.61818)"
         id="g148"><path
           id="path150"
           style="fill:#ffffff;fill-opacity:1;fill-rule:nonzero;stroke:#000000;stroke-width:0.40000001;stroke-linecap:butt;stroke-linejoin:miter;stroke-miterlimit:4;stroke-dasharray:none;stroke-opacity:1"
           d="M 79.594,28.008 H 89.996 V 29.61 H 79.594 Z" /></g><g
         transform="matrix(1,0,0,-1,0,121.61818)"
         id="g152"><path
           id="path154"
           style="fill:#ff0000;fill-opacity:1;fill-rule:nonzero;stroke:#000000;stroke-width:0.40000001;stroke-linecap:butt;stroke-linejoin:miter;stroke-miterlimit:4;stroke-dasharray:none;stroke-opacity:1"
           d="m 83.594,28.008 h 2.402 v 1.602 h -2.402 z" /></g></g></g></svg>