<?xml version="1.0" encoding="UTF-8" standalone="no"?>
<svg
   xmlns:dc="http://purl.org/dc/elements/1.1/"
   xmlns:cc="http://creativecommons.org/ns#"
   xmlns:rdf="http://www.w3.org/1999/02/22-rdf-syntax-ns#"
   xmlns:svg="http://www.w3.org/2000/svg"
   xmlns="http://www.w3.org/2000/svg"
   viewBox="0 0 236.17155 162.15758"
   height="162.15758"
   width="236.17155"
   xml:space="preserve"
   id="svg2"
   version="1.1"><metadata
     id="metadata8"><rdf:RDF><cc:Work
         rdf:about=""><dc:format>image/svg+xml</dc:format><dc:type
           rdf:resource="http://purl.org/dc/dcmitype/StillImage" /></cc:Work></rdf:RDF></metadata><defs
     id="defs6" /><g
     transform="matrix(1.3333333,0,0,-1.3333333,0,162.15757)"
     id="g10"><g
       id="g12"><g
         transform="matrix(1,0,0,-1,0,121.61818)"
         id="g14"><path
           id="path16"
           style="fill:none;stroke:#000000;stroke-width:0.40000001;stroke-linecap:butt;stroke-linejoin:miter;stroke-miterlimit:4;stroke-dasharray:none;stroke-opacity:1"
           d="m 8.801,116.801 c 0,2.207 -1.793,4 -4,4 -2.211,0 -4,-1.793 -4,-4 0,-2.211 1.789,-4 4,-4 2.207,0 4,1.789 4,4 z" /></g><g
         transform="matrix(1,0,0,-1,0,121.61818)"
         id="g18"><path
           id="path20"
           style="fill:none;stroke:#000000;stroke-width:0.40000001;stroke-linecap:butt;stroke-linejoin:miter;stroke-miterlimit:4;stroke-dasharray:none;stroke-opacity:1"
           d="m 24.801,116.801 c 0,2.207 -1.793,4 -4,4 -2.211,0 -4,-1.793 -4,-4 0,-2.211 1.789,-4 4,-4 2.207,0 4,1.789 4,4 z" /></g><g
         transform="matrix(1,0,0,-1,0,121.61818)"
         id="g22"><path
           id="path24"
           style="fill:none;stroke:#0000f6;stroke-width:0.40000001;stroke-linecap:butt;stroke-linejoin:miter;stroke-miterlimit:4;stroke-dasharray:none;stroke-opacity:1"
           d="m 40.801,116.801 c 0,2.207 -1.793,4 -4,4 -2.211,0 -4,-1.793 -4,-4 0,-2.211 1.789,-4 4,-4 2.207,0 4,1.789 4,4 z" /></g><g
         transform="matrix(1,0,0,-1,0,121.61818)"
         id="g26"><path
           id="path28"
           style="fill:none;stroke:#000000;stroke-width:0.40000001;stroke-linecap:butt;stroke-linejoin:miter;stroke-miterlimit:4;stroke-dasharray:none;stroke-opacity:1"
           d="m 56.801,116.801 c 0,2.207 -1.793,4 -4,4 -2.211,0 -4,-1.793 -4,-4 0,-2.211 1.789,-4 4,-4 2.207,0 4,1.789 4,4 z" /></g><g
         transform="matrix(1,0,0,-1,0,121.61818)"
         id="g30"><path
           id="path32"
           style="fill:none;stroke:#0000f6;stroke-width:0.40000001;stroke-linecap:butt;stroke-linejoin:miter;stroke-miterlimit:4;stroke-dasharray:none;stroke-opacity:1"
           d="m 72.801,116.801 c 0,2.207 -1.793,4 -4,4 -2.211,0 -4,-1.793 -4,-4 0,-2.211 1.789,-4 4,-4 2.207,0 4,1.789 4,4 z" /></g><g
         transform="matrix(1,0,0,-1,0,121.61818)"
         id="g34"><path
           id="path36"
           style="fill:none;stroke:#000000;stroke-width:0.40000001;stroke-linecap:butt;stroke-linejoin:miter;stroke-miterlimit:4;stroke-dasharray:none;stroke-opacity:1"
           d="m 88.789,116.816 c 0,2.211 -1.789,4 -4,4 -2.207,0 -4,-1.789 -4,-4 0,-2.207 1.793,-4 4,-4 2.211,0 4,1.793 4,4 z" /></g><g
         transform="matrix(1,0,0,-1,0,121.61818)"
         id="g38"><path
           id="path40"
           style="fill:none;stroke:#0000f6;stroke-width:0.40000001;stroke-linecap:butt;stroke-linejoin:miter;stroke-miterlimit:4;stroke-dasharray:none;stroke-opacity:1"
           d="m 104.789,116.816 c 0,2.211 -1.789,4 -4,4 -2.207,0 -4,-1.789 -4,-4 0,-2.207 1.793,-4 4,-4 2.211,0 4,1.793 4,4 z" /></g><g
         transform="matrix(1,0,0,-1,0,121.61818)"
         id="g42"><path
           id="path44"
           style="fill:none;stroke:#0000f6;stroke-width:0.40000001;stroke-linecap:butt;stroke-linejoin:miter;stroke-miterlimit:4;stroke-dasharray:none;stroke-opacity:1"
           d="m 120.789,116.816 c 0,2.211 -1.789,4 -4,4 -2.207,0 -4,-1.789 -4,-4 0,-2.207 1.793,-4 4,-4 2.211,0 4,1.793 4,4 z" /></g><g
         transform="matrix(1,0,0,-1,0,121.61818)"
         id="g46"><path
           id="path48"
           style="fill:none;stroke:#000000;stroke-width:0.40000001;stroke-linecap:butt;stroke-linejoin:miter;stroke-miterlimit:4;stroke-dasharray:none;stroke-opacity:1"
           d="m 136.789,116.816 c 0,2.211 -1.789,4 -4,4 -2.207,0 -4,-1.789 -4,-4 0,-2.207 1.793,-4 4,-4 2.211,0 4,1.793 4,4 z" /></g><g
         transform="matrix(1,0,0,-1,0,121.61818)"
         id="g50"><path
           id="path52"
           style="fill:none;stroke:#000000;stroke-width:0.40000001;stroke-linecap:butt;stroke-linejoin:miter;stroke-miterlimit:4;stroke-dasharray:none;stroke-opacity:1"
           d="m 152.789,116.816 c 0,2.211 -1.789,4 -4,4 -2.207,0 -4,-1.789 -4,-4 0,-2.207 1.793,-4 4,-4 2.211,0 4,1.793 4,4 z" /></g><g
         transform="matrix(1,0,0,-1,0,121.61818)"
         id="g54"><path
           id="path56"
           style="fill:none;stroke:#000000;stroke-width:0.40000001;stroke-linecap:butt;stroke-linejoin:miter;stroke-miterlimit:4;stroke-dasharray:none;stroke-opacity:1"
           d="m 8.801,100.801 c 0,2.207 -1.793,4 -4,4 -2.211,0 -4,-1.793 -4,-4 0,-2.211 1.789,-4 4,-4 2.207,0 4,1.789 4,4 z" /></g><g
         transform="matrix(1,0,0,-1,0,121.61818)"
         id="g58"><path
           id="path60"
           style="fill:none;stroke:#000000;stroke-width:0.40000001;stroke-linecap:butt;stroke-linejoin:miter;stroke-miterlimit:4;stroke-dasharray:none;stroke-opacity:1"
           d="m 24.801,100.801 c 0,2.207 -1.793,4 -4,4 -2.211,0 -4,-1.793 -4,-4 0,-2.211 1.789,-4 4,-4 2.207,0 4,1.789 4,4 z" /></g><g
         transform="matrix(1,0,0,-1,0,121.61818)"
         id="g62"><path
           id="path64"
           style="fill:none;stroke:#000000;stroke-width:0.40000001;stroke-linecap:butt;stroke-linejoin:miter;stroke-miterlimit:4;stroke-dasharray:none;stroke-opacity:1"
           d="m 40.801,100.801 c 0,2.207 -1.793,4 -4,4 -2.211,0 -4,-1.793 -4,-4 0,-2.211 1.789,-4 4,-4 2.207,0 4,1.789 4,4 z" /></g><g
         transform="matrix(1,0,0,-1,0,121.61818)"
         id="g66"><path
           id="path68"
           style="fill:none;stroke:#000000;stroke-width:0.40000001;stroke-linecap:butt;stroke-linejoin:miter;stroke-miterlimit:4;stroke-dasharray:none;stroke-opacity:1"
           d="m 56.801,100.801 c 0,2.207 -1.793,4 -4,4 -2.211,0 -4,-1.793 -4,-4 0,-2.211 1.789,-4 4,-4 2.207,0 4,1.789 4,4 z" /></g><g
         transform="matrix(1,0,0,-1,0,121.61818)"
         id="g70"><path
           id="path72"
           style="fill:none;stroke:#000000;stroke-width:0.40000001;stroke-linecap:butt;stroke-linejoin:miter;stroke-miterlimit:4;stroke-dasharray:none;stroke-opacity:1"
           d="m 72.801,100.801 c 0,2.207 -1.793,4 -4,4 -2.211,0 -4,-1.793 -4,-4 0,-2.211 1.789,-4 4,-4 2.207,0 4,1.789 4,4 z" /></g><g
         transform="matrix(1,0,0,-1,0,121.61818)"
         id="g74"><path
           id="path76"
           style="fill:none;stroke:#000000;stroke-width:0.40000001;stroke-linecap:butt;stroke-linejoin:miter;stroke-miterlimit:4;stroke-dasharray:none;stroke-opacity:1"
           d="m 88.789,100.816 c 0,2.211 -1.789,4 -4,4 -2.207,0 -4,-1.789 -4,-4 0,-2.207 1.793,-4 4,-4 2.211,0 4,1.793 4,4 z" /></g><g
         transform="matrix(1,0,0,-1,0,121.61818)"
         id="g78"><path
           id="path80"
           style="fill:none;stroke:#000000;stroke-width:0.40000001;stroke-linecap:butt;stroke-linejoin:miter;stroke-miterlimit:4;stroke-dasharray:none;stroke-opacity:1"
           d="m 104.789,100.816 c 0,2.211 -1.789,4 -4,4 -2.207,0 -4,-1.789 -4,-4 0,-2.207 1.793,-4 4,-4 2.211,0 4,1.793 4,4 z" /></g><g
         transform="matrix(1,0,0,-1,0,121.61818)"
         id="g82"><path
           id="path84"
           style="fill:none;stroke:#000000;stroke-width:0.40000001;stroke-linecap:butt;stroke-linejoin:miter;stroke-miterlimit:4;stroke-dasharray:none;stroke-opacity:1"
           d="m 120.789,100.816 c 0,2.211 -1.789,4 -4,4 -2.207,0 -4,-1.789 -4,-4 0,-2.207 1.793,-4 4,-4 2.211,0 4,1.793 4,4 z" /></g><g
         transform="matrix(1,0,0,-1,0,121.61818)"
         id="g86"><path
           id="path88"
           style="fill:none;stroke:#000000;stroke-width:0.40000001;stroke-linecap:butt;stroke-linejoin:miter;stroke-miterlimit:4;stroke-dasharray:none;stroke-opacity:1"
           d="m 136.789,100.816 c 0,2.211 -1.789,4 -4,4 -2.207,0 -4,-1.789 -4,-4 0,-2.207 1.793,-4 4,-4 2.211,0 4,1.793 4,4 z" /></g><g
         transform="matrix(1,0,0,-1,0,121.61818)"
         id="g90"><path
           id="path92"
           style="fill:none;stroke:#000000;stroke-width:0.40000001;stroke-linecap:butt;stroke-linejoin:miter;stroke-miterlimit:4;stroke-dasharray:none;stroke-opacity:1"
           d="m 152.789,100.816 c 0,2.211 -1.789,4 -4,4 -2.207,0 -4,-1.789 -4,-4 0,-2.207 1.793,-4 4,-4 2.211,0 4,1.793 4,4 z" /></g><g
         transform="matrix(1,0,0,-1,0,121.61818)"
         id="g94"><path
           id="path96"
           style="fill:none;stroke:#000000;stroke-width:0.40000001;stroke-linecap:butt;stroke-linejoin:miter;stroke-miterlimit:4;stroke-dasharray:none;stroke-opacity:1"
           d="m 8.801,84.801 c 0,2.207 -1.793,4 -4,4 -2.211,0 -4,-1.793 -4,-4 0,-2.211 1.789,-4 4,-4 2.207,0 4,1.789 4,4 z" /></g><g
         transform="matrix(1,0,0,-1,0,121.61818)"
         id="g98"><path
           id="path100"
           style="fill:none;stroke:#000000;stroke-width:0.40000001;stroke-linecap:butt;stroke-linejoin:miter;stroke-miterlimit:4;stroke-dasharray:none;stroke-opacity:1"
           d="m 24.801,84.801 c 0,2.207 -1.793,4 -4,4 -2.211,0 -4,-1.793 -4,-4 0,-2.211 1.789,-4 4,-4 2.207,0 4,1.789 4,4 z" /></g><g
         transform="matrix(1,0,0,-1,0,121.61818)"
         id="g102"><path
           id="path104"
           style="fill:none;stroke:#000000;stroke-width:0.40000001;stroke-linecap:butt;stroke-linejoin:miter;stroke-miterlimit:4;stroke-dasharray:none;stroke-opacity:1"
           d="m 40.801,84.801 c 0,2.207 -1.793,4 -4,4 -2.211,0 -4,-1.793 -4,-4 0,-2.211 1.789,-4 4,-4 2.207,0 4,1.789 4,4 z" /></g><g
         transform="matrix(1,0,0,-1,0,121.61818)"
         id="g106"><path
           id="path108"
           style="fill:none;stroke:#000000;stroke-width:0.40000001;stroke-linecap:butt;stroke-linejoin:miter;stroke-miterlimit:4;stroke-dasharray:none;stroke-opacity:1"
           d="m 56.801,84.801 c 0,2.207 -1.793,4 -4,4 -2.211,0 -4,-1.793 -4,-4 0,-2.211 1.789,-4 4,-4 2.207,0 4,1.789 4,4 z" /></g><g
         transform="matrix(1,0,0,-1,0,121.61818)"
         id="g110"><path
           id="path112"
           style="fill:none;stroke:#000000;stroke-width:0.40000001;stroke-linecap:butt;stroke-linejoin:miter;stroke-miterlimit:4;stroke-dasharray:none;stroke-opacity:1"
           d="m 72.801,84.801 c 0,2.207 -1.793,4 -4,4 -2.211,0 -4,-1.793 -4,-4 0,-2.211 1.789,-4 4,-4 2.207,0 4,1.789 4,4 z" /></g><g
         transform="matrix(1,0,0,-1,0,121.61818)"
         id="g114"><path
           id="path116"
           style="fill:none;stroke:#000000;stroke-width:0.40000001;stroke-linecap:butt;stroke-linejoin:miter;stroke-miterlimit:4;stroke-dasharray:none;stroke-opacity:1"
           d="m 88.789,84.816 c 0,2.211 -1.789,4 -4,4 -2.207,0 -4,-1.789 -4,-4 0,-2.207 1.793,-4 4,-4 2.211,0 4,1.793 4,4 z" /></g><g
         transform="matrix(1,0,0,-1,0,121.61818)"
         id="g118"><path
           id="path120"
           style="fill:none;stroke:#000000;stroke-width:0.40000001;stroke-linecap:butt;stroke-linejoin:miter;stroke-miterlimit:4;stroke-dasharray:none;stroke-opacity:1"
           d="m 104.789,84.816 c 0,2.211 -1.789,4 -4,4 -2.207,0 -4,-1.789 -4,-4 0,-2.207 1.793,-4 4,-4 2.211,0 4,1.793 4,4 z" /></g><g
         transform="matrix(1,0,0,-1,0,121.61818)"
         id="g122"><path
           id="path124"
           style="fill:none;stroke:#000000;stroke-width:0.40000001;stroke-linecap:butt;stroke-linejoin:miter;stroke-miterlimit:4;stroke-dasharray:none;stroke-opacity:1"
           d="m 120.789,84.816 c 0,2.211 -1.789,4 -4,4 -2.207,0 -4,-1.789 -4,-4 0,-2.207 1.793,-4 4,-4 2.211,0 4,1.793 4,4 z" /></g><g
         transform="matrix(1,0,0,-1,0,121.61818)"
         id="g126"><path
           id="path128"
           style="fill:none;stroke:#000000;stroke-width:0.40000001;stroke-linecap:butt;stroke-linejoin:miter;stroke-miterlimit:4;stroke-dasharray:none;stroke-opacity:1"
           d="m 136.789,84.816 c 0,2.211 -1.789,4 -4,4 -2.207,0 -4,-1.789 -4,-4 0,-2.207 1.793,-4 4,-4 2.211,0 4,1.793 4,4 z" /></g><g
         transform="matrix(1,0,0,-1,0,121.61818)"
         id="g130"><path
           id="path132"
           style="fill:none;stroke:#000000;stroke-width:0.40000001;stroke-linecap:butt;stroke-linejoin:miter;stroke-miterlimit:4;stroke-dasharray:none;stroke-opacity:1"
           d="m 152.789,84.816 c 0,2.211 -1.789,4 -4,4 -2.207,0 -4,-1.789 -4,-4 0,-2.207 1.793,-4 4,-4 2.211,0 4,1.793 4,4 z" /></g><g
         transform="matrix(1,0,0,-1,0,121.61818)"
         id="g134"><path
           id="path136"
           style="fill:none;stroke:#000000;stroke-width:0.40000001;stroke-linecap:butt;stroke-linejoin:miter;stroke-miterlimit:4;stroke-dasharray:none;stroke-opacity:1"
           d="m 8.801,68.801 c 0,2.207 -1.793,4 -4,4 -2.211,0 -4,-1.793 -4,-4 0,-2.211 1.789,-4 4,-4 2.207,0 4,1.789 4,4 z" /></g><g
         transform="matrix(1,0,0,-1,0,121.61818)"
         id="g138"><path
           id="path140"
           style="fill:none;stroke:#000000;stroke-width:0.40000001;stroke-linecap:butt;stroke-linejoin:miter;stroke-miterlimit:4;stroke-dasharray:none;stroke-opacity:1"
           d="m 24.801,68.801 c 0,2.207 -1.793,4 -4,4 -2.211,0 -4,-1.793 -4,-4 0,-2.211 1.789,-4 4,-4 2.207,0 4,1.789 4,4 z" /></g><g
         transform="matrix(1,0,0,-1,0,121.61818)"
         id="g142"><path
           id="path144"
           style="fill:none;stroke:#000000;stroke-width:0.40000001;stroke-linecap:butt;stroke-linejoin:miter;stroke-miterlimit:4;stroke-dasharray:none;stroke-opacity:1"
           d="m 40.801,68.801 c 0,2.207 -1.793,4 -4,4 -2.211,0 -4,-1.793 -4,-4 0,-2.211 1.789,-4 4,-4 2.207,0 4,1.789 4,4 z" /></g><g
         transform="matrix(1,0,0,-1,0,121.61818)"
         id="g146"><path
           id="path148"
           style="fill:none;stroke:#000000;stroke-width:0.40000001;stroke-linecap:butt;stroke-linejoin:miter;stroke-miterlimit:4;stroke-dasharray:none;stroke-opacity:1"
           d="m 56.801,68.801 c 0,2.207 -1.793,4 -4,4 -2.211,0 -4,-1.793 -4,-4 0,-2.211 1.789,-4 4,-4 2.207,0 4,1.789 4,4 z" /></g><g
         transform="matrix(1,0,0,-1,0,121.61818)"
         id="g150"><path
           id="path152"
           style="fill:none;stroke:#000000;stroke-width:0.40000001;stroke-linecap:butt;stroke-linejoin:miter;stroke-miterlimit:4;stroke-dasharray:none;stroke-opacity:1"
           d="m 72.801,68.801 c 0,2.207 -1.793,4 -4,4 -2.211,0 -4,-1.793 -4,-4 0,-2.211 1.789,-4 4,-4 2.207,0 4,1.789 4,4 z" /></g><g
         transform="matrix(1,0,0,-1,0,121.61818)"
         id="g154"><path
           id="path156"
           style="fill:none;stroke:#000000;stroke-width:0.40000001;stroke-linecap:butt;stroke-linejoin:miter;stroke-miterlimit:4;stroke-dasharray:none;stroke-opacity:1"
           d="m 88.789,68.816 c 0,2.211 -1.789,4 -4,4 -2.207,0 -4,-1.789 -4,-4 0,-2.207 1.793,-4 4,-4 2.211,0 4,1.793 4,4 z" /></g><g
         transform="matrix(1,0,0,-1,0,121.61818)"
         id="g158"><path
           id="path160"
           style="fill:none;stroke:#000000;stroke-width:0.40000001;stroke-linecap:butt;stroke-linejoin:miter;stroke-miterlimit:4;stroke-dasharray:none;stroke-opacity:1"
           d="m 104.789,68.816 c 0,2.211 -1.789,4 -4,4 -2.207,0 -4,-1.789 -4,-4 0,-2.207 1.793,-4 4,-4 2.211,0 4,1.793 4,4 z" /></g><g
         transform="matrix(1,0,0,-1,0,121.61818)"
         id="g162"><path
           id="path164"
           style="fill:none;stroke:#000000;stroke-width:0.40000001;stroke-linecap:butt;stroke-linejoin:miter;stroke-miterlimit:4;stroke-dasharray:none;stroke-opacity:1"
           d="m 120.789,68.816 c 0,2.211 -1.789,4 -4,4 -2.207,0 -4,-1.789 -4,-4 0,-2.207 1.793,-4 4,-4 2.211,0 4,1.793 4,4 z" /></g><g
         transform="matrix(1,0,0,-1,0,121.61818)"
         id="g166"><path
           id="path168"
           style="fill:none;stroke:#000000;stroke-width:0.40000001;stroke-linecap:butt;stroke-linejoin:miter;stroke-miterlimit:4;stroke-dasharray:none;stroke-opacity:1"
           d="m 136.789,68.816 c 0,2.211 -1.789,4 -4,4 -2.207,0 -4,-1.789 -4,-4 0,-2.207 1.793,-4 4,-4 2.211,0 4,1.793 4,4 z" /></g><g
         transform="matrix(1,0,0,-1,0,121.61818)"
         id="g170"><path
           id="path172"
           style="fill:none;stroke:#000000;stroke-width:0.40000001;stroke-linecap:butt;stroke-linejoin:miter;stroke-miterlimit:4;stroke-dasharray:none;stroke-opacity:1"
           d="m 152.789,68.816 c 0,2.211 -1.789,4 -4,4 -2.207,0 -4,-1.789 -4,-4 0,-2.207 1.793,-4 4,-4 2.211,0 4,1.793 4,4 z" /></g><g
         transform="matrix(1,0,0,-1,0,121.61818)"
         id="g174"><path
           id="path176"
           style="fill:none;stroke:#000000;stroke-width:0.40000001;stroke-linecap:butt;stroke-linejoin:miter;stroke-miterlimit:4;stroke-dasharray:none;stroke-opacity:1"
           d="m 8.801,52.801 c 0,2.207 -1.793,4 -4,4 -2.211,0 -4,-1.793 -4,-4 0,-2.211 1.789,-4 4,-4 2.207,0 4,1.789 4,4 z" /></g><g
         transform="matrix(1,0,0,-1,0,121.61818)"
         id="g178"><path
           id="path180"
           style="fill:none;stroke:#000000;stroke-width:0.40000001;stroke-linecap:butt;stroke-linejoin:miter;stroke-miterlimit:4;stroke-dasharray:none;stroke-opacity:1"
           d="m 24.801,52.801 c 0,2.207 -1.793,4 -4,4 -2.211,0 -4,-1.793 -4,-4 0,-2.211 1.789,-4 4,-4 2.207,0 4,1.789 4,4 z" /></g><g
         transform="matrix(1,0,0,-1,0,121.61818)"
         id="g182"><path
           id="path184"
           style="fill:none;stroke:#000000;stroke-width:0.40000001;stroke-linecap:butt;stroke-linejoin:miter;stroke-miterlimit:4;stroke-dasharray:none;stroke-opacity:1"
           d="m 40.801,52.801 c 0,2.207 -1.793,4 -4,4 -2.211,0 -4,-1.793 -4,-4 0,-2.211 1.789,-4 4,-4 2.207,0 4,1.789 4,4 z" /></g><g
         transform="matrix(1,0,0,-1,0,121.61818)"
         id="g186"><path
           id="path188"
           style="fill:none;stroke:#000000;stroke-width:0.40000001;stroke-linecap:butt;stroke-linejoin:miter;stroke-miterlimit:4;stroke-dasharray:none;stroke-opacity:1"
           d="m 56.801,52.801 c 0,2.207 -1.793,4 -4,4 -2.211,0 -4,-1.793 -4,-4 0,-2.211 1.789,-4 4,-4 2.207,0 4,1.789 4,4 z" /></g><g
         transform="matrix(1,0,0,-1,0,121.61818)"
         id="g190"><path
           id="path192"
           style="fill:none;stroke:#000000;stroke-width:0.40000001;stroke-linecap:butt;stroke-linejoin:miter;stroke-miterlimit:4;stroke-dasharray:none;stroke-opacity:1"
           d="m 72.801,52.801 c 0,2.207 -1.793,4 -4,4 -2.211,0 -4,-1.793 -4,-4 0,-2.211 1.789,-4 4,-4 2.207,0 4,1.789 4,4 z" /></g><g
         transform="matrix(1,0,0,-1,0,121.61818)"
         id="g194"><path
           id="path196"
           style="fill:none;stroke:#000000;stroke-width:0.40000001;stroke-linecap:butt;stroke-linejoin:miter;stroke-miterlimit:4;stroke-dasharray:none;stroke-opacity:1"
           d="m 88.789,52.816 c 0,2.211 -1.789,4 -4,4 -2.207,0 -4,-1.789 -4,-4 0,-2.207 1.793,-4 4,-4 2.211,0 4,1.793 4,4 z" /></g><g
         transform="matrix(1,0,0,-1,0,121.61818)"
         id="g198"><path
           id="path200"
           style="fill:none;stroke:#000000;stroke-width:0.40000001;stroke-linecap:butt;stroke-linejoin:miter;stroke-miterlimit:4;stroke-dasharray:none;stroke-opacity:1"
           d="m 104.789,52.816 c 0,2.211 -1.789,4 -4,4 -2.207,0 -4,-1.789 -4,-4 0,-2.207 1.793,-4 4,-4 2.211,0 4,1.793 4,4 z" /></g><g
         transform="matrix(1,0,0,-1,0,121.61818)"
         id="g202"><path
           id="path204"
           style="fill:none;stroke:#000000;stroke-width:0.40000001;stroke-linecap:butt;stroke-linejoin:miter;stroke-miterlimit:4;stroke-dasharray:none;stroke-opacity:1"
           d="m 120.789,52.816 c 0,2.211 -1.789,4 -4,4 -2.207,0 -4,-1.789 -4,-4 0,-2.207 1.793,-4 4,-4 2.211,0 4,1.793 4,4 z" /></g><g
         transform="matrix(1,0,0,-1,0,121.61818)"
         id="g206"><path
           id="path208"
           style="fill:none;stroke:#000000;stroke-width:0.40000001;stroke-linecap:butt;stroke-linejoin:miter;stroke-miterlimit:4;stroke-dasharray:none;stroke-opacity:1"
           d="m 136.789,52.816 c 0,2.211 -1.789,4 -4,4 -2.207,0 -4,-1.789 -4,-4 0,-2.207 1.793,-4 4,-4 2.211,0 4,1.793 4,4 z" /></g><g
         transform="matrix(1,0,0,-1,0,121.61818)"
         id="g210"><path
           id="path212"
           style="fill:none;stroke:#000000;stroke-width:0.40000001;stroke-linecap:butt;stroke-linejoin:miter;stroke-miterlimit:4;stroke-dasharray:none;stroke-opacity:1"
           d="m 152.789,52.816 c 0,2.211 -1.789,4 -4,4 -2.207,0 -4,-1.789 -4,-4 0,-2.207 1.793,-4 4,-4 2.211,0 4,1.793 4,4 z" /></g><g
         transform="matrix(1,0,0,-1,0,121.61818)"
         id="g214"><path
           id="path216"
           style="fill:none;stroke:#000000;stroke-width:0.40000001;stroke-linecap:butt;stroke-linejoin:miter;stroke-miterlimit:4;stroke-dasharray:none;stroke-opacity:1"
           d="m 8.801,36.801 c 0,2.207 -1.793,4 -4,4 -2.211,0 -4,-1.793 -4,-4 0,-2.211 1.789,-4 4,-4 2.207,0 4,1.789 4,4 z" /></g><g
         transform="matrix(1,0,0,-1,0,121.61818)"
         id="g218"><path
           id="path220"
           style="fill:none;stroke:#000000;stroke-width:0.40000001;stroke-linecap:butt;stroke-linejoin:miter;stroke-miterlimit:4;stroke-dasharray:none;stroke-opacity:1"
           d="m 24.801,36.801 c 0,2.207 -1.793,4 -4,4 -2.211,0 -4,-1.793 -4,-4 0,-2.211 1.789,-4 4,-4 2.207,0 4,1.789 4,4 z" /></g><g
         transform="matrix(1,0,0,-1,0,121.61818)"
         id="g222"><path
           id="path224"
           style="fill:none;stroke:#000000;stroke-width:0.40000001;stroke-linecap:butt;stroke-linejoin:miter;stroke-miterlimit:4;stroke-dasharray:none;stroke-opacity:1"
           d="m 40.801,36.801 c 0,2.207 -1.793,4 -4,4 -2.211,0 -4,-1.793 -4,-4 0,-2.211 1.789,-4 4,-4 2.207,0 4,1.789 4,4 z" /></g><g
         transform="matrix(1,0,0,-1,0,121.61818)"
         id="g226"><path
           id="path228"
           style="fill:none;stroke:#000000;stroke-width:0.40000001;stroke-linecap:butt;stroke-linejoin:miter;stroke-miterlimit:4;stroke-dasharray:none;stroke-opacity:1"
           d="m 56.801,36.801 c 0,2.207 -1.793,4 -4,4 -2.211,0 -4,-1.793 -4,-4 0,-2.211 1.789,-4 4,-4 2.207,0 4,1.789 4,4 z" /></g><g
         transform="matrix(1,0,0,-1,0,121.61818)"
         id="g230"><path
           id="path232"
           style="fill:none;stroke:#000000;stroke-width:0.40000001;stroke-linecap:butt;stroke-linejoin:miter;stroke-miterlimit:4;stroke-dasharray:none;stroke-opacity:1"
           d="m 72.801,36.801 c 0,2.207 -1.793,4 -4,4 -2.211,0 -4,-1.793 -4,-4 0,-2.211 1.789,-4 4,-4 2.207,0 4,1.789 4,4 z" /></g><g
         transform="matrix(1,0,0,-1,0,121.61818)"
         id="g234"><path
           id="path236"
           style="fill:none;stroke:#000000;stroke-width:0.40000001;stroke-linecap:butt;stroke-linejoin:miter;stroke-miterlimit:4;stroke-dasharray:none;stroke-opacity:1"
           d="m 88.789,36.816 c 0,2.211 -1.789,4 -4,4 -2.207,0 -4,-1.789 -4,-4 0,-2.207 1.793,-4 4,-4 2.211,0 4,1.793 4,4 z" /></g><g
         transform="matrix(1,0,0,-1,0,121.61818)"
         id="g238"><path
           id="path240"
           style="fill:none;stroke:#000000;stroke-width:0.40000001;stroke-linecap:butt;stroke-linejoin:miter;stroke-miterlimit:4;stroke-dasharray:none;stroke-opacity:1"
           d="m 104.789,36.816 c 0,2.211 -1.789,4 -4,4 -2.207,0 -4,-1.789 -4,-4 0,-2.207 1.793,-4 4,-4 2.211,0 4,1.793 4,4 z" /></g><g
         transform="matrix(1,0,0,-1,0,121.61818)"
         id="g242"><path
           id="path244"
           style="fill:none;stroke:#000000;stroke-width:0.40000001;stroke-linecap:butt;stroke-linejoin:miter;stroke-miterlimit:4;stroke-dasharray:none;stroke-opacity:1"
           d="m 120.789,36.816 c 0,2.211 -1.789,4 -4,4 -2.207,0 -4,-1.789 -4,-4 0,-2.207 1.793,-4 4,-4 2.211,0 4,1.793 4,4 z" /></g><g
         transform="matrix(1,0,0,-1,0,121.61818)"
         id="g246"><path
           id="path248"
           style="fill:none;stroke:#000000;stroke-width:0.40000001;stroke-linecap:butt;stroke-linejoin:miter;stroke-miterlimit:4;stroke-dasharray:none;stroke-opacity:1"
           d="m 136.789,36.816 c 0,2.211 -1.789,4 -4,4 -2.207,0 -4,-1.789 -4,-4 0,-2.207 1.793,-4 4,-4 2.211,0 4,1.793 4,4 z" /></g><g
         transform="matrix(1,0,0,-1,0,121.61818)"
         id="g250"><path
           id="path252"
           style="fill:none;stroke:#000000;stroke-width:0.40000001;stroke-linecap:butt;stroke-linejoin:miter;stroke-miterlimit:4;stroke-dasharray:none;stroke-opacity:1"
           d="m 152.789,36.816 c 0,2.211 -1.789,4 -4,4 -2.207,0 -4,-1.789 -4,-4 0,-2.207 1.793,-4 4,-4 2.211,0 4,1.793 4,4 z" /></g><g
         transform="matrix(1,0,0,-1,0,121.61818)"
         id="g254"><path
           id="path256"
           style="fill:none;stroke:#000000;stroke-width:0.40000001;stroke-linecap:butt;stroke-linejoin:miter;stroke-miterlimit:4;stroke-dasharray:none;stroke-opacity:1"
           d="m 8.801,20.801 c 0,2.207 -1.793,4 -4,4 -2.211,0 -4,-1.793 -4,-4 0,-2.211 1.789,-4 4,-4 2.207,0 4,1.789 4,4 z" /></g><g
         transform="matrix(1,0,0,-1,0,121.61818)"
         id="g258"><path
           id="path260"
           style="fill:none;stroke:#000000;stroke-width:0.40000001;stroke-linecap:butt;stroke-linejoin:miter;stroke-miterlimit:4;stroke-dasharray:none;stroke-opacity:1"
           d="m 24.801,20.801 c 0,2.207 -1.793,4 -4,4 -2.211,0 -4,-1.793 -4,-4 0,-2.211 1.789,-4 4,-4 2.207,0 4,1.789 4,4 z" /></g><g
         transform="matrix(1,0,0,-1,0,121.61818)"
         id="g262"><path
           id="path264"
           style="fill:none;stroke:#000000;stroke-width:0.40000001;stroke-linecap:butt;stroke-linejoin:miter;stroke-miterlimit:4;stroke-dasharray:none;stroke-opacity:1"
           d="m 40.801,20.801 c 0,2.207 -1.793,4 -4,4 -2.211,0 -4,-1.793 -4,-4 0,-2.211 1.789,-4 4,-4 2.207,0 4,1.789 4,4 z" /></g><g
         transform="matrix(1,0,0,-1,0,121.61818)"
         id="g266"><path
           id="path268"
           style="fill:none;stroke:#000000;stroke-width:0.40000001;stroke-linecap:butt;stroke-linejoin:miter;stroke-miterlimit:4;stroke-dasharray:none;stroke-opacity:1"
           d="m 56.801,20.801 c 0,2.207 -1.793,4 -4,4 -2.211,0 -4,-1.793 -4,-4 0,-2.211 1.789,-4 4,-4 2.207,0 4,1.789 4,4 z" /></g><g
         transform="matrix(1,0,0,-1,0,121.61818)"
         id="g270"><path
           id="path272"
           style="fill:none;stroke:#000000;stroke-width:0.40000001;stroke-linecap:butt;stroke-linejoin:miter;stroke-miterlimit:4;stroke-dasharray:none;stroke-opacity:1"
           d="m 72.801,20.801 c 0,2.207 -1.793,4 -4,4 -2.211,0 -4,-1.793 -4,-4 0,-2.211 1.789,-4 4,-4 2.207,0 4,1.789 4,4 z" /></g><g
         transform="matrix(1,0,0,-1,0,121.61818)"
         id="g274"><path
           id="path276"
           style="fill:none;stroke:#000000;stroke-width:0.40000001;stroke-linecap:butt;stroke-linejoin:miter;stroke-miterlimit:4;stroke-dasharray:none;stroke-opacity:1"
           d="m 88.789,20.816 c 0,2.211 -1.789,4 -4,4 -2.207,0 -4,-1.789 -4,-4 0,-2.207 1.793,-4 4,-4 2.211,0 4,1.793 4,4 z" /></g><g
         transform="matrix(1,0,0,-1,0,121.61818)"
         id="g278"><path
           id="path280"
           style="fill:none;stroke:#000000;stroke-width:0.40000001;stroke-linecap:butt;stroke-linejoin:miter;stroke-miterlimit:4;stroke-dasharray:none;stroke-opacity:1"
           d="m 104.789,20.816 c 0,2.211 -1.789,4 -4,4 -2.207,0 -4,-1.789 -4,-4 0,-2.207 1.793,-4 4,-4 2.211,0 4,1.793 4,4 z" /></g><g
         transform="matrix(1,0,0,-1,0,121.61818)"
         id="g282"><path
           id="path284"
           style="fill:none;stroke:#000000;stroke-width:0.40000001;stroke-linecap:butt;stroke-linejoin:miter;stroke-miterlimit:4;stroke-dasharray:none;stroke-opacity:1"
           d="m 120.789,20.816 c 0,2.211 -1.789,4 -4,4 -2.207,0 -4,-1.789 -4,-4 0,-2.207 1.793,-4 4,-4 2.211,0 4,1.793 4,4 z" /></g><g
         transform="matrix(1,0,0,-1,0,121.61818)"
         id="g286"><path
           id="path288"
           style="fill:none;stroke:#000000;stroke-width:0.40000001;stroke-linecap:butt;stroke-linejoin:miter;stroke-miterlimit:4;stroke-dasharray:none;stroke-opacity:1"
           d="m 136.789,20.816 c 0,2.211 -1.789,4 -4,4 -2.207,0 -4,-1.789 -4,-4 0,-2.207 1.793,-4 4,-4 2.211,0 4,1.793 4,4 z" /></g><g
         transform="matrix(1,0,0,-1,0,121.61818)"
         id="g290"><path
           id="path292"
           style="fill:none;stroke:#000000;stroke-width:0.40000001;stroke-linecap:butt;stroke-linejoin:miter;stroke-miterlimit:4;stroke-dasharray:none;stroke-opacity:1"
           d="m 152.789,20.816 c 0,2.211 -1.789,4 -4,4 -2.207,0 -4,-1.789 -4,-4 0,-2.207 1.793,-4 4,-4 2.211,0 4,1.793 4,4 z" /></g><g
         transform="matrix(1,0,0,-1,0,121.61818)"
         id="g294"><path
           id="path296"
           style="fill:none;stroke:#000000;stroke-width:0.40000001;stroke-linecap:butt;stroke-linejoin:miter;stroke-miterlimit:4;stroke-dasharray:none;stroke-opacity:1"
           d="m 8.801,4.801 c 0,2.207 -1.793,4 -4,4 -2.211,0 -4,-1.793 -4,-4 0,-2.211 1.789,-4 4,-4 2.207,0 4,1.789 4,4 z" /></g><g
         transform="matrix(1,0,0,-1,0,121.61818)"
         id="g298"><path
           id="path300"
           style="fill:none;stroke:#000000;stroke-width:0.40000001;stroke-linecap:butt;stroke-linejoin:miter;stroke-miterlimit:4;stroke-dasharray:none;stroke-opacity:1"
           d="m 24.801,4.801 c 0,2.207 -1.793,4 -4,4 -2.211,0 -4,-1.793 -4,-4 0,-2.211 1.789,-4 4,-4 2.207,0 4,1.789 4,4 z" /></g><g
         transform="matrix(1,0,0,-1,0,121.61818)"
         id="g302"><path
           id="path304"
           style="fill:none;stroke:#000000;stroke-width:0.40000001;stroke-linecap:butt;stroke-linejoin:miter;stroke-miterlimit:4;stroke-dasharray:none;stroke-opacity:1"
           d="m 40.801,4.801 c 0,2.207 -1.793,4 -4,4 -2.211,0 -4,-1.793 -4,-4 0,-2.211 1.789,-4 4,-4 2.207,0 4,1.789 4,4 z" /></g><g
         transform="matrix(1,0,0,-1,0,121.61818)"
         id="g306"><path
           id="path308"
           style="fill:none;stroke:#000000;stroke-width:0.40000001;stroke-linecap:butt;stroke-linejoin:miter;stroke-miterlimit:4;stroke-dasharray:none;stroke-opacity:1"
           d="m 56.801,4.801 c 0,2.207 -1.793,4 -4,4 -2.211,0 -4,-1.793 -4,-4 0,-2.211 1.789,-4 4,-4 2.207,0 4,1.789 4,4 z" /></g><g
         transform="matrix(1,0,0,-1,0,121.61818)"
         id="g310"><path
           id="path312"
           style="fill:none;stroke:#000000;stroke-width:0.40000001;stroke-linecap:butt;stroke-linejoin:miter;stroke-miterlimit:4;stroke-dasharray:none;stroke-opacity:1"
           d="m 72.801,4.801 c 0,2.207 -1.793,4 -4,4 -2.211,0 -4,-1.793 -4,-4 0,-2.211 1.789,-4 4,-4 2.207,0 4,1.789 4,4 z" /></g><g
         transform="matrix(1,0,0,-1,0,121.61818)"
         id="g314"><path
           id="path316"
           style="fill:none;stroke:#000000;stroke-width:0.40000001;stroke-linecap:butt;stroke-linejoin:miter;stroke-miterlimit:4;stroke-dasharray:none;stroke-opacity:1"
           d="m 88.789,4.816 c 0,2.211 -1.789,4 -4,4 -2.207,0 -4,-1.789 -4,-4 0,-2.207 1.793,-4 4,-4 2.211,0 4,1.793 4,4 z" /></g><g
         transform="matrix(1,0,0,-1,0,121.61818)"
         id="g318"><path
           id="path320"
           style="fill:none;stroke:#000000;stroke-width:0.40000001;stroke-linecap:butt;stroke-linejoin:miter;stroke-miterlimit:4;stroke-dasharray:none;stroke-opacity:1"
           d="m 104.789,4.816 c 0,2.211 -1.789,4 -4,4 -2.207,0 -4,-1.789 -4,-4 0,-2.207 1.793,-4 4,-4 2.211,0 4,1.793 4,4 z" /></g><g
         transform="matrix(1,0,0,-1,0,121.61818)"
         id="g322"><path
           id="path324"
           style="fill:none;stroke:#000000;stroke-width:0.40000001;stroke-linecap:butt;stroke-linejoin:miter;stroke-miterlimit:4;stroke-dasharray:none;stroke-opacity:1"
           d="m 120.789,4.816 c 0,2.211 -1.789,4 -4,4 -2.207,0 -4,-1.789 -4,-4 0,-2.207 1.793,-4 4,-4 2.211,0 4,1.793 4,4 z" /></g><g
         transform="matrix(1,0,0,-1,0,121.61818)"
         id="g326"><path
           id="path328"
           style="fill:none;stroke:#000000;stroke-width:0.40000001;stroke-linecap:butt;stroke-linejoin:miter;stroke-miterlimit:4;stroke-dasharray:none;stroke-opacity:1"
           d="m 136.789,4.816 c 0,2.211 -1.789,4 -4,4 -2.207,0 -4,-1.789 -4,-4 0,-2.207 1.793,-4 4,-4 2.211,0 4,1.793 4,4 z" /></g><g
         transform="matrix(1,0,0,-1,0,121.61818)"
         id="g330"><path
           id="path332"
           style="fill:none;stroke:#000000;stroke-width:0.40000001;stroke-linecap:butt;stroke-linejoin:miter;stroke-miterlimit:4;stroke-dasharray:none;stroke-opacity:1"
           d="m 152.789,4.816 c 0,2.211 -1.789,4 -4,4 -2.207,0 -4,-1.789 -4,-4 0,-2.207 1.793,-4 4,-4 2.211,0 4,1.793 4,4 z" /></g><g
         transform="matrix(1,0,0,-1,0,121.61818)"
         id="g334"><path
           id="path336"
           style="fill:none;stroke:#000000;stroke-width:0.80000001;stroke-linecap:butt;stroke-linejoin:miter;stroke-miterlimit:4;stroke-dasharray:none;stroke-opacity:1"
           d="m 20.793,116.809 v -32 l -16,-16 v -64" /></g><g
         transform="matrix(1,0,0,-1,0,121.61818)"
         id="g338"><path
           id="path340"
           style="fill:none;stroke:#000000;stroke-width:0.80000001;stroke-linecap:butt;stroke-linejoin:miter;stroke-miterlimit:4;stroke-dasharray:none;stroke-opacity:1"
           d="m 4.793,116.809 v -48" /></g><g
         transform="matrix(1,0,0,-1,0,121.61818)"
         id="g342"><path
           id="path344"
           style="fill:none;stroke:#000000;stroke-width:0.80000001;stroke-linecap:butt;stroke-linejoin:miter;stroke-miterlimit:4;stroke-dasharray:none;stroke-opacity:1"
           d="m 52.793,20.809 v 32" /></g><g
         transform="matrix(1,0,0,-1,0,121.61818)"
         id="g346"><path
           id="path348"
           style="fill:none;stroke:#000000;stroke-width:0.80000001;stroke-linecap:butt;stroke-linejoin:miter;stroke-miterlimit:4;stroke-dasharray:none;stroke-opacity:1"
           d="m 20.793,68.809 v -64" /></g><g
         transform="matrix(1,0,0,-1,0,121.61818)"
         id="g350"><path
           id="path352"
           style="fill:none;stroke:#000000;stroke-width:0.80000001;stroke-linecap:butt;stroke-linejoin:miter;stroke-miterlimit:4;stroke-dasharray:none;stroke-opacity:1"
           d="m 36.793,20.809 -16,-16" /></g><g
         transform="matrix(1,0,0,-1,0,121.61818)"
         id="g354"><path
           id="path356"
           style="fill:none;stroke:#000000;stroke-width:0.80000001;stroke-linecap:butt;stroke-linejoin:miter;stroke-miterlimit:4;stroke-dasharray:none;stroke-opacity:1"
           d="m 148.793,68.809 v -48" /></g><g
         transform="matrix(1,0,0,-1,0,121.61818)"
         id="g358"><path
           id="path360"
           style="fill:none;stroke:#000000;stroke-width:0.80000001;stroke-linecap:butt;stroke-linejoin:miter;stroke-miterlimit:4;stroke-dasharray:none;stroke-opacity:1"
           d="m 116.793,36.809 v -32 l 16,16" /></g><g
         transform="matrix(1,0,0,-1,0,121.61818)"
         id="g362"><path
           id="path364"
           style="fill:none;stroke:#000000;stroke-width:0.80000001;stroke-linecap:butt;stroke-linejoin:miter;stroke-miterlimit:4;stroke-dasharray:none;stroke-opacity:1"
           d="m 148.793,84.809 -16,-16 v -32 l 16,-16 v -16" /></g><g
         transform="matrix(1,0,0,-1,0,121.61818)"
         id="g366"><path
           id="path368"
           style="fill:none;stroke:#000000;stroke-width:0.80000001;stroke-linecap:butt;stroke-linejoin:miter;stroke-miterlimit:4;stroke-dasharray:none;stroke-opacity:1"
           d="m 36.793,84.809 v -48 l 16,-16 v -16" /></g><g
         transform="matrix(1,0,0,-1,0,121.61818)"
         id="g370"><path
           id="path372"
           style="fill:none;stroke:#000000;stroke-width:0.80000001;stroke-linecap:butt;stroke-linejoin:miter;stroke-miterlimit:4;stroke-dasharray:none;stroke-opacity:1"
           d="m 52.793,116.809 v -32" /></g><g
         transform="matrix(1,0,0,-1,0,121.61818)"
         id="g374"><path
           id="path376"
           style="fill:none;stroke:#000000;stroke-width:0.80000001;stroke-linecap:butt;stroke-linejoin:miter;stroke-miterlimit:4;stroke-dasharray:none;stroke-opacity:1"
           d="m 84.793,116.809 v -16 l -16,-16" /></g><g
         transform="matrix(1,0,0,-1,0,121.61818)"
         id="g378"><path
           id="path380"
           style="fill:none;stroke:#000000;stroke-width:0.80000001;stroke-linecap:butt;stroke-linejoin:miter;stroke-miterlimit:4;stroke-dasharray:none;stroke-opacity:1"
           d="m 84.793,68.809 v 16" /></g><g
         transform="matrix(1,0,0,-1,0,121.61818)"
         id="g382"><path
           id="path384"
           style="fill:none;stroke:#000000;stroke-width:0.80000001;stroke-linecap:butt;stroke-linejoin:miter;stroke-miterlimit:4;stroke-dasharray:none;stroke-opacity:1"
           d="m 84.793,36.809 16,16 v 16" /></g><g
         transform="matrix(1,0,0,-1,0,121.61818)"
         id="g386"><path
           id="path388"
           style="fill:none;stroke:#000000;stroke-width:0.80000001;stroke-linecap:butt;stroke-linejoin:miter;stroke-miterlimit:4;stroke-dasharray:none;stroke-opacity:1"
           d="m 116.793,100.809 v -16" /></g><g
         transform="matrix(1,0,0,-1,0,121.61818)"
         id="g390"><path
           id="path392"
           style="fill:none;stroke:#000000;stroke-width:0.80000001;stroke-linecap:butt;stroke-linejoin:miter;stroke-miterlimit:4;stroke-dasharray:none;stroke-opacity:1"
           d="m 148.793,116.809 v -16 l -16,-16" /></g><g
         transform="matrix(1,0,0,-1,0,121.61818)"
         id="g394"><path
           id="path396"
           style="fill:none;stroke:#000000;stroke-width:0.80000001;stroke-linecap:butt;stroke-linejoin:miter;stroke-miterlimit:4;stroke-dasharray:none;stroke-opacity:1"
           d="m 132.793,116.809 v -16" /></g><g
         transform="matrix(1,0,0,-1,0,121.61818)"
         id="g398"><path
           id="path400"
           style="fill:none;stroke:#0000f6;stroke-width:0.80000001;stroke-linecap:butt;stroke-linejoin:miter;stroke-miterlimit:4;stroke-dasharray:none;stroke-opacity:1"
           d="m 36.793,116.809 v -16 l 16,-16 v -16 l 16,-16 v -16 l 16,-16 v -16" /></g><g
         transform="matrix(1,0,0,-1,0,121.61818)"
         id="g402"><path
           id="path404"
           style="fill:none;stroke:#0000f6;stroke-width:0.80000001;stroke-linecap:butt;stroke-linejoin:miter;stroke-miterlimit:4;stroke-dasharray:none;stroke-opacity:1"
           d="m 68.793,116.809 v -64" /></g><g
         transform="matrix(1,0,0,-1,0,121.61818)"
         id="g406"><path
           id="path408"
           style="fill:none;stroke:#0000f6;stroke-width:0.72000003;stroke-linecap:butt;stroke-linejoin:miter;stroke-miterlimit:4;stroke-dasharray:none;stroke-opacity:1"
           d="m 116.793,116.809 16,-16 v -16 l -16,-16 v -16 l -16,-16 v -16 l -16,-16" /></g><g
         transform="matrix(1,0,0,-1,0,121.61818)"
         id="g410"><path
           id="path412"
           style="fill:none;stroke:#0000f6;stroke-width:0.80000001;stroke-linecap:butt;stroke-linejoin:miter;stroke-miterlimit:4;stroke-dasharray:none;stroke-opacity:1"
           d="m 100.793,116.809 v -16 l 16,-16 v -16" /></g><g
         transform="matrix(1,0,0,-1,0,121.61818)"
         id="g414"><path
           id="path416"
           style="fill:none;stroke:#ff0000;stroke-width:0.80000001;stroke-linecap:butt;stroke-linejoin:miter;stroke-miterlimit:4;stroke-dasharray:2.4, 0.8;stroke-dashoffset:0;stroke-opacity:1"
           d="m 84.793,20.809 v 48 l 16,16" /></g><g
         transform="matrix(1,0,0,-1,0,121.61818)"
         id="g418"><path
           id="path420"
           style="fill:none;stroke:#ff0000;stroke-width:0.80000001;stroke-linecap:butt;stroke-linejoin:miter;stroke-miterlimit:4;stroke-dasharray:2.4, 0.8;stroke-dashoffset:0;stroke-opacity:1"
           d="m 100.793,100.809 v -16" /></g><g
         transform="matrix(1,0,0,-1,0,121.61818)"
         id="g422"><path
           id="path424"
           style="fill:none;stroke:#000000;stroke-width:0.80000001;stroke-linecap:butt;stroke-linejoin:miter;stroke-miterlimit:4;stroke-dasharray:none;stroke-opacity:1"
           d="m 164.793,4.809 v 112" /></g><path
         id="path426"
         style="fill:#000000;fill-opacity:1;fill-rule:evenodd;stroke:none"
         d="m 168.344,13.36 -3.535,-9.613 -3.536,9.613 c 2.086,-1.535 4.942,-1.527 7.071,0 z" /><path
         id="path428"
         style="fill:#000000;fill-opacity:1;fill-rule:nonzero;stroke:none"
         d="m 168.84,85.575 h 1.578 v 1.297 h 0.641 v -2.078 h -2.5 c -0.219,0.305 -0.387,0.641 -0.5,1.016 -0.102,0.367 -0.157,0.757 -0.157,1.171 0,0.907 0.266,1.622 0.797,2.141 0.531,0.512 1.27,0.766 2.219,0.766 0.957,0 1.703,-0.254 2.234,-0.766 0.532,-0.519 0.797,-1.234 0.797,-2.141 0,-0.382 -0.047,-0.742 -0.14,-1.078 -0.094,-0.343 -0.231,-0.66 -0.407,-0.953 h -0.843 c 0.25,0.293 0.437,0.606 0.562,0.938 0.125,0.324 0.188,0.668 0.188,1.031 0,0.711 -0.204,1.246 -0.61,1.609 -0.398,0.356 -0.992,0.532 -1.781,0.532 -0.781,0 -1.375,-0.176 -1.781,-0.532 -0.399,-0.363 -0.594,-0.898 -0.594,-1.609 0,-0.281 0.023,-0.531 0.078,-0.75 0.051,-0.219 0.125,-0.414 0.219,-0.594 z m 1.547,-5.937 h -0.36 v 3.312 c -0.492,-0.031 -0.867,-0.179 -1.125,-0.453 -0.261,-0.269 -0.39,-0.641 -0.39,-1.109 0,-0.282 0.031,-0.551 0.093,-0.813 0.071,-0.258 0.176,-0.515 0.313,-0.765 h -0.688 c -0.105,0.261 -0.183,0.527 -0.234,0.796 -0.062,0.274 -0.094,0.543 -0.094,0.813 0,0.699 0.203,1.258 0.61,1.672 0.406,0.406 0.953,0.609 1.64,0.609 0.719,0 1.286,-0.191 1.703,-0.578 0.426,-0.394 0.641,-0.922 0.641,-1.578 0,-0.582 -0.195,-1.047 -0.578,-1.391 -0.375,-0.343 -0.887,-0.515 -1.531,-0.515 z m 0.203,0.718 c 0.394,0.012 0.707,0.125 0.937,0.344 0.239,0.211 0.36,0.492 0.36,0.844 0,0.398 -0.117,0.719 -0.344,0.969 -0.231,0.242 -0.547,0.375 -0.953,0.406 z m 0.062,-5.531 h -2.64 v 0.719 h 2.625 c 0.406,0 0.711,0.086 0.922,0.25 0.207,0.156 0.312,0.398 0.312,0.719 0,0.386 -0.125,0.695 -0.375,0.922 -0.25,0.218 -0.59,0.328 -1.016,0.328 h -2.468 v 0.718 h 4.375 v -0.718 h -0.672 c 0.258,-0.164 0.453,-0.364 0.578,-0.594 0.133,-0.238 0.203,-0.508 0.203,-0.813 0,-0.507 -0.156,-0.89 -0.469,-1.14 -0.312,-0.258 -0.773,-0.391 -1.375,-0.391 z m -0.265,-5.187 h -0.36 v 3.312 c -0.492,-0.031 -0.867,-0.179 -1.125,-0.453 -0.261,-0.269 -0.39,-0.641 -0.39,-1.109 0,-0.282 0.031,-0.551 0.093,-0.813 0.071,-0.258 0.176,-0.515 0.313,-0.765 h -0.688 c -0.105,0.261 -0.183,0.527 -0.234,0.796 -0.062,0.274 -0.094,0.543 -0.094,0.813 0,0.699 0.203,1.258 0.61,1.672 0.406,0.406 0.953,0.609 1.64,0.609 0.719,0 1.286,-0.191 1.703,-0.578 0.426,-0.394 0.641,-0.922 0.641,-1.578 0,-0.582 -0.195,-1.047 -0.578,-1.391 -0.375,-0.343 -0.887,-0.515 -1.531,-0.515 z m 0.203,0.718 c 0.394,0.012 0.707,0.125 0.937,0.344 0.239,0.211 0.36,0.492 0.36,0.844 0,0.398 -0.117,0.719 -0.344,0.969 -0.231,0.242 -0.547,0.375 -0.953,0.406 z m 1.125,-4.437 c 0.051,0.086 0.086,0.172 0.109,0.266 0.02,0.093 0.031,0.199 0.031,0.312 0,0.406 -0.136,0.719 -0.406,0.938 -0.261,0.218 -0.637,0.328 -1.125,0.328 h -2.312 v 0.718 h 4.375 v -0.718 h -0.672 c 0.258,-0.145 0.453,-0.336 0.578,-0.578 0.133,-0.25 0.203,-0.547 0.203,-0.891 0,-0.051 -0.008,-0.102 -0.016,-0.156 0,-0.063 -0.011,-0.129 -0.031,-0.203 z m -1.5,-2.75 c 0,0.586 -0.07,0.992 -0.203,1.219 -0.137,0.218 -0.36,0.328 -0.672,0.328 -0.262,0 -0.469,-0.082 -0.625,-0.25 -0.149,-0.164 -0.219,-0.395 -0.219,-0.688 0,-0.394 0.141,-0.711 0.422,-0.953 0.289,-0.238 0.672,-0.359 1.141,-0.359 h 0.156 z m 0.297,-1.422 h -2.5 v 0.719 h 0.672 c -0.274,0.156 -0.469,0.359 -0.594,0.609 -0.125,0.242 -0.188,0.539 -0.188,0.891 0,0.449 0.125,0.808 0.375,1.078 0.25,0.262 0.586,0.391 1.016,0.391 0.488,0 0.859,-0.161 1.109,-0.485 0.25,-0.332 0.375,-0.828 0.375,-1.484 v -1 h 0.063 c 0.332,0 0.586,0.109 0.765,0.328 0.188,0.211 0.282,0.512 0.282,0.906 0,0.25 -0.032,0.496 -0.094,0.735 -0.063,0.242 -0.152,0.468 -0.266,0.687 h 0.657 c 0.101,-0.269 0.179,-0.523 0.234,-0.766 0.051,-0.25 0.078,-0.492 0.078,-0.734 0,-0.625 -0.168,-1.094 -0.5,-1.406 -0.324,-0.313 -0.82,-0.469 -1.484,-0.469 z m 3.125,-2.203 h -1.25 V 58.06 h -0.563 v 1.484 h -2.375 c -0.355,0 -0.586,-0.047 -0.687,-0.141 -0.094,-0.101 -0.141,-0.3 -0.141,-0.593 v -0.75 h -0.609 v 0.75 c 0,0.554 0.101,0.933 0.312,1.14 0.207,0.211 0.582,0.313 1.125,0.313 h 2.375 v 0.531 h 0.563 v -0.531 h 1.25 z m -1.25,-2.422 v -0.719 h -4.375 v 0.719 z m 1.703,0 v -0.719 h -0.906 v 0.719 z M 171.887,53.2 c 0,0.387 -0.153,0.696 -0.453,0.922 -0.305,0.219 -0.715,0.328 -1.235,0.328 -0.523,0 -0.933,-0.109 -1.234,-0.328 -0.305,-0.226 -0.453,-0.535 -0.453,-0.922 0,-0.383 0.148,-0.687 0.453,-0.906 0.301,-0.227 0.711,-0.344 1.234,-0.344 0.52,0 0.93,0.117 1.235,0.344 0.3,0.219 0.453,0.523 0.453,0.906 z m 0.609,0 c 0,-0.625 -0.203,-1.113 -0.609,-1.469 -0.407,-0.351 -0.969,-0.531 -1.688,-0.531 -0.719,0 -1.281,0.18 -1.687,0.531 -0.407,0.356 -0.61,0.844 -0.61,1.469 0,0.625 0.203,1.121 0.61,1.485 0.406,0.355 0.968,0.531 1.687,0.531 0.719,0 1.281,-0.176 1.688,-0.531 0.406,-0.364 0.609,-0.86 0.609,-1.485 z m -1.844,-6.828 h -2.64 v 0.719 h 2.625 c 0.406,0 0.711,0.086 0.922,0.25 0.207,0.156 0.312,0.398 0.312,0.719 0,0.386 -0.125,0.695 -0.375,0.921 -0.25,0.219 -0.59,0.329 -1.016,0.329 h -2.468 v 0.718 h 4.375 V 49.31 h -0.672 c 0.258,-0.164 0.453,-0.364 0.578,-0.594 0.133,-0.238 0.203,-0.508 0.203,-0.813 0,-0.507 -0.156,-0.89 -0.469,-1.14 -0.312,-0.258 -0.773,-0.391 -1.375,-0.391 z m 1.61,-4.234 h -0.688 c 0.102,0.211 0.18,0.422 0.235,0.64 0.05,0.219 0.078,0.446 0.078,0.672 0,0.356 -0.059,0.625 -0.172,0.813 -0.106,0.179 -0.266,0.265 -0.485,0.265 -0.168,0 -0.296,-0.062 -0.39,-0.187 -0.094,-0.133 -0.184,-0.395 -0.266,-0.781 l -0.062,-0.25 c -0.106,-0.508 -0.258,-0.868 -0.453,-1.079 -0.2,-0.218 -0.481,-0.328 -0.844,-0.328 -0.406,0 -0.731,0.164 -0.969,0.485 -0.23,0.324 -0.344,0.765 -0.344,1.328 0,0.23 0.028,0.476 0.078,0.734 0.04,0.25 0.102,0.516 0.188,0.797 h 0.75 c -0.137,-0.258 -0.242,-0.519 -0.313,-0.781 -0.074,-0.258 -0.109,-0.516 -0.109,-0.766 0,-0.344 0.055,-0.601 0.172,-0.781 0.125,-0.188 0.289,-0.281 0.5,-0.281 0.195,0 0.348,0.07 0.453,0.203 0.102,0.137 0.203,0.422 0.297,0.859 l 0.062,0.25 c 0.094,0.449 0.235,0.774 0.422,0.969 0.196,0.199 0.461,0.297 0.797,0.297 0.414,0 0.735,-0.145 0.953,-0.438 0.227,-0.289 0.344,-0.703 0.344,-1.234 0,-0.27 -0.023,-0.52 -0.062,-0.75 -0.043,-0.238 -0.102,-0.457 -0.172,-0.656 z" /><g
         transform="matrix(1,0,0,-1,0,121.61818)"
         id="g430"><path
           id="path432"
           style="fill:#ffffff;fill-opacity:1;fill-rule:nonzero;stroke:#000000;stroke-width:0.40000001;stroke-linecap:butt;stroke-linejoin:miter;stroke-miterlimit:4;stroke-dasharray:none;stroke-opacity:1"
           d="m 95.395,90.504 h 10.398 v 1.598 H 95.395 Z" /></g><g
         transform="matrix(1,0,0,-1,0,121.61818)"
         id="g434"><path
           id="path436"
           style="fill:#ff0000;fill-opacity:1;fill-rule:nonzero;stroke:#000000;stroke-width:0.40000001;stroke-linecap:butt;stroke-linejoin:miter;stroke-miterlimit:4;stroke-dasharray:none;stroke-opacity:1"
           d="m 99.395,90.504 h 2.398 v 1.598 h -2.398 z" /></g><g
         transform="matrix(1,0,0,-1,0,121.61818)"
         id="g438"><path
           id="path440"
           style="fill:#0000ff;fill-opacity:1;fill-rule:nonzero;stroke:#000000;stroke-width:0.40000001;stroke-linecap:butt;stroke-linejoin:miter;stroke-miterlimit:4;stroke-dasharray:none;stroke-opacity:1"
           d="m 102.23,93.609 h 10.402 v 1.602 H 102.23 Z" /></g><g
         transform="matrix(1,0,0,-1,0,121.61818)"
         id="g442"><path
           id="path444"
           style="fill:#ffffff;fill-opacity:1;fill-rule:nonzero;stroke:#000000;stroke-width:0.40000001;stroke-linecap:butt;stroke-linejoin:miter;stroke-miterlimit:4;stroke-dasharray:none;stroke-opacity:1"
           d="m 106.23,93.609 h 2.402 v 1.602 h -2.402 z" /></g><g
         transform="matrix(1,0,0,-1,0,121.61818)"
         id="g446"><path
           id="path448"
           style="fill:none;stroke:#000000;stroke-width:0.80000001;stroke-linecap:butt;stroke-linejoin:miter;stroke-miterlimit:4;stroke-dasharray:none;stroke-opacity:1"
           d="m 68.793,4.809 v 16" /></g></g></g></svg>